  0
SECTION
  2
HEADER
  9
$ACADVER
  1
AC1014
  9
$HANDSEED
  5
FFFF
  9
$MEASUREMENT
 70
     1
  0
ENDSEC
  0
SECTION
  2
TABLES
  0
TABLE
  2
VPORT
  5
8
330
0
100
AcDbSymbolTable
 70
     4
  0
VPORT
  5
2E
330
8
100
AcDbSymbolTableRecord
100
AcDbViewportTableRecord
  2
*ACTIVE
 70
     0
 10
0.0
 20
0.0
 11
1.0
 21
1.0
 12
210.0
 22
148.5
 13
0.0
 23
0.0
 14
10.0
 24
10.0
 15
10.0
 25
10.0
 16
0.0
 26
0.0
 36
1.0
 17
0.0
 27
0.0
 37
0.0
 40
341.0
 41
1.24
 42
50.0
 43
0.0
 44
0.0
 50
0.0
 51
0.0
 71
     0
 72
   100
 73
     1
 74
     3
 75
     0
 76
     0
 77
     0
 78
     0
  0
ENDTAB
  0
TABLE
  2
LTYPE
  5
5
330
0
100
AcDbSymbolTable
 70
     1
  0
LTYPE
  5
14
330
5
100
AcDbSymbolTableRecord
100
AcDbLinetypeTableRecord
  2
BYBLOCK
 70
     0
  3

 72
    65
 73
     0
 40
0.0
  0
LTYPE
  5
15
330
5
100
AcDbSymbolTableRecord
100
AcDbLinetypeTableRecord
  2
BYLAYER
 70
     0
  3

 72
    65
 73
     0
 40
0.0
  0
LTYPE
  5
16
330
5
100
AcDbSymbolTableRecord
100
AcDbLinetypeTableRecord
  2
CONTINUOUS
 70
     0
  3
Solid line
 72
    65
 73
     0
 40
0.0
  0
ENDTAB
  0
TABLE
  2
LAYER
  5
2
100
AcDbSymbolTable
 70
2
  0
LAYER
  5
50
100
AcDbSymbolTableRecord
100
AcDbLayerTableRecord
  2
0
 70
0
  6
CONTINUOUS
  0
LAYER
  5
51
100
AcDbSymbolTableRecord
100
AcDbLayerTableRecord
  2
Layer_1
 70
0
  6
CONTINUOUS
  0
ENDTAB
  0
TABLE
  2
STYLE
  5
3
330
0
100
AcDbSymbolTable
 70
     1
  0
STYLE
  5
11
330
3
100
AcDbSymbolTableRecord
100
AcDbTextStyleTableRecord
  2
STANDARD
 70
     0
 40
0.0
 41
1.0
 50
0.0
 71
     0
 42
2.5
  3
txt
  4

  0
ENDTAB
  0
TABLE
  2
VIEW
  5
6
330
0
100
AcDbSymbolTable
 70
     0
  0
ENDTAB
  0
TABLE
  2
UCS
  5
7
330
0
100
AcDbSymbolTable
 70
     0
  0
ENDTAB
  0
TABLE
  2
APPID
  5
9
330
0
100
AcDbSymbolTable
 70
     2
  0
APPID
  5
12
330
9
100
AcDbSymbolTableRecord
100
AcDbRegAppTableRecord
  2
ACAD
 70
     0
  0
ENDTAB
  0
TABLE
  2
DIMSTYLE
  5
A
330
0
100
AcDbSymbolTable
 70
     1
  0
DIMSTYLE
105
27
330
A
100
AcDbSymbolTableRecord
100
AcDbDimStyleTableRecord
  2
ISO-25
 70
     0
  3

  4

  5

  6

  7

 40
1.0
 41
2.5
 42
0.625
 43
3.75
 44
1.25
 45
0.0
 46
0.0
 47
0.0
 48
0.0
140
2.5
141
2.5
142
0.0
143
0.03937007874016
144
1.0
145
0.0
146
1.0
147
0.625
 71
     0
 72
     0
 73
     0
 74
     0
 75
     0
 76
     0
 77
     1
 78
     8
170
     0
171
     3
172
     1
173
     0
174
     0
175
     0
176
     0
177
     0
178
     0
270
     2
271
     2
272
     2
273
     2
274
     3
340
11
275
     0
280
     0
281
     0
282
     0
283
     0
284
     8
285
     0
286
     0
287
     3
288
     0
  0
ENDTAB
  0
TABLE
  2
BLOCK_RECORD
  5
1
330
0
100
AcDbSymbolTable
 70
     1
  0
BLOCK_RECORD
  5
1F
330
1
100
AcDbSymbolTableRecord
100
AcDbBlockTableRecord
  2
*MODEL_SPACE
  0
BLOCK_RECORD
  5
1B
330
1
100
AcDbSymbolTableRecord
100
AcDbBlockTableRecord
  2
*PAPER_SPACE
  0
ENDTAB
  0
ENDSEC
  0
SECTION
  2
BLOCKS
  0
BLOCK
  5
20
330
1F
100
AcDbEntity
  8
0
100
AcDbBlockBegin
  2
*MODEL_SPACE
 70
     0
 10
0.0
 20
0.0
 30
0.0
  3
*MODEL_SPACE
  1

  0
ENDBLK
  5
21
330
1F
100
AcDbEntity
  8
0
100
AcDbBlockEnd
  0
BLOCK
  5
1C
330
1B
100
AcDbEntity
 67
     1
  8
0
100
AcDbBlockBegin
  2
*PAPER_SPACE
  1

  0
ENDBLK
  5
1D
330
1B
100
AcDbEntity
 67
     1
  8
0
100
AcDbBlockEnd
  0
ENDSEC
  0
SECTION
  2
ENTITIES
  0
LWPOLYLINE
  5
100
100
AcDbEntity
  8
Layer_1
 62
7
100
AcDbPolyline
 90
8
 70
0
 10
350.698490
 20
247.203618
 30
0.0
 10
350.698490
 20
272.203618
 30
0.0
 10
300.548490
 20
272.203618
 30
0.0
 10
300.548490
 20
247.203618
 30
0.0
 10
250.698510
 20
247.203618
 30
0.0
 10
250.698510
 20
272.203618
 30
0.0
 10
130.048520
 20
272.203618
 30
0.0
 10
130.048520
 20
247.203618
 30
0.0
  0
LWPOLYLINE
  5
101
100
AcDbEntity
  8
Layer_1
 62
7
100
AcDbPolyline
 90
2
 70
0
 10
80.198501
 20
247.203618
 30
0.0
 10
130.048520
 20
247.203618
 30
0.0
  0
LWPOLYLINE
  5
102
100
AcDbEntity
  8
Layer_1
 62
7
100
AcDbPolyline
 90
2
 70
0
 10
80.198501
 20
272.203618
 30
0.0
 10
80.198501
 20
247.203618
 30
0.0
  0
LWPOLYLINE
  5
103
100
AcDbEntity
  8
Layer_1
 62
7
100
AcDbPolyline
 90
2
 70
0
 10
30.048501
 20
272.203618
 30
0.0
 10
80.198501
 20
272.203618
 30
0.0
  0
LWPOLYLINE
  5
104
100
AcDbEntity
  8
Layer_1
 62
7
100
AcDbPolyline
 90
2
 70
0
 10
30.048501
 20
247.203618
 30
0.0
 10
30.048501
 20
272.203618
 30
0.0
  0
LWPOLYLINE
  5
105
100
AcDbEntity
  8
Layer_1
 62
7
100
AcDbPolyline
 90
17
 70
0
 10
30.048501
 20
247.203618
 30
0.0
 10
5.048501
 20
247.203618
 30
0.0
 10
5.048501
 20
207.053617
 30
0.0
 10
30.048501
 20
207.053617
 30
0.0
 10
30.048501
 20
167.203620
 30
0.0
 10
5.048501
 20
167.203620
 30
0.0
 10
5.048501
 20
110.053620
 30
0.0
 10
30.048501
 20
110.053620
 30
0.0
 10
30.048501
 20
70.203620
 30
0.0
 10
5.048501
 20
70.203620
 30
0.0
 10
5.048501
 20
30.053620
 30
0.0
 10
30.048501
 20
30.053620
 30
0.0
 10
30.048501
 20
5.053620
 30
0.0
 10
80.198501
 20
5.053620
 30
0.0
 10
80.198501
 20
30.053620
 30
0.0
 10
130.048520
 20
30.053620
 30
0.0
 10
130.048520
 20
5.053620
 30
0.0
  0
LWPOLYLINE
  5
106
100
AcDbEntity
  8
Layer_1
 62
7
100
AcDbPolyline
 90
2
 70
0
 10
250.698510
 20
5.053620
 30
0.0
 10
130.048520
 20
5.053620
 30
0.0
  0
LWPOLYLINE
  5
107
100
AcDbEntity
  8
Layer_1
 62
7
100
AcDbPolyline
 90
2
 70
0
 10
250.698510
 20
30.053620
 30
0.0
 10
250.698510
 20
5.053620
 30
0.0
  0
LWPOLYLINE
  5
108
100
AcDbEntity
  8
Layer_1
 62
7
100
AcDbPolyline
 90
2
 70
0
 10
300.548490
 20
30.053620
 30
0.0
 10
250.698510
 20
30.053620
 30
0.0
  0
LWPOLYLINE
  5
109
100
AcDbEntity
  8
Layer_1
 62
7
100
AcDbPolyline
 90
2
 70
0
 10
300.548490
 20
5.053620
 30
0.0
 10
300.548490
 20
30.053620
 30
0.0
  0
LWPOLYLINE
  5
10a
100
AcDbEntity
  8
Layer_1
 62
7
100
AcDbPolyline
 90
2
 70
0
 10
350.698490
 20
5.053620
 30
0.0
 10
300.548490
 20
5.053620
 30
0.0
  0
LWPOLYLINE
  5
10b
100
AcDbEntity
  8
Layer_1
 62
7
100
AcDbPolyline
 90
2
 70
0
 10
350.698490
 20
30.053620
 30
0.0
 10
350.698490
 20
5.053620
 30
0.0
  0
LWPOLYLINE
  5
10c
100
AcDbEntity
  8
Layer_1
 62
7
100
AcDbPolyline
 90
2
 70
0
 10
375.698490
 20
30.053620
 30
0.0
 10
350.698490
 20
30.053620
 30
0.0
  0
LWPOLYLINE
  5
10d
100
AcDbEntity
  8
Layer_1
 62
7
100
AcDbPolyline
 90
2
 70
0
 10
375.698490
 20
70.203620
 30
0.0
 10
375.698490
 20
30.053620
 30
0.0
  0
LWPOLYLINE
  5
10e
100
AcDbEntity
  8
Layer_1
 62
7
100
AcDbPolyline
 90
2
 70
0
 10
350.698490
 20
70.203620
 30
0.0
 10
375.698490
 20
70.203620
 30
0.0
  0
LWPOLYLINE
  5
10f
100
AcDbEntity
  8
Layer_1
 62
7
100
AcDbPolyline
 90
2
 70
0
 10
350.698490
 20
110.053620
 30
0.0
 10
350.698490
 20
70.203620
 30
0.0
  0
LWPOLYLINE
  5
110
100
AcDbEntity
  8
Layer_1
 62
7
100
AcDbPolyline
 90
2
 70
0
 10
375.698490
 20
110.053620
 30
0.0
 10
350.698490
 20
110.053620
 30
0.0
  0
LWPOLYLINE
  5
111
100
AcDbEntity
  8
Layer_1
 62
7
100
AcDbPolyline
 90
2
 70
0
 10
375.698490
 20
167.203620
 30
0.0
 10
375.698490
 20
110.053620
 30
0.0
  0
LWPOLYLINE
  5
112
100
AcDbEntity
  8
Layer_1
 62
7
100
AcDbPolyline
 90
2
 70
0
 10
350.698490
 20
167.203620
 30
0.0
 10
375.698490
 20
167.203620
 30
0.0
  0
LWPOLYLINE
  5
113
100
AcDbEntity
  8
Layer_1
 62
7
100
AcDbPolyline
 90
2
 70
0
 10
350.698490
 20
207.053617
 30
0.0
 10
350.698490
 20
167.203620
 30
0.0
  0
LWPOLYLINE
  5
114
100
AcDbEntity
  8
Layer_1
 62
7
100
AcDbPolyline
 90
2
 70
0
 10
375.698490
 20
207.053617
 30
0.0
 10
350.698490
 20
207.053617
 30
0.0
  0
LWPOLYLINE
  5
115
100
AcDbEntity
  8
Layer_1
 62
7
100
AcDbPolyline
 90
2
 70
0
 10
375.698490
 20
247.203618
 30
0.0
 10
375.698490
 20
207.053617
 30
0.0
  0
LWPOLYLINE
  5
116
100
AcDbEntity
  8
Layer_1
 62
7
100
AcDbPolyline
 90
2
 70
0
 10
350.698490
 20
247.203618
 30
0.0
 10
375.698490
 20
247.203618
 30
0.0
  0
LWPOLYLINE
  5
117
100
AcDbEntity
  8
Layer_1
 62
7
100
AcDbPolyline
 90
8
 70
0
 10
350.644690
 20
521.046620
 30
0.0
 10
350.644690
 20
546.046620
 30
0.0
 10
300.494190
 20
546.046620
 30
0.0
 10
300.494190
 20
521.046620
 30
0.0
 10
250.644210
 20
521.046620
 30
0.0
 10
250.644210
 20
546.046620
 30
0.0
 10
129.994210
 20
546.046620
 30
0.0
 10
129.994210
 20
521.046620
 30
0.0
  0
LWPOLYLINE
  5
118
100
AcDbEntity
  8
Layer_1
 62
7
100
AcDbPolyline
 90
2
 70
0
 10
80.144191
 20
521.046620
 30
0.0
 10
129.994210
 20
521.046620
 30
0.0
  0
LWPOLYLINE
  5
119
100
AcDbEntity
  8
Layer_1
 62
7
100
AcDbPolyline
 90
2
 70
0
 10
80.144191
 20
546.046620
 30
0.0
 10
80.144191
 20
521.046620
 30
0.0
  0
LWPOLYLINE
  5
11a
100
AcDbEntity
  8
Layer_1
 62
7
100
AcDbPolyline
 90
2
 70
0
 10
29.994191
 20
546.046620
 30
0.0
 10
80.144191
 20
546.046620
 30
0.0
  0
LWPOLYLINE
  5
11b
100
AcDbEntity
  8
Layer_1
 62
7
100
AcDbPolyline
 90
2
 70
0
 10
29.994191
 20
521.046620
 30
0.0
 10
29.994191
 20
546.046620
 30
0.0
  0
LWPOLYLINE
  5
11c
100
AcDbEntity
  8
Layer_1
 62
7
100
AcDbPolyline
 90
17
 70
0
 10
29.994191
 20
521.046620
 30
0.0
 10
4.994191
 20
521.046620
 30
0.0
 10
4.994191
 20
480.896620
 30
0.0
 10
29.994191
 20
480.896620
 30
0.0
 10
29.994191
 20
441.046620
 30
0.0
 10
4.994191
 20
441.046620
 30
0.0
 10
4.994191
 20
383.896616
 30
0.0
 10
29.994191
 20
383.896616
 30
0.0
 10
29.994191
 20
344.046656
 30
0.0
 10
4.994191
 20
344.046656
 30
0.0
 10
4.994191
 20
303.896636
 30
0.0
 10
29.994191
 20
303.896636
 30
0.0
 10
29.994191
 20
278.896626
 30
0.0
 10
80.144191
 20
278.896626
 30
0.0
 10
80.144191
 20
303.896636
 30
0.0
 10
129.994210
 20
303.896636
 30
0.0
 10
129.994210
 20
278.896626
 30
0.0
  0
LWPOLYLINE
  5
11d
100
AcDbEntity
  8
Layer_1
 62
7
100
AcDbPolyline
 90
2
 70
0
 10
250.644210
 20
278.896626
 30
0.0
 10
129.994210
 20
278.896626
 30
0.0
  0
LWPOLYLINE
  5
11e
100
AcDbEntity
  8
Layer_1
 62
7
100
AcDbPolyline
 90
2
 70
0
 10
250.644210
 20
303.896636
 30
0.0
 10
250.644210
 20
278.896626
 30
0.0
  0
LWPOLYLINE
  5
11f
100
AcDbEntity
  8
Layer_1
 62
7
100
AcDbPolyline
 90
2
 70
0
 10
300.494190
 20
303.896636
 30
0.0
 10
250.644210
 20
303.896636
 30
0.0
  0
LWPOLYLINE
  5
120
100
AcDbEntity
  8
Layer_1
 62
7
100
AcDbPolyline
 90
2
 70
0
 10
300.494190
 20
278.896626
 30
0.0
 10
300.494190
 20
303.896636
 30
0.0
  0
LWPOLYLINE
  5
121
100
AcDbEntity
  8
Layer_1
 62
7
100
AcDbPolyline
 90
2
 70
0
 10
350.644690
 20
278.896626
 30
0.0
 10
300.494190
 20
278.896626
 30
0.0
  0
LWPOLYLINE
  5
122
100
AcDbEntity
  8
Layer_1
 62
7
100
AcDbPolyline
 90
2
 70
0
 10
350.644690
 20
303.896636
 30
0.0
 10
350.644690
 20
278.896626
 30
0.0
  0
LWPOLYLINE
  5
123
100
AcDbEntity
  8
Layer_1
 62
7
100
AcDbPolyline
 90
2
 70
0
 10
375.644700
 20
303.896636
 30
0.0
 10
350.644690
 20
303.896636
 30
0.0
  0
LWPOLYLINE
  5
124
100
AcDbEntity
  8
Layer_1
 62
7
100
AcDbPolyline
 90
2
 70
0
 10
375.644700
 20
344.046656
 30
0.0
 10
375.644700
 20
303.896636
 30
0.0
  0
LWPOLYLINE
  5
125
100
AcDbEntity
  8
Layer_1
 62
7
100
AcDbPolyline
 90
2
 70
0
 10
350.644690
 20
344.046656
 30
0.0
 10
375.644700
 20
344.046656
 30
0.0
  0
LWPOLYLINE
  5
126
100
AcDbEntity
  8
Layer_1
 62
7
100
AcDbPolyline
 90
2
 70
0
 10
350.644690
 20
383.896616
 30
0.0
 10
350.644690
 20
344.046656
 30
0.0
  0
LWPOLYLINE
  5
127
100
AcDbEntity
  8
Layer_1
 62
7
100
AcDbPolyline
 90
2
 70
0
 10
375.644700
 20
383.896616
 30
0.0
 10
350.644690
 20
383.896616
 30
0.0
  0
LWPOLYLINE
  5
128
100
AcDbEntity
  8
Layer_1
 62
7
100
AcDbPolyline
 90
2
 70
0
 10
375.644700
 20
441.046620
 30
0.0
 10
375.644700
 20
383.896616
 30
0.0
  0
LWPOLYLINE
  5
129
100
AcDbEntity
  8
Layer_1
 62
7
100
AcDbPolyline
 90
2
 70
0
 10
350.644690
 20
441.046620
 30
0.0
 10
375.644700
 20
441.046620
 30
0.0
  0
LWPOLYLINE
  5
12a
100
AcDbEntity
  8
Layer_1
 62
7
100
AcDbPolyline
 90
2
 70
0
 10
350.644690
 20
480.896620
 30
0.0
 10
350.644690
 20
441.046620
 30
0.0
  0
LWPOLYLINE
  5
12b
100
AcDbEntity
  8
Layer_1
 62
7
100
AcDbPolyline
 90
2
 70
0
 10
375.644700
 20
480.896620
 30
0.0
 10
350.644690
 20
480.896620
 30
0.0
  0
LWPOLYLINE
  5
12c
100
AcDbEntity
  8
Layer_1
 62
7
100
AcDbPolyline
 90
2
 70
0
 10
375.644700
 20
521.046620
 30
0.0
 10
375.644700
 20
480.896620
 30
0.0
  0
LWPOLYLINE
  5
12d
100
AcDbEntity
  8
Layer_1
 62
7
100
AcDbPolyline
 90
2
 70
0
 10
350.644690
 20
521.046620
 30
0.0
 10
375.644700
 20
521.046620
 30
0.0
  0
LWPOLYLINE
  5
12e
100
AcDbEntity
  8
Layer_1
 62
7
100
AcDbPolyline
 90
2
 70
0
 10
442.788010
 20
350.703400
 30
0.0
 10
417.788000
 20
350.703400
 30
0.0
  0
LWPOLYLINE
  5
12f
100
AcDbEntity
  8
Layer_1
 62
7
100
AcDbPolyline
 90
2
 70
0
 10
442.788010
 20
375.703400
 30
0.0
 10
442.788010
 20
350.703400
 30
0.0
  0
LWPOLYLINE
  5
130
100
AcDbEntity
  8
Layer_1
 62
7
100
AcDbPolyline
 90
2
 70
0
 10
467.938030
 20
375.703400
 30
0.0
 10
442.788010
 20
375.703400
 30
0.0
  0
LWPOLYLINE
  5
131
100
AcDbEntity
  8
Layer_1
 62
7
100
AcDbPolyline
 90
2
 70
0
 10
467.938030
 20
350.703400
 30
0.0
 10
467.938030
 20
375.703400
 30
0.0
  0
LWPOLYLINE
  5
132
100
AcDbEntity
  8
Layer_1
 62
7
100
AcDbPolyline
 90
2
 70
0
 10
513.787990
 20
350.703400
 30
0.0
 10
467.938030
 20
350.703400
 30
0.0
  0
LWPOLYLINE
  5
133
100
AcDbEntity
  8
Layer_1
 62
7
100
AcDbPolyline
 90
2
 70
0
 10
513.787990
 20
375.703400
 30
0.0
 10
513.787990
 20
350.703400
 30
0.0
  0
LWPOLYLINE
  5
134
100
AcDbEntity
  8
Layer_1
 62
7
100
AcDbPolyline
 90
2
 70
0
 10
538.937990
 20
375.703400
 30
0.0
 10
513.787990
 20
375.703400
 30
0.0
  0
LWPOLYLINE
  5
135
100
AcDbEntity
  8
Layer_1
 62
7
100
AcDbPolyline
 90
2
 70
0
 10
538.937990
 20
350.703400
 30
0.0
 10
538.937990
 20
375.703400
 30
0.0
  0
LWPOLYLINE
  5
136
100
AcDbEntity
  8
Layer_1
 62
7
100
AcDbPolyline
 90
2
 70
0
 10
563.937990
 20
350.703400
 30
0.0
 10
538.937990
 20
350.703400
 30
0.0
  0
LWPOLYLINE
  5
137
100
AcDbEntity
  8
Layer_1
 62
7
100
AcDbPolyline
 90
28
 70
0
 10
563.937990
 20
350.703400
 30
0.0
 10
563.937990
 20
300.703395
 30
0.0
 10
588.937990
 20
300.703395
 30
0.0
 10
588.937990
 20
250.553405
 30
0.0
 10
563.937990
 20
250.553405
 30
0.0
 10
563.937990
 20
130.203420
 30
0.0
 10
588.937990
 20
130.203420
 30
0.0
 10
588.937990
 20
80.053420
 30
0.0
 10
563.937990
 20
80.053420
 30
0.0
 10
563.937990
 20
30.053620
 30
0.0
 10
538.937990
 20
30.053620
 30
0.0
 10
538.937990
 20
5.053620
 30
0.0
 10
513.787990
 20
5.053620
 30
0.0
 10
513.787990
 20
30.053620
 30
0.0
 10
467.938030
 20
30.053620
 30
0.0
 10
467.938030
 20
5.053620
 30
0.0
 10
442.788010
 20
5.053620
 30
0.0
 10
442.788010
 20
30.053620
 30
0.0
 10
417.788000
 20
30.053620
 30
0.0
 10
417.788000
 20
80.053420
 30
0.0
 10
392.788030
 20
80.053420
 30
0.0
 10
392.788030
 20
130.203420
 30
0.0
 10
417.788000
 20
130.203420
 30
0.0
 10
417.788000
 20
250.553405
 30
0.0
 10
392.788030
 20
250.553405
 30
0.0
 10
392.788030
 20
300.703395
 30
0.0
 10
417.788000
 20
300.703395
 30
0.0
 10
417.788000
 20
350.703400
 30
0.0
  0
LWPOLYLINE
  5
138
100
AcDbEntity
  8
Layer_1
 62
7
100
AcDbPolyline
 90
2
 70
0
 10
538.937980
 20
457.105400
 30
0.0
 10
563.937990
 20
457.105400
 30
0.0
  0
LWPOLYLINE
  5
139
100
AcDbEntity
  8
Layer_1
 62
7
100
AcDbPolyline
 90
2
 70
0
 10
538.937980
 20
432.105400
 30
0.0
 10
538.937980
 20
457.105400
 30
0.0
  0
LWPOLYLINE
  5
13a
100
AcDbEntity
  8
Layer_1
 62
7
100
AcDbPolyline
 90
2
 70
0
 10
513.787980
 20
432.105400
 30
0.0
 10
538.937980
 20
432.105400
 30
0.0
  0
LWPOLYLINE
  5
13b
100
AcDbEntity
  8
Layer_1
 62
7
100
AcDbPolyline
 90
2
 70
0
 10
513.787980
 20
457.105400
 30
0.0
 10
513.787980
 20
432.105400
 30
0.0
  0
LWPOLYLINE
  5
13c
100
AcDbEntity
  8
Layer_1
 62
7
100
AcDbPolyline
 90
2
 70
0
 10
467.937990
 20
457.105400
 30
0.0
 10
513.787980
 20
457.105400
 30
0.0
  0
LWPOLYLINE
  5
13d
100
AcDbEntity
  8
Layer_1
 62
7
100
AcDbPolyline
 90
2
 70
0
 10
467.937990
 20
432.105400
 30
0.0
 10
467.937990
 20
457.105400
 30
0.0
  0
LWPOLYLINE
  5
13e
100
AcDbEntity
  8
Layer_1
 62
7
100
AcDbPolyline
 90
2
 70
0
 10
442.788000
 20
432.105400
 30
0.0
 10
467.937990
 20
432.105400
 30
0.0
  0
LWPOLYLINE
  5
13f
100
AcDbEntity
  8
Layer_1
 62
7
100
AcDbPolyline
 90
2
 70
0
 10
442.788000
 20
457.105400
 30
0.0
 10
442.788000
 20
432.105400
 30
0.0
  0
LWPOLYLINE
  5
140
100
AcDbEntity
  8
Layer_1
 62
7
100
AcDbPolyline
 90
2
 70
0
 10
417.787990
 20
457.105400
 30
0.0
 10
442.788000
 20
457.105400
 30
0.0
  0
LWPOLYLINE
  5
141
100
AcDbEntity
  8
Layer_1
 62
7
100
AcDbPolyline
 90
28
 70
0
 10
417.787990
 20
457.105400
 30
0.0
 10
417.787990
 20
507.105400
 30
0.0
 10
392.787990
 20
507.105400
 30
0.0
 10
392.787990
 20
557.255300
 30
0.0
 10
417.787990
 20
557.255300
 30
0.0
 10
417.787990
 20
677.605340
 30
0.0
 10
392.787990
 20
677.605340
 30
0.0
 10
392.787990
 20
727.755340
 30
0.0
 10
417.787990
 20
727.755340
 30
0.0
 10
417.787990
 20
777.755670
 30
0.0
 10
442.788000
 20
777.755670
 30
0.0
 10
442.788000
 20
802.755640
 30
0.0
 10
467.937990
 20
802.755640
 30
0.0
 10
467.937990
 20
777.755670
 30
0.0
 10
513.787980
 20
777.755670
 30
0.0
 10
513.787980
 20
802.755640
 30
0.0
 10
538.937980
 20
802.755640
 30
0.0
 10
538.937980
 20
777.755670
 30
0.0
 10
563.937990
 20
777.755670
 30
0.0
 10
563.937990
 20
727.755340
 30
0.0
 10
588.937990
 20
727.755340
 30
0.0
 10
588.937990
 20
677.605340
 30
0.0
 10
563.937990
 20
677.605340
 30
0.0
 10
563.937990
 20
557.255300
 30
0.0
 10
588.937990
 20
557.255300
 30
0.0
 10
588.937990
 20
507.105400
 30
0.0
 10
563.937990
 20
507.105400
 30
0.0
 10
563.937990
 20
457.105400
 30
0.0
  0
LWPOLYLINE
  5
142
100
AcDbEntity
  8
Layer_1
 62
7
100
AcDbPolyline
 90
2
 70
0
 10
176.144190
 20
633.762660
 30
0.0
 10
176.144190
 20
568.762660
 30
0.0
  0
LWPOLYLINE
  5
143
100
AcDbEntity
  8
Layer_1
 62
7
100
AcDbPolyline
 90
2
 70
0
 10
176.144190
 20
835.912550
 30
0.0
 10
176.144190
 20
770.912550
 30
0.0
  0
LWPOLYLINE
  5
144
100
AcDbEntity
  8
Layer_1
 62
7
100
AcDbPolyline
 90
2
 70
0
 10
29.994161
 20
770.912550
 30
0.0
 10
29.994161
 20
835.912550
 30
0.0
  0
LWPOLYLINE
  5
145
100
AcDbEntity
  8
Layer_1
 62
7
100
AcDbPolyline
 90
2
 70
0
 10
29.994161
 20
568.762660
 30
0.0
 10
29.994161
 20
633.762660
 30
0.0
  0
LWPOLYLINE
  5
146
100
AcDbEntity
  8
Layer_1
 62
7
100
AcDbPolyline
 90
2
 70
0
 10
55.144181
 20
568.762660
 30
0.0
 10
29.994161
 20
568.762660
 30
0.0
  0
LWPOLYLINE
  5
147
100
AcDbEntity
  8
Layer_1
 62
7
100
AcDbPolyline
 90
2
 70
0
 10
55.144181
 20
593.762660
 30
0.0
 10
55.144181
 20
568.762660
 30
0.0
  0
LWPOLYLINE
  5
148
100
AcDbEntity
  8
Layer_1
 62
7
100
AcDbPolyline
 90
2
 70
0
 10
79.994171
 20
593.762660
 30
0.0
 10
55.144181
 20
593.762660
 30
0.0
  0
LWPOLYLINE
  5
149
100
AcDbEntity
  8
Layer_1
 62
7
100
AcDbPolyline
 90
2
 70
0
 10
79.994171
 20
568.762660
 30
0.0
 10
79.994171
 20
593.762660
 30
0.0
  0
LWPOLYLINE
  5
14a
100
AcDbEntity
  8
Layer_1
 62
7
100
AcDbPolyline
 90
2
 70
0
 10
126.144180
 20
568.762660
 30
0.0
 10
79.994171
 20
568.762660
 30
0.0
  0
LWPOLYLINE
  5
14b
100
AcDbEntity
  8
Layer_1
 62
7
100
AcDbPolyline
 90
2
 70
0
 10
126.144180
 20
593.762660
 30
0.0
 10
126.144180
 20
568.762660
 30
0.0
  0
LWPOLYLINE
  5
14c
100
AcDbEntity
  8
Layer_1
 62
7
100
AcDbPolyline
 90
2
 70
0
 10
150.994190
 20
593.762660
 30
0.0
 10
126.144180
 20
593.762660
 30
0.0
  0
LWPOLYLINE
  5
14d
100
AcDbEntity
  8
Layer_1
 62
7
100
AcDbPolyline
 90
2
 70
0
 10
150.994190
 20
568.762660
 30
0.0
 10
150.994190
 20
593.762660
 30
0.0
  0
LWPOLYLINE
  5
14e
100
AcDbEntity
  8
Layer_1
 62
7
100
AcDbPolyline
 90
2
 70
0
 10
176.144190
 20
568.762660
 30
0.0
 10
150.994190
 20
568.762660
 30
0.0
  0
LWPOLYLINE
  5
14f
100
AcDbEntity
  8
Layer_1
 62
7
100
AcDbPolyline
 90
2
 70
0
 10
201.144190
 20
633.762660
 30
0.0
 10
176.144190
 20
633.762660
 30
0.0
  0
LWPOLYLINE
  5
150
100
AcDbEntity
  8
Layer_1
 62
7
100
AcDbPolyline
 90
2
 70
0
 10
201.144190
 20
673.912650
 30
0.0
 10
201.144190
 20
633.762660
 30
0.0
  0
LWPOLYLINE
  5
151
100
AcDbEntity
  8
Layer_1
 62
7
100
AcDbPolyline
 90
2
 70
0
 10
176.144190
 20
673.912650
 30
0.0
 10
201.144190
 20
673.912650
 30
0.0
  0
LWPOLYLINE
  5
152
100
AcDbEntity
  8
Layer_1
 62
7
100
AcDbPolyline
 90
2
 70
0
 10
176.144190
 20
730.762560
 30
0.0
 10
176.144190
 20
673.912650
 30
0.0
  0
LWPOLYLINE
  5
153
100
AcDbEntity
  8
Layer_1
 62
7
100
AcDbPolyline
 90
2
 70
0
 10
201.144190
 20
730.762560
 30
0.0
 10
176.144190
 20
730.762560
 30
0.0
  0
LWPOLYLINE
  5
154
100
AcDbEntity
  8
Layer_1
 62
7
100
AcDbPolyline
 90
2
 70
0
 10
201.144190
 20
770.912550
 30
0.0
 10
201.144190
 20
730.762560
 30
0.0
  0
LWPOLYLINE
  5
155
100
AcDbEntity
  8
Layer_1
 62
7
100
AcDbPolyline
 90
2
 70
0
 10
176.144190
 20
770.912550
 30
0.0
 10
201.144190
 20
770.912550
 30
0.0
  0
LWPOLYLINE
  5
156
100
AcDbEntity
  8
Layer_1
 62
7
100
AcDbPolyline
 90
10
 70
0
 10
176.144190
 20
835.912550
 30
0.0
 10
150.994190
 20
835.912550
 30
0.0
 10
150.994190
 20
810.912550
 30
0.0
 10
126.144180
 20
810.912550
 30
0.0
 10
126.144180
 20
835.912550
 30
0.0
 10
79.994171
 20
835.912550
 30
0.0
 10
79.994171
 20
810.912550
 30
0.0
 10
55.144181
 20
810.912550
 30
0.0
 10
55.144181
 20
835.912550
 30
0.0
 10
29.994161
 20
835.912550
 30
0.0
  0
LWPOLYLINE
  5
157
100
AcDbEntity
  8
Layer_1
 62
7
100
AcDbPolyline
 90
8
 70
0
 10
29.994161
 20
770.912550
 30
0.0
 10
4.994191
 20
770.912550
 30
0.0
 10
4.994191
 20
730.762560
 30
0.0
 10
29.994161
 20
730.762560
 30
0.0
 10
29.994161
 20
673.912650
 30
0.0
 10
4.994191
 20
673.912650
 30
0.0
 10
4.994191
 20
633.762660
 30
0.0
 10
29.994161
 20
633.762660
 30
0.0
  0
LWPOLYLINE
  5
158
100
AcDbEntity
  8
Layer_1
 62
7
100
AcDbPolyline
 90
2
 70
0
 10
377.300180
 20
633.762660
 30
0.0
 10
377.300180
 20
568.762650
 30
0.0
  0
LWPOLYLINE
  5
159
100
AcDbEntity
  8
Layer_1
 62
7
100
AcDbPolyline
 90
2
 70
0
 10
377.300180
 20
835.912550
 30
0.0
 10
377.300180
 20
770.912550
 30
0.0
  0
LWPOLYLINE
  5
15a
100
AcDbEntity
  8
Layer_1
 62
7
100
AcDbPolyline
 90
2
 70
0
 10
231.150160
 20
770.912550
 30
0.0
 10
231.150160
 20
835.912550
 30
0.0
  0
LWPOLYLINE
  5
15b
100
AcDbEntity
  8
Layer_1
 62
7
100
AcDbPolyline
 90
2
 70
0
 10
231.150160
 20
568.762650
 30
0.0
 10
231.150160
 20
633.762660
 30
0.0
  0
LWPOLYLINE
  5
15c
100
AcDbEntity
  8
Layer_1
 62
7
100
AcDbPolyline
 90
2
 70
0
 10
256.300180
 20
568.762650
 30
0.0
 10
231.150160
 20
568.762650
 30
0.0
  0
LWPOLYLINE
  5
15d
100
AcDbEntity
  8
Layer_1
 62
7
100
AcDbPolyline
 90
2
 70
0
 10
256.300180
 20
593.762660
 30
0.0
 10
256.300180
 20
568.762650
 30
0.0
  0
LWPOLYLINE
  5
15e
100
AcDbEntity
  8
Layer_1
 62
7
100
AcDbPolyline
 90
2
 70
0
 10
281.150170
 20
593.762660
 30
0.0
 10
256.300180
 20
593.762660
 30
0.0
  0
LWPOLYLINE
  5
15f
100
AcDbEntity
  8
Layer_1
 62
7
100
AcDbPolyline
 90
2
 70
0
 10
281.150170
 20
568.762650
 30
0.0
 10
281.150170
 20
593.762660
 30
0.0
  0
LWPOLYLINE
  5
160
100
AcDbEntity
  8
Layer_1
 62
7
100
AcDbPolyline
 90
2
 70
0
 10
327.300170
 20
568.762650
 30
0.0
 10
281.150170
 20
568.762650
 30
0.0
  0
LWPOLYLINE
  5
161
100
AcDbEntity
  8
Layer_1
 62
7
100
AcDbPolyline
 90
2
 70
0
 10
327.300170
 20
593.762660
 30
0.0
 10
327.300170
 20
568.762650
 30
0.0
  0
LWPOLYLINE
  5
162
100
AcDbEntity
  8
Layer_1
 62
7
100
AcDbPolyline
 90
2
 70
0
 10
352.150190
 20
593.762660
 30
0.0
 10
327.300170
 20
593.762660
 30
0.0
  0
LWPOLYLINE
  5
163
100
AcDbEntity
  8
Layer_1
 62
7
100
AcDbPolyline
 90
2
 70
0
 10
352.150190
 20
568.762650
 30
0.0
 10
352.150190
 20
593.762660
 30
0.0
  0
LWPOLYLINE
  5
164
100
AcDbEntity
  8
Layer_1
 62
7
100
AcDbPolyline
 90
2
 70
0
 10
377.300180
 20
568.762650
 30
0.0
 10
352.150190
 20
568.762650
 30
0.0
  0
LWPOLYLINE
  5
165
100
AcDbEntity
  8
Layer_1
 62
7
100
AcDbPolyline
 90
2
 70
0
 10
402.300180
 20
633.762660
 30
0.0
 10
377.300180
 20
633.762660
 30
0.0
  0
LWPOLYLINE
  5
166
100
AcDbEntity
  8
Layer_1
 62
7
100
AcDbPolyline
 90
2
 70
0
 10
402.300180
 20
673.912650
 30
0.0
 10
402.300180
 20
633.762660
 30
0.0
  0
LWPOLYLINE
  5
167
100
AcDbEntity
  8
Layer_1
 62
7
100
AcDbPolyline
 90
2
 70
0
 10
377.300180
 20
673.912650
 30
0.0
 10
402.300180
 20
673.912650
 30
0.0
  0
LWPOLYLINE
  5
168
100
AcDbEntity
  8
Layer_1
 62
7
100
AcDbPolyline
 90
2
 70
0
 10
377.300180
 20
730.762560
 30
0.0
 10
377.300180
 20
673.912650
 30
0.0
  0
LWPOLYLINE
  5
169
100
AcDbEntity
  8
Layer_1
 62
7
100
AcDbPolyline
 90
2
 70
0
 10
402.300180
 20
730.762560
 30
0.0
 10
377.300180
 20
730.762560
 30
0.0
  0
LWPOLYLINE
  5
16a
100
AcDbEntity
  8
Layer_1
 62
7
100
AcDbPolyline
 90
2
 70
0
 10
402.300180
 20
770.912550
 30
0.0
 10
402.300180
 20
730.762560
 30
0.0
  0
LWPOLYLINE
  5
16b
100
AcDbEntity
  8
Layer_1
 62
7
100
AcDbPolyline
 90
2
 70
0
 10
377.300180
 20
770.912550
 30
0.0
 10
402.300180
 20
770.912550
 30
0.0
  0
LWPOLYLINE
  5
16c
100
AcDbEntity
  8
Layer_1
 62
7
100
AcDbPolyline
 90
10
 70
0
 10
377.300180
 20
835.912550
 30
0.0
 10
352.150190
 20
835.912550
 30
0.0
 10
352.150190
 20
810.912550
 30
0.0
 10
327.300170
 20
810.912550
 30
0.0
 10
327.300170
 20
835.912550
 30
0.0
 10
281.150170
 20
835.912550
 30
0.0
 10
281.150170
 20
810.912550
 30
0.0
 10
256.300180
 20
810.912550
 30
0.0
 10
256.300180
 20
835.912550
 30
0.0
 10
231.150160
 20
835.912550
 30
0.0
  0
LWPOLYLINE
  5
16d
100
AcDbEntity
  8
Layer_1
 62
7
100
AcDbPolyline
 90
8
 70
0
 10
231.150160
 20
770.912550
 30
0.0
 10
206.150190
 20
770.912550
 30
0.0
 10
206.150190
 20
730.762560
 30
0.0
 10
231.150160
 20
730.762560
 30
0.0
 10
231.150160
 20
673.912650
 30
0.0
 10
206.150190
 20
673.912650
 30
0.0
 10
206.150190
 20
633.762660
 30
0.0
 10
231.150160
 20
633.762660
 30
0.0
  0
ENDSEC
  0
SECTION
  2
OBJECTS
  0
DICTIONARY
  5
C
330
0
100
AcDbDictionary
  3
ACAD_GROUP
350
D
  3
ACAD_MLINESTYLE
350
17
  0
DICTIONARY
  5
D
330
C
100
AcDbDictionary
  0
DICTIONARY
  5
1A
330
C
100
AcDbDictionary
  0
DICTIONARY
  5
17
330
C
100
AcDbDictionary
  3
STANDARD
350
18
  0
DICTIONARY
  5
19
330
C
100
AcDbDictionary
  0
ENDSEC
  0
EOF
