  0
SECTION
  2
HEADER
  9
$ACADVER
  1
AC1014
  9
$HANDSEED
  5
FFFF
  9
$MEASUREMENT
 70
     1
  0
ENDSEC
  0
SECTION
  2
TABLES
  0
TABLE
  2
VPORT
  5
8
330
0
100
AcDbSymbolTable
 70
     4
  0
VPORT
  5
2E
330
8
100
AcDbSymbolTableRecord
100
AcDbViewportTableRecord
  2
*ACTIVE
 70
     0
 10
0.0
 20
0.0
 11
1.0
 21
1.0
 12
210.0
 22
148.5
 13
0.0
 23
0.0
 14
10.0
 24
10.0
 15
10.0
 25
10.0
 16
0.0
 26
0.0
 36
1.0
 17
0.0
 27
0.0
 37
0.0
 40
341.0
 41
1.24
 42
50.0
 43
0.0
 44
0.0
 50
0.0
 51
0.0
 71
     0
 72
   100
 73
     1
 74
     3
 75
     0
 76
     0
 77
     0
 78
     0
  0
ENDTAB
  0
TABLE
  2
LTYPE
  5
5
330
0
100
AcDbSymbolTable
 70
     1
  0
LTYPE
  5
14
330
5
100
AcDbSymbolTableRecord
100
AcDbLinetypeTableRecord
  2
BYBLOCK
 70
     0
  3

 72
    65
 73
     0
 40
0.0
  0
LTYPE
  5
15
330
5
100
AcDbSymbolTableRecord
100
AcDbLinetypeTableRecord
  2
BYLAYER
 70
     0
  3

 72
    65
 73
     0
 40
0.0
  0
LTYPE
  5
16
330
5
100
AcDbSymbolTableRecord
100
AcDbLinetypeTableRecord
  2
CONTINUOUS
 70
     0
  3
Solid line
 72
    65
 73
     0
 40
0.0
  0
ENDTAB
  0
TABLE
  2
LAYER
  5
2
100
AcDbSymbolTable
 70
2
  0
LAYER
  5
50
100
AcDbSymbolTableRecord
100
AcDbLayerTableRecord
  2
0
 70
0
  6
CONTINUOUS
  0
LAYER
  5
51
100
AcDbSymbolTableRecord
100
AcDbLayerTableRecord
  2
Layer_1
 70
0
  6
CONTINUOUS
  0
ENDTAB
  0
TABLE
  2
STYLE
  5
3
330
0
100
AcDbSymbolTable
 70
     1
  0
STYLE
  5
11
330
3
100
AcDbSymbolTableRecord
100
AcDbTextStyleTableRecord
  2
STANDARD
 70
     0
 40
0.0
 41
1.0
 50
0.0
 71
     0
 42
2.5
  3
txt
  4

  0
ENDTAB
  0
TABLE
  2
VIEW
  5
6
330
0
100
AcDbSymbolTable
 70
     0
  0
ENDTAB
  0
TABLE
  2
UCS
  5
7
330
0
100
AcDbSymbolTable
 70
     0
  0
ENDTAB
  0
TABLE
  2
APPID
  5
9
330
0
100
AcDbSymbolTable
 70
     2
  0
APPID
  5
12
330
9
100
AcDbSymbolTableRecord
100
AcDbRegAppTableRecord
  2
ACAD
 70
     0
  0
ENDTAB
  0
TABLE
  2
DIMSTYLE
  5
A
330
0
100
AcDbSymbolTable
 70
     1
  0
DIMSTYLE
105
27
330
A
100
AcDbSymbolTableRecord
100
AcDbDimStyleTableRecord
  2
ISO-25
 70
     0
  3

  4

  5

  6

  7

 40
1.0
 41
2.5
 42
0.625
 43
3.75
 44
1.25
 45
0.0
 46
0.0
 47
0.0
 48
0.0
140
2.5
141
2.5
142
0.0
143
0.03937007874016
144
1.0
145
0.0
146
1.0
147
0.625
 71
     0
 72
     0
 73
     0
 74
     0
 75
     0
 76
     0
 77
     1
 78
     8
170
     0
171
     3
172
     1
173
     0
174
     0
175
     0
176
     0
177
     0
178
     0
270
     2
271
     2
272
     2
273
     2
274
     3
340
11
275
     0
280
     0
281
     0
282
     0
283
     0
284
     8
285
     0
286
     0
287
     3
288
     0
  0
ENDTAB
  0
TABLE
  2
BLOCK_RECORD
  5
1
330
0
100
AcDbSymbolTable
 70
     1
  0
BLOCK_RECORD
  5
1F
330
1
100
AcDbSymbolTableRecord
100
AcDbBlockTableRecord
  2
*MODEL_SPACE
  0
BLOCK_RECORD
  5
1B
330
1
100
AcDbSymbolTableRecord
100
AcDbBlockTableRecord
  2
*PAPER_SPACE
  0
ENDTAB
  0
ENDSEC
  0
SECTION
  2
BLOCKS
  0
BLOCK
  5
20
330
1F
100
AcDbEntity
  8
0
100
AcDbBlockBegin
  2
*MODEL_SPACE
 70
     0
 10
0.0
 20
0.0
 30
0.0
  3
*MODEL_SPACE
  1

  0
ENDBLK
  5
21
330
1F
100
AcDbEntity
  8
0
100
AcDbBlockEnd
  0
BLOCK
  5
1C
330
1B
100
AcDbEntity
 67
     1
  8
0
100
AcDbBlockBegin
  2
*PAPER_SPACE
  1

  0
ENDBLK
  5
1D
330
1B
100
AcDbEntity
 67
     1
  8
0
100
AcDbBlockEnd
  0
ENDSEC
  0
SECTION
  2
ENTITIES
  0
LWPOLYLINE
  5
100
100
AcDbEntity
  8
Layer_1
 62
7
100
AcDbPolyline
 90
2
 70
0
 10
243.727490
 20
259.432136
 30
0.0
 10
243.727490
 20
267.582116
 30
0.0
  0
LWPOLYLINE
  5
101
100
AcDbEntity
  8
Layer_1
 62
7
100
AcDbPolyline
 90
2
 70
0
 10
253.877480
 20
259.432136
 30
0.0
 10
243.727490
 20
259.432136
 30
0.0
  0
LWPOLYLINE
  5
102
100
AcDbEntity
  8
Layer_1
 62
7
100
AcDbPolyline
 90
4
 70
0
 10
253.877480
 20
259.432136
 30
0.0
 10
253.877480
 20
262.432136
 30
0.0
 10
268.727490
 20
262.432136
 30
0.0
 10
268.727490
 20
259.432136
 30
0.0
  0
LWPOLYLINE
  5
103
100
AcDbEntity
  8
Layer_1
 62
7
100
AcDbPolyline
 90
2
 70
0
 10
321.877480
 20
259.432136
 30
0.0
 10
268.727490
 20
259.432136
 30
0.0
  0
LWPOLYLINE
  5
104
100
AcDbEntity
  8
Layer_1
 62
7
100
AcDbPolyline
 90
2
 70
0
 10
321.877480
 20
259.432136
 30
0.0
 10
321.877480
 20
262.432136
 30
0.0
  0
LWPOLYLINE
  5
105
100
AcDbEntity
  8
Layer_1
 62
7
100
AcDbPolyline
 90
2
 70
0
 10
336.727490
 20
262.432136
 30
0.0
 10
321.877480
 20
262.432136
 30
0.0
  0
LWPOLYLINE
  5
106
100
AcDbEntity
  8
Layer_1
 62
7
100
AcDbPolyline
 90
2
 70
0
 10
336.727490
 20
262.432136
 30
0.0
 10
336.727490
 20
259.432136
 30
0.0
  0
LWPOLYLINE
  5
107
100
AcDbEntity
  8
Layer_1
 62
7
100
AcDbPolyline
 90
2
 70
0
 10
389.877490
 20
259.432136
 30
0.0
 10
336.727490
 20
259.432136
 30
0.0
  0
LWPOLYLINE
  5
108
100
AcDbEntity
  8
Layer_1
 62
7
100
AcDbPolyline
 90
2
 70
0
 10
389.877490
 20
259.432136
 30
0.0
 10
389.877490
 20
262.432136
 30
0.0
  0
LWPOLYLINE
  5
109
100
AcDbEntity
  8
Layer_1
 62
7
100
AcDbPolyline
 90
2
 70
0
 10
404.727470
 20
262.432136
 30
0.0
 10
389.877490
 20
262.432136
 30
0.0
  0
LWPOLYLINE
  5
10a
100
AcDbEntity
  8
Layer_1
 62
7
100
AcDbPolyline
 90
2
 70
0
 10
404.727470
 20
262.432136
 30
0.0
 10
404.727470
 20
259.432136
 30
0.0
  0
LWPOLYLINE
  5
10b
100
AcDbEntity
  8
Layer_1
 62
7
100
AcDbPolyline
 90
2
 70
0
 10
414.877470
 20
259.432136
 30
0.0
 10
404.727470
 20
259.432136
 30
0.0
  0
LWPOLYLINE
  5
10c
100
AcDbEntity
  8
Layer_1
 62
7
100
AcDbPolyline
 90
28
 70
0
 10
414.877470
 20
259.432136
 30
0.0
 10
414.877470
 20
267.582116
 30
0.0
 10
411.877490
 20
267.582116
 30
0.0
 10
411.877490
 20
272.582146
 30
0.0
 10
376.727490
 20
272.582146
 30
0.0
 10
376.727490
 20
267.082146
 30
0.0
 10
365.877480
 20
267.082146
 30
0.0
 10
365.877480
 20
272.582146
 30
0.0
 10
350.727470
 20
272.582146
 30
0.0
 10
350.727470
 20
271.582116
 30
0.0
 10
348.727480
 20
271.582116
 30
0.0
 10
348.727480
 20
268.582146
 30
0.0
 10
340.377470
 20
268.582146
 30
0.0
 10
340.377470
 20
271.582116
 30
0.0
 10
336.727490
 20
271.582116
 30
0.0
 10
336.727490
 20
270.582136
 30
0.0
 10
330.377490
 20
270.582136
 30
0.0
 10
330.377490
 20
272.582146
 30
0.0
 10
325.727490
 20
272.582146
 30
0.0
 10
325.727490
 20
271.582116
 30
0.0
 10
321.877480
 20
271.582116
 30
0.0
 10
321.877480
 20
272.582146
 30
0.0
 10
309.227490
 20
272.582146
 30
0.0
 10
309.227490
 20
271.582116
 30
0.0
 10
303.227480
 20
271.582116
 30
0.0
 10
303.227480
 20
265.582146
 30
0.0
 10
277.377480
 20
265.582146
 30
0.0
 10
277.377480
 20
272.582146
 30
0.0
  0
LWPOLYLINE
  5
10d
100
AcDbEntity
  8
Layer_1
 62
7
100
AcDbPolyline
 90
2
 70
0
 10
246.727490
 20
267.582116
 30
0.0
 10
243.727490
 20
267.582116
 30
0.0
  0
LWPOLYLINE
  5
10e
100
AcDbEntity
  8
Layer_1
 62
7
100
AcDbPolyline
 90
3
 70
0
 10
246.727490
 20
267.582116
 30
0.0
 10
246.727490
 20
272.582146
 30
0.0
 10
277.377480
 20
272.582146
 30
0.0
  0
LWPOLYLINE
  5
10f
100
AcDbEntity
  8
Layer_1
 62
7
100
AcDbPolyline
 90
2
 70
0
 10
224.386010
 20
351.452379
 30
0.0
 10
224.032000
 20
351.497379
 30
0.0
  0
LWPOLYLINE
  5
110
100
AcDbEntity
  8
Layer_1
 62
7
100
AcDbPolyline
 90
2
 70
0
 10
224.718990
 20
351.321359
 30
0.0
 10
224.386010
 20
351.452379
 30
0.0
  0
LWPOLYLINE
  5
111
100
AcDbEntity
  8
Layer_1
 62
7
100
AcDbPolyline
 90
2
 70
0
 10
225.008000
 20
351.111359
 30
0.0
 10
224.718990
 20
351.321359
 30
0.0
  0
LWPOLYLINE
  5
112
100
AcDbEntity
  8
Layer_1
 62
7
100
AcDbPolyline
 90
2
 70
0
 10
225.235010
 20
350.836379
 30
0.0
 10
225.008000
 20
351.111359
 30
0.0
  0
LWPOLYLINE
  5
113
100
AcDbEntity
  8
Layer_1
 62
7
100
AcDbPolyline
 90
2
 70
0
 10
225.387010
 20
350.513379
 30
0.0
 10
225.235010
 20
350.836379
 30
0.0
  0
LWPOLYLINE
  5
114
100
AcDbEntity
  8
Layer_1
 62
7
100
AcDbPolyline
 90
2
 70
0
 10
225.454010
 20
350.162379
 30
0.0
 10
225.387010
 20
350.513379
 30
0.0
  0
LWPOLYLINE
  5
115
100
AcDbEntity
  8
Layer_1
 62
7
100
AcDbPolyline
 90
2
 70
0
 10
225.431990
 20
349.805379
 30
0.0
 10
225.453990
 20
350.162379
 30
0.0
  0
LWPOLYLINE
  5
116
100
AcDbEntity
  8
Layer_1
 62
7
100
AcDbPolyline
 90
2
 70
0
 10
225.321000
 20
349.465359
 30
0.0
 10
225.431990
 20
349.805379
 30
0.0
  0
LWPOLYLINE
  5
117
100
AcDbEntity
  8
Layer_1
 62
7
100
AcDbPolyline
 90
2
 70
0
 10
225.130000
 20
349.164369
 30
0.0
 10
225.321000
 20
349.465359
 30
0.0
  0
LWPOLYLINE
  5
118
100
AcDbEntity
  8
Layer_1
 62
7
100
AcDbPolyline
 90
2
 70
0
 10
224.870020
 20
348.919369
 30
0.0
 10
225.130000
 20
349.164369
 30
0.0
  0
LWPOLYLINE
  5
119
100
AcDbEntity
  8
Layer_1
 62
7
100
AcDbPolyline
 90
2
 70
0
 10
224.557020
 20
348.747359
 30
0.0
 10
224.870020
 20
348.919369
 30
0.0
  0
LWPOLYLINE
  5
11a
100
AcDbEntity
  8
Layer_1
 62
7
100
AcDbPolyline
 90
2
 70
0
 10
224.210990
 20
348.658379
 30
0.0
 10
224.557020
 20
348.747379
 30
0.0
  0
LWPOLYLINE
  5
11b
100
AcDbEntity
  8
Layer_1
 62
7
100
AcDbPolyline
 90
2
 70
0
 10
223.853010
 20
348.658379
 30
0.0
 10
224.210990
 20
348.658379
 30
0.0
  0
LWPOLYLINE
  5
11c
100
AcDbEntity
  8
Layer_1
 62
7
100
AcDbPolyline
 90
2
 70
0
 10
223.507020
 20
348.747359
 30
0.0
 10
223.853010
 20
348.658359
 30
0.0
  0
LWPOLYLINE
  5
11d
100
AcDbEntity
  8
Layer_1
 62
7
100
AcDbPolyline
 90
2
 70
0
 10
223.194010
 20
348.919369
 30
0.0
 10
223.507020
 20
348.747359
 30
0.0
  0
LWPOLYLINE
  5
11e
100
AcDbEntity
  8
Layer_1
 62
7
100
AcDbPolyline
 90
2
 70
0
 10
222.934010
 20
349.164369
 30
0.0
 10
223.194010
 20
348.919369
 30
0.0
  0
LWPOLYLINE
  5
11f
100
AcDbEntity
  8
Layer_1
 62
7
100
AcDbPolyline
 90
2
 70
0
 10
222.743010
 20
349.465359
 30
0.0
 10
222.934010
 20
349.164369
 30
0.0
  0
LWPOLYLINE
  5
120
100
AcDbEntity
  8
Layer_1
 62
7
100
AcDbPolyline
 90
2
 70
0
 10
222.632010
 20
349.805379
 30
0.0
 10
222.743010
 20
349.465359
 30
0.0
  0
LWPOLYLINE
  5
121
100
AcDbEntity
  8
Layer_1
 62
7
100
AcDbPolyline
 90
2
 70
0
 10
222.610000
 20
350.162379
 30
0.0
 10
222.632000
 20
349.805379
 30
0.0
  0
LWPOLYLINE
  5
122
100
AcDbEntity
  8
Layer_1
 62
7
100
AcDbPolyline
 90
2
 70
0
 10
222.676990
 20
350.513379
 30
0.0
 10
222.609990
 20
350.162379
 30
0.0
  0
LWPOLYLINE
  5
123
100
AcDbEntity
  8
Layer_1
 62
7
100
AcDbPolyline
 90
2
 70
0
 10
222.828990
 20
350.836379
 30
0.0
 10
222.676990
 20
350.513379
 30
0.0
  0
LWPOLYLINE
  5
124
100
AcDbEntity
  8
Layer_1
 62
7
100
AcDbPolyline
 90
2
 70
0
 10
223.057010
 20
351.111359
 30
0.0
 10
222.828990
 20
350.836379
 30
0.0
  0
LWPOLYLINE
  5
125
100
AcDbEntity
  8
Layer_1
 62
7
100
AcDbPolyline
 90
2
 70
0
 10
223.346020
 20
351.321359
 30
0.0
 10
223.057010
 20
351.111359
 30
0.0
  0
LWPOLYLINE
  5
126
100
AcDbEntity
  8
Layer_1
 62
7
100
AcDbPolyline
 90
2
 70
0
 10
223.678020
 20
351.452379
 30
0.0
 10
223.346020
 20
351.321359
 30
0.0
  0
LWPOLYLINE
  5
127
100
AcDbEntity
  8
Layer_1
 62
7
100
AcDbPolyline
 90
2
 70
0
 10
224.032000
 20
351.497359
 30
0.0
 10
223.678020
 20
351.452359
 30
0.0
  0
LWPOLYLINE
  5
128
100
AcDbEntity
  8
Layer_1
 62
7
100
AcDbPolyline
 90
2
 70
0
 10
224.386010
 20
199.452385
 30
0.0
 10
224.032000
 20
199.497385
 30
0.0
  0
LWPOLYLINE
  5
129
100
AcDbEntity
  8
Layer_1
 62
7
100
AcDbPolyline
 90
2
 70
0
 10
224.718990
 20
199.321365
 30
0.0
 10
224.386010
 20
199.452385
 30
0.0
  0
LWPOLYLINE
  5
12a
100
AcDbEntity
  8
Layer_1
 62
7
100
AcDbPolyline
 90
2
 70
0
 10
225.008000
 20
199.111365
 30
0.0
 10
224.718990
 20
199.321365
 30
0.0
  0
LWPOLYLINE
  5
12b
100
AcDbEntity
  8
Layer_1
 62
7
100
AcDbPolyline
 90
2
 70
0
 10
225.235010
 20
198.836385
 30
0.0
 10
225.008000
 20
199.111365
 30
0.0
  0
LWPOLYLINE
  5
12c
100
AcDbEntity
  8
Layer_1
 62
7
100
AcDbPolyline
 90
2
 70
0
 10
225.387010
 20
198.513375
 30
0.0
 10
225.235010
 20
198.836385
 30
0.0
  0
LWPOLYLINE
  5
12d
100
AcDbEntity
  8
Layer_1
 62
7
100
AcDbPolyline
 90
2
 70
0
 10
225.454010
 20
198.162385
 30
0.0
 10
225.387010
 20
198.513375
 30
0.0
  0
LWPOLYLINE
  5
12e
100
AcDbEntity
  8
Layer_1
 62
7
100
AcDbPolyline
 90
2
 70
0
 10
225.431990
 20
197.805385
 30
0.0
 10
225.453990
 20
198.162385
 30
0.0
  0
LWPOLYLINE
  5
12f
100
AcDbEntity
  8
Layer_1
 62
7
100
AcDbPolyline
 90
2
 70
0
 10
225.321000
 20
197.465365
 30
0.0
 10
225.431990
 20
197.805385
 30
0.0
  0
LWPOLYLINE
  5
130
100
AcDbEntity
  8
Layer_1
 62
7
100
AcDbPolyline
 90
2
 70
0
 10
225.130000
 20
197.164375
 30
0.0
 10
225.321000
 20
197.465365
 30
0.0
  0
LWPOLYLINE
  5
131
100
AcDbEntity
  8
Layer_1
 62
7
100
AcDbPolyline
 90
2
 70
0
 10
224.870020
 20
196.919380
 30
0.0
 10
225.130000
 20
197.164375
 30
0.0
  0
LWPOLYLINE
  5
132
100
AcDbEntity
  8
Layer_1
 62
7
100
AcDbPolyline
 90
2
 70
0
 10
224.557020
 20
196.747370
 30
0.0
 10
224.870020
 20
196.919380
 30
0.0
  0
LWPOLYLINE
  5
133
100
AcDbEntity
  8
Layer_1
 62
7
100
AcDbPolyline
 90
2
 70
0
 10
224.210990
 20
196.658390
 30
0.0
 10
224.557020
 20
196.747390
 30
0.0
  0
LWPOLYLINE
  5
134
100
AcDbEntity
  8
Layer_1
 62
7
100
AcDbPolyline
 90
2
 70
0
 10
223.853010
 20
196.658390
 30
0.0
 10
224.210990
 20
196.658390
 30
0.0
  0
LWPOLYLINE
  5
135
100
AcDbEntity
  8
Layer_1
 62
7
100
AcDbPolyline
 90
2
 70
0
 10
223.507020
 20
196.747370
 30
0.0
 10
223.853010
 20
196.658370
 30
0.0
  0
LWPOLYLINE
  5
136
100
AcDbEntity
  8
Layer_1
 62
7
100
AcDbPolyline
 90
2
 70
0
 10
223.194010
 20
196.919380
 30
0.0
 10
223.507020
 20
196.747370
 30
0.0
  0
LWPOLYLINE
  5
137
100
AcDbEntity
  8
Layer_1
 62
7
100
AcDbPolyline
 90
2
 70
0
 10
222.934010
 20
197.164375
 30
0.0
 10
223.194010
 20
196.919380
 30
0.0
  0
LWPOLYLINE
  5
138
100
AcDbEntity
  8
Layer_1
 62
7
100
AcDbPolyline
 90
2
 70
0
 10
222.743010
 20
197.465365
 30
0.0
 10
222.934010
 20
197.164375
 30
0.0
  0
LWPOLYLINE
  5
139
100
AcDbEntity
  8
Layer_1
 62
7
100
AcDbPolyline
 90
2
 70
0
 10
222.632010
 20
197.805385
 30
0.0
 10
222.743010
 20
197.465365
 30
0.0
  0
LWPOLYLINE
  5
13a
100
AcDbEntity
  8
Layer_1
 62
7
100
AcDbPolyline
 90
2
 70
0
 10
222.610000
 20
198.162385
 30
0.0
 10
222.632000
 20
197.805385
 30
0.0
  0
LWPOLYLINE
  5
13b
100
AcDbEntity
  8
Layer_1
 62
7
100
AcDbPolyline
 90
2
 70
0
 10
222.676990
 20
198.513375
 30
0.0
 10
222.609990
 20
198.162385
 30
0.0
  0
LWPOLYLINE
  5
13c
100
AcDbEntity
  8
Layer_1
 62
7
100
AcDbPolyline
 90
2
 70
0
 10
222.828990
 20
198.836385
 30
0.0
 10
222.676990
 20
198.513375
 30
0.0
  0
LWPOLYLINE
  5
13d
100
AcDbEntity
  8
Layer_1
 62
7
100
AcDbPolyline
 90
2
 70
0
 10
223.057010
 20
199.111365
 30
0.0
 10
222.828990
 20
198.836385
 30
0.0
  0
LWPOLYLINE
  5
13e
100
AcDbEntity
  8
Layer_1
 62
7
100
AcDbPolyline
 90
2
 70
0
 10
223.346020
 20
199.321365
 30
0.0
 10
223.057010
 20
199.111365
 30
0.0
  0
LWPOLYLINE
  5
13f
100
AcDbEntity
  8
Layer_1
 62
7
100
AcDbPolyline
 90
2
 70
0
 10
223.678020
 20
199.452385
 30
0.0
 10
223.346020
 20
199.321365
 30
0.0
  0
LWPOLYLINE
  5
140
100
AcDbEntity
  8
Layer_1
 62
7
100
AcDbPolyline
 90
2
 70
0
 10
224.032000
 20
199.497365
 30
0.0
 10
223.678020
 20
199.452365
 30
0.0
  0
LWPOLYLINE
  5
141
100
AcDbEntity
  8
Layer_1
 62
7
100
AcDbPolyline
 90
2
 70
0
 10
192.957010
 20
188.497370
 30
0.0
 10
192.957010
 20
198.497375
 30
0.0
  0
LWPOLYLINE
  5
142
100
AcDbEntity
  8
Layer_1
 62
7
100
AcDbPolyline
 90
2
 70
0
 10
192.957010
 20
188.497370
 30
0.0
 10
206.606990
 20
188.497370
 30
0.0
  0
LWPOLYLINE
  5
143
100
AcDbEntity
  8
Layer_1
 62
7
100
AcDbPolyline
 90
2
 70
0
 10
206.606990
 20
191.497370
 30
0.0
 10
206.606990
 20
188.497370
 30
0.0
  0
LWPOLYLINE
  5
144
100
AcDbEntity
  8
Layer_1
 62
7
100
AcDbPolyline
 90
2
 70
0
 10
216.457010
 20
191.497370
 30
0.0
 10
206.606990
 20
191.497370
 30
0.0
  0
LWPOLYLINE
  5
145
100
AcDbEntity
  8
Layer_1
 62
7
100
AcDbPolyline
 90
2
 70
0
 10
216.457010
 20
188.497370
 30
0.0
 10
216.457010
 20
191.497370
 30
0.0
  0
LWPOLYLINE
  5
146
100
AcDbEntity
  8
Layer_1
 62
7
100
AcDbPolyline
 90
2
 70
0
 10
216.457010
 20
188.497370
 30
0.0
 10
230.106990
 20
188.497370
 30
0.0
  0
LWPOLYLINE
  5
147
100
AcDbEntity
  8
Layer_1
 62
7
100
AcDbPolyline
 90
2
 70
0
 10
230.106990
 20
198.497375
 30
0.0
 10
230.106990
 20
188.497370
 30
0.0
  0
LWPOLYLINE
  5
148
100
AcDbEntity
  8
Layer_1
 62
7
100
AcDbPolyline
 90
2
 70
0
 10
233.107000
 20
198.497375
 30
0.0
 10
230.106990
 20
198.497375
 30
0.0
  0
LWPOLYLINE
  5
149
100
AcDbEntity
  8
Layer_1
 62
7
100
AcDbPolyline
 90
13
 70
0
 10
233.107000
 20
198.497375
 30
0.0
 10
233.107000
 20
213.647389
 30
0.0
 10
230.106990
 20
213.647389
 30
0.0
 10
230.106990
 20
266.497379
 30
0.0
 10
233.107000
 20
266.497379
 30
0.0
 10
233.107000
 20
281.647369
 30
0.0
 10
230.106990
 20
281.647369
 30
0.0
 10
230.106990
 20
334.497379
 30
0.0
 10
233.107000
 20
334.497379
 30
0.0
 10
233.107000
 20
349.647369
 30
0.0
 10
230.106990
 20
349.647369
 30
0.0
 10
230.106990
 20
359.647369
 30
0.0
 10
216.457010
 20
359.647369
 30
0.0
  0
LWPOLYLINE
  5
14a
100
AcDbEntity
  8
Layer_1
 62
7
100
AcDbPolyline
 90
2
 70
0
 10
216.457010
 20
356.647369
 30
0.0
 10
216.457010
 20
359.647369
 30
0.0
  0
LWPOLYLINE
  5
14b
100
AcDbEntity
  8
Layer_1
 62
7
100
AcDbPolyline
 90
2
 70
0
 10
206.606990
 20
356.647369
 30
0.0
 10
216.457010
 20
356.647369
 30
0.0
  0
LWPOLYLINE
  5
14c
100
AcDbEntity
  8
Layer_1
 62
7
100
AcDbPolyline
 90
2
 70
0
 10
206.606990
 20
359.647369
 30
0.0
 10
206.606990
 20
356.647369
 30
0.0
  0
LWPOLYLINE
  5
14d
100
AcDbEntity
  8
Layer_1
 62
7
100
AcDbPolyline
 90
12
 70
0
 10
206.606990
 20
359.647369
 30
0.0
 10
192.957010
 20
359.647369
 30
0.0
 10
192.957010
 20
349.647369
 30
0.0
 10
189.957000
 20
349.647369
 30
0.0
 10
189.957000
 20
334.497379
 30
0.0
 10
192.957010
 20
334.497379
 30
0.0
 10
192.957010
 20
281.647369
 30
0.0
 10
189.957000
 20
281.647369
 30
0.0
 10
189.957000
 20
266.497379
 30
0.0
 10
192.957010
 20
266.497379
 30
0.0
 10
192.957010
 20
213.647389
 30
0.0
 10
189.957000
 20
213.647389
 30
0.0
  0
LWPOLYLINE
  5
14e
100
AcDbEntity
  8
Layer_1
 62
7
100
AcDbPolyline
 90
3
 70
0
 10
192.957010
 20
198.497375
 30
0.0
 10
189.957000
 20
198.497375
 30
0.0
 10
189.957000
 20
213.647389
 30
0.0
  0
LWPOLYLINE
  5
14f
100
AcDbEntity
  8
Layer_1
 62
7
100
AcDbPolyline
 90
2
 70
0
 10
404.727470
 20
300.401932
 30
0.0
 10
414.877470
 20
300.401932
 30
0.0
  0
LWPOLYLINE
  5
150
100
AcDbEntity
  8
Layer_1
 62
7
100
AcDbPolyline
 90
4
 70
0
 10
404.727470
 20
300.401932
 30
0.0
 10
404.727470
 20
303.401932
 30
0.0
 10
389.877470
 20
303.401932
 30
0.0
 10
389.877470
 20
300.401932
 30
0.0
  0
LWPOLYLINE
  5
151
100
AcDbEntity
  8
Layer_1
 62
7
100
AcDbPolyline
 90
2
 70
0
 10
336.727470
 20
300.401942
 30
0.0
 10
389.877470
 20
300.401932
 30
0.0
  0
LWPOLYLINE
  5
152
100
AcDbEntity
  8
Layer_1
 62
7
100
AcDbPolyline
 90
2
 70
0
 10
336.727470
 20
300.401942
 30
0.0
 10
336.727470
 20
303.401942
 30
0.0
  0
LWPOLYLINE
  5
153
100
AcDbEntity
  8
Layer_1
 62
7
100
AcDbPolyline
 90
2
 70
0
 10
321.877490
 20
303.401942
 30
0.0
 10
336.727470
 20
303.401942
 30
0.0
  0
LWPOLYLINE
  5
154
100
AcDbEntity
  8
Layer_1
 62
7
100
AcDbPolyline
 90
2
 70
0
 10
321.877490
 20
303.401942
 30
0.0
 10
321.877490
 20
300.401942
 30
0.0
  0
LWPOLYLINE
  5
155
100
AcDbEntity
  8
Layer_1
 62
7
100
AcDbPolyline
 90
2
 70
0
 10
268.727490
 20
300.401942
 30
0.0
 10
321.877490
 20
300.401942
 30
0.0
  0
LWPOLYLINE
  5
156
100
AcDbEntity
  8
Layer_1
 62
7
100
AcDbPolyline
 90
2
 70
0
 10
268.727490
 20
300.401942
 30
0.0
 10
268.727490
 20
303.401942
 30
0.0
  0
LWPOLYLINE
  5
157
100
AcDbEntity
  8
Layer_1
 62
7
100
AcDbPolyline
 90
2
 70
0
 10
253.877480
 20
303.401942
 30
0.0
 10
268.727490
 20
303.401942
 30
0.0
  0
LWPOLYLINE
  5
158
100
AcDbEntity
  8
Layer_1
 62
7
100
AcDbPolyline
 90
2
 70
0
 10
253.877480
 20
303.401942
 30
0.0
 10
253.877480
 20
300.401942
 30
0.0
  0
LWPOLYLINE
  5
159
100
AcDbEntity
  8
Layer_1
 62
7
100
AcDbPolyline
 90
2
 70
0
 10
243.727490
 20
300.401942
 30
0.0
 10
253.877480
 20
300.401942
 30
0.0
  0
LWPOLYLINE
  5
15a
100
AcDbEntity
  8
Layer_1
 62
7
100
AcDbPolyline
 90
4
 70
0
 10
243.727490
 20
300.401942
 30
0.0
 10
243.727490
 20
308.551942
 30
0.0
 10
246.727500
 20
308.551942
 30
0.0
 10
246.727500
 20
310.551942
 30
0.0
  0
LWPOLYLINE
  5
15b
100
AcDbEntity
  8
Layer_1
 62
7
100
AcDbPolyline
 90
2
 70
0
 10
254.227480
 20
310.551942
 30
0.0
 10
246.727500
 20
310.551942
 30
0.0
  0
LWPOLYLINE
  5
15c
100
AcDbEntity
  8
Layer_1
 62
7
100
AcDbPolyline
 90
12
 70
0
 10
254.227480
 20
310.551942
 30
0.0
 10
254.227480
 20
313.551942
 30
0.0
 10
259.377480
 20
313.551942
 30
0.0
 10
259.377480
 20
310.551942
 30
0.0
 10
266.727490
 20
310.551942
 30
0.0
 10
266.727490
 20
313.551942
 30
0.0
 10
321.877490
 20
313.551942
 30
0.0
 10
321.877490
 20
312.551942
 30
0.0
 10
335.727480
 20
312.551942
 30
0.0
 10
335.727480
 20
313.551942
 30
0.0
 10
391.877480
 20
313.551932
 30
0.0
 10
391.877480
 20
310.551932
 30
0.0
  0
LWPOLYLINE
  5
15d
100
AcDbEntity
  8
Layer_1
 62
7
100
AcDbPolyline
 90
2
 70
0
 10
399.227480
 20
310.551932
 30
0.0
 10
391.877480
 20
310.551932
 30
0.0
  0
LWPOLYLINE
  5
15e
100
AcDbEntity
  8
Layer_1
 62
7
100
AcDbPolyline
 90
2
 70
0
 10
399.227480
 20
313.551932
 30
0.0
 10
399.227480
 20
310.551932
 30
0.0
  0
LWPOLYLINE
  5
15f
100
AcDbEntity
  8
Layer_1
 62
7
100
AcDbPolyline
 90
2
 70
0
 10
399.227480
 20
313.551932
 30
0.0
 10
404.377480
 20
313.551932
 30
0.0
  0
LWPOLYLINE
  5
160
100
AcDbEntity
  8
Layer_1
 62
7
100
AcDbPolyline
 90
2
 70
0
 10
404.377480
 20
310.551932
 30
0.0
 10
404.377480
 20
313.551932
 30
0.0
  0
LWPOLYLINE
  5
161
100
AcDbEntity
  8
Layer_1
 62
7
100
AcDbPolyline
 90
2
 70
0
 10
411.877470
 20
310.551932
 30
0.0
 10
404.377480
 20
310.551932
 30
0.0
  0
LWPOLYLINE
  5
162
100
AcDbEntity
  8
Layer_1
 62
7
100
AcDbPolyline
 90
2
 70
0
 10
411.877470
 20
308.551932
 30
0.0
 10
411.877470
 20
310.551932
 30
0.0
  0
LWPOLYLINE
  5
163
100
AcDbEntity
  8
Layer_1
 62
7
100
AcDbPolyline
 90
2
 70
0
 10
411.877470
 20
308.551932
 30
0.0
 10
414.877470
 20
308.551932
 30
0.0
  0
LWPOLYLINE
  5
164
100
AcDbEntity
  8
Layer_1
 62
7
100
AcDbPolyline
 90
2
 70
0
 10
414.877470
 20
300.401932
 30
0.0
 10
414.877470
 20
308.551942
 30
0.0
  0
LWPOLYLINE
  5
165
100
AcDbEntity
  8
Layer_1
 62
7
100
AcDbPolyline
 90
2
 70
0
 10
16.057668
 20
346.498425
 30
0.0
 10
16.102668
 20
346.853443
 30
0.0
  0
LWPOLYLINE
  5
166
100
AcDbEntity
  8
Layer_1
 62
7
100
AcDbPolyline
 90
2
 70
0
 10
15.926678
 20
346.166426
 30
0.0
 10
16.057668
 20
346.498425
 30
0.0
  0
LWPOLYLINE
  5
167
100
AcDbEntity
  8
Layer_1
 62
7
100
AcDbPolyline
 90
2
 70
0
 10
15.716678
 20
345.877422
 30
0.0
 10
15.926678
 20
346.166426
 30
0.0
  0
LWPOLYLINE
  5
168
100
AcDbEntity
  8
Layer_1
 62
7
100
AcDbPolyline
 90
2
 70
0
 10
15.440688
 20
345.650436
 30
0.0
 10
15.716678
 20
345.877422
 30
0.0
  0
LWPOLYLINE
  5
169
100
AcDbEntity
  8
Layer_1
 62
7
100
AcDbPolyline
 90
2
 70
0
 10
15.117688
 20
345.498433
 30
0.0
 10
15.440688
 20
345.650436
 30
0.0
  0
LWPOLYLINE
  5
16a
100
AcDbEntity
  8
Layer_1
 62
7
100
AcDbPolyline
 90
2
 70
0
 10
14.766688
 20
345.431440
 30
0.0
 10
15.117688
 20
345.498430
 30
0.0
  0
LWPOLYLINE
  5
16b
100
AcDbEntity
  8
Layer_1
 62
7
100
AcDbPolyline
 90
2
 70
0
 10
14.410668
 20
345.453427
 30
0.0
 10
14.766688
 20
345.431467
 30
0.0
  0
LWPOLYLINE
  5
16c
100
AcDbEntity
  8
Layer_1
 62
7
100
AcDbPolyline
 90
2
 70
0
 10
14.070678
 20
345.563441
 30
0.0
 10
14.410668
 20
345.453427
 30
0.0
  0
LWPOLYLINE
  5
16d
100
AcDbEntity
  8
Layer_1
 62
7
100
AcDbPolyline
 90
2
 70
0
 10
13.769688
 20
345.755422
 30
0.0
 10
14.070678
 20
345.563441
 30
0.0
  0
LWPOLYLINE
  5
16e
100
AcDbEntity
  8
Layer_1
 62
7
100
AcDbPolyline
 90
2
 70
0
 10
13.524678
 20
346.015429
 30
0.0
 10
13.769688
 20
345.755422
 30
0.0
  0
LWPOLYLINE
  5
16f
100
AcDbEntity
  8
Layer_1
 62
7
100
AcDbPolyline
 90
2
 70
0
 10
13.352678
 20
346.328431
 30
0.0
 10
13.524678
 20
346.015429
 30
0.0
  0
LWPOLYLINE
  5
170
100
AcDbEntity
  8
Layer_1
 62
7
100
AcDbPolyline
 90
2
 70
0
 10
13.263668
 20
346.674426
 30
0.0
 10
13.352668
 20
346.328431
 30
0.0
  0
LWPOLYLINE
  5
171
100
AcDbEntity
  8
Layer_1
 62
7
100
AcDbPolyline
 90
2
 70
0
 10
13.263668
 20
347.031429
 30
0.0
 10
13.263668
 20
346.674426
 30
0.0
  0
LWPOLYLINE
  5
172
100
AcDbEntity
  8
Layer_1
 62
7
100
AcDbPolyline
 90
2
 70
0
 10
13.352678
 20
347.377424
 30
0.0
 10
13.263678
 20
347.031429
 30
0.0
  0
LWPOLYLINE
  5
173
100
AcDbEntity
  8
Layer_1
 62
7
100
AcDbPolyline
 90
2
 70
0
 10
13.524678
 20
347.690426
 30
0.0
 10
13.352678
 20
347.377424
 30
0.0
  0
LWPOLYLINE
  5
174
100
AcDbEntity
  8
Layer_1
 62
7
100
AcDbPolyline
 90
2
 70
0
 10
13.769688
 20
347.951438
 30
0.0
 10
13.524678
 20
347.690426
 30
0.0
  0
LWPOLYLINE
  5
175
100
AcDbEntity
  8
Layer_1
 62
7
100
AcDbPolyline
 90
2
 70
0
 10
14.070678
 20
348.142440
 30
0.0
 10
13.769688
 20
347.951438
 30
0.0
  0
LWPOLYLINE
  5
176
100
AcDbEntity
  8
Layer_1
 62
7
100
AcDbPolyline
 90
2
 70
0
 10
14.410668
 20
348.253433
 30
0.0
 10
14.070678
 20
348.142440
 30
0.0
  0
LWPOLYLINE
  5
177
100
AcDbEntity
  8
Layer_1
 62
7
100
AcDbPolyline
 90
2
 70
0
 10
14.766688
 20
348.275420
 30
0.0
 10
14.410668
 20
348.253460
 30
0.0
  0
LWPOLYLINE
  5
178
100
AcDbEntity
  8
Layer_1
 62
7
100
AcDbPolyline
 90
2
 70
0
 10
15.117688
 20
348.208427
 30
0.0
 10
14.766688
 20
348.275417
 30
0.0
  0
LWPOLYLINE
  5
179
100
AcDbEntity
  8
Layer_1
 62
7
100
AcDbPolyline
 90
2
 70
0
 10
15.440688
 20
348.056424
 30
0.0
 10
15.117688
 20
348.208427
 30
0.0
  0
LWPOLYLINE
  5
17a
100
AcDbEntity
  8
Layer_1
 62
7
100
AcDbPolyline
 90
2
 70
0
 10
15.716678
 20
347.828433
 30
0.0
 10
15.440688
 20
348.056424
 30
0.0
  0
LWPOLYLINE
  5
17b
100
AcDbEntity
  8
Layer_1
 62
7
100
AcDbPolyline
 90
2
 70
0
 10
15.926678
 20
347.539429
 30
0.0
 10
15.716678
 20
347.828433
 30
0.0
  0
LWPOLYLINE
  5
17c
100
AcDbEntity
  8
Layer_1
 62
7
100
AcDbPolyline
 90
2
 70
0
 10
16.057668
 20
347.207429
 30
0.0
 10
15.926678
 20
347.539429
 30
0.0
  0
LWPOLYLINE
  5
17d
100
AcDbEntity
  8
Layer_1
 62
7
100
AcDbPolyline
 90
2
 70
0
 10
16.102678
 20
346.853443
 30
0.0
 10
16.057678
 20
347.207429
 30
0.0
  0
LWPOLYLINE
  5
17e
100
AcDbEntity
  8
Layer_1
 62
7
100
AcDbPolyline
 90
2
 70
0
 10
168.057670
 20
346.498425
 30
0.0
 10
168.102670
 20
346.853443
 30
0.0
  0
LWPOLYLINE
  5
17f
100
AcDbEntity
  8
Layer_1
 62
7
100
AcDbPolyline
 90
2
 70
0
 10
167.926680
 20
346.166426
 30
0.0
 10
168.057670
 20
346.498425
 30
0.0
  0
LWPOLYLINE
  5
180
100
AcDbEntity
  8
Layer_1
 62
7
100
AcDbPolyline
 90
2
 70
0
 10
167.716680
 20
345.877422
 30
0.0
 10
167.926680
 20
346.166426
 30
0.0
  0
LWPOLYLINE
  5
181
100
AcDbEntity
  8
Layer_1
 62
7
100
AcDbPolyline
 90
2
 70
0
 10
167.440690
 20
345.650436
 30
0.0
 10
167.716680
 20
345.877422
 30
0.0
  0
LWPOLYLINE
  5
182
100
AcDbEntity
  8
Layer_1
 62
7
100
AcDbPolyline
 90
2
 70
0
 10
167.117690
 20
345.498433
 30
0.0
 10
167.440690
 20
345.650436
 30
0.0
  0
LWPOLYLINE
  5
183
100
AcDbEntity
  8
Layer_1
 62
7
100
AcDbPolyline
 90
2
 70
0
 10
166.766660
 20
345.431440
 30
0.0
 10
167.117690
 20
345.498430
 30
0.0
  0
LWPOLYLINE
  5
184
100
AcDbEntity
  8
Layer_1
 62
7
100
AcDbPolyline
 90
2
 70
0
 10
166.410670
 20
345.453427
 30
0.0
 10
166.766660
 20
345.431467
 30
0.0
  0
LWPOLYLINE
  5
185
100
AcDbEntity
  8
Layer_1
 62
7
100
AcDbPolyline
 90
2
 70
0
 10
166.070680
 20
345.563441
 30
0.0
 10
166.410670
 20
345.453427
 30
0.0
  0
LWPOLYLINE
  5
186
100
AcDbEntity
  8
Layer_1
 62
7
100
AcDbPolyline
 90
2
 70
0
 10
165.769690
 20
345.755422
 30
0.0
 10
166.070680
 20
345.563441
 30
0.0
  0
LWPOLYLINE
  5
187
100
AcDbEntity
  8
Layer_1
 62
7
100
AcDbPolyline
 90
2
 70
0
 10
165.524680
 20
346.015429
 30
0.0
 10
165.769690
 20
345.755422
 30
0.0
  0
LWPOLYLINE
  5
188
100
AcDbEntity
  8
Layer_1
 62
7
100
AcDbPolyline
 90
2
 70
0
 10
165.352680
 20
346.328431
 30
0.0
 10
165.524680
 20
346.015429
 30
0.0
  0
LWPOLYLINE
  5
189
100
AcDbEntity
  8
Layer_1
 62
7
100
AcDbPolyline
 90
2
 70
0
 10
165.263670
 20
346.674426
 30
0.0
 10
165.352670
 20
346.328431
 30
0.0
  0
LWPOLYLINE
  5
18a
100
AcDbEntity
  8
Layer_1
 62
7
100
AcDbPolyline
 90
2
 70
0
 10
165.263670
 20
347.031429
 30
0.0
 10
165.263670
 20
346.674426
 30
0.0
  0
LWPOLYLINE
  5
18b
100
AcDbEntity
  8
Layer_1
 62
7
100
AcDbPolyline
 90
2
 70
0
 10
165.352680
 20
347.377424
 30
0.0
 10
165.263680
 20
347.031429
 30
0.0
  0
LWPOLYLINE
  5
18c
100
AcDbEntity
  8
Layer_1
 62
7
100
AcDbPolyline
 90
2
 70
0
 10
165.524680
 20
347.690426
 30
0.0
 10
165.352680
 20
347.377424
 30
0.0
  0
LWPOLYLINE
  5
18d
100
AcDbEntity
  8
Layer_1
 62
7
100
AcDbPolyline
 90
2
 70
0
 10
165.769690
 20
347.951438
 30
0.0
 10
165.524680
 20
347.690426
 30
0.0
  0
LWPOLYLINE
  5
18e
100
AcDbEntity
  8
Layer_1
 62
7
100
AcDbPolyline
 90
2
 70
0
 10
166.070680
 20
348.142440
 30
0.0
 10
165.769690
 20
347.951438
 30
0.0
  0
LWPOLYLINE
  5
18f
100
AcDbEntity
  8
Layer_1
 62
7
100
AcDbPolyline
 90
2
 70
0
 10
166.410670
 20
348.253433
 30
0.0
 10
166.070680
 20
348.142440
 30
0.0
  0
LWPOLYLINE
  5
190
100
AcDbEntity
  8
Layer_1
 62
7
100
AcDbPolyline
 90
2
 70
0
 10
166.766660
 20
348.275420
 30
0.0
 10
166.410670
 20
348.253460
 30
0.0
  0
LWPOLYLINE
  5
191
100
AcDbEntity
  8
Layer_1
 62
7
100
AcDbPolyline
 90
2
 70
0
 10
167.117690
 20
348.208427
 30
0.0
 10
166.766660
 20
348.275417
 30
0.0
  0
LWPOLYLINE
  5
192
100
AcDbEntity
  8
Layer_1
 62
7
100
AcDbPolyline
 90
2
 70
0
 10
167.440690
 20
348.056424
 30
0.0
 10
167.117690
 20
348.208427
 30
0.0
  0
LWPOLYLINE
  5
193
100
AcDbEntity
  8
Layer_1
 62
7
100
AcDbPolyline
 90
2
 70
0
 10
167.716680
 20
347.828433
 30
0.0
 10
167.440690
 20
348.056424
 30
0.0
  0
LWPOLYLINE
  5
194
100
AcDbEntity
  8
Layer_1
 62
7
100
AcDbPolyline
 90
2
 70
0
 10
167.926680
 20
347.539429
 30
0.0
 10
167.716680
 20
347.828433
 30
0.0
  0
LWPOLYLINE
  5
195
100
AcDbEntity
  8
Layer_1
 62
7
100
AcDbPolyline
 90
2
 70
0
 10
168.057670
 20
347.207429
 30
0.0
 10
167.926680
 20
347.539429
 30
0.0
  0
LWPOLYLINE
  5
196
100
AcDbEntity
  8
Layer_1
 62
7
100
AcDbPolyline
 90
2
 70
0
 10
168.102680
 20
346.853443
 30
0.0
 10
168.057680
 20
347.207429
 30
0.0
  0
LWPOLYLINE
  5
197
100
AcDbEntity
  8
Layer_1
 62
7
100
AcDbPolyline
 90
4
 70
1
 10
15.752688
 20
377.928438
 30
0.0
 10
15.752688
 20
380.778424
 30
0.0
 10
20.602678
 20
380.778424
 30
0.0
 10
20.602678
 20
377.928438
 30
0.0
  0
LWPOLYLINE
  5
198
100
AcDbEntity
  8
Layer_1
 62
7
100
AcDbPolyline
 90
4
 70
1
 10
165.602680
 20
380.778424
 30
0.0
 10
165.602680
 20
377.928438
 30
0.0
 10
160.752690
 20
377.928438
 30
0.0
 10
160.752690
 20
380.778424
 30
0.0
  0
LWPOLYLINE
  5
199
100
AcDbEntity
  8
Layer_1
 62
7
100
AcDbPolyline
 90
2
 70
0
 10
153.102680
 20
340.778425
 30
0.0
 10
153.102680
 20
380.778424
 30
0.0
  0
LWPOLYLINE
  5
19a
100
AcDbEntity
  8
Layer_1
 62
7
100
AcDbPolyline
 90
2
 70
0
 10
173.252690
 20
340.778425
 30
0.0
 10
153.102680
 20
340.778425
 30
0.0
  0
LWPOLYLINE
  5
19b
100
AcDbEntity
  8
Layer_1
 62
7
100
AcDbPolyline
 90
2
 70
0
 10
173.252690
 20
380.778424
 30
0.0
 10
173.252690
 20
340.778425
 30
0.0
  0
LWPOLYLINE
  5
19c
100
AcDbEntity
  8
Layer_1
 62
7
100
AcDbPolyline
 90
2
 70
0
 10
176.252670
 20
380.778424
 30
0.0
 10
173.252690
 20
380.778424
 30
0.0
  0
LWPOLYLINE
  5
19d
100
AcDbEntity
  8
Layer_1
 62
7
100
AcDbPolyline
 90
4
 70
0
 10
176.252670
 20
380.778424
 30
0.0
 10
176.252670
 20
588.928440
 30
0.0
 10
5.102679
 20
588.928440
 30
0.0
 10
5.102679
 20
380.778424
 30
0.0
  0
LWPOLYLINE
  5
19e
100
AcDbEntity
  8
Layer_1
 62
7
100
AcDbPolyline
 90
2
 70
0
 10
8.102679
 20
380.778424
 30
0.0
 10
5.102679
 20
380.778424
 30
0.0
  0
LWPOLYLINE
  5
19f
100
AcDbEntity
  8
Layer_1
 62
7
100
AcDbPolyline
 90
2
 70
0
 10
8.102679
 20
340.778425
 30
0.0
 10
8.102679
 20
380.778424
 30
0.0
  0
LWPOLYLINE
  5
1a0
100
AcDbEntity
  8
Layer_1
 62
7
100
AcDbPolyline
 90
2
 70
0
 10
28.252688
 20
380.778424
 30
0.0
 10
153.102680
 20
380.778424
 30
0.0
  0
LWPOLYLINE
  5
1a1
100
AcDbEntity
  8
Layer_1
 62
7
100
AcDbPolyline
 90
3
 70
0
 10
8.102679
 20
340.778425
 30
0.0
 10
28.252688
 20
340.778425
 30
0.0
 10
28.252688
 20
380.778424
 30
0.0
  0
LWPOLYLINE
  5
1a2
100
AcDbEntity
  8
Layer_1
 62
7
100
AcDbPolyline
 90
2
 70
0
 10
254.682460
 20
346.498411
 30
0.0
 10
254.727460
 20
346.853429
 30
0.0
  0
LWPOLYLINE
  5
1a3
100
AcDbEntity
  8
Layer_1
 62
7
100
AcDbPolyline
 90
2
 70
0
 10
254.551470
 20
346.166412
 30
0.0
 10
254.682460
 20
346.498411
 30
0.0
  0
LWPOLYLINE
  5
1a4
100
AcDbEntity
  8
Layer_1
 62
7
100
AcDbPolyline
 90
2
 70
0
 10
254.341470
 20
345.877408
 30
0.0
 10
254.551470
 20
346.166412
 30
0.0
  0
LWPOLYLINE
  5
1a5
100
AcDbEntity
  8
Layer_1
 62
7
100
AcDbPolyline
 90
2
 70
0
 10
254.065480
 20
345.650422
 30
0.0
 10
254.341470
 20
345.877408
 30
0.0
  0
LWPOLYLINE
  5
1a6
100
AcDbEntity
  8
Layer_1
 62
7
100
AcDbPolyline
 90
2
 70
0
 10
253.742480
 20
345.498419
 30
0.0
 10
254.065480
 20
345.650422
 30
0.0
  0
LWPOLYLINE
  5
1a7
100
AcDbEntity
  8
Layer_1
 62
7
100
AcDbPolyline
 90
2
 70
0
 10
253.391480
 20
345.431426
 30
0.0
 10
253.742480
 20
345.498416
 30
0.0
  0
LWPOLYLINE
  5
1a8
100
AcDbEntity
  8
Layer_1
 62
7
100
AcDbPolyline
 90
2
 70
0
 10
253.035460
 20
345.453413
 30
0.0
 10
253.391480
 20
345.431453
 30
0.0
  0
LWPOLYLINE
  5
1a9
100
AcDbEntity
  8
Layer_1
 62
7
100
AcDbPolyline
 90
2
 70
0
 10
252.695470
 20
345.563427
 30
0.0
 10
253.035460
 20
345.453413
 30
0.0
  0
LWPOLYLINE
  5
1aa
100
AcDbEntity
  8
Layer_1
 62
7
100
AcDbPolyline
 90
2
 70
0
 10
252.394480
 20
345.755409
 30
0.0
 10
252.695470
 20
345.563427
 30
0.0
  0
LWPOLYLINE
  5
1ab
100
AcDbEntity
  8
Layer_1
 62
7
100
AcDbPolyline
 90
2
 70
0
 10
252.149470
 20
346.015415
 30
0.0
 10
252.394480
 20
345.755409
 30
0.0
  0
LWPOLYLINE
  5
1ac
100
AcDbEntity
  8
Layer_1
 62
7
100
AcDbPolyline
 90
2
 70
0
 10
251.977470
 20
346.328417
 30
0.0
 10
252.149470
 20
346.015415
 30
0.0
  0
LWPOLYLINE
  5
1ad
100
AcDbEntity
  8
Layer_1
 62
7
100
AcDbPolyline
 90
2
 70
0
 10
251.888460
 20
346.674412
 30
0.0
 10
251.977460
 20
346.328417
 30
0.0
  0
LWPOLYLINE
  5
1ae
100
AcDbEntity
  8
Layer_1
 62
7
100
AcDbPolyline
 90
2
 70
0
 10
251.888460
 20
347.031415
 30
0.0
 10
251.888460
 20
346.674412
 30
0.0
  0
LWPOLYLINE
  5
1af
100
AcDbEntity
  8
Layer_1
 62
7
100
AcDbPolyline
 90
2
 70
0
 10
251.977470
 20
347.377410
 30
0.0
 10
251.888470
 20
347.031415
 30
0.0
  0
LWPOLYLINE
  5
1b0
100
AcDbEntity
  8
Layer_1
 62
7
100
AcDbPolyline
 90
2
 70
0
 10
252.149470
 20
347.690412
 30
0.0
 10
251.977470
 20
347.377410
 30
0.0
  0
LWPOLYLINE
  5
1b1
100
AcDbEntity
  8
Layer_1
 62
7
100
AcDbPolyline
 90
2
 70
0
 10
252.394480
 20
347.951424
 30
0.0
 10
252.149470
 20
347.690412
 30
0.0
  0
LWPOLYLINE
  5
1b2
100
AcDbEntity
  8
Layer_1
 62
7
100
AcDbPolyline
 90
2
 70
0
 10
252.695470
 20
348.142426
 30
0.0
 10
252.394480
 20
347.951424
 30
0.0
  0
LWPOLYLINE
  5
1b3
100
AcDbEntity
  8
Layer_1
 62
7
100
AcDbPolyline
 90
2
 70
0
 10
253.035460
 20
348.253419
 30
0.0
 10
252.695470
 20
348.142426
 30
0.0
  0
LWPOLYLINE
  5
1b4
100
AcDbEntity
  8
Layer_1
 62
7
100
AcDbPolyline
 90
2
 70
0
 10
253.391480
 20
348.275406
 30
0.0
 10
253.035460
 20
348.253446
 30
0.0
  0
LWPOLYLINE
  5
1b5
100
AcDbEntity
  8
Layer_1
 62
7
100
AcDbPolyline
 90
2
 70
0
 10
253.742480
 20
348.208414
 30
0.0
 10
253.391480
 20
348.275404
 30
0.0
  0
LWPOLYLINE
  5
1b6
100
AcDbEntity
  8
Layer_1
 62
7
100
AcDbPolyline
 90
2
 70
0
 10
254.065480
 20
348.056410
 30
0.0
 10
253.742480
 20
348.208414
 30
0.0
  0
LWPOLYLINE
  5
1b7
100
AcDbEntity
  8
Layer_1
 62
7
100
AcDbPolyline
 90
2
 70
0
 10
254.341470
 20
347.828419
 30
0.0
 10
254.065480
 20
348.056410
 30
0.0
  0
LWPOLYLINE
  5
1b8
100
AcDbEntity
  8
Layer_1
 62
7
100
AcDbPolyline
 90
2
 70
0
 10
254.551470
 20
347.539415
 30
0.0
 10
254.341470
 20
347.828419
 30
0.0
  0
LWPOLYLINE
  5
1b9
100
AcDbEntity
  8
Layer_1
 62
7
100
AcDbPolyline
 90
2
 70
0
 10
254.682460
 20
347.207415
 30
0.0
 10
254.551470
 20
347.539415
 30
0.0
  0
LWPOLYLINE
  5
1ba
100
AcDbEntity
  8
Layer_1
 62
7
100
AcDbPolyline
 90
2
 70
0
 10
254.727470
 20
346.853429
 30
0.0
 10
254.682470
 20
347.207415
 30
0.0
  0
LWPOLYLINE
  5
1bb
100
AcDbEntity
  8
Layer_1
 62
7
100
AcDbPolyline
 90
2
 70
0
 10
406.682470
 20
346.498411
 30
0.0
 10
406.727470
 20
346.853429
 30
0.0
  0
LWPOLYLINE
  5
1bc
100
AcDbEntity
  8
Layer_1
 62
7
100
AcDbPolyline
 90
2
 70
0
 10
406.551480
 20
346.166412
 30
0.0
 10
406.682470
 20
346.498411
 30
0.0
  0
LWPOLYLINE
  5
1bd
100
AcDbEntity
  8
Layer_1
 62
7
100
AcDbPolyline
 90
2
 70
0
 10
406.341480
 20
345.877408
 30
0.0
 10
406.551480
 20
346.166412
 30
0.0
  0
LWPOLYLINE
  5
1be
100
AcDbEntity
  8
Layer_1
 62
7
100
AcDbPolyline
 90
2
 70
0
 10
406.065480
 20
345.650422
 30
0.0
 10
406.341480
 20
345.877408
 30
0.0
  0
LWPOLYLINE
  5
1bf
100
AcDbEntity
  8
Layer_1
 62
7
100
AcDbPolyline
 90
2
 70
0
 10
405.742490
 20
345.498419
 30
0.0
 10
406.065480
 20
345.650422
 30
0.0
  0
LWPOLYLINE
  5
1c0
100
AcDbEntity
  8
Layer_1
 62
7
100
AcDbPolyline
 90
2
 70
0
 10
405.391450
 20
345.431426
 30
0.0
 10
405.742490
 20
345.498416
 30
0.0
  0
LWPOLYLINE
  5
1c1
100
AcDbEntity
  8
Layer_1
 62
7
100
AcDbPolyline
 90
2
 70
0
 10
405.035470
 20
345.453413
 30
0.0
 10
405.391450
 20
345.431453
 30
0.0
  0
LWPOLYLINE
  5
1c2
100
AcDbEntity
  8
Layer_1
 62
7
100
AcDbPolyline
 90
2
 70
0
 10
404.695470
 20
345.563427
 30
0.0
 10
405.035470
 20
345.453413
 30
0.0
  0
LWPOLYLINE
  5
1c3
100
AcDbEntity
  8
Layer_1
 62
7
100
AcDbPolyline
 90
2
 70
0
 10
404.394480
 20
345.755409
 30
0.0
 10
404.695470
 20
345.563427
 30
0.0
  0
LWPOLYLINE
  5
1c4
100
AcDbEntity
  8
Layer_1
 62
7
100
AcDbPolyline
 90
2
 70
0
 10
404.149470
 20
346.015415
 30
0.0
 10
404.394480
 20
345.755409
 30
0.0
  0
LWPOLYLINE
  5
1c5
100
AcDbEntity
  8
Layer_1
 62
7
100
AcDbPolyline
 90
2
 70
0
 10
403.977470
 20
346.328417
 30
0.0
 10
404.149470
 20
346.015415
 30
0.0
  0
LWPOLYLINE
  5
1c6
100
AcDbEntity
  8
Layer_1
 62
7
100
AcDbPolyline
 90
2
 70
0
 10
403.888470
 20
346.674412
 30
0.0
 10
403.977470
 20
346.328417
 30
0.0
  0
LWPOLYLINE
  5
1c7
100
AcDbEntity
  8
Layer_1
 62
7
100
AcDbPolyline
 90
2
 70
0
 10
403.888470
 20
347.031415
 30
0.0
 10
403.888470
 20
346.674412
 30
0.0
  0
LWPOLYLINE
  5
1c8
100
AcDbEntity
  8
Layer_1
 62
7
100
AcDbPolyline
 90
2
 70
0
 10
403.977470
 20
347.377410
 30
0.0
 10
403.888470
 20
347.031415
 30
0.0
  0
LWPOLYLINE
  5
1c9
100
AcDbEntity
  8
Layer_1
 62
7
100
AcDbPolyline
 90
2
 70
0
 10
404.149470
 20
347.690412
 30
0.0
 10
403.977470
 20
347.377410
 30
0.0
  0
LWPOLYLINE
  5
1ca
100
AcDbEntity
  8
Layer_1
 62
7
100
AcDbPolyline
 90
2
 70
0
 10
404.394480
 20
347.951424
 30
0.0
 10
404.149470
 20
347.690412
 30
0.0
  0
LWPOLYLINE
  5
1cb
100
AcDbEntity
  8
Layer_1
 62
7
100
AcDbPolyline
 90
2
 70
0
 10
404.695470
 20
348.142426
 30
0.0
 10
404.394480
 20
347.951424
 30
0.0
  0
LWPOLYLINE
  5
1cc
100
AcDbEntity
  8
Layer_1
 62
7
100
AcDbPolyline
 90
2
 70
0
 10
405.035470
 20
348.253419
 30
0.0
 10
404.695470
 20
348.142426
 30
0.0
  0
LWPOLYLINE
  5
1cd
100
AcDbEntity
  8
Layer_1
 62
7
100
AcDbPolyline
 90
2
 70
0
 10
405.391450
 20
348.275406
 30
0.0
 10
405.035470
 20
348.253446
 30
0.0
  0
LWPOLYLINE
  5
1ce
100
AcDbEntity
  8
Layer_1
 62
7
100
AcDbPolyline
 90
2
 70
0
 10
405.742490
 20
348.208414
 30
0.0
 10
405.391450
 20
348.275404
 30
0.0
  0
LWPOLYLINE
  5
1cf
100
AcDbEntity
  8
Layer_1
 62
7
100
AcDbPolyline
 90
2
 70
0
 10
406.065480
 20
348.056410
 30
0.0
 10
405.742490
 20
348.208414
 30
0.0
  0
LWPOLYLINE
  5
1d0
100
AcDbEntity
  8
Layer_1
 62
7
100
AcDbPolyline
 90
2
 70
0
 10
406.341480
 20
347.828419
 30
0.0
 10
406.065480
 20
348.056410
 30
0.0
  0
LWPOLYLINE
  5
1d1
100
AcDbEntity
  8
Layer_1
 62
7
100
AcDbPolyline
 90
2
 70
0
 10
406.551480
 20
347.539415
 30
0.0
 10
406.341480
 20
347.828419
 30
0.0
  0
LWPOLYLINE
  5
1d2
100
AcDbEntity
  8
Layer_1
 62
7
100
AcDbPolyline
 90
2
 70
0
 10
406.682470
 20
347.207415
 30
0.0
 10
406.551480
 20
347.539415
 30
0.0
  0
LWPOLYLINE
  5
1d3
100
AcDbEntity
  8
Layer_1
 62
7
100
AcDbPolyline
 90
2
 70
0
 10
406.727470
 20
346.853429
 30
0.0
 10
406.682470
 20
347.207415
 30
0.0
  0
LWPOLYLINE
  5
1d4
100
AcDbEntity
  8
Layer_1
 62
7
100
AcDbPolyline
 90
4
 70
1
 10
254.377480
 20
377.928424
 30
0.0
 10
254.377480
 20
380.778410
 30
0.0
 10
259.227470
 20
380.778410
 30
0.0
 10
259.227470
 20
377.928424
 30
0.0
  0
LWPOLYLINE
  5
1d5
100
AcDbEntity
  8
Layer_1
 62
7
100
AcDbPolyline
 90
4
 70
1
 10
404.227480
 20
380.778410
 30
0.0
 10
404.227480
 20
377.928424
 30
0.0
 10
399.377480
 20
377.928424
 30
0.0
 10
399.377480
 20
380.778410
 30
0.0
  0
LWPOLYLINE
  5
1d6
100
AcDbEntity
  8
Layer_1
 62
7
100
AcDbPolyline
 90
2
 70
0
 10
391.727470
 20
340.778411
 30
0.0
 10
391.727470
 20
380.778410
 30
0.0
  0
LWPOLYLINE
  5
1d7
100
AcDbEntity
  8
Layer_1
 62
7
100
AcDbPolyline
 90
2
 70
0
 10
411.877490
 20
340.778411
 30
0.0
 10
391.727470
 20
340.778411
 30
0.0
  0
LWPOLYLINE
  5
1d8
100
AcDbEntity
  8
Layer_1
 62
7
100
AcDbPolyline
 90
2
 70
0
 10
411.877490
 20
380.778410
 30
0.0
 10
411.877490
 20
340.778411
 30
0.0
  0
LWPOLYLINE
  5
1d9
100
AcDbEntity
  8
Layer_1
 62
7
100
AcDbPolyline
 90
2
 70
0
 10
414.877470
 20
380.778410
 30
0.0
 10
411.877490
 20
380.778410
 30
0.0
  0
LWPOLYLINE
  5
1da
100
AcDbEntity
  8
Layer_1
 62
7
100
AcDbPolyline
 90
4
 70
0
 10
414.877470
 20
380.778410
 30
0.0
 10
414.877470
 20
588.928440
 30
0.0
 10
243.727470
 20
588.928440
 30
0.0
 10
243.727470
 20
380.778410
 30
0.0
  0
LWPOLYLINE
  5
1db
100
AcDbEntity
  8
Layer_1
 62
7
100
AcDbPolyline
 90
2
 70
0
 10
246.727470
 20
380.778410
 30
0.0
 10
243.727470
 20
380.778410
 30
0.0
  0
LWPOLYLINE
  5
1dc
100
AcDbEntity
  8
Layer_1
 62
7
100
AcDbPolyline
 90
2
 70
0
 10
246.727470
 20
340.778411
 30
0.0
 10
246.727470
 20
380.778410
 30
0.0
  0
LWPOLYLINE
  5
1dd
100
AcDbEntity
  8
Layer_1
 62
7
100
AcDbPolyline
 90
2
 70
0
 10
266.877480
 20
380.778410
 30
0.0
 10
391.727470
 20
380.778410
 30
0.0
  0
LWPOLYLINE
  5
1de
100
AcDbEntity
  8
Layer_1
 62
7
100
AcDbPolyline
 90
3
 70
0
 10
246.727470
 20
340.778411
 30
0.0
 10
266.877480
 20
340.778411
 30
0.0
 10
266.877480
 20
380.778410
 30
0.0
  0
LWPOLYLINE
  5
1df
100
AcDbEntity
  8
Layer_1
 62
7
100
AcDbPolyline
 90
2
 70
0
 10
225.718590
 20
168.010440
 30
0.0
 10
225.364580
 20
168.055440
 30
0.0
  0
LWPOLYLINE
  5
1e0
100
AcDbEntity
  8
Layer_1
 62
7
100
AcDbPolyline
 90
2
 70
0
 10
226.051570
 20
167.879420
 30
0.0
 10
225.718590
 20
168.010440
 30
0.0
  0
LWPOLYLINE
  5
1e1
100
AcDbEntity
  8
Layer_1
 62
7
100
AcDbPolyline
 90
2
 70
0
 10
226.340580
 20
167.669420
 30
0.0
 10
226.051570
 20
167.879420
 30
0.0
  0
LWPOLYLINE
  5
1e2
100
AcDbEntity
  8
Layer_1
 62
7
100
AcDbPolyline
 90
2
 70
0
 10
226.567590
 20
167.394440
 30
0.0
 10
226.340580
 20
167.669420
 30
0.0
  0
LWPOLYLINE
  5
1e3
100
AcDbEntity
  8
Layer_1
 62
7
100
AcDbPolyline
 90
2
 70
0
 10
226.719590
 20
167.071440
 30
0.0
 10
226.567590
 20
167.394440
 30
0.0
  0
LWPOLYLINE
  5
1e4
100
AcDbEntity
  8
Layer_1
 62
7
100
AcDbPolyline
 90
2
 70
0
 10
226.786590
 20
166.720440
 30
0.0
 10
226.719590
 20
167.071440
 30
0.0
  0
LWPOLYLINE
  5
1e5
100
AcDbEntity
  8
Layer_1
 62
7
100
AcDbPolyline
 90
2
 70
0
 10
226.764570
 20
166.363440
 30
0.0
 10
226.786570
 20
166.720440
 30
0.0
  0
LWPOLYLINE
  5
1e6
100
AcDbEntity
  8
Layer_1
 62
7
100
AcDbPolyline
 90
2
 70
0
 10
226.653580
 20
166.023420
 30
0.0
 10
226.764570
 20
166.363440
 30
0.0
  0
LWPOLYLINE
  5
1e7
100
AcDbEntity
  8
Layer_1
 62
7
100
AcDbPolyline
 90
2
 70
0
 10
226.462580
 20
165.722430
 30
0.0
 10
226.653580
 20
166.023420
 30
0.0
  0
LWPOLYLINE
  5
1e8
100
AcDbEntity
  8
Layer_1
 62
7
100
AcDbPolyline
 90
2
 70
0
 10
226.202600
 20
165.477430
 30
0.0
 10
226.462580
 20
165.722430
 30
0.0
  0
LWPOLYLINE
  5
1e9
100
AcDbEntity
  8
Layer_1
 62
7
100
AcDbPolyline
 90
2
 70
0
 10
225.889600
 20
165.305420
 30
0.0
 10
226.202600
 20
165.477430
 30
0.0
  0
LWPOLYLINE
  5
1ea
100
AcDbEntity
  8
Layer_1
 62
7
100
AcDbPolyline
 90
2
 70
0
 10
225.543570
 20
165.216440
 30
0.0
 10
225.889600
 20
165.305440
 30
0.0
  0
LWPOLYLINE
  5
1eb
100
AcDbEntity
  8
Layer_1
 62
7
100
AcDbPolyline
 90
2
 70
0
 10
225.185590
 20
165.216440
 30
0.0
 10
225.543570
 20
165.216440
 30
0.0
  0
LWPOLYLINE
  5
1ec
100
AcDbEntity
  8
Layer_1
 62
7
100
AcDbPolyline
 90
2
 70
0
 10
224.839600
 20
165.305420
 30
0.0
 10
225.185590
 20
165.216420
 30
0.0
  0
LWPOLYLINE
  5
1ed
100
AcDbEntity
  8
Layer_1
 62
7
100
AcDbPolyline
 90
2
 70
0
 10
224.526590
 20
165.477430
 30
0.0
 10
224.839600
 20
165.305420
 30
0.0
  0
LWPOLYLINE
  5
1ee
100
AcDbEntity
  8
Layer_1
 62
7
100
AcDbPolyline
 90
2
 70
0
 10
224.266590
 20
165.722430
 30
0.0
 10
224.526590
 20
165.477430
 30
0.0
  0
LWPOLYLINE
  5
1ef
100
AcDbEntity
  8
Layer_1
 62
7
100
AcDbPolyline
 90
2
 70
0
 10
224.075590
 20
166.023420
 30
0.0
 10
224.266590
 20
165.722430
 30
0.0
  0
LWPOLYLINE
  5
1f0
100
AcDbEntity
  8
Layer_1
 62
7
100
AcDbPolyline
 90
2
 70
0
 10
223.964590
 20
166.363440
 30
0.0
 10
224.075590
 20
166.023420
 30
0.0
  0
LWPOLYLINE
  5
1f1
100
AcDbEntity
  8
Layer_1
 62
7
100
AcDbPolyline
 90
2
 70
0
 10
223.942580
 20
166.720440
 30
0.0
 10
223.964580
 20
166.363440
 30
0.0
  0
LWPOLYLINE
  5
1f2
100
AcDbEntity
  8
Layer_1
 62
7
100
AcDbPolyline
 90
2
 70
0
 10
224.009570
 20
167.071440
 30
0.0
 10
223.942570
 20
166.720440
 30
0.0
  0
LWPOLYLINE
  5
1f3
100
AcDbEntity
  8
Layer_1
 62
7
100
AcDbPolyline
 90
2
 70
0
 10
224.161570
 20
167.394440
 30
0.0
 10
224.009570
 20
167.071440
 30
0.0
  0
LWPOLYLINE
  5
1f4
100
AcDbEntity
  8
Layer_1
 62
7
100
AcDbPolyline
 90
2
 70
0
 10
224.389590
 20
167.669420
 30
0.0
 10
224.161570
 20
167.394440
 30
0.0
  0
LWPOLYLINE
  5
1f5
100
AcDbEntity
  8
Layer_1
 62
7
100
AcDbPolyline
 90
2
 70
0
 10
224.678600
 20
167.879420
 30
0.0
 10
224.389590
 20
167.669420
 30
0.0
  0
LWPOLYLINE
  5
1f6
100
AcDbEntity
  8
Layer_1
 62
7
100
AcDbPolyline
 90
2
 70
0
 10
225.010600
 20
168.010440
 30
0.0
 10
224.678600
 20
167.879420
 30
0.0
  0
LWPOLYLINE
  5
1f7
100
AcDbEntity
  8
Layer_1
 62
7
100
AcDbPolyline
 90
2
 70
0
 10
225.364580
 20
168.055420
 30
0.0
 10
225.010600
 20
168.010420
 30
0.0
  0
LWPOLYLINE
  5
1f8
100
AcDbEntity
  8
Layer_1
 62
7
100
AcDbPolyline
 90
2
 70
0
 10
225.718590
 20
16.010450
 30
0.0
 10
225.364580
 20
16.055450
 30
0.0
  0
LWPOLYLINE
  5
1f9
100
AcDbEntity
  8
Layer_1
 62
7
100
AcDbPolyline
 90
2
 70
0
 10
226.051570
 20
15.879430
 30
0.0
 10
225.718590
 20
16.010450
 30
0.0
  0
LWPOLYLINE
  5
1fa
100
AcDbEntity
  8
Layer_1
 62
7
100
AcDbPolyline
 90
2
 70
0
 10
226.340580
 20
15.669430
 30
0.0
 10
226.051570
 20
15.879430
 30
0.0
  0
LWPOLYLINE
  5
1fb
100
AcDbEntity
  8
Layer_1
 62
7
100
AcDbPolyline
 90
2
 70
0
 10
226.567590
 20
15.394450
 30
0.0
 10
226.340580
 20
15.669430
 30
0.0
  0
LWPOLYLINE
  5
1fc
100
AcDbEntity
  8
Layer_1
 62
7
100
AcDbPolyline
 90
2
 70
0
 10
226.719590
 20
15.071440
 30
0.0
 10
226.567590
 20
15.394450
 30
0.0
  0
LWPOLYLINE
  5
1fd
100
AcDbEntity
  8
Layer_1
 62
7
100
AcDbPolyline
 90
2
 70
0
 10
226.786590
 20
14.720450
 30
0.0
 10
226.719590
 20
15.071440
 30
0.0
  0
LWPOLYLINE
  5
1fe
100
AcDbEntity
  8
Layer_1
 62
7
100
AcDbPolyline
 90
2
 70
0
 10
226.764570
 20
14.363450
 30
0.0
 10
226.786570
 20
14.720450
 30
0.0
  0
LWPOLYLINE
  5
1ff
100
AcDbEntity
  8
Layer_1
 62
7
100
AcDbPolyline
 90
2
 70
0
 10
226.653580
 20
14.023430
 30
0.0
 10
226.764570
 20
14.363450
 30
0.0
  0
LWPOLYLINE
  5
200
100
AcDbEntity
  8
Layer_1
 62
7
100
AcDbPolyline
 90
2
 70
0
 10
226.462580
 20
13.722440
 30
0.0
 10
226.653580
 20
14.023430
 30
0.0
  0
LWPOLYLINE
  5
201
100
AcDbEntity
  8
Layer_1
 62
7
100
AcDbPolyline
 90
2
 70
0
 10
226.202600
 20
13.477440
 30
0.0
 10
226.462580
 20
13.722440
 30
0.0
  0
LWPOLYLINE
  5
202
100
AcDbEntity
  8
Layer_1
 62
7
100
AcDbPolyline
 90
2
 70
0
 10
225.889600
 20
13.305430
 30
0.0
 10
226.202600
 20
13.477440
 30
0.0
  0
LWPOLYLINE
  5
203
100
AcDbEntity
  8
Layer_1
 62
7
100
AcDbPolyline
 90
2
 70
0
 10
225.543570
 20
13.216450
 30
0.0
 10
225.889600
 20
13.305450
 30
0.0
  0
LWPOLYLINE
  5
204
100
AcDbEntity
  8
Layer_1
 62
7
100
AcDbPolyline
 90
2
 70
0
 10
225.185590
 20
13.216450
 30
0.0
 10
225.543570
 20
13.216450
 30
0.0
  0
LWPOLYLINE
  5
205
100
AcDbEntity
  8
Layer_1
 62
7
100
AcDbPolyline
 90
2
 70
0
 10
224.839600
 20
13.305430
 30
0.0
 10
225.185590
 20
13.216430
 30
0.0
  0
LWPOLYLINE
  5
206
100
AcDbEntity
  8
Layer_1
 62
7
100
AcDbPolyline
 90
2
 70
0
 10
224.526590
 20
13.477440
 30
0.0
 10
224.839600
 20
13.305430
 30
0.0
  0
LWPOLYLINE
  5
207
100
AcDbEntity
  8
Layer_1
 62
7
100
AcDbPolyline
 90
2
 70
0
 10
224.266590
 20
13.722440
 30
0.0
 10
224.526590
 20
13.477440
 30
0.0
  0
LWPOLYLINE
  5
208
100
AcDbEntity
  8
Layer_1
 62
7
100
AcDbPolyline
 90
2
 70
0
 10
224.075590
 20
14.023430
 30
0.0
 10
224.266590
 20
13.722440
 30
0.0
  0
LWPOLYLINE
  5
209
100
AcDbEntity
  8
Layer_1
 62
7
100
AcDbPolyline
 90
2
 70
0
 10
223.964590
 20
14.363450
 30
0.0
 10
224.075590
 20
14.023430
 30
0.0
  0
LWPOLYLINE
  5
20a
100
AcDbEntity
  8
Layer_1
 62
7
100
AcDbPolyline
 90
2
 70
0
 10
223.942580
 20
14.720450
 30
0.0
 10
223.964580
 20
14.363450
 30
0.0
  0
LWPOLYLINE
  5
20b
100
AcDbEntity
  8
Layer_1
 62
7
100
AcDbPolyline
 90
2
 70
0
 10
224.009570
 20
15.071440
 30
0.0
 10
223.942570
 20
14.720450
 30
0.0
  0
LWPOLYLINE
  5
20c
100
AcDbEntity
  8
Layer_1
 62
7
100
AcDbPolyline
 90
2
 70
0
 10
224.161570
 20
15.394450
 30
0.0
 10
224.009570
 20
15.071440
 30
0.0
  0
LWPOLYLINE
  5
20d
100
AcDbEntity
  8
Layer_1
 62
7
100
AcDbPolyline
 90
2
 70
0
 10
224.389590
 20
15.669430
 30
0.0
 10
224.161570
 20
15.394450
 30
0.0
  0
LWPOLYLINE
  5
20e
100
AcDbEntity
  8
Layer_1
 62
7
100
AcDbPolyline
 90
2
 70
0
 10
224.678600
 20
15.879430
 30
0.0
 10
224.389590
 20
15.669430
 30
0.0
  0
LWPOLYLINE
  5
20f
100
AcDbEntity
  8
Layer_1
 62
7
100
AcDbPolyline
 90
2
 70
0
 10
225.010600
 20
16.010450
 30
0.0
 10
224.678600
 20
15.879430
 30
0.0
  0
LWPOLYLINE
  5
210
100
AcDbEntity
  8
Layer_1
 62
7
100
AcDbPolyline
 90
2
 70
0
 10
225.364580
 20
16.055430
 30
0.0
 10
225.010600
 20
16.010430
 30
0.0
  0
LWPOLYLINE
  5
211
100
AcDbEntity
  8
Layer_1
 62
7
100
AcDbPolyline
 90
2
 70
0
 10
194.289600
 20
5.055430
 30
0.0
 10
194.289600
 20
15.055440
 30
0.0
  0
LWPOLYLINE
  5
212
100
AcDbEntity
  8
Layer_1
 62
7
100
AcDbPolyline
 90
2
 70
0
 10
194.289600
 20
5.055430
 30
0.0
 10
207.939580
 20
5.055430
 30
0.0
  0
LWPOLYLINE
  5
213
100
AcDbEntity
  8
Layer_1
 62
7
100
AcDbPolyline
 90
2
 70
0
 10
207.939580
 20
8.055430
 30
0.0
 10
207.939580
 20
5.055430
 30
0.0
  0
LWPOLYLINE
  5
214
100
AcDbEntity
  8
Layer_1
 62
7
100
AcDbPolyline
 90
2
 70
0
 10
217.789600
 20
8.055430
 30
0.0
 10
207.939580
 20
8.055430
 30
0.0
  0
LWPOLYLINE
  5
215
100
AcDbEntity
  8
Layer_1
 62
7
100
AcDbPolyline
 90
2
 70
0
 10
217.789600
 20
5.055430
 30
0.0
 10
217.789600
 20
8.055430
 30
0.0
  0
LWPOLYLINE
  5
216
100
AcDbEntity
  8
Layer_1
 62
7
100
AcDbPolyline
 90
2
 70
0
 10
217.789600
 20
5.055430
 30
0.0
 10
231.439570
 20
5.055430
 30
0.0
  0
LWPOLYLINE
  5
217
100
AcDbEntity
  8
Layer_1
 62
7
100
AcDbPolyline
 90
2
 70
0
 10
231.439570
 20
15.055440
 30
0.0
 10
231.439570
 20
5.055430
 30
0.0
  0
LWPOLYLINE
  5
218
100
AcDbEntity
  8
Layer_1
 62
7
100
AcDbPolyline
 90
2
 70
0
 10
234.439580
 20
15.055440
 30
0.0
 10
231.439570
 20
15.055440
 30
0.0
  0
LWPOLYLINE
  5
219
100
AcDbEntity
  8
Layer_1
 62
7
100
AcDbPolyline
 90
13
 70
0
 10
234.439580
 20
15.055440
 30
0.0
 10
234.439580
 20
30.205450
 30
0.0
 10
231.439570
 20
30.205450
 30
0.0
 10
231.439570
 20
83.055440
 30
0.0
 10
234.439580
 20
83.055440
 30
0.0
 10
234.439580
 20
98.205430
 30
0.0
 10
231.439570
 20
98.205430
 30
0.0
 10
231.439570
 20
151.055440
 30
0.0
 10
234.439580
 20
151.055440
 30
0.0
 10
234.439580
 20
166.205430
 30
0.0
 10
231.439570
 20
166.205430
 30
0.0
 10
231.439570
 20
176.205430
 30
0.0
 10
217.789600
 20
176.205430
 30
0.0
  0
LWPOLYLINE
  5
21a
100
AcDbEntity
  8
Layer_1
 62
7
100
AcDbPolyline
 90
2
 70
0
 10
217.789600
 20
173.205430
 30
0.0
 10
217.789600
 20
176.205430
 30
0.0
  0
LWPOLYLINE
  5
21b
100
AcDbEntity
  8
Layer_1
 62
7
100
AcDbPolyline
 90
2
 70
0
 10
207.939580
 20
173.205430
 30
0.0
 10
217.789600
 20
173.205430
 30
0.0
  0
LWPOLYLINE
  5
21c
100
AcDbEntity
  8
Layer_1
 62
7
100
AcDbPolyline
 90
2
 70
0
 10
207.939580
 20
176.205430
 30
0.0
 10
207.939580
 20
173.205430
 30
0.0
  0
LWPOLYLINE
  5
21d
100
AcDbEntity
  8
Layer_1
 62
7
100
AcDbPolyline
 90
12
 70
0
 10
207.939580
 20
176.205430
 30
0.0
 10
194.289600
 20
176.205430
 30
0.0
 10
194.289600
 20
166.205430
 30
0.0
 10
191.289590
 20
166.205430
 30
0.0
 10
191.289590
 20
151.055440
 30
0.0
 10
194.289600
 20
151.055440
 30
0.0
 10
194.289600
 20
98.205430
 30
0.0
 10
191.289590
 20
98.205430
 30
0.0
 10
191.289590
 20
83.055440
 30
0.0
 10
194.289600
 20
83.055440
 30
0.0
 10
194.289600
 20
30.205450
 30
0.0
 10
191.289590
 20
30.205450
 30
0.0
  0
LWPOLYLINE
  5
21e
100
AcDbEntity
  8
Layer_1
 62
7
100
AcDbPolyline
 90
3
 70
0
 10
194.289600
 20
15.055440
 30
0.0
 10
191.289590
 20
15.055440
 30
0.0
 10
191.289590
 20
30.205450
 30
0.0
  0
LWPOLYLINE
  5
21f
100
AcDbEntity
  8
Layer_1
 62
7
100
AcDbPolyline
 90
2
 70
0
 10
243.727490
 20
279.214232
 30
0.0
 10
243.727490
 20
287.364212
 30
0.0
  0
LWPOLYLINE
  5
220
100
AcDbEntity
  8
Layer_1
 62
7
100
AcDbPolyline
 90
2
 70
0
 10
253.877480
 20
279.214232
 30
0.0
 10
243.727490
 20
279.214232
 30
0.0
  0
LWPOLYLINE
  5
221
100
AcDbEntity
  8
Layer_1
 62
7
100
AcDbPolyline
 90
4
 70
0
 10
253.877480
 20
279.214232
 30
0.0
 10
253.877480
 20
282.214232
 30
0.0
 10
268.727490
 20
282.214232
 30
0.0
 10
268.727490
 20
279.214232
 30
0.0
  0
LWPOLYLINE
  5
222
100
AcDbEntity
  8
Layer_1
 62
7
100
AcDbPolyline
 90
2
 70
0
 10
321.877480
 20
279.214232
 30
0.0
 10
268.727490
 20
279.214232
 30
0.0
  0
LWPOLYLINE
  5
223
100
AcDbEntity
  8
Layer_1
 62
7
100
AcDbPolyline
 90
2
 70
0
 10
321.877480
 20
279.214232
 30
0.0
 10
321.877480
 20
282.214232
 30
0.0
  0
LWPOLYLINE
  5
224
100
AcDbEntity
  8
Layer_1
 62
7
100
AcDbPolyline
 90
2
 70
0
 10
336.727490
 20
282.214232
 30
0.0
 10
321.877480
 20
282.214232
 30
0.0
  0
LWPOLYLINE
  5
225
100
AcDbEntity
  8
Layer_1
 62
7
100
AcDbPolyline
 90
2
 70
0
 10
336.727490
 20
282.214232
 30
0.0
 10
336.727490
 20
279.214232
 30
0.0
  0
LWPOLYLINE
  5
226
100
AcDbEntity
  8
Layer_1
 62
7
100
AcDbPolyline
 90
2
 70
0
 10
389.877490
 20
279.214232
 30
0.0
 10
336.727490
 20
279.214232
 30
0.0
  0
LWPOLYLINE
  5
227
100
AcDbEntity
  8
Layer_1
 62
7
100
AcDbPolyline
 90
2
 70
0
 10
389.877490
 20
279.214232
 30
0.0
 10
389.877490
 20
282.214222
 30
0.0
  0
LWPOLYLINE
  5
228
100
AcDbEntity
  8
Layer_1
 62
7
100
AcDbPolyline
 90
2
 70
0
 10
404.727470
 20
282.214222
 30
0.0
 10
389.877490
 20
282.214222
 30
0.0
  0
LWPOLYLINE
  5
229
100
AcDbEntity
  8
Layer_1
 62
7
100
AcDbPolyline
 90
2
 70
0
 10
404.727470
 20
282.214222
 30
0.0
 10
404.727470
 20
279.214232
 30
0.0
  0
LWPOLYLINE
  5
22a
100
AcDbEntity
  8
Layer_1
 62
7
100
AcDbPolyline
 90
2
 70
0
 10
414.877470
 20
279.214232
 30
0.0
 10
404.727470
 20
279.214232
 30
0.0
  0
LWPOLYLINE
  5
22b
100
AcDbEntity
  8
Layer_1
 62
7
100
AcDbPolyline
 90
28
 70
0
 10
414.877470
 20
279.214232
 30
0.0
 10
414.877470
 20
287.364202
 30
0.0
 10
411.877490
 20
287.364202
 30
0.0
 10
411.877490
 20
292.364222
 30
0.0
 10
376.727490
 20
292.364222
 30
0.0
 10
376.727490
 20
286.864222
 30
0.0
 10
365.877480
 20
286.864222
 30
0.0
 10
365.877480
 20
292.364222
 30
0.0
 10
350.727470
 20
292.364232
 30
0.0
 10
350.727470
 20
291.364212
 30
0.0
 10
348.727480
 20
291.364212
 30
0.0
 10
348.727480
 20
288.364232
 30
0.0
 10
340.377470
 20
288.364232
 30
0.0
 10
340.377470
 20
291.364212
 30
0.0
 10
336.727490
 20
291.364212
 30
0.0
 10
336.727490
 20
290.364222
 30
0.0
 10
330.377490
 20
290.364222
 30
0.0
 10
330.377490
 20
292.364232
 30
0.0
 10
325.727490
 20
292.364232
 30
0.0
 10
325.727490
 20
291.364212
 30
0.0
 10
321.877480
 20
291.364212
 30
0.0
 10
321.877480
 20
292.364232
 30
0.0
 10
309.227490
 20
292.364232
 30
0.0
 10
309.227490
 20
291.364212
 30
0.0
 10
303.227480
 20
291.364212
 30
0.0
 10
303.227480
 20
285.364232
 30
0.0
 10
277.377480
 20
285.364232
 30
0.0
 10
277.377480
 20
292.364232
 30
0.0
  0
LWPOLYLINE
  5
22c
100
AcDbEntity
  8
Layer_1
 62
7
100
AcDbPolyline
 90
2
 70
0
 10
246.727490
 20
287.364212
 30
0.0
 10
243.727490
 20
287.364212
 30
0.0
  0
LWPOLYLINE
  5
22d
100
AcDbEntity
  8
Layer_1
 62
7
100
AcDbPolyline
 90
3
 70
0
 10
246.727490
 20
287.364212
 30
0.0
 10
246.727490
 20
292.364232
 30
0.0
 10
277.377480
 20
292.364232
 30
0.0
  0
LWPOLYLINE
  5
22e
100
AcDbEntity
  8
Layer_1
 62
7
100
AcDbPolyline
 90
2
 70
0
 10
404.727470
 20
321.334581
 30
0.0
 10
414.877470
 20
321.334581
 30
0.0
  0
LWPOLYLINE
  5
22f
100
AcDbEntity
  8
Layer_1
 62
7
100
AcDbPolyline
 90
4
 70
0
 10
404.727470
 20
321.334581
 30
0.0
 10
404.727470
 20
324.334581
 30
0.0
 10
389.877470
 20
324.334581
 30
0.0
 10
389.877470
 20
321.334581
 30
0.0
  0
LWPOLYLINE
  5
230
100
AcDbEntity
  8
Layer_1
 62
7
100
AcDbPolyline
 90
2
 70
0
 10
336.727470
 20
321.334591
 30
0.0
 10
389.877470
 20
321.334581
 30
0.0
  0
LWPOLYLINE
  5
231
100
AcDbEntity
  8
Layer_1
 62
7
100
AcDbPolyline
 90
2
 70
0
 10
336.727470
 20
321.334591
 30
0.0
 10
336.727470
 20
324.334591
 30
0.0
  0
LWPOLYLINE
  5
232
100
AcDbEntity
  8
Layer_1
 62
7
100
AcDbPolyline
 90
2
 70
0
 10
321.877490
 20
324.334591
 30
0.0
 10
336.727470
 20
324.334591
 30
0.0
  0
LWPOLYLINE
  5
233
100
AcDbEntity
  8
Layer_1
 62
7
100
AcDbPolyline
 90
2
 70
0
 10
321.877490
 20
324.334591
 30
0.0
 10
321.877490
 20
321.334591
 30
0.0
  0
LWPOLYLINE
  5
234
100
AcDbEntity
  8
Layer_1
 62
7
100
AcDbPolyline
 90
2
 70
0
 10
268.727490
 20
321.334591
 30
0.0
 10
321.877490
 20
321.334591
 30
0.0
  0
LWPOLYLINE
  5
235
100
AcDbEntity
  8
Layer_1
 62
7
100
AcDbPolyline
 90
2
 70
0
 10
268.727490
 20
321.334591
 30
0.0
 10
268.727490
 20
324.334591
 30
0.0
  0
LWPOLYLINE
  5
236
100
AcDbEntity
  8
Layer_1
 62
7
100
AcDbPolyline
 90
2
 70
0
 10
253.877480
 20
324.334591
 30
0.0
 10
268.727490
 20
324.334591
 30
0.0
  0
LWPOLYLINE
  5
237
100
AcDbEntity
  8
Layer_1
 62
7
100
AcDbPolyline
 90
2
 70
0
 10
253.877480
 20
324.334591
 30
0.0
 10
253.877480
 20
321.334591
 30
0.0
  0
LWPOLYLINE
  5
238
100
AcDbEntity
  8
Layer_1
 62
7
100
AcDbPolyline
 90
2
 70
0
 10
243.727490
 20
321.334591
 30
0.0
 10
253.877480
 20
321.334591
 30
0.0
  0
LWPOLYLINE
  5
239
100
AcDbEntity
  8
Layer_1
 62
7
100
AcDbPolyline
 90
4
 70
0
 10
243.727490
 20
321.334591
 30
0.0
 10
243.727490
 20
329.484591
 30
0.0
 10
246.727500
 20
329.484591
 30
0.0
 10
246.727500
 20
331.484591
 30
0.0
  0
LWPOLYLINE
  5
23a
100
AcDbEntity
  8
Layer_1
 62
7
100
AcDbPolyline
 90
2
 70
0
 10
254.227480
 20
331.484591
 30
0.0
 10
246.727500
 20
331.484591
 30
0.0
  0
LWPOLYLINE
  5
23b
100
AcDbEntity
  8
Layer_1
 62
7
100
AcDbPolyline
 90
12
 70
0
 10
254.227480
 20
331.484591
 30
0.0
 10
254.227480
 20
334.484591
 30
0.0
 10
259.377480
 20
334.484591
 30
0.0
 10
259.377480
 20
331.484591
 30
0.0
 10
266.727490
 20
331.484591
 30
0.0
 10
266.727490
 20
334.484591
 30
0.0
 10
321.877490
 20
334.484591
 30
0.0
 10
321.877490
 20
333.484591
 30
0.0
 10
335.727480
 20
333.484591
 30
0.0
 10
335.727480
 20
334.484591
 30
0.0
 10
391.877480
 20
334.484581
 30
0.0
 10
391.877480
 20
331.484581
 30
0.0
  0
LWPOLYLINE
  5
23c
100
AcDbEntity
  8
Layer_1
 62
7
100
AcDbPolyline
 90
2
 70
0
 10
399.227480
 20
331.484581
 30
0.0
 10
391.877480
 20
331.484581
 30
0.0
  0
LWPOLYLINE
  5
23d
100
AcDbEntity
  8
Layer_1
 62
7
100
AcDbPolyline
 90
2
 70
0
 10
399.227480
 20
334.484581
 30
0.0
 10
399.227480
 20
331.484581
 30
0.0
  0
LWPOLYLINE
  5
23e
100
AcDbEntity
  8
Layer_1
 62
7
100
AcDbPolyline
 90
2
 70
0
 10
399.227480
 20
334.484581
 30
0.0
 10
404.377480
 20
334.484581
 30
0.0
  0
LWPOLYLINE
  5
23f
100
AcDbEntity
  8
Layer_1
 62
7
100
AcDbPolyline
 90
2
 70
0
 10
404.377480
 20
331.484581
 30
0.0
 10
404.377480
 20
334.484581
 30
0.0
  0
LWPOLYLINE
  5
240
100
AcDbEntity
  8
Layer_1
 62
7
100
AcDbPolyline
 90
2
 70
0
 10
411.877470
 20
331.484581
 30
0.0
 10
404.377480
 20
331.484581
 30
0.0
  0
LWPOLYLINE
  5
241
100
AcDbEntity
  8
Layer_1
 62
7
100
AcDbPolyline
 90
2
 70
0
 10
411.877470
 20
329.484581
 30
0.0
 10
411.877470
 20
331.484581
 30
0.0
  0
LWPOLYLINE
  5
242
100
AcDbEntity
  8
Layer_1
 62
7
100
AcDbPolyline
 90
2
 70
0
 10
411.877470
 20
329.484581
 30
0.0
 10
414.877470
 20
329.484581
 30
0.0
  0
LWPOLYLINE
  5
243
100
AcDbEntity
  8
Layer_1
 62
7
100
AcDbPolyline
 90
2
 70
0
 10
414.877470
 20
321.334581
 30
0.0
 10
414.877470
 20
329.484581
 30
0.0
  0
LWPOLYLINE
  5
244
100
AcDbEntity
  8
Layer_1
 62
7
100
AcDbPolyline
 90
2
 70
0
 10
403.922480
 20
247.485472
 30
0.0
 10
403.877480
 20
247.130462
 30
0.0
  0
LWPOLYLINE
  5
245
100
AcDbEntity
  8
Layer_1
 62
7
100
AcDbPolyline
 90
2
 70
0
 10
404.053470
 20
247.817472
 30
0.0
 10
403.922480
 20
247.485472
 30
0.0
  0
LWPOLYLINE
  5
246
100
AcDbEntity
  8
Layer_1
 62
7
100
AcDbPolyline
 90
2
 70
0
 10
404.263470
 20
248.106472
 30
0.0
 10
404.053470
 20
247.817472
 30
0.0
  0
LWPOLYLINE
  5
247
100
AcDbEntity
  8
Layer_1
 62
7
100
AcDbPolyline
 90
2
 70
0
 10
404.539460
 20
248.333462
 30
0.0
 10
404.263470
 20
248.106472
 30
0.0
  0
LWPOLYLINE
  5
248
100
AcDbEntity
  8
Layer_1
 62
7
100
AcDbPolyline
 90
2
 70
0
 10
404.862460
 20
248.485462
 30
0.0
 10
404.539460
 20
248.333462
 30
0.0
  0
LWPOLYLINE
  5
249
100
AcDbEntity
  8
Layer_1
 62
7
100
AcDbPolyline
 90
2
 70
0
 10
405.213460
 20
248.552462
 30
0.0
 10
404.862460
 20
248.485462
 30
0.0
  0
LWPOLYLINE
  5
24a
100
AcDbEntity
  8
Layer_1
 62
7
100
AcDbPolyline
 90
2
 70
0
 10
405.569480
 20
248.530472
 30
0.0
 10
405.213460
 20
248.552472
 30
0.0
  0
LWPOLYLINE
  5
24b
100
AcDbEntity
  8
Layer_1
 62
7
100
AcDbPolyline
 90
2
 70
0
 10
405.909470
 20
248.420462
 30
0.0
 10
405.569480
 20
248.530472
 30
0.0
  0
LWPOLYLINE
  5
24c
100
AcDbEntity
  8
Layer_1
 62
7
100
AcDbPolyline
 90
2
 70
0
 10
406.210460
 20
248.228472
 30
0.0
 10
405.909470
 20
248.420462
 30
0.0
  0
LWPOLYLINE
  5
24d
100
AcDbEntity
  8
Layer_1
 62
7
100
AcDbPolyline
 90
2
 70
0
 10
406.455470
 20
247.968472
 30
0.0
 10
406.210460
 20
248.228472
 30
0.0
  0
LWPOLYLINE
  5
24e
100
AcDbEntity
  8
Layer_1
 62
7
100
AcDbPolyline
 90
2
 70
0
 10
406.627470
 20
247.655472
 30
0.0
 10
406.455470
 20
247.968472
 30
0.0
  0
LWPOLYLINE
  5
24f
100
AcDbEntity
  8
Layer_1
 62
7
100
AcDbPolyline
 90
2
 70
0
 10
406.716480
 20
247.309472
 30
0.0
 10
406.627480
 20
247.655472
 30
0.0
  0
LWPOLYLINE
  5
250
100
AcDbEntity
  8
Layer_1
 62
7
100
AcDbPolyline
 90
2
 70
0
 10
406.716480
 20
246.952472
 30
0.0
 10
406.716480
 20
247.309472
 30
0.0
  0
LWPOLYLINE
  5
251
100
AcDbEntity
  8
Layer_1
 62
7
100
AcDbPolyline
 90
2
 70
0
 10
406.627470
 20
246.606472
 30
0.0
 10
406.716470
 20
246.952472
 30
0.0
  0
LWPOLYLINE
  5
252
100
AcDbEntity
  8
Layer_1
 62
7
100
AcDbPolyline
 90
2
 70
0
 10
406.455470
 20
246.293472
 30
0.0
 10
406.627470
 20
246.606472
 30
0.0
  0
LWPOLYLINE
  5
253
100
AcDbEntity
  8
Layer_1
 62
7
100
AcDbPolyline
 90
2
 70
0
 10
406.210460
 20
246.032462
 30
0.0
 10
406.455470
 20
246.293472
 30
0.0
  0
LWPOLYLINE
  5
254
100
AcDbEntity
  8
Layer_1
 62
7
100
AcDbPolyline
 90
2
 70
0
 10
405.909470
 20
245.841462
 30
0.0
 10
406.210460
 20
246.032462
 30
0.0
  0
LWPOLYLINE
  5
255
100
AcDbEntity
  8
Layer_1
 62
7
100
AcDbPolyline
 90
2
 70
0
 10
405.569480
 20
245.730462
 30
0.0
 10
405.909470
 20
245.841462
 30
0.0
  0
LWPOLYLINE
  5
256
100
AcDbEntity
  8
Layer_1
 62
7
100
AcDbPolyline
 90
2
 70
0
 10
405.213460
 20
245.708482
 30
0.0
 10
405.569480
 20
245.730482
 30
0.0
  0
LWPOLYLINE
  5
257
100
AcDbEntity
  8
Layer_1
 62
7
100
AcDbPolyline
 90
2
 70
0
 10
404.862460
 20
245.775472
 30
0.0
 10
405.213460
 20
245.708472
 30
0.0
  0
LWPOLYLINE
  5
258
100
AcDbEntity
  8
Layer_1
 62
7
100
AcDbPolyline
 90
2
 70
0
 10
404.539460
 20
245.927472
 30
0.0
 10
404.862460
 20
245.775472
 30
0.0
  0
LWPOLYLINE
  5
259
100
AcDbEntity
  8
Layer_1
 62
7
100
AcDbPolyline
 90
2
 70
0
 10
404.263470
 20
246.155462
 30
0.0
 10
404.539460
 20
245.927472
 30
0.0
  0
LWPOLYLINE
  5
25a
100
AcDbEntity
  8
Layer_1
 62
7
100
AcDbPolyline
 90
2
 70
0
 10
404.053470
 20
246.444472
 30
0.0
 10
404.263470
 20
246.155462
 30
0.0
  0
LWPOLYLINE
  5
25b
100
AcDbEntity
  8
Layer_1
 62
7
100
AcDbPolyline
 90
2
 70
0
 10
403.922480
 20
246.776472
 30
0.0
 10
404.053470
 20
246.444472
 30
0.0
  0
LWPOLYLINE
  5
25c
100
AcDbEntity
  8
Layer_1
 62
7
100
AcDbPolyline
 90
2
 70
0
 10
403.877470
 20
247.130462
 30
0.0
 10
403.922470
 20
246.776472
 30
0.0
  0
LWPOLYLINE
  5
25d
100
AcDbEntity
  8
Layer_1
 62
7
100
AcDbPolyline
 90
2
 70
0
 10
251.922470
 20
247.485472
 30
0.0
 10
251.877470
 20
247.130462
 30
0.0
  0
LWPOLYLINE
  5
25e
100
AcDbEntity
  8
Layer_1
 62
7
100
AcDbPolyline
 90
2
 70
0
 10
252.053460
 20
247.817472
 30
0.0
 10
251.922470
 20
247.485472
 30
0.0
  0
LWPOLYLINE
  5
25f
100
AcDbEntity
  8
Layer_1
 62
7
100
AcDbPolyline
 90
2
 70
0
 10
252.263460
 20
248.106472
 30
0.0
 10
252.053460
 20
247.817472
 30
0.0
  0
LWPOLYLINE
  5
260
100
AcDbEntity
  8
Layer_1
 62
7
100
AcDbPolyline
 90
2
 70
0
 10
252.539460
 20
248.333462
 30
0.0
 10
252.263460
 20
248.106472
 30
0.0
  0
LWPOLYLINE
  5
261
100
AcDbEntity
  8
Layer_1
 62
7
100
AcDbPolyline
 90
2
 70
0
 10
252.862450
 20
248.485462
 30
0.0
 10
252.539460
 20
248.333462
 30
0.0
  0
LWPOLYLINE
  5
262
100
AcDbEntity
  8
Layer_1
 62
7
100
AcDbPolyline
 90
2
 70
0
 10
253.213490
 20
248.552462
 30
0.0
 10
252.862450
 20
248.485462
 30
0.0
  0
LWPOLYLINE
  5
263
100
AcDbEntity
  8
Layer_1
 62
7
100
AcDbPolyline
 90
2
 70
0
 10
253.569470
 20
248.530472
 30
0.0
 10
253.213490
 20
248.552472
 30
0.0
  0
LWPOLYLINE
  5
264
100
AcDbEntity
  8
Layer_1
 62
7
100
AcDbPolyline
 90
2
 70
0
 10
253.909470
 20
248.420462
 30
0.0
 10
253.569470
 20
248.530472
 30
0.0
  0
LWPOLYLINE
  5
265
100
AcDbEntity
  8
Layer_1
 62
7
100
AcDbPolyline
 90
2
 70
0
 10
254.210460
 20
248.228472
 30
0.0
 10
253.909470
 20
248.420462
 30
0.0
  0
LWPOLYLINE
  5
266
100
AcDbEntity
  8
Layer_1
 62
7
100
AcDbPolyline
 90
2
 70
0
 10
254.455470
 20
247.968472
 30
0.0
 10
254.210460
 20
248.228472
 30
0.0
  0
LWPOLYLINE
  5
267
100
AcDbEntity
  8
Layer_1
 62
7
100
AcDbPolyline
 90
2
 70
0
 10
254.627470
 20
247.655472
 30
0.0
 10
254.455470
 20
247.968472
 30
0.0
  0
LWPOLYLINE
  5
268
100
AcDbEntity
  8
Layer_1
 62
7
100
AcDbPolyline
 90
2
 70
0
 10
254.716470
 20
247.309472
 30
0.0
 10
254.627470
 20
247.655472
 30
0.0
  0
LWPOLYLINE
  5
269
100
AcDbEntity
  8
Layer_1
 62
7
100
AcDbPolyline
 90
2
 70
0
 10
254.716470
 20
246.952472
 30
0.0
 10
254.716470
 20
247.309472
 30
0.0
  0
LWPOLYLINE
  5
26a
100
AcDbEntity
  8
Layer_1
 62
7
100
AcDbPolyline
 90
2
 70
0
 10
254.627470
 20
246.606472
 30
0.0
 10
254.716470
 20
246.952472
 30
0.0
  0
LWPOLYLINE
  5
26b
100
AcDbEntity
  8
Layer_1
 62
7
100
AcDbPolyline
 90
2
 70
0
 10
254.455470
 20
246.293472
 30
0.0
 10
254.627470
 20
246.606472
 30
0.0
  0
LWPOLYLINE
  5
26c
100
AcDbEntity
  8
Layer_1
 62
7
100
AcDbPolyline
 90
2
 70
0
 10
254.210460
 20
246.032462
 30
0.0
 10
254.455470
 20
246.293472
 30
0.0
  0
LWPOLYLINE
  5
26d
100
AcDbEntity
  8
Layer_1
 62
7
100
AcDbPolyline
 90
2
 70
0
 10
253.909470
 20
245.841462
 30
0.0
 10
254.210460
 20
246.032462
 30
0.0
  0
LWPOLYLINE
  5
26e
100
AcDbEntity
  8
Layer_1
 62
7
100
AcDbPolyline
 90
2
 70
0
 10
253.569470
 20
245.730462
 30
0.0
 10
253.909470
 20
245.841462
 30
0.0
  0
LWPOLYLINE
  5
26f
100
AcDbEntity
  8
Layer_1
 62
7
100
AcDbPolyline
 90
2
 70
0
 10
253.213490
 20
245.708482
 30
0.0
 10
253.569470
 20
245.730482
 30
0.0
  0
LWPOLYLINE
  5
270
100
AcDbEntity
  8
Layer_1
 62
7
100
AcDbPolyline
 90
2
 70
0
 10
252.862450
 20
245.775472
 30
0.0
 10
253.213490
 20
245.708472
 30
0.0
  0
LWPOLYLINE
  5
271
100
AcDbEntity
  8
Layer_1
 62
7
100
AcDbPolyline
 90
2
 70
0
 10
252.539460
 20
245.927472
 30
0.0
 10
252.862450
 20
245.775472
 30
0.0
  0
LWPOLYLINE
  5
272
100
AcDbEntity
  8
Layer_1
 62
7
100
AcDbPolyline
 90
2
 70
0
 10
252.263460
 20
246.155462
 30
0.0
 10
252.539460
 20
245.927472
 30
0.0
  0
LWPOLYLINE
  5
273
100
AcDbEntity
  8
Layer_1
 62
7
100
AcDbPolyline
 90
2
 70
0
 10
252.053460
 20
246.444472
 30
0.0
 10
252.263460
 20
246.155462
 30
0.0
  0
LWPOLYLINE
  5
274
100
AcDbEntity
  8
Layer_1
 62
7
100
AcDbPolyline
 90
2
 70
0
 10
251.922470
 20
246.776472
 30
0.0
 10
252.053460
 20
246.444472
 30
0.0
  0
LWPOLYLINE
  5
275
100
AcDbEntity
  8
Layer_1
 62
7
100
AcDbPolyline
 90
2
 70
0
 10
251.877470
 20
247.130462
 30
0.0
 10
251.922470
 20
246.776472
 30
0.0
  0
LWPOLYLINE
  5
276
100
AcDbEntity
  8
Layer_1
 62
7
100
AcDbPolyline
 90
4
 70
1
 10
404.227460
 20
216.055462
 30
0.0
 10
404.227460
 20
213.205472
 30
0.0
 10
399.377470
 20
213.205472
 30
0.0
 10
399.377470
 20
216.055462
 30
0.0
  0
LWPOLYLINE
  5
277
100
AcDbEntity
  8
Layer_1
 62
7
100
AcDbPolyline
 90
4
 70
1
 10
254.377460
 20
213.205472
 30
0.0
 10
254.377460
 20
216.055462
 30
0.0
 10
259.227460
 20
216.055462
 30
0.0
 10
259.227460
 20
213.205472
 30
0.0
  0
LWPOLYLINE
  5
278
100
AcDbEntity
  8
Layer_1
 62
7
100
AcDbPolyline
 90
2
 70
0
 10
266.877470
 20
253.205472
 30
0.0
 10
266.877470
 20
213.205472
 30
0.0
  0
LWPOLYLINE
  5
279
100
AcDbEntity
  8
Layer_1
 62
7
100
AcDbPolyline
 90
2
 70
0
 10
246.727450
 20
253.205472
 30
0.0
 10
266.877470
 20
253.205472
 30
0.0
  0
LWPOLYLINE
  5
27a
100
AcDbEntity
  8
Layer_1
 62
7
100
AcDbPolyline
 90
2
 70
0
 10
246.727450
 20
213.205472
 30
0.0
 10
246.727450
 20
253.205472
 30
0.0
  0
LWPOLYLINE
  5
27b
100
AcDbEntity
  8
Layer_1
 62
7
100
AcDbPolyline
 90
2
 70
0
 10
243.727470
 20
213.205472
 30
0.0
 10
246.727450
 20
213.205472
 30
0.0
  0
LWPOLYLINE
  5
27c
100
AcDbEntity
  8
Layer_1
 62
7
100
AcDbPolyline
 90
4
 70
0
 10
243.727470
 20
213.205472
 30
0.0
 10
243.727470
 20
5.055430
 30
0.0
 10
414.877470
 20
5.055430
 30
0.0
 10
414.877470
 20
213.205472
 30
0.0
  0
LWPOLYLINE
  5
27d
100
AcDbEntity
  8
Layer_1
 62
7
100
AcDbPolyline
 90
2
 70
0
 10
411.877470
 20
213.205472
 30
0.0
 10
414.877470
 20
213.205472
 30
0.0
  0
LWPOLYLINE
  5
27e
100
AcDbEntity
  8
Layer_1
 62
7
100
AcDbPolyline
 90
2
 70
0
 10
411.877470
 20
253.205472
 30
0.0
 10
411.877470
 20
213.205472
 30
0.0
  0
LWPOLYLINE
  5
27f
100
AcDbEntity
  8
Layer_1
 62
7
100
AcDbPolyline
 90
2
 70
0
 10
391.727460
 20
213.205472
 30
0.0
 10
266.877470
 20
213.205472
 30
0.0
  0
LWPOLYLINE
  5
280
100
AcDbEntity
  8
Layer_1
 62
7
100
AcDbPolyline
 90
3
 70
0
 10
411.877470
 20
253.205472
 30
0.0
 10
391.727460
 20
253.205472
 30
0.0
 10
391.727460
 20
213.205472
 30
0.0
  0
LWPOLYLINE
  5
281
100
AcDbEntity
  8
Layer_1
 62
7
100
AcDbPolyline
 90
4
 70
0
 10
273.309450
 20
353.379389
 30
0.0
 10
273.309450
 20
348.229379
 30
0.0
 10
276.309430
 20
348.229379
 30
0.0
 10
276.309430
 20
343.229359
 30
0.0
  0
LWPOLYLINE
  5
282
100
AcDbEntity
  8
Layer_1
 62
7
100
AcDbPolyline
 90
2
 70
0
 10
289.809450
 20
343.229359
 30
0.0
 10
276.309430
 20
343.229359
 30
0.0
  0
LWPOLYLINE
  5
283
100
AcDbEntity
  8
Layer_1
 62
7
100
AcDbPolyline
 90
2
 70
0
 10
289.809450
 20
340.229389
 30
0.0
 10
289.809450
 20
343.229359
 30
0.0
  0
LWPOLYLINE
  5
284
100
AcDbEntity
  8
Layer_1
 62
7
100
AcDbPolyline
 90
2
 70
0
 10
289.809450
 20
340.229389
 30
0.0
 10
299.959450
 20
340.229389
 30
0.0
  0
LWPOLYLINE
  5
285
100
AcDbEntity
  8
Layer_1
 62
7
100
AcDbPolyline
 90
2
 70
0
 10
299.959450
 20
343.229359
 30
0.0
 10
299.959450
 20
340.229389
 30
0.0
  0
LWPOLYLINE
  5
286
100
AcDbEntity
  8
Layer_1
 62
7
100
AcDbPolyline
 90
2
 70
0
 10
313.459440
 20
343.229359
 30
0.0
 10
299.959450
 20
343.229359
 30
0.0
  0
LWPOLYLINE
  5
287
100
AcDbEntity
  8
Layer_1
 62
7
100
AcDbPolyline
 90
2
 70
0
 10
313.459440
 20
348.229379
 30
0.0
 10
313.459440
 20
343.229359
 30
0.0
  0
LWPOLYLINE
  5
288
100
AcDbEntity
  8
Layer_1
 62
7
100
AcDbPolyline
 90
2
 70
0
 10
316.459450
 20
348.229379
 30
0.0
 10
313.459440
 20
348.229379
 30
0.0
  0
LWPOLYLINE
  5
289
100
AcDbEntity
  8
Layer_1
 62
7
100
AcDbPolyline
 90
2
 70
0
 10
316.459450
 20
353.379389
 30
0.0
 10
273.309450
 20
353.379389
 30
0.0
  0
LWPOLYLINE
  5
28a
100
AcDbEntity
  8
Layer_1
 62
7
100
AcDbPolyline
 90
2
 70
0
 10
316.459450
 20
353.379389
 30
0.0
 10
316.459450
 20
348.229379
 30
0.0
  0
LWPOLYLINE
  5
28b
100
AcDbEntity
  8
Layer_1
 62
7
100
AcDbPolyline
 90
4
 70
0
 10
273.309450
 20
374.488769
 30
0.0
 10
273.309450
 20
369.338759
 30
0.0
 10
276.309430
 20
369.338759
 30
0.0
 10
276.309430
 20
364.338769
 30
0.0
  0
LWPOLYLINE
  5
28c
100
AcDbEntity
  8
Layer_1
 62
7
100
AcDbPolyline
 90
2
 70
0
 10
289.809450
 20
364.338769
 30
0.0
 10
276.309430
 20
364.338769
 30
0.0
  0
LWPOLYLINE
  5
28d
100
AcDbEntity
  8
Layer_1
 62
7
100
AcDbPolyline
 90
2
 70
0
 10
289.809450
 20
361.338769
 30
0.0
 10
289.809450
 20
364.338769
 30
0.0
  0
LWPOLYLINE
  5
28e
100
AcDbEntity
  8
Layer_1
 62
7
100
AcDbPolyline
 90
2
 70
0
 10
289.809450
 20
361.338769
 30
0.0
 10
299.959450
 20
361.338769
 30
0.0
  0
LWPOLYLINE
  5
28f
100
AcDbEntity
  8
Layer_1
 62
7
100
AcDbPolyline
 90
2
 70
0
 10
299.959450
 20
364.338769
 30
0.0
 10
299.959450
 20
361.338769
 30
0.0
  0
LWPOLYLINE
  5
290
100
AcDbEntity
  8
Layer_1
 62
7
100
AcDbPolyline
 90
2
 70
0
 10
313.459440
 20
364.338769
 30
0.0
 10
299.959450
 20
364.338769
 30
0.0
  0
LWPOLYLINE
  5
291
100
AcDbEntity
  8
Layer_1
 62
7
100
AcDbPolyline
 90
2
 70
0
 10
313.459440
 20
369.338759
 30
0.0
 10
313.459440
 20
364.338769
 30
0.0
  0
LWPOLYLINE
  5
292
100
AcDbEntity
  8
Layer_1
 62
7
100
AcDbPolyline
 90
2
 70
0
 10
316.459440
 20
369.338759
 30
0.0
 10
313.459440
 20
369.338759
 30
0.0
  0
LWPOLYLINE
  5
293
100
AcDbEntity
  8
Layer_1
 62
7
100
AcDbPolyline
 90
2
 70
0
 10
316.459440
 20
374.488769
 30
0.0
 10
273.309450
 20
374.488769
 30
0.0
  0
LWPOLYLINE
  5
294
100
AcDbEntity
  8
Layer_1
 62
7
100
AcDbPolyline
 90
2
 70
0
 10
316.459440
 20
374.488769
 30
0.0
 10
316.459440
 20
369.338759
 30
0.0
  0
LWPOLYLINE
  5
295
100
AcDbEntity
  8
Layer_1
 62
7
100
AcDbPolyline
 90
4
 70
0
 10
341.343520
 20
353.201719
 30
0.0
 10
341.343520
 20
348.051709
 30
0.0
 10
344.343500
 20
348.051709
 30
0.0
 10
344.343500
 20
343.051689
 30
0.0
  0
LWPOLYLINE
  5
296
100
AcDbEntity
  8
Layer_1
 62
7
100
AcDbPolyline
 90
2
 70
0
 10
357.843520
 20
343.051689
 30
0.0
 10
344.343500
 20
343.051689
 30
0.0
  0
LWPOLYLINE
  5
297
100
AcDbEntity
  8
Layer_1
 62
7
100
AcDbPolyline
 90
2
 70
0
 10
357.843520
 20
340.051719
 30
0.0
 10
357.843520
 20
343.051689
 30
0.0
  0
LWPOLYLINE
  5
298
100
AcDbEntity
  8
Layer_1
 62
7
100
AcDbPolyline
 90
2
 70
0
 10
357.843520
 20
340.051719
 30
0.0
 10
367.993520
 20
340.051719
 30
0.0
  0
LWPOLYLINE
  5
299
100
AcDbEntity
  8
Layer_1
 62
7
100
AcDbPolyline
 90
2
 70
0
 10
367.993520
 20
343.051689
 30
0.0
 10
367.993520
 20
340.051719
 30
0.0
  0
LWPOLYLINE
  5
29a
100
AcDbEntity
  8
Layer_1
 62
7
100
AcDbPolyline
 90
2
 70
0
 10
381.493520
 20
343.051689
 30
0.0
 10
367.993520
 20
343.051689
 30
0.0
  0
LWPOLYLINE
  5
29b
100
AcDbEntity
  8
Layer_1
 62
7
100
AcDbPolyline
 90
2
 70
0
 10
381.493520
 20
348.051709
 30
0.0
 10
381.493520
 20
343.051689
 30
0.0
  0
LWPOLYLINE
  5
29c
100
AcDbEntity
  8
Layer_1
 62
7
100
AcDbPolyline
 90
2
 70
0
 10
384.493530
 20
348.051709
 30
0.0
 10
381.493520
 20
348.051709
 30
0.0
  0
LWPOLYLINE
  5
29d
100
AcDbEntity
  8
Layer_1
 62
7
100
AcDbPolyline
 90
2
 70
0
 10
384.493530
 20
353.201719
 30
0.0
 10
341.343520
 20
353.201719
 30
0.0
  0
LWPOLYLINE
  5
29e
100
AcDbEntity
  8
Layer_1
 62
7
100
AcDbPolyline
 90
2
 70
0
 10
384.493530
 20
353.201719
 30
0.0
 10
384.493530
 20
348.051709
 30
0.0
  0
LWPOLYLINE
  5
29f
100
AcDbEntity
  8
Layer_1
 62
7
100
AcDbPolyline
 90
4
 70
0
 10
341.343520
 20
374.311099
 30
0.0
 10
341.343520
 20
369.161089
 30
0.0
 10
344.343500
 20
369.161089
 30
0.0
 10
344.343500
 20
364.161099
 30
0.0
  0
LWPOLYLINE
  5
2a0
100
AcDbEntity
  8
Layer_1
 62
7
100
AcDbPolyline
 90
2
 70
0
 10
357.843520
 20
364.161099
 30
0.0
 10
344.343500
 20
364.161099
 30
0.0
  0
LWPOLYLINE
  5
2a1
100
AcDbEntity
  8
Layer_1
 62
7
100
AcDbPolyline
 90
2
 70
0
 10
357.843520
 20
361.161099
 30
0.0
 10
357.843520
 20
364.161099
 30
0.0
  0
LWPOLYLINE
  5
2a2
100
AcDbEntity
  8
Layer_1
 62
7
100
AcDbPolyline
 90
2
 70
0
 10
357.843520
 20
361.161099
 30
0.0
 10
367.993520
 20
361.161099
 30
0.0
  0
LWPOLYLINE
  5
2a3
100
AcDbEntity
  8
Layer_1
 62
7
100
AcDbPolyline
 90
2
 70
0
 10
367.993520
 20
364.161099
 30
0.0
 10
367.993520
 20
361.161099
 30
0.0
  0
LWPOLYLINE
  5
2a4
100
AcDbEntity
  8
Layer_1
 62
7
100
AcDbPolyline
 90
2
 70
0
 10
381.493520
 20
364.161099
 30
0.0
 10
367.993520
 20
364.161099
 30
0.0
  0
LWPOLYLINE
  5
2a5
100
AcDbEntity
  8
Layer_1
 62
7
100
AcDbPolyline
 90
2
 70
0
 10
381.493520
 20
369.161089
 30
0.0
 10
381.493520
 20
364.161099
 30
0.0
  0
LWPOLYLINE
  5
2a6
100
AcDbEntity
  8
Layer_1
 62
7
100
AcDbPolyline
 90
2
 70
0
 10
384.493520
 20
369.161089
 30
0.0
 10
381.493520
 20
369.161089
 30
0.0
  0
LWPOLYLINE
  5
2a7
100
AcDbEntity
  8
Layer_1
 62
7
100
AcDbPolyline
 90
2
 70
0
 10
384.493520
 20
374.311099
 30
0.0
 10
341.343520
 20
374.311099
 30
0.0
  0
LWPOLYLINE
  5
2a8
100
AcDbEntity
  8
Layer_1
 62
7
100
AcDbPolyline
 90
2
 70
0
 10
384.493520
 20
374.311099
 30
0.0
 10
384.493520
 20
369.161089
 30
0.0
  0
LWPOLYLINE
  5
2a9
100
AcDbEntity
  8
Layer_1
 62
7
100
AcDbPolyline
 90
2
 70
0
 10
5.102679
 20
259.299586
 30
0.0
 10
5.102679
 20
267.449566
 30
0.0
  0
LWPOLYLINE
  5
2aa
100
AcDbEntity
  8
Layer_1
 62
7
100
AcDbPolyline
 90
2
 70
0
 10
15.252668
 20
259.299586
 30
0.0
 10
5.102679
 20
259.299586
 30
0.0
  0
LWPOLYLINE
  5
2ab
100
AcDbEntity
  8
Layer_1
 62
7
100
AcDbPolyline
 90
4
 70
0
 10
15.252668
 20
259.299586
 30
0.0
 10
15.252668
 20
262.299586
 30
0.0
 10
30.102678
 20
262.299586
 30
0.0
 10
30.102678
 20
259.299586
 30
0.0
  0
LWPOLYLINE
  5
2ac
100
AcDbEntity
  8
Layer_1
 62
7
100
AcDbPolyline
 90
2
 70
0
 10
83.252667
 20
259.299586
 30
0.0
 10
30.102678
 20
259.299586
 30
0.0
  0
LWPOLYLINE
  5
2ad
100
AcDbEntity
  8
Layer_1
 62
7
100
AcDbPolyline
 90
2
 70
0
 10
83.252667
 20
259.299586
 30
0.0
 10
83.252667
 20
262.299586
 30
0.0
  0
LWPOLYLINE
  5
2ae
100
AcDbEntity
  8
Layer_1
 62
7
100
AcDbPolyline
 90
2
 70
0
 10
98.102680
 20
262.299586
 30
0.0
 10
83.252667
 20
262.299586
 30
0.0
  0
LWPOLYLINE
  5
2af
100
AcDbEntity
  8
Layer_1
 62
7
100
AcDbPolyline
 90
2
 70
0
 10
98.102680
 20
262.299586
 30
0.0
 10
98.102680
 20
259.299586
 30
0.0
  0
LWPOLYLINE
  5
2b0
100
AcDbEntity
  8
Layer_1
 62
7
100
AcDbPolyline
 90
2
 70
0
 10
151.252680
 20
259.299586
 30
0.0
 10
98.102680
 20
259.299586
 30
0.0
  0
LWPOLYLINE
  5
2b1
100
AcDbEntity
  8
Layer_1
 62
7
100
AcDbPolyline
 90
2
 70
0
 10
151.252680
 20
259.299586
 30
0.0
 10
151.252680
 20
262.299586
 30
0.0
  0
LWPOLYLINE
  5
2b2
100
AcDbEntity
  8
Layer_1
 62
7
100
AcDbPolyline
 90
2
 70
0
 10
166.102660
 20
262.299586
 30
0.0
 10
151.252680
 20
262.299586
 30
0.0
  0
LWPOLYLINE
  5
2b3
100
AcDbEntity
  8
Layer_1
 62
7
100
AcDbPolyline
 90
2
 70
0
 10
166.102660
 20
262.299586
 30
0.0
 10
166.102660
 20
259.299586
 30
0.0
  0
LWPOLYLINE
  5
2b4
100
AcDbEntity
  8
Layer_1
 62
7
100
AcDbPolyline
 90
2
 70
0
 10
176.252660
 20
259.299586
 30
0.0
 10
166.102660
 20
259.299586
 30
0.0
  0
LWPOLYLINE
  5
2b5
100
AcDbEntity
  8
Layer_1
 62
7
100
AcDbPolyline
 90
28
 70
0
 10
176.252660
 20
259.299586
 30
0.0
 10
176.252660
 20
267.449566
 30
0.0
 10
173.252680
 20
267.449566
 30
0.0
 10
173.252680
 20
272.449596
 30
0.0
 10
138.102680
 20
272.449596
 30
0.0
 10
138.102680
 20
266.949596
 30
0.0
 10
127.252670
 20
266.949596
 30
0.0
 10
127.252670
 20
272.449596
 30
0.0
 10
112.102660
 20
272.449596
 30
0.0
 10
112.102660
 20
271.449566
 30
0.0
 10
110.102670
 20
271.449566
 30
0.0
 10
110.102670
 20
268.449596
 30
0.0
 10
101.752660
 20
268.449596
 30
0.0
 10
101.752660
 20
271.449566
 30
0.0
 10
98.102680
 20
271.449566
 30
0.0
 10
98.102680
 20
270.449586
 30
0.0
 10
91.752680
 20
270.449586
 30
0.0
 10
91.752680
 20
272.449596
 30
0.0
 10
87.102678
 20
272.449596
 30
0.0
 10
87.102678
 20
271.449566
 30
0.0
 10
83.252667
 20
271.449566
 30
0.0
 10
83.252667
 20
272.449596
 30
0.0
 10
70.602679
 20
272.449596
 30
0.0
 10
70.602679
 20
271.449566
 30
0.0
 10
64.602667
 20
271.449566
 30
0.0
 10
64.602667
 20
265.449596
 30
0.0
 10
38.752669
 20
265.449596
 30
0.0
 10
38.752669
 20
272.449596
 30
0.0
  0
LWPOLYLINE
  5
2b6
100
AcDbEntity
  8
Layer_1
 62
7
100
AcDbPolyline
 90
2
 70
0
 10
8.102680
 20
267.449566
 30
0.0
 10
5.102679
 20
267.449566
 30
0.0
  0
LWPOLYLINE
  5
2b7
100
AcDbEntity
  8
Layer_1
 62
7
100
AcDbPolyline
 90
3
 70
0
 10
8.102680
 20
267.449566
 30
0.0
 10
8.102680
 20
272.449596
 30
0.0
 10
38.752669
 20
272.449596
 30
0.0
  0
LWPOLYLINE
  5
2b8
100
AcDbEntity
  8
Layer_1
 62
7
100
AcDbPolyline
 90
2
 70
0
 10
166.102660
 20
300.269387
 30
0.0
 10
176.252660
 20
300.269387
 30
0.0
  0
LWPOLYLINE
  5
2b9
100
AcDbEntity
  8
Layer_1
 62
7
100
AcDbPolyline
 90
4
 70
0
 10
166.102660
 20
300.269387
 30
0.0
 10
166.102660
 20
303.269387
 30
0.0
 10
151.252660
 20
303.269387
 30
0.0
 10
151.252660
 20
300.269387
 30
0.0
  0
LWPOLYLINE
  5
2ba
100
AcDbEntity
  8
Layer_1
 62
7
100
AcDbPolyline
 90
2
 70
0
 10
98.102658
 20
300.269397
 30
0.0
 10
151.252660
 20
300.269387
 30
0.0
  0
LWPOLYLINE
  5
2bb
100
AcDbEntity
  8
Layer_1
 62
7
100
AcDbPolyline
 90
2
 70
0
 10
98.102658
 20
300.269397
 30
0.0
 10
98.102658
 20
303.269397
 30
0.0
  0
LWPOLYLINE
  5
2bc
100
AcDbEntity
  8
Layer_1
 62
7
100
AcDbPolyline
 90
2
 70
0
 10
83.252678
 20
303.269397
 30
0.0
 10
98.102658
 20
303.269397
 30
0.0
  0
LWPOLYLINE
  5
2bd
100
AcDbEntity
  8
Layer_1
 62
7
100
AcDbPolyline
 90
2
 70
0
 10
83.252678
 20
303.269397
 30
0.0
 10
83.252678
 20
300.269397
 30
0.0
  0
LWPOLYLINE
  5
2be
100
AcDbEntity
  8
Layer_1
 62
7
100
AcDbPolyline
 90
2
 70
0
 10
30.102678
 20
300.269397
 30
0.0
 10
83.252678
 20
300.269397
 30
0.0
  0
LWPOLYLINE
  5
2bf
100
AcDbEntity
  8
Layer_1
 62
7
100
AcDbPolyline
 90
2
 70
0
 10
30.102678
 20
300.269397
 30
0.0
 10
30.102678
 20
303.269397
 30
0.0
  0
LWPOLYLINE
  5
2c0
100
AcDbEntity
  8
Layer_1
 62
7
100
AcDbPolyline
 90
2
 70
0
 10
15.252668
 20
303.269397
 30
0.0
 10
30.102678
 20
303.269397
 30
0.0
  0
LWPOLYLINE
  5
2c1
100
AcDbEntity
  8
Layer_1
 62
7
100
AcDbPolyline
 90
2
 70
0
 10
15.252668
 20
303.269397
 30
0.0
 10
15.252668
 20
300.269397
 30
0.0
  0
LWPOLYLINE
  5
2c2
100
AcDbEntity
  8
Layer_1
 62
7
100
AcDbPolyline
 90
2
 70
0
 10
5.102679
 20
300.269397
 30
0.0
 10
15.252668
 20
300.269397
 30
0.0
  0
LWPOLYLINE
  5
2c3
100
AcDbEntity
  8
Layer_1
 62
7
100
AcDbPolyline
 90
4
 70
0
 10
5.102679
 20
300.269397
 30
0.0
 10
5.102679
 20
308.419396
 30
0.0
 10
8.102690
 20
308.419396
 30
0.0
 10
8.102690
 20
310.419396
 30
0.0
  0
LWPOLYLINE
  5
2c4
100
AcDbEntity
  8
Layer_1
 62
7
100
AcDbPolyline
 90
2
 70
0
 10
15.602668
 20
310.419396
 30
0.0
 10
8.102690
 20
310.419396
 30
0.0
  0
LWPOLYLINE
  5
2c5
100
AcDbEntity
  8
Layer_1
 62
7
100
AcDbPolyline
 90
12
 70
0
 10
15.602668
 20
310.419396
 30
0.0
 10
15.602668
 20
313.419396
 30
0.0
 10
20.752668
 20
313.419396
 30
0.0
 10
20.752668
 20
310.419396
 30
0.0
 10
28.102678
 20
310.419396
 30
0.0
 10
28.102678
 20
313.419396
 30
0.0
 10
83.252678
 20
313.419396
 30
0.0
 10
83.252678
 20
312.419396
 30
0.0
 10
97.102668
 20
312.419396
 30
0.0
 10
97.102668
 20
313.419396
 30
0.0
 10
153.252670
 20
313.419386
 30
0.0
 10
153.252670
 20
310.419386
 30
0.0
  0
LWPOLYLINE
  5
2c6
100
AcDbEntity
  8
Layer_1
 62
7
100
AcDbPolyline
 90
2
 70
0
 10
160.602670
 20
310.419386
 30
0.0
 10
153.252670
 20
310.419386
 30
0.0
  0
LWPOLYLINE
  5
2c7
100
AcDbEntity
  8
Layer_1
 62
7
100
AcDbPolyline
 90
2
 70
0
 10
160.602670
 20
313.419386
 30
0.0
 10
160.602670
 20
310.419386
 30
0.0
  0
LWPOLYLINE
  5
2c8
100
AcDbEntity
  8
Layer_1
 62
7
100
AcDbPolyline
 90
2
 70
0
 10
160.602670
 20
313.419386
 30
0.0
 10
165.752670
 20
313.419386
 30
0.0
  0
LWPOLYLINE
  5
2c9
100
AcDbEntity
  8
Layer_1
 62
7
100
AcDbPolyline
 90
2
 70
0
 10
165.752670
 20
310.419386
 30
0.0
 10
165.752670
 20
313.419386
 30
0.0
  0
LWPOLYLINE
  5
2ca
100
AcDbEntity
  8
Layer_1
 62
7
100
AcDbPolyline
 90
2
 70
0
 10
173.252660
 20
310.419386
 30
0.0
 10
165.752670
 20
310.419386
 30
0.0
  0
LWPOLYLINE
  5
2cb
100
AcDbEntity
  8
Layer_1
 62
7
100
AcDbPolyline
 90
2
 70
0
 10
173.252660
 20
308.419386
 30
0.0
 10
173.252660
 20
310.419386
 30
0.0
  0
LWPOLYLINE
  5
2cc
100
AcDbEntity
  8
Layer_1
 62
7
100
AcDbPolyline
 90
2
 70
0
 10
173.252660
 20
308.419386
 30
0.0
 10
176.252660
 20
308.419386
 30
0.0
  0
LWPOLYLINE
  5
2cd
100
AcDbEntity
  8
Layer_1
 62
7
100
AcDbPolyline
 90
2
 70
0
 10
176.252660
 20
300.269387
 30
0.0
 10
176.252660
 20
308.419396
 30
0.0
  0
LWPOLYLINE
  5
2ce
100
AcDbEntity
  8
Layer_1
 62
7
100
AcDbPolyline
 90
2
 70
0
 10
5.102679
 20
279.081686
 30
0.0
 10
5.102679
 20
287.231667
 30
0.0
  0
LWPOLYLINE
  5
2cf
100
AcDbEntity
  8
Layer_1
 62
7
100
AcDbPolyline
 90
2
 70
0
 10
15.252668
 20
279.081686
 30
0.0
 10
5.102679
 20
279.081686
 30
0.0
  0
LWPOLYLINE
  5
2d0
100
AcDbEntity
  8
Layer_1
 62
7
100
AcDbPolyline
 90
4
 70
0
 10
15.252668
 20
279.081686
 30
0.0
 10
15.252668
 20
282.081686
 30
0.0
 10
30.102678
 20
282.081686
 30
0.0
 10
30.102678
 20
279.081686
 30
0.0
  0
LWPOLYLINE
  5
2d1
100
AcDbEntity
  8
Layer_1
 62
7
100
AcDbPolyline
 90
2
 70
0
 10
83.252667
 20
279.081686
 30
0.0
 10
30.102678
 20
279.081686
 30
0.0
  0
LWPOLYLINE
  5
2d2
100
AcDbEntity
  8
Layer_1
 62
7
100
AcDbPolyline
 90
2
 70
0
 10
83.252667
 20
279.081686
 30
0.0
 10
83.252667
 20
282.081686
 30
0.0
  0
LWPOLYLINE
  5
2d3
100
AcDbEntity
  8
Layer_1
 62
7
100
AcDbPolyline
 90
2
 70
0
 10
98.102680
 20
282.081686
 30
0.0
 10
83.252667
 20
282.081686
 30
0.0
  0
LWPOLYLINE
  5
2d4
100
AcDbEntity
  8
Layer_1
 62
7
100
AcDbPolyline
 90
2
 70
0
 10
98.102680
 20
282.081686
 30
0.0
 10
98.102680
 20
279.081686
 30
0.0
  0
LWPOLYLINE
  5
2d5
100
AcDbEntity
  8
Layer_1
 62
7
100
AcDbPolyline
 90
2
 70
0
 10
151.252680
 20
279.081686
 30
0.0
 10
98.102680
 20
279.081686
 30
0.0
  0
LWPOLYLINE
  5
2d6
100
AcDbEntity
  8
Layer_1
 62
7
100
AcDbPolyline
 90
2
 70
0
 10
151.252680
 20
279.081686
 30
0.0
 10
151.252680
 20
282.081676
 30
0.0
  0
LWPOLYLINE
  5
2d7
100
AcDbEntity
  8
Layer_1
 62
7
100
AcDbPolyline
 90
2
 70
0
 10
166.102660
 20
282.081676
 30
0.0
 10
151.252680
 20
282.081676
 30
0.0
  0
LWPOLYLINE
  5
2d8
100
AcDbEntity
  8
Layer_1
 62
7
100
AcDbPolyline
 90
2
 70
0
 10
166.102660
 20
282.081676
 30
0.0
 10
166.102660
 20
279.081686
 30
0.0
  0
LWPOLYLINE
  5
2d9
100
AcDbEntity
  8
Layer_1
 62
7
100
AcDbPolyline
 90
2
 70
0
 10
176.252660
 20
279.081686
 30
0.0
 10
166.102660
 20
279.081686
 30
0.0
  0
LWPOLYLINE
  5
2da
100
AcDbEntity
  8
Layer_1
 62
7
100
AcDbPolyline
 90
28
 70
0
 10
176.252660
 20
279.081686
 30
0.0
 10
176.252660
 20
287.231657
 30
0.0
 10
173.252680
 20
287.231657
 30
0.0
 10
173.252680
 20
292.231677
 30
0.0
 10
138.102680
 20
292.231677
 30
0.0
 10
138.102680
 20
286.731676
 30
0.0
 10
127.252670
 20
286.731676
 30
0.0
 10
127.252670
 20
292.231677
 30
0.0
 10
112.102660
 20
292.231687
 30
0.0
 10
112.102660
 20
291.231667
 30
0.0
 10
110.102670
 20
291.231667
 30
0.0
 10
110.102670
 20
288.231687
 30
0.0
 10
101.752660
 20
288.231687
 30
0.0
 10
101.752660
 20
291.231667
 30
0.0
 10
98.102680
 20
291.231667
 30
0.0
 10
98.102680
 20
290.231677
 30
0.0
 10
91.752680
 20
290.231677
 30
0.0
 10
91.752680
 20
292.231687
 30
0.0
 10
87.102678
 20
292.231687
 30
0.0
 10
87.102678
 20
291.231667
 30
0.0
 10
83.252667
 20
291.231667
 30
0.0
 10
83.252667
 20
292.231687
 30
0.0
 10
70.602679
 20
292.231687
 30
0.0
 10
70.602679
 20
291.231667
 30
0.0
 10
64.602667
 20
291.231667
 30
0.0
 10
64.602667
 20
285.231686
 30
0.0
 10
38.752669
 20
285.231686
 30
0.0
 10
38.752669
 20
292.231687
 30
0.0
  0
LWPOLYLINE
  5
2db
100
AcDbEntity
  8
Layer_1
 62
7
100
AcDbPolyline
 90
2
 70
0
 10
8.102680
 20
287.231667
 30
0.0
 10
5.102679
 20
287.231667
 30
0.0
  0
LWPOLYLINE
  5
2dc
100
AcDbEntity
  8
Layer_1
 62
7
100
AcDbPolyline
 90
3
 70
0
 10
8.102680
 20
287.231667
 30
0.0
 10
8.102680
 20
292.231687
 30
0.0
 10
38.752669
 20
292.231687
 30
0.0
  0
LWPOLYLINE
  5
2dd
100
AcDbEntity
  8
Layer_1
 62
7
100
AcDbPolyline
 90
2
 70
0
 10
166.102660
 20
321.202036
 30
0.0
 10
176.252660
 20
321.202036
 30
0.0
  0
LWPOLYLINE
  5
2de
100
AcDbEntity
  8
Layer_1
 62
7
100
AcDbPolyline
 90
4
 70
0
 10
166.102660
 20
321.202036
 30
0.0
 10
166.102660
 20
324.202036
 30
0.0
 10
151.252660
 20
324.202036
 30
0.0
 10
151.252660
 20
321.202036
 30
0.0
  0
LWPOLYLINE
  5
2df
100
AcDbEntity
  8
Layer_1
 62
7
100
AcDbPolyline
 90
2
 70
0
 10
98.102658
 20
321.202046
 30
0.0
 10
151.252660
 20
321.202036
 30
0.0
  0
LWPOLYLINE
  5
2e0
100
AcDbEntity
  8
Layer_1
 62
7
100
AcDbPolyline
 90
2
 70
0
 10
98.102658
 20
321.202046
 30
0.0
 10
98.102658
 20
324.202046
 30
0.0
  0
LWPOLYLINE
  5
2e1
100
AcDbEntity
  8
Layer_1
 62
7
100
AcDbPolyline
 90
2
 70
0
 10
83.252678
 20
324.202046
 30
0.0
 10
98.102658
 20
324.202046
 30
0.0
  0
LWPOLYLINE
  5
2e2
100
AcDbEntity
  8
Layer_1
 62
7
100
AcDbPolyline
 90
2
 70
0
 10
83.252678
 20
324.202046
 30
0.0
 10
83.252678
 20
321.202046
 30
0.0
  0
LWPOLYLINE
  5
2e3
100
AcDbEntity
  8
Layer_1
 62
7
100
AcDbPolyline
 90
2
 70
0
 10
30.102678
 20
321.202046
 30
0.0
 10
83.252678
 20
321.202046
 30
0.0
  0
LWPOLYLINE
  5
2e4
100
AcDbEntity
  8
Layer_1
 62
7
100
AcDbPolyline
 90
2
 70
0
 10
30.102678
 20
321.202046
 30
0.0
 10
30.102678
 20
324.202046
 30
0.0
  0
LWPOLYLINE
  5
2e5
100
AcDbEntity
  8
Layer_1
 62
7
100
AcDbPolyline
 90
2
 70
0
 10
15.252668
 20
324.202046
 30
0.0
 10
30.102678
 20
324.202046
 30
0.0
  0
LWPOLYLINE
  5
2e6
100
AcDbEntity
  8
Layer_1
 62
7
100
AcDbPolyline
 90
2
 70
0
 10
15.252668
 20
324.202046
 30
0.0
 10
15.252668
 20
321.202046
 30
0.0
  0
LWPOLYLINE
  5
2e7
100
AcDbEntity
  8
Layer_1
 62
7
100
AcDbPolyline
 90
2
 70
0
 10
5.102679
 20
321.202046
 30
0.0
 10
15.252668
 20
321.202046
 30
0.0
  0
LWPOLYLINE
  5
2e8
100
AcDbEntity
  8
Layer_1
 62
7
100
AcDbPolyline
 90
4
 70
0
 10
5.102679
 20
321.202046
 30
0.0
 10
5.102679
 20
329.352046
 30
0.0
 10
8.102690
 20
329.352046
 30
0.0
 10
8.102690
 20
331.352046
 30
0.0
  0
LWPOLYLINE
  5
2e9
100
AcDbEntity
  8
Layer_1
 62
7
100
AcDbPolyline
 90
2
 70
0
 10
15.602668
 20
331.352046
 30
0.0
 10
8.102690
 20
331.352046
 30
0.0
  0
LWPOLYLINE
  5
2ea
100
AcDbEntity
  8
Layer_1
 62
7
100
AcDbPolyline
 90
12
 70
0
 10
15.602668
 20
331.352046
 30
0.0
 10
15.602668
 20
334.352046
 30
0.0
 10
20.752668
 20
334.352046
 30
0.0
 10
20.752668
 20
331.352046
 30
0.0
 10
28.102678
 20
331.352046
 30
0.0
 10
28.102678
 20
334.352046
 30
0.0
 10
83.252678
 20
334.352046
 30
0.0
 10
83.252678
 20
333.352046
 30
0.0
 10
97.102668
 20
333.352046
 30
0.0
 10
97.102668
 20
334.352046
 30
0.0
 10
153.252670
 20
334.352036
 30
0.0
 10
153.252670
 20
331.352036
 30
0.0
  0
LWPOLYLINE
  5
2eb
100
AcDbEntity
  8
Layer_1
 62
7
100
AcDbPolyline
 90
2
 70
0
 10
160.602670
 20
331.352036
 30
0.0
 10
153.252670
 20
331.352036
 30
0.0
  0
LWPOLYLINE
  5
2ec
100
AcDbEntity
  8
Layer_1
 62
7
100
AcDbPolyline
 90
2
 70
0
 10
160.602670
 20
334.352036
 30
0.0
 10
160.602670
 20
331.352036
 30
0.0
  0
LWPOLYLINE
  5
2ed
100
AcDbEntity
  8
Layer_1
 62
7
100
AcDbPolyline
 90
2
 70
0
 10
160.602670
 20
334.352036
 30
0.0
 10
165.752670
 20
334.352036
 30
0.0
  0
LWPOLYLINE
  5
2ee
100
AcDbEntity
  8
Layer_1
 62
7
100
AcDbPolyline
 90
2
 70
0
 10
165.752670
 20
331.352036
 30
0.0
 10
165.752670
 20
334.352036
 30
0.0
  0
LWPOLYLINE
  5
2ef
100
AcDbEntity
  8
Layer_1
 62
7
100
AcDbPolyline
 90
2
 70
0
 10
173.252660
 20
331.352036
 30
0.0
 10
165.752670
 20
331.352036
 30
0.0
  0
LWPOLYLINE
  5
2f0
100
AcDbEntity
  8
Layer_1
 62
7
100
AcDbPolyline
 90
2
 70
0
 10
173.252660
 20
329.352036
 30
0.0
 10
173.252660
 20
331.352036
 30
0.0
  0
LWPOLYLINE
  5
2f1
100
AcDbEntity
  8
Layer_1
 62
7
100
AcDbPolyline
 90
2
 70
0
 10
173.252660
 20
329.352036
 30
0.0
 10
176.252660
 20
329.352036
 30
0.0
  0
LWPOLYLINE
  5
2f2
100
AcDbEntity
  8
Layer_1
 62
7
100
AcDbPolyline
 90
2
 70
0
 10
176.252660
 20
321.202036
 30
0.0
 10
176.252660
 20
329.352036
 30
0.0
  0
LWPOLYLINE
  5
2f3
100
AcDbEntity
  8
Layer_1
 62
7
100
AcDbPolyline
 90
2
 70
0
 10
218.796360
 20
580.733430
 30
0.0
 10
218.442350
 20
580.778430
 30
0.0
  0
LWPOLYLINE
  5
2f4
100
AcDbEntity
  8
Layer_1
 62
7
100
AcDbPolyline
 90
2
 70
0
 10
219.129340
 20
580.602410
 30
0.0
 10
218.796360
 20
580.733430
 30
0.0
  0
LWPOLYLINE
  5
2f5
100
AcDbEntity
  8
Layer_1
 62
7
100
AcDbPolyline
 90
2
 70
0
 10
219.418350
 20
580.392410
 30
0.0
 10
219.129340
 20
580.602410
 30
0.0
  0
LWPOLYLINE
  5
2f6
100
AcDbEntity
  8
Layer_1
 62
7
100
AcDbPolyline
 90
2
 70
0
 10
219.645360
 20
580.117430
 30
0.0
 10
219.418350
 20
580.392410
 30
0.0
  0
LWPOLYLINE
  5
2f7
100
AcDbEntity
  8
Layer_1
 62
7
100
AcDbPolyline
 90
2
 70
0
 10
219.797360
 20
579.794430
 30
0.0
 10
219.645360
 20
580.117430
 30
0.0
  0
LWPOLYLINE
  5
2f8
100
AcDbEntity
  8
Layer_1
 62
7
100
AcDbPolyline
 90
2
 70
0
 10
219.864360
 20
579.443430
 30
0.0
 10
219.797360
 20
579.794430
 30
0.0
  0
LWPOLYLINE
  5
2f9
100
AcDbEntity
  8
Layer_1
 62
7
100
AcDbPolyline
 90
2
 70
0
 10
219.842340
 20
579.086430
 30
0.0
 10
219.864340
 20
579.443430
 30
0.0
  0
LWPOLYLINE
  5
2fa
100
AcDbEntity
  8
Layer_1
 62
7
100
AcDbPolyline
 90
2
 70
0
 10
219.731350
 20
578.746410
 30
0.0
 10
219.842340
 20
579.086430
 30
0.0
  0
LWPOLYLINE
  5
2fb
100
AcDbEntity
  8
Layer_1
 62
7
100
AcDbPolyline
 90
2
 70
0
 10
219.540350
 20
578.445420
 30
0.0
 10
219.731350
 20
578.746410
 30
0.0
  0
LWPOLYLINE
  5
2fc
100
AcDbEntity
  8
Layer_1
 62
7
100
AcDbPolyline
 90
2
 70
0
 10
219.280370
 20
578.200420
 30
0.0
 10
219.540350
 20
578.445420
 30
0.0
  0
LWPOLYLINE
  5
2fd
100
AcDbEntity
  8
Layer_1
 62
7
100
AcDbPolyline
 90
2
 70
0
 10
218.967370
 20
578.028410
 30
0.0
 10
219.280370
 20
578.200420
 30
0.0
  0
LWPOLYLINE
  5
2fe
100
AcDbEntity
  8
Layer_1
 62
7
100
AcDbPolyline
 90
2
 70
0
 10
218.621340
 20
577.939430
 30
0.0
 10
218.967370
 20
578.028430
 30
0.0
  0
LWPOLYLINE
  5
2ff
100
AcDbEntity
  8
Layer_1
 62
7
100
AcDbPolyline
 90
2
 70
0
 10
218.263360
 20
577.939430
 30
0.0
 10
218.621340
 20
577.939430
 30
0.0
  0
LWPOLYLINE
  5
300
100
AcDbEntity
  8
Layer_1
 62
7
100
AcDbPolyline
 90
2
 70
0
 10
217.917370
 20
578.028410
 30
0.0
 10
218.263360
 20
577.939410
 30
0.0
  0
LWPOLYLINE
  5
301
100
AcDbEntity
  8
Layer_1
 62
7
100
AcDbPolyline
 90
2
 70
0
 10
217.604360
 20
578.200420
 30
0.0
 10
217.917370
 20
578.028410
 30
0.0
  0
LWPOLYLINE
  5
302
100
AcDbEntity
  8
Layer_1
 62
7
100
AcDbPolyline
 90
2
 70
0
 10
217.344360
 20
578.445420
 30
0.0
 10
217.604360
 20
578.200420
 30
0.0
  0
LWPOLYLINE
  5
303
100
AcDbEntity
  8
Layer_1
 62
7
100
AcDbPolyline
 90
2
 70
0
 10
217.153360
 20
578.746410
 30
0.0
 10
217.344360
 20
578.445420
 30
0.0
  0
LWPOLYLINE
  5
304
100
AcDbEntity
  8
Layer_1
 62
7
100
AcDbPolyline
 90
2
 70
0
 10
217.042360
 20
579.086430
 30
0.0
 10
217.153360
 20
578.746410
 30
0.0
  0
LWPOLYLINE
  5
305
100
AcDbEntity
  8
Layer_1
 62
7
100
AcDbPolyline
 90
2
 70
0
 10
217.020350
 20
579.443430
 30
0.0
 10
217.042350
 20
579.086430
 30
0.0
  0
LWPOLYLINE
  5
306
100
AcDbEntity
  8
Layer_1
 62
7
100
AcDbPolyline
 90
2
 70
0
 10
217.087340
 20
579.794430
 30
0.0
 10
217.020340
 20
579.443430
 30
0.0
  0
LWPOLYLINE
  5
307
100
AcDbEntity
  8
Layer_1
 62
7
100
AcDbPolyline
 90
2
 70
0
 10
217.239340
 20
580.117430
 30
0.0
 10
217.087340
 20
579.794430
 30
0.0
  0
LWPOLYLINE
  5
308
100
AcDbEntity
  8
Layer_1
 62
7
100
AcDbPolyline
 90
2
 70
0
 10
217.467360
 20
580.392410
 30
0.0
 10
217.239340
 20
580.117430
 30
0.0
  0
LWPOLYLINE
  5
309
100
AcDbEntity
  8
Layer_1
 62
7
100
AcDbPolyline
 90
2
 70
0
 10
217.756370
 20
580.602410
 30
0.0
 10
217.467360
 20
580.392410
 30
0.0
  0
LWPOLYLINE
  5
30a
100
AcDbEntity
  8
Layer_1
 62
7
100
AcDbPolyline
 90
2
 70
0
 10
218.088370
 20
580.733430
 30
0.0
 10
217.756370
 20
580.602410
 30
0.0
  0
LWPOLYLINE
  5
30b
100
AcDbEntity
  8
Layer_1
 62
7
100
AcDbPolyline
 90
2
 70
0
 10
218.442350
 20
580.778410
 30
0.0
 10
218.088370
 20
580.733410
 30
0.0
  0
LWPOLYLINE
  5
30c
100
AcDbEntity
  8
Layer_1
 62
7
100
AcDbPolyline
 90
2
 70
0
 10
218.796360
 20
428.733430
 30
0.0
 10
218.442350
 20
428.778430
 30
0.0
  0
LWPOLYLINE
  5
30d
100
AcDbEntity
  8
Layer_1
 62
7
100
AcDbPolyline
 90
2
 70
0
 10
219.129340
 20
428.602410
 30
0.0
 10
218.796360
 20
428.733430
 30
0.0
  0
LWPOLYLINE
  5
30e
100
AcDbEntity
  8
Layer_1
 62
7
100
AcDbPolyline
 90
2
 70
0
 10
219.418350
 20
428.392410
 30
0.0
 10
219.129340
 20
428.602410
 30
0.0
  0
LWPOLYLINE
  5
30f
100
AcDbEntity
  8
Layer_1
 62
7
100
AcDbPolyline
 90
2
 70
0
 10
219.645360
 20
428.117430
 30
0.0
 10
219.418350
 20
428.392410
 30
0.0
  0
LWPOLYLINE
  5
310
100
AcDbEntity
  8
Layer_1
 62
7
100
AcDbPolyline
 90
2
 70
0
 10
219.797360
 20
427.794420
 30
0.0
 10
219.645360
 20
428.117430
 30
0.0
  0
LWPOLYLINE
  5
311
100
AcDbEntity
  8
Layer_1
 62
7
100
AcDbPolyline
 90
2
 70
0
 10
219.864360
 20
427.443430
 30
0.0
 10
219.797360
 20
427.794420
 30
0.0
  0
LWPOLYLINE
  5
312
100
AcDbEntity
  8
Layer_1
 62
7
100
AcDbPolyline
 90
2
 70
0
 10
219.842340
 20
427.086430
 30
0.0
 10
219.864340
 20
427.443430
 30
0.0
  0
LWPOLYLINE
  5
313
100
AcDbEntity
  8
Layer_1
 62
7
100
AcDbPolyline
 90
2
 70
0
 10
219.731350
 20
426.746410
 30
0.0
 10
219.842340
 20
427.086430
 30
0.0
  0
LWPOLYLINE
  5
314
100
AcDbEntity
  8
Layer_1
 62
7
100
AcDbPolyline
 90
2
 70
0
 10
219.540350
 20
426.445420
 30
0.0
 10
219.731350
 20
426.746410
 30
0.0
  0
LWPOLYLINE
  5
315
100
AcDbEntity
  8
Layer_1
 62
7
100
AcDbPolyline
 90
2
 70
0
 10
219.280370
 20
426.200420
 30
0.0
 10
219.540350
 20
426.445420
 30
0.0
  0
LWPOLYLINE
  5
316
100
AcDbEntity
  8
Layer_1
 62
7
100
AcDbPolyline
 90
2
 70
0
 10
218.967370
 20
426.028410
 30
0.0
 10
219.280370
 20
426.200420
 30
0.0
  0
LWPOLYLINE
  5
317
100
AcDbEntity
  8
Layer_1
 62
7
100
AcDbPolyline
 90
2
 70
0
 10
218.621340
 20
425.939430
 30
0.0
 10
218.967370
 20
426.028430
 30
0.0
  0
LWPOLYLINE
  5
318
100
AcDbEntity
  8
Layer_1
 62
7
100
AcDbPolyline
 90
2
 70
0
 10
218.263360
 20
425.939430
 30
0.0
 10
218.621340
 20
425.939430
 30
0.0
  0
LWPOLYLINE
  5
319
100
AcDbEntity
  8
Layer_1
 62
7
100
AcDbPolyline
 90
2
 70
0
 10
217.917370
 20
426.028410
 30
0.0
 10
218.263360
 20
425.939410
 30
0.0
  0
LWPOLYLINE
  5
31a
100
AcDbEntity
  8
Layer_1
 62
7
100
AcDbPolyline
 90
2
 70
0
 10
217.604360
 20
426.200420
 30
0.0
 10
217.917370
 20
426.028410
 30
0.0
  0
LWPOLYLINE
  5
31b
100
AcDbEntity
  8
Layer_1
 62
7
100
AcDbPolyline
 90
2
 70
0
 10
217.344360
 20
426.445420
 30
0.0
 10
217.604360
 20
426.200420
 30
0.0
  0
LWPOLYLINE
  5
31c
100
AcDbEntity
  8
Layer_1
 62
7
100
AcDbPolyline
 90
2
 70
0
 10
217.153360
 20
426.746410
 30
0.0
 10
217.344360
 20
426.445420
 30
0.0
  0
LWPOLYLINE
  5
31d
100
AcDbEntity
  8
Layer_1
 62
7
100
AcDbPolyline
 90
2
 70
0
 10
217.042360
 20
427.086430
 30
0.0
 10
217.153360
 20
426.746410
 30
0.0
  0
LWPOLYLINE
  5
31e
100
AcDbEntity
  8
Layer_1
 62
7
100
AcDbPolyline
 90
2
 70
0
 10
217.020350
 20
427.443430
 30
0.0
 10
217.042350
 20
427.086430
 30
0.0
  0
LWPOLYLINE
  5
31f
100
AcDbEntity
  8
Layer_1
 62
7
100
AcDbPolyline
 90
2
 70
0
 10
217.087340
 20
427.794420
 30
0.0
 10
217.020340
 20
427.443430
 30
0.0
  0
LWPOLYLINE
  5
320
100
AcDbEntity
  8
Layer_1
 62
7
100
AcDbPolyline
 90
2
 70
0
 10
217.239340
 20
428.117430
 30
0.0
 10
217.087340
 20
427.794420
 30
0.0
  0
LWPOLYLINE
  5
321
100
AcDbEntity
  8
Layer_1
 62
7
100
AcDbPolyline
 90
2
 70
0
 10
217.467360
 20
428.392410
 30
0.0
 10
217.239340
 20
428.117430
 30
0.0
  0
LWPOLYLINE
  5
322
100
AcDbEntity
  8
Layer_1
 62
7
100
AcDbPolyline
 90
2
 70
0
 10
217.756370
 20
428.602410
 30
0.0
 10
217.467360
 20
428.392410
 30
0.0
  0
LWPOLYLINE
  5
323
100
AcDbEntity
  8
Layer_1
 62
7
100
AcDbPolyline
 90
2
 70
0
 10
218.088370
 20
428.733430
 30
0.0
 10
217.756370
 20
428.602410
 30
0.0
  0
LWPOLYLINE
  5
324
100
AcDbEntity
  8
Layer_1
 62
7
100
AcDbPolyline
 90
2
 70
0
 10
218.442350
 20
428.778410
 30
0.0
 10
218.088370
 20
428.733410
 30
0.0
  0
LWPOLYLINE
  5
325
100
AcDbEntity
  8
Layer_1
 62
7
100
AcDbPolyline
 90
2
 70
0
 10
187.367360
 20
417.778410
 30
0.0
 10
187.367360
 20
427.778420
 30
0.0
  0
LWPOLYLINE
  5
326
100
AcDbEntity
  8
Layer_1
 62
7
100
AcDbPolyline
 90
2
 70
0
 10
187.367360
 20
417.778410
 30
0.0
 10
201.017340
 20
417.778410
 30
0.0
  0
LWPOLYLINE
  5
327
100
AcDbEntity
  8
Layer_1
 62
7
100
AcDbPolyline
 90
2
 70
0
 10
201.017340
 20
420.778410
 30
0.0
 10
201.017340
 20
417.778410
 30
0.0
  0
LWPOLYLINE
  5
328
100
AcDbEntity
  8
Layer_1
 62
7
100
AcDbPolyline
 90
2
 70
0
 10
210.867360
 20
420.778410
 30
0.0
 10
201.017340
 20
420.778410
 30
0.0
  0
LWPOLYLINE
  5
329
100
AcDbEntity
  8
Layer_1
 62
7
100
AcDbPolyline
 90
2
 70
0
 10
210.867360
 20
417.778410
 30
0.0
 10
210.867360
 20
420.778410
 30
0.0
  0
LWPOLYLINE
  5
32a
100
AcDbEntity
  8
Layer_1
 62
7
100
AcDbPolyline
 90
2
 70
0
 10
210.867360
 20
417.778410
 30
0.0
 10
224.517340
 20
417.778410
 30
0.0
  0
LWPOLYLINE
  5
32b
100
AcDbEntity
  8
Layer_1
 62
7
100
AcDbPolyline
 90
2
 70
0
 10
224.517340
 20
427.778420
 30
0.0
 10
224.517340
 20
417.778410
 30
0.0
  0
LWPOLYLINE
  5
32c
100
AcDbEntity
  8
Layer_1
 62
7
100
AcDbPolyline
 90
2
 70
0
 10
227.517350
 20
427.778420
 30
0.0
 10
224.517340
 20
427.778420
 30
0.0
  0
LWPOLYLINE
  5
32d
100
AcDbEntity
  8
Layer_1
 62
7
100
AcDbPolyline
 90
13
 70
0
 10
227.517350
 20
427.778420
 30
0.0
 10
227.517350
 20
442.928440
 30
0.0
 10
224.517340
 20
442.928440
 30
0.0
 10
224.517340
 20
495.778430
 30
0.0
 10
227.517350
 20
495.778430
 30
0.0
 10
227.517350
 20
510.928420
 30
0.0
 10
224.517340
 20
510.928420
 30
0.0
 10
224.517340
 20
563.778430
 30
0.0
 10
227.517350
 20
563.778430
 30
0.0
 10
227.517350
 20
578.928420
 30
0.0
 10
224.517340
 20
578.928420
 30
0.0
 10
224.517340
 20
588.928420
 30
0.0
 10
210.867360
 20
588.928420
 30
0.0
  0
LWPOLYLINE
  5
32e
100
AcDbEntity
  8
Layer_1
 62
7
100
AcDbPolyline
 90
2
 70
0
 10
210.867360
 20
585.928420
 30
0.0
 10
210.867360
 20
588.928420
 30
0.0
  0
LWPOLYLINE
  5
32f
100
AcDbEntity
  8
Layer_1
 62
7
100
AcDbPolyline
 90
2
 70
0
 10
201.017340
 20
585.928420
 30
0.0
 10
210.867360
 20
585.928420
 30
0.0
  0
LWPOLYLINE
  5
330
100
AcDbEntity
  8
Layer_1
 62
7
100
AcDbPolyline
 90
2
 70
0
 10
201.017340
 20
588.928420
 30
0.0
 10
201.017340
 20
585.928420
 30
0.0
  0
LWPOLYLINE
  5
331
100
AcDbEntity
  8
Layer_1
 62
7
100
AcDbPolyline
 90
12
 70
0
 10
201.017340
 20
588.928420
 30
0.0
 10
187.367360
 20
588.928420
 30
0.0
 10
187.367360
 20
578.928420
 30
0.0
 10
184.367350
 20
578.928420
 30
0.0
 10
184.367350
 20
563.778430
 30
0.0
 10
187.367360
 20
563.778430
 30
0.0
 10
187.367360
 20
510.928420
 30
0.0
 10
184.367350
 20
510.928420
 30
0.0
 10
184.367350
 20
495.778430
 30
0.0
 10
187.367360
 20
495.778430
 30
0.0
 10
187.367360
 20
442.928440
 30
0.0
 10
184.367350
 20
442.928440
 30
0.0
  0
LWPOLYLINE
  5
332
100
AcDbEntity
  8
Layer_1
 62
7
100
AcDbPolyline
 90
3
 70
0
 10
187.367360
 20
427.778420
 30
0.0
 10
184.367350
 20
427.778420
 30
0.0
 10
184.367350
 20
442.928440
 30
0.0
  0
LWPOLYLINE
  5
333
100
AcDbEntity
  8
Layer_1
 62
7
100
AcDbPolyline
 90
2
 70
0
 10
165.297690
 20
247.485477
 30
0.0
 10
165.252690
 20
247.130467
 30
0.0
  0
LWPOLYLINE
  5
334
100
AcDbEntity
  8
Layer_1
 62
7
100
AcDbPolyline
 90
2
 70
0
 10
165.428680
 20
247.817477
 30
0.0
 10
165.297690
 20
247.485477
 30
0.0
  0
LWPOLYLINE
  5
335
100
AcDbEntity
  8
Layer_1
 62
7
100
AcDbPolyline
 90
2
 70
0
 10
165.638680
 20
248.106477
 30
0.0
 10
165.428680
 20
247.817477
 30
0.0
  0
LWPOLYLINE
  5
336
100
AcDbEntity
  8
Layer_1
 62
7
100
AcDbPolyline
 90
2
 70
0
 10
165.914670
 20
248.333467
 30
0.0
 10
165.638680
 20
248.106477
 30
0.0
  0
LWPOLYLINE
  5
337
100
AcDbEntity
  8
Layer_1
 62
7
100
AcDbPolyline
 90
2
 70
0
 10
166.237670
 20
248.485467
 30
0.0
 10
165.914670
 20
248.333467
 30
0.0
  0
LWPOLYLINE
  5
338
100
AcDbEntity
  8
Layer_1
 62
7
100
AcDbPolyline
 90
2
 70
0
 10
166.588670
 20
248.552467
 30
0.0
 10
166.237670
 20
248.485467
 30
0.0
  0
LWPOLYLINE
  5
339
100
AcDbEntity
  8
Layer_1
 62
7
100
AcDbPolyline
 90
2
 70
0
 10
166.944690
 20
248.530477
 30
0.0
 10
166.588670
 20
248.552477
 30
0.0
  0
LWPOLYLINE
  5
33a
100
AcDbEntity
  8
Layer_1
 62
7
100
AcDbPolyline
 90
2
 70
0
 10
167.284680
 20
248.420467
 30
0.0
 10
166.944690
 20
248.530477
 30
0.0
  0
LWPOLYLINE
  5
33b
100
AcDbEntity
  8
Layer_1
 62
7
100
AcDbPolyline
 90
2
 70
0
 10
167.585670
 20
248.228477
 30
0.0
 10
167.284680
 20
248.420467
 30
0.0
  0
LWPOLYLINE
  5
33c
100
AcDbEntity
  8
Layer_1
 62
7
100
AcDbPolyline
 90
2
 70
0
 10
167.830680
 20
247.968477
 30
0.0
 10
167.585670
 20
248.228477
 30
0.0
  0
LWPOLYLINE
  5
33d
100
AcDbEntity
  8
Layer_1
 62
7
100
AcDbPolyline
 90
2
 70
0
 10
168.002680
 20
247.655477
 30
0.0
 10
167.830680
 20
247.968477
 30
0.0
  0
LWPOLYLINE
  5
33e
100
AcDbEntity
  8
Layer_1
 62
7
100
AcDbPolyline
 90
2
 70
0
 10
168.091690
 20
247.309477
 30
0.0
 10
168.002690
 20
247.655477
 30
0.0
  0
LWPOLYLINE
  5
33f
100
AcDbEntity
  8
Layer_1
 62
7
100
AcDbPolyline
 90
2
 70
0
 10
168.091690
 20
246.952477
 30
0.0
 10
168.091690
 20
247.309477
 30
0.0
  0
LWPOLYLINE
  5
340
100
AcDbEntity
  8
Layer_1
 62
7
100
AcDbPolyline
 90
2
 70
0
 10
168.002680
 20
246.606477
 30
0.0
 10
168.091680
 20
246.952477
 30
0.0
  0
LWPOLYLINE
  5
341
100
AcDbEntity
  8
Layer_1
 62
7
100
AcDbPolyline
 90
2
 70
0
 10
167.830680
 20
246.293477
 30
0.0
 10
168.002680
 20
246.606477
 30
0.0
  0
LWPOLYLINE
  5
342
100
AcDbEntity
  8
Layer_1
 62
7
100
AcDbPolyline
 90
2
 70
0
 10
167.585670
 20
246.032467
 30
0.0
 10
167.830680
 20
246.293477
 30
0.0
  0
LWPOLYLINE
  5
343
100
AcDbEntity
  8
Layer_1
 62
7
100
AcDbPolyline
 90
2
 70
0
 10
167.284680
 20
245.841467
 30
0.0
 10
167.585670
 20
246.032467
 30
0.0
  0
LWPOLYLINE
  5
344
100
AcDbEntity
  8
Layer_1
 62
7
100
AcDbPolyline
 90
2
 70
0
 10
166.944690
 20
245.730467
 30
0.0
 10
167.284680
 20
245.841467
 30
0.0
  0
LWPOLYLINE
  5
345
100
AcDbEntity
  8
Layer_1
 62
7
100
AcDbPolyline
 90
2
 70
0
 10
166.588670
 20
245.708487
 30
0.0
 10
166.944690
 20
245.730487
 30
0.0
  0
LWPOLYLINE
  5
346
100
AcDbEntity
  8
Layer_1
 62
7
100
AcDbPolyline
 90
2
 70
0
 10
166.237670
 20
245.775477
 30
0.0
 10
166.588670
 20
245.708477
 30
0.0
  0
LWPOLYLINE
  5
347
100
AcDbEntity
  8
Layer_1
 62
7
100
AcDbPolyline
 90
2
 70
0
 10
165.914670
 20
245.927477
 30
0.0
 10
166.237670
 20
245.775477
 30
0.0
  0
LWPOLYLINE
  5
348
100
AcDbEntity
  8
Layer_1
 62
7
100
AcDbPolyline
 90
2
 70
0
 10
165.638680
 20
246.155467
 30
0.0
 10
165.914670
 20
245.927477
 30
0.0
  0
LWPOLYLINE
  5
349
100
AcDbEntity
  8
Layer_1
 62
7
100
AcDbPolyline
 90
2
 70
0
 10
165.428680
 20
246.444477
 30
0.0
 10
165.638680
 20
246.155467
 30
0.0
  0
LWPOLYLINE
  5
34a
100
AcDbEntity
  8
Layer_1
 62
7
100
AcDbPolyline
 90
2
 70
0
 10
165.297690
 20
246.776477
 30
0.0
 10
165.428680
 20
246.444477
 30
0.0
  0
LWPOLYLINE
  5
34b
100
AcDbEntity
  8
Layer_1
 62
7
100
AcDbPolyline
 90
2
 70
0
 10
165.252680
 20
247.130467
 30
0.0
 10
165.297680
 20
246.776477
 30
0.0
  0
LWPOLYLINE
  5
34c
100
AcDbEntity
  8
Layer_1
 62
7
100
AcDbPolyline
 90
2
 70
0
 10
13.297678
 20
247.485477
 30
0.0
 10
13.252678
 20
247.130467
 30
0.0
  0
LWPOLYLINE
  5
34d
100
AcDbEntity
  8
Layer_1
 62
7
100
AcDbPolyline
 90
2
 70
0
 10
13.428668
 20
247.817477
 30
0.0
 10
13.297678
 20
247.485477
 30
0.0
  0
LWPOLYLINE
  5
34e
100
AcDbEntity
  8
Layer_1
 62
7
100
AcDbPolyline
 90
2
 70
0
 10
13.638668
 20
248.106477
 30
0.0
 10
13.428668
 20
247.817477
 30
0.0
  0
LWPOLYLINE
  5
34f
100
AcDbEntity
  8
Layer_1
 62
7
100
AcDbPolyline
 90
2
 70
0
 10
13.914668
 20
248.333467
 30
0.0
 10
13.638668
 20
248.106477
 30
0.0
  0
LWPOLYLINE
  5
350
100
AcDbEntity
  8
Layer_1
 62
7
100
AcDbPolyline
 90
2
 70
0
 10
14.237658
 20
248.485467
 30
0.0
 10
13.914668
 20
248.333467
 30
0.0
  0
LWPOLYLINE
  5
351
100
AcDbEntity
  8
Layer_1
 62
7
100
AcDbPolyline
 90
2
 70
0
 10
14.588698
 20
248.552467
 30
0.0
 10
14.237658
 20
248.485467
 30
0.0
  0
LWPOLYLINE
  5
352
100
AcDbEntity
  8
Layer_1
 62
7
100
AcDbPolyline
 90
2
 70
0
 10
14.944678
 20
248.530477
 30
0.0
 10
14.588698
 20
248.552477
 30
0.0
  0
LWPOLYLINE
  5
353
100
AcDbEntity
  8
Layer_1
 62
7
100
AcDbPolyline
 90
2
 70
0
 10
15.284678
 20
248.420467
 30
0.0
 10
14.944678
 20
248.530477
 30
0.0
  0
LWPOLYLINE
  5
354
100
AcDbEntity
  8
Layer_1
 62
7
100
AcDbPolyline
 90
2
 70
0
 10
15.585668
 20
248.228477
 30
0.0
 10
15.284678
 20
248.420467
 30
0.0
  0
LWPOLYLINE
  5
355
100
AcDbEntity
  8
Layer_1
 62
7
100
AcDbPolyline
 90
2
 70
0
 10
15.830678
 20
247.968477
 30
0.0
 10
15.585668
 20
248.228477
 30
0.0
  0
LWPOLYLINE
  5
356
100
AcDbEntity
  8
Layer_1
 62
7
100
AcDbPolyline
 90
2
 70
0
 10
16.002678
 20
247.655477
 30
0.0
 10
15.830678
 20
247.968477
 30
0.0
  0
LWPOLYLINE
  5
357
100
AcDbEntity
  8
Layer_1
 62
7
100
AcDbPolyline
 90
2
 70
0
 10
16.091678
 20
247.309477
 30
0.0
 10
16.002678
 20
247.655477
 30
0.0
  0
LWPOLYLINE
  5
358
100
AcDbEntity
  8
Layer_1
 62
7
100
AcDbPolyline
 90
2
 70
0
 10
16.091678
 20
246.952477
 30
0.0
 10
16.091678
 20
247.309477
 30
0.0
  0
LWPOLYLINE
  5
359
100
AcDbEntity
  8
Layer_1
 62
7
100
AcDbPolyline
 90
2
 70
0
 10
16.002678
 20
246.606477
 30
0.0
 10
16.091678
 20
246.952477
 30
0.0
  0
LWPOLYLINE
  5
35a
100
AcDbEntity
  8
Layer_1
 62
7
100
AcDbPolyline
 90
2
 70
0
 10
15.830678
 20
246.293477
 30
0.0
 10
16.002678
 20
246.606477
 30
0.0
  0
LWPOLYLINE
  5
35b
100
AcDbEntity
  8
Layer_1
 62
7
100
AcDbPolyline
 90
2
 70
0
 10
15.585668
 20
246.032467
 30
0.0
 10
15.830678
 20
246.293477
 30
0.0
  0
LWPOLYLINE
  5
35c
100
AcDbEntity
  8
Layer_1
 62
7
100
AcDbPolyline
 90
2
 70
0
 10
15.284678
 20
245.841467
 30
0.0
 10
15.585668
 20
246.032467
 30
0.0
  0
LWPOLYLINE
  5
35d
100
AcDbEntity
  8
Layer_1
 62
7
100
AcDbPolyline
 90
2
 70
0
 10
14.944678
 20
245.730467
 30
0.0
 10
15.284678
 20
245.841467
 30
0.0
  0
LWPOLYLINE
  5
35e
100
AcDbEntity
  8
Layer_1
 62
7
100
AcDbPolyline
 90
2
 70
0
 10
14.588698
 20
245.708487
 30
0.0
 10
14.944678
 20
245.730487
 30
0.0
  0
LWPOLYLINE
  5
35f
100
AcDbEntity
  8
Layer_1
 62
7
100
AcDbPolyline
 90
2
 70
0
 10
14.237658
 20
245.775477
 30
0.0
 10
14.588698
 20
245.708477
 30
0.0
  0
LWPOLYLINE
  5
360
100
AcDbEntity
  8
Layer_1
 62
7
100
AcDbPolyline
 90
2
 70
0
 10
13.914668
 20
245.927477
 30
0.0
 10
14.237658
 20
245.775477
 30
0.0
  0
LWPOLYLINE
  5
361
100
AcDbEntity
  8
Layer_1
 62
7
100
AcDbPolyline
 90
2
 70
0
 10
13.638668
 20
246.155467
 30
0.0
 10
13.914668
 20
245.927477
 30
0.0
  0
LWPOLYLINE
  5
362
100
AcDbEntity
  8
Layer_1
 62
7
100
AcDbPolyline
 90
2
 70
0
 10
13.428668
 20
246.444477
 30
0.0
 10
13.638668
 20
246.155467
 30
0.0
  0
LWPOLYLINE
  5
363
100
AcDbEntity
  8
Layer_1
 62
7
100
AcDbPolyline
 90
2
 70
0
 10
13.297678
 20
246.776477
 30
0.0
 10
13.428668
 20
246.444477
 30
0.0
  0
LWPOLYLINE
  5
364
100
AcDbEntity
  8
Layer_1
 62
7
100
AcDbPolyline
 90
2
 70
0
 10
13.252678
 20
247.130467
 30
0.0
 10
13.297678
 20
246.776477
 30
0.0
  0
LWPOLYLINE
  5
365
100
AcDbEntity
  8
Layer_1
 62
7
100
AcDbPolyline
 90
4
 70
1
 10
165.602670
 20
216.055468
 30
0.0
 10
165.602670
 20
213.205478
 30
0.0
 10
160.752680
 20
213.205478
 30
0.0
 10
160.752680
 20
216.055468
 30
0.0
  0
LWPOLYLINE
  5
366
100
AcDbEntity
  8
Layer_1
 62
7
100
AcDbPolyline
 90
4
 70
1
 10
15.752668
 20
213.205478
 30
0.0
 10
15.752668
 20
216.055468
 30
0.0
 10
20.602668
 20
216.055468
 30
0.0
 10
20.602668
 20
213.205478
 30
0.0
  0
LWPOLYLINE
  5
367
100
AcDbEntity
  8
Layer_1
 62
7
100
AcDbPolyline
 90
2
 70
0
 10
28.252678
 20
253.205477
 30
0.0
 10
28.252678
 20
213.205478
 30
0.0
  0
LWPOLYLINE
  5
368
100
AcDbEntity
  8
Layer_1
 62
7
100
AcDbPolyline
 90
2
 70
0
 10
8.102659
 20
253.205477
 30
0.0
 10
28.252678
 20
253.205477
 30
0.0
  0
LWPOLYLINE
  5
369
100
AcDbEntity
  8
Layer_1
 62
7
100
AcDbPolyline
 90
2
 70
0
 10
8.102659
 20
213.205478
 30
0.0
 10
8.102659
 20
253.205477
 30
0.0
  0
LWPOLYLINE
  5
36a
100
AcDbEntity
  8
Layer_1
 62
7
100
AcDbPolyline
 90
2
 70
0
 10
5.102679
 20
213.205478
 30
0.0
 10
8.102659
 20
213.205478
 30
0.0
  0
LWPOLYLINE
  5
36b
100
AcDbEntity
  8
Layer_1
 62
7
100
AcDbPolyline
 90
4
 70
0
 10
5.102679
 20
213.205478
 30
0.0
 10
5.102679
 20
5.055430
 30
0.0
 10
176.252680
 20
5.055430
 30
0.0
 10
176.252680
 20
213.205478
 30
0.0
  0
LWPOLYLINE
  5
36c
100
AcDbEntity
  8
Layer_1
 62
7
100
AcDbPolyline
 90
2
 70
0
 10
173.252680
 20
213.205478
 30
0.0
 10
176.252680
 20
213.205478
 30
0.0
  0
LWPOLYLINE
  5
36d
100
AcDbEntity
  8
Layer_1
 62
7
100
AcDbPolyline
 90
2
 70
0
 10
173.252680
 20
253.205477
 30
0.0
 10
173.252680
 20
213.205478
 30
0.0
  0
LWPOLYLINE
  5
36e
100
AcDbEntity
  8
Layer_1
 62
7
100
AcDbPolyline
 90
2
 70
0
 10
153.102670
 20
213.205478
 30
0.0
 10
28.252678
 20
213.205478
 30
0.0
  0
LWPOLYLINE
  5
36f
100
AcDbEntity
  8
Layer_1
 62
7
100
AcDbPolyline
 90
3
 70
0
 10
173.252680
 20
253.205477
 30
0.0
 10
153.102670
 20
253.205477
 30
0.0
 10
153.102670
 20
213.205478
 30
0.0
  0
LWPOLYLINE
  5
370
100
AcDbEntity
  8
Layer_1
 62
7
100
AcDbPolyline
 90
4
 70
0
 10
34.324846
 20
353.765287
 30
0.0
 10
34.324846
 20
348.615277
 30
0.0
 10
37.324826
 20
348.615277
 30
0.0
 10
37.324826
 20
343.615257
 30
0.0
  0
LWPOLYLINE
  5
371
100
AcDbEntity
  8
Layer_1
 62
7
100
AcDbPolyline
 90
2
 70
0
 10
50.824847
 20
343.615257
 30
0.0
 10
37.324826
 20
343.615257
 30
0.0
  0
LWPOLYLINE
  5
372
100
AcDbEntity
  8
Layer_1
 62
7
100
AcDbPolyline
 90
2
 70
0
 10
50.824847
 20
340.615287
 30
0.0
 10
50.824847
 20
343.615257
 30
0.0
  0
LWPOLYLINE
  5
373
100
AcDbEntity
  8
Layer_1
 62
7
100
AcDbPolyline
 90
2
 70
0
 10
50.824847
 20
340.615287
 30
0.0
 10
60.974847
 20
340.615287
 30
0.0
  0
LWPOLYLINE
  5
374
100
AcDbEntity
  8
Layer_1
 62
7
100
AcDbPolyline
 90
2
 70
0
 10
60.974847
 20
343.615257
 30
0.0
 10
60.974847
 20
340.615287
 30
0.0
  0
LWPOLYLINE
  5
375
100
AcDbEntity
  8
Layer_1
 62
7
100
AcDbPolyline
 90
2
 70
0
 10
74.474838
 20
343.615257
 30
0.0
 10
60.974847
 20
343.615257
 30
0.0
  0
LWPOLYLINE
  5
376
100
AcDbEntity
  8
Layer_1
 62
7
100
AcDbPolyline
 90
2
 70
0
 10
74.474838
 20
348.615277
 30
0.0
 10
74.474838
 20
343.615257
 30
0.0
  0
LWPOLYLINE
  5
377
100
AcDbEntity
  8
Layer_1
 62
7
100
AcDbPolyline
 90
2
 70
0
 10
77.474848
 20
348.615277
 30
0.0
 10
74.474838
 20
348.615277
 30
0.0
  0
LWPOLYLINE
  5
378
100
AcDbEntity
  8
Layer_1
 62
7
100
AcDbPolyline
 90
2
 70
0
 10
77.474848
 20
353.765287
 30
0.0
 10
34.324846
 20
353.765287
 30
0.0
  0
LWPOLYLINE
  5
379
100
AcDbEntity
  8
Layer_1
 62
7
100
AcDbPolyline
 90
2
 70
0
 10
77.474848
 20
353.765287
 30
0.0
 10
77.474848
 20
348.615277
 30
0.0
  0
LWPOLYLINE
  5
37a
100
AcDbEntity
  8
Layer_1
 62
7
100
AcDbPolyline
 90
4
 70
0
 10
34.324846
 20
374.874667
 30
0.0
 10
34.324846
 20
369.724657
 30
0.0
 10
37.324826
 20
369.724657
 30
0.0
 10
37.324826
 20
364.724667
 30
0.0
  0
LWPOLYLINE
  5
37b
100
AcDbEntity
  8
Layer_1
 62
7
100
AcDbPolyline
 90
2
 70
0
 10
50.824847
 20
364.724667
 30
0.0
 10
37.324826
 20
364.724667
 30
0.0
  0
LWPOLYLINE
  5
37c
100
AcDbEntity
  8
Layer_1
 62
7
100
AcDbPolyline
 90
2
 70
0
 10
50.824847
 20
361.724667
 30
0.0
 10
50.824847
 20
364.724667
 30
0.0
  0
LWPOLYLINE
  5
37d
100
AcDbEntity
  8
Layer_1
 62
7
100
AcDbPolyline
 90
2
 70
0
 10
50.824847
 20
361.724667
 30
0.0
 10
60.974847
 20
361.724667
 30
0.0
  0
LWPOLYLINE
  5
37e
100
AcDbEntity
  8
Layer_1
 62
7
100
AcDbPolyline
 90
2
 70
0
 10
60.974847
 20
364.724667
 30
0.0
 10
60.974847
 20
361.724667
 30
0.0
  0
LWPOLYLINE
  5
37f
100
AcDbEntity
  8
Layer_1
 62
7
100
AcDbPolyline
 90
2
 70
0
 10
74.474838
 20
364.724667
 30
0.0
 10
60.974847
 20
364.724667
 30
0.0
  0
LWPOLYLINE
  5
380
100
AcDbEntity
  8
Layer_1
 62
7
100
AcDbPolyline
 90
2
 70
0
 10
74.474838
 20
369.724657
 30
0.0
 10
74.474838
 20
364.724667
 30
0.0
  0
LWPOLYLINE
  5
381
100
AcDbEntity
  8
Layer_1
 62
7
100
AcDbPolyline
 90
2
 70
0
 10
77.474838
 20
369.724657
 30
0.0
 10
74.474838
 20
369.724657
 30
0.0
  0
LWPOLYLINE
  5
382
100
AcDbEntity
  8
Layer_1
 62
7
100
AcDbPolyline
 90
2
 70
0
 10
77.474838
 20
374.874667
 30
0.0
 10
34.324846
 20
374.874667
 30
0.0
  0
LWPOLYLINE
  5
383
100
AcDbEntity
  8
Layer_1
 62
7
100
AcDbPolyline
 90
2
 70
0
 10
77.474838
 20
374.874667
 30
0.0
 10
77.474838
 20
369.724657
 30
0.0
  0
LWPOLYLINE
  5
384
100
AcDbEntity
  8
Layer_1
 62
7
100
AcDbPolyline
 90
4
 70
0
 10
102.358920
 20
353.587617
 30
0.0
 10
102.358920
 20
348.437607
 30
0.0
 10
105.358900
 20
348.437607
 30
0.0
 10
105.358900
 20
343.437587
 30
0.0
  0
LWPOLYLINE
  5
385
100
AcDbEntity
  8
Layer_1
 62
7
100
AcDbPolyline
 90
2
 70
0
 10
118.858920
 20
343.437587
 30
0.0
 10
105.358900
 20
343.437587
 30
0.0
  0
LWPOLYLINE
  5
386
100
AcDbEntity
  8
Layer_1
 62
7
100
AcDbPolyline
 90
2
 70
0
 10
118.858920
 20
340.437617
 30
0.0
 10
118.858920
 20
343.437587
 30
0.0
  0
LWPOLYLINE
  5
387
100
AcDbEntity
  8
Layer_1
 62
7
100
AcDbPolyline
 90
2
 70
0
 10
118.858920
 20
340.437617
 30
0.0
 10
129.008920
 20
340.437617
 30
0.0
  0
LWPOLYLINE
  5
388
100
AcDbEntity
  8
Layer_1
 62
7
100
AcDbPolyline
 90
2
 70
0
 10
129.008920
 20
343.437587
 30
0.0
 10
129.008920
 20
340.437617
 30
0.0
  0
LWPOLYLINE
  5
389
100
AcDbEntity
  8
Layer_1
 62
7
100
AcDbPolyline
 90
2
 70
0
 10
142.508920
 20
343.437587
 30
0.0
 10
129.008920
 20
343.437587
 30
0.0
  0
LWPOLYLINE
  5
38a
100
AcDbEntity
  8
Layer_1
 62
7
100
AcDbPolyline
 90
2
 70
0
 10
142.508920
 20
348.437607
 30
0.0
 10
142.508920
 20
343.437587
 30
0.0
  0
LWPOLYLINE
  5
38b
100
AcDbEntity
  8
Layer_1
 62
7
100
AcDbPolyline
 90
2
 70
0
 10
145.508930
 20
348.437607
 30
0.0
 10
142.508920
 20
348.437607
 30
0.0
  0
LWPOLYLINE
  5
38c
100
AcDbEntity
  8
Layer_1
 62
7
100
AcDbPolyline
 90
2
 70
0
 10
145.508930
 20
353.587617
 30
0.0
 10
102.358920
 20
353.587617
 30
0.0
  0
LWPOLYLINE
  5
38d
100
AcDbEntity
  8
Layer_1
 62
7
100
AcDbPolyline
 90
2
 70
0
 10
145.508930
 20
353.587617
 30
0.0
 10
145.508930
 20
348.437607
 30
0.0
  0
LWPOLYLINE
  5
38e
100
AcDbEntity
  8
Layer_1
 62
7
100
AcDbPolyline
 90
4
 70
0
 10
102.358920
 20
374.696997
 30
0.0
 10
102.358920
 20
369.546987
 30
0.0
 10
105.358900
 20
369.546987
 30
0.0
 10
105.358900
 20
364.546997
 30
0.0
  0
LWPOLYLINE
  5
38f
100
AcDbEntity
  8
Layer_1
 62
7
100
AcDbPolyline
 90
2
 70
0
 10
118.858920
 20
364.546997
 30
0.0
 10
105.358900
 20
364.546997
 30
0.0
  0
LWPOLYLINE
  5
390
100
AcDbEntity
  8
Layer_1
 62
7
100
AcDbPolyline
 90
2
 70
0
 10
118.858920
 20
361.546997
 30
0.0
 10
118.858920
 20
364.546997
 30
0.0
  0
LWPOLYLINE
  5
391
100
AcDbEntity
  8
Layer_1
 62
7
100
AcDbPolyline
 90
2
 70
0
 10
118.858920
 20
361.546997
 30
0.0
 10
129.008920
 20
361.546997
 30
0.0
  0
LWPOLYLINE
  5
392
100
AcDbEntity
  8
Layer_1
 62
7
100
AcDbPolyline
 90
2
 70
0
 10
129.008920
 20
364.546997
 30
0.0
 10
129.008920
 20
361.546997
 30
0.0
  0
LWPOLYLINE
  5
393
100
AcDbEntity
  8
Layer_1
 62
7
100
AcDbPolyline
 90
2
 70
0
 10
142.508920
 20
364.546997
 30
0.0
 10
129.008920
 20
364.546997
 30
0.0
  0
LWPOLYLINE
  5
394
100
AcDbEntity
  8
Layer_1
 62
7
100
AcDbPolyline
 90
2
 70
0
 10
142.508920
 20
369.546987
 30
0.0
 10
142.508920
 20
364.546997
 30
0.0
  0
LWPOLYLINE
  5
395
100
AcDbEntity
  8
Layer_1
 62
7
100
AcDbPolyline
 90
2
 70
0
 10
145.508920
 20
369.546987
 30
0.0
 10
142.508920
 20
369.546987
 30
0.0
  0
LWPOLYLINE
  5
396
100
AcDbEntity
  8
Layer_1
 62
7
100
AcDbPolyline
 90
2
 70
0
 10
145.508920
 20
374.696997
 30
0.0
 10
102.358920
 20
374.696997
 30
0.0
  0
LWPOLYLINE
  5
397
100
AcDbEntity
  8
Layer_1
 62
7
100
AcDbPolyline
 90
2
 70
0
 10
145.508920
 20
374.696997
 30
0.0
 10
145.508920
 20
369.546987
 30
0.0
  0
ENDSEC
  0
SECTION
  2
OBJECTS
  0
DICTIONARY
  5
C
330
0
100
AcDbDictionary
  3
ACAD_GROUP
350
D
  3
ACAD_MLINESTYLE
350
17
  0
DICTIONARY
  5
D
330
C
100
AcDbDictionary
  0
DICTIONARY
  5
1A
330
C
100
AcDbDictionary
  0
DICTIONARY
  5
17
330
C
100
AcDbDictionary
  3
STANDARD
350
18
  0
DICTIONARY
  5
19
330
C
100
AcDbDictionary
  0
ENDSEC
  0
EOF
