  0
SECTION
  2
HEADER
  9
$ACADVER
  1
AC1014
  9
$HANDSEED
  5
FFFF
  9
$MEASUREMENT
 70
     1
  0
ENDSEC
  0
SECTION
  2
TABLES
  0
TABLE
  2
VPORT
  5
8
330
0
100
AcDbSymbolTable
 70
     4
  0
VPORT
  5
2E
330
8
100
AcDbSymbolTableRecord
100
AcDbViewportTableRecord
  2
*ACTIVE
 70
     0
 10
0.0
 20
0.0
 11
1.0
 21
1.0
 12
210.0
 22
148.5
 13
0.0
 23
0.0
 14
10.0
 24
10.0
 15
10.0
 25
10.0
 16
0.0
 26
0.0
 36
1.0
 17
0.0
 27
0.0
 37
0.0
 40
341.0
 41
1.24
 42
50.0
 43
0.0
 44
0.0
 50
0.0
 51
0.0
 71
     0
 72
   100
 73
     1
 74
     3
 75
     0
 76
     0
 77
     0
 78
     0
  0
ENDTAB
  0
TABLE
  2
LTYPE
  5
5
330
0
100
AcDbSymbolTable
 70
     1
  0
LTYPE
  5
14
330
5
100
AcDbSymbolTableRecord
100
AcDbLinetypeTableRecord
  2
BYBLOCK
 70
     0
  3

 72
    65
 73
     0
 40
0.0
  0
LTYPE
  5
15
330
5
100
AcDbSymbolTableRecord
100
AcDbLinetypeTableRecord
  2
BYLAYER
 70
     0
  3

 72
    65
 73
     0
 40
0.0
  0
LTYPE
  5
16
330
5
100
AcDbSymbolTableRecord
100
AcDbLinetypeTableRecord
  2
CONTINUOUS
 70
     0
  3
Solid line
 72
    65
 73
     0
 40
0.0
  0
ENDTAB
  0
TABLE
  2
LAYER
  5
2
100
AcDbSymbolTable
 70
2
  0
LAYER
  5
50
100
AcDbSymbolTableRecord
100
AcDbLayerTableRecord
  2
0
 70
0
  6
CONTINUOUS
  0
LAYER
  5
51
100
AcDbSymbolTableRecord
100
AcDbLayerTableRecord
  2
Layer_1
 70
0
  6
CONTINUOUS
  0
ENDTAB
  0
TABLE
  2
STYLE
  5
3
330
0
100
AcDbSymbolTable
 70
     1
  0
STYLE
  5
11
330
3
100
AcDbSymbolTableRecord
100
AcDbTextStyleTableRecord
  2
STANDARD
 70
     0
 40
0.0
 41
1.0
 50
0.0
 71
     0
 42
2.5
  3
txt
  4

  0
ENDTAB
  0
TABLE
  2
VIEW
  5
6
330
0
100
AcDbSymbolTable
 70
     0
  0
ENDTAB
  0
TABLE
  2
UCS
  5
7
330
0
100
AcDbSymbolTable
 70
     0
  0
ENDTAB
  0
TABLE
  2
APPID
  5
9
330
0
100
AcDbSymbolTable
 70
     2
  0
APPID
  5
12
330
9
100
AcDbSymbolTableRecord
100
AcDbRegAppTableRecord
  2
ACAD
 70
     0
  0
ENDTAB
  0
TABLE
  2
DIMSTYLE
  5
A
330
0
100
AcDbSymbolTable
 70
     1
  0
DIMSTYLE
105
27
330
A
100
AcDbSymbolTableRecord
100
AcDbDimStyleTableRecord
  2
ISO-25
 70
     0
  3

  4

  5

  6

  7

 40
1.0
 41
2.5
 42
0.625
 43
3.75
 44
1.25
 45
0.0
 46
0.0
 47
0.0
 48
0.0
140
2.5
141
2.5
142
0.0
143
0.03937007874016
144
1.0
145
0.0
146
1.0
147
0.625
 71
     0
 72
     0
 73
     0
 74
     0
 75
     0
 76
     0
 77
     1
 78
     8
170
     0
171
     3
172
     1
173
     0
174
     0
175
     0
176
     0
177
     0
178
     0
270
     2
271
     2
272
     2
273
     2
274
     3
340
11
275
     0
280
     0
281
     0
282
     0
283
     0
284
     8
285
     0
286
     0
287
     3
288
     0
  0
ENDTAB
  0
TABLE
  2
BLOCK_RECORD
  5
1
330
0
100
AcDbSymbolTable
 70
     1
  0
BLOCK_RECORD
  5
1F
330
1
100
AcDbSymbolTableRecord
100
AcDbBlockTableRecord
  2
*MODEL_SPACE
  0
BLOCK_RECORD
  5
1B
330
1
100
AcDbSymbolTableRecord
100
AcDbBlockTableRecord
  2
*PAPER_SPACE
  0
ENDTAB
  0
ENDSEC
  0
SECTION
  2
BLOCKS
  0
BLOCK
  5
20
330
1F
100
AcDbEntity
  8
0
100
AcDbBlockBegin
  2
*MODEL_SPACE
 70
     0
 10
0.0
 20
0.0
 30
0.0
  3
*MODEL_SPACE
  1

  0
ENDBLK
  5
21
330
1F
100
AcDbEntity
  8
0
100
AcDbBlockEnd
  0
BLOCK
  5
1C
330
1B
100
AcDbEntity
 67
     1
  8
0
100
AcDbBlockBegin
  2
*PAPER_SPACE
  1

  0
ENDBLK
  5
1D
330
1B
100
AcDbEntity
 67
     1
  8
0
100
AcDbBlockEnd
  0
ENDSEC
  0
SECTION
  2
ENTITIES
  0
LWPOLYLINE
  5
100
100
AcDbEntity
  8
Layer_1
 62
7
100
AcDbPolyline
 90
2
 70
0
 10
198.747040
 20
376.678399
 30
0.0
 10
199.117030
 20
376.632399
 30
0.0
  0
LWPOLYLINE
  5
101
100
AcDbEntity
  8
Layer_1
 62
7
100
AcDbPolyline
 90
2
 70
0
 10
198.407050
 20
376.815409
 30
0.0
 10
198.747040
 20
376.678399
 30
0.0
  0
LWPOLYLINE
  5
102
100
AcDbEntity
  8
Layer_1
 62
7
100
AcDbPolyline
 90
2
 70
0
 10
198.107040
 20
377.032419
 30
0.0
 10
198.407050
 20
376.815409
 30
0.0
  0
LWPOLYLINE
  5
103
100
AcDbEntity
  8
Layer_1
 62
7
100
AcDbPolyline
 90
2
 70
0
 10
197.877030
 20
377.317399
 30
0.0
 10
198.107040
 20
377.032419
 30
0.0
  0
LWPOLYLINE
  5
104
100
AcDbEntity
  8
Layer_1
 62
7
100
AcDbPolyline
 90
2
 70
0
 10
197.717040
 20
377.651409
 30
0.0
 10
197.877030
 20
377.317399
 30
0.0
  0
LWPOLYLINE
  5
105
100
AcDbEntity
  8
Layer_1
 62
7
100
AcDbPolyline
 90
2
 70
0
 10
197.647030
 20
378.014419
 30
0.0
 10
197.717030
 20
377.651409
 30
0.0
  0
LWPOLYLINE
  5
106
100
AcDbEntity
  8
Layer_1
 62
7
100
AcDbPolyline
 90
2
 70
0
 10
197.667030
 20
378.383409
 30
0.0
 10
197.646930
 20
378.014419
 30
0.0
  0
LWPOLYLINE
  5
107
100
AcDbEntity
  8
Layer_1
 62
7
100
AcDbPolyline
 90
2
 70
0
 10
197.787050
 20
378.735409
 30
0.0
 10
197.667030
 20
378.383409
 30
0.0
  0
LWPOLYLINE
  5
108
100
AcDbEntity
  8
Layer_1
 62
7
100
AcDbPolyline
 90
2
 70
0
 10
197.977050
 20
379.047399
 30
0.0
 10
197.787050
 20
378.735409
 30
0.0
  0
LWPOLYLINE
  5
109
100
AcDbEntity
  8
Layer_1
 62
7
100
AcDbPolyline
 90
2
 70
0
 10
198.247050
 20
379.300399
 30
0.0
 10
197.977050
 20
379.047399
 30
0.0
  0
LWPOLYLINE
  5
10a
100
AcDbEntity
  8
Layer_1
 62
7
100
AcDbPolyline
 90
2
 70
0
 10
198.577040
 20
379.479419
 30
0.0
 10
198.247050
 20
379.300399
 30
0.0
  0
LWPOLYLINE
  5
10b
100
AcDbEntity
  8
Layer_1
 62
7
100
AcDbPolyline
 90
2
 70
0
 10
198.937030
 20
379.570409
 30
0.0
 10
198.577040
 20
379.479409
 30
0.0
  0
LWPOLYLINE
  5
10c
100
AcDbEntity
  8
Layer_1
 62
7
100
AcDbPolyline
 90
2
 70
0
 10
199.307050
 20
379.570409
 30
0.0
 10
198.937030
 20
379.570409
 30
0.0
  0
LWPOLYLINE
  5
10d
100
AcDbEntity
  8
Layer_1
 62
7
100
AcDbPolyline
 90
2
 70
0
 10
199.657040
 20
379.479419
 30
0.0
 10
199.307050
 20
379.570419
 30
0.0
  0
LWPOLYLINE
  5
10e
100
AcDbEntity
  8
Layer_1
 62
7
100
AcDbPolyline
 90
2
 70
0
 10
199.987030
 20
379.300399
 30
0.0
 10
199.657040
 20
379.479419
 30
0.0
  0
LWPOLYLINE
  5
10f
100
AcDbEntity
  8
Layer_1
 62
7
100
AcDbPolyline
 90
2
 70
0
 10
200.257040
 20
379.047399
 30
0.0
 10
199.987030
 20
379.300399
 30
0.0
  0
LWPOLYLINE
  5
110
100
AcDbEntity
  8
Layer_1
 62
7
100
AcDbPolyline
 90
2
 70
0
 10
200.457040
 20
378.735409
 30
0.0
 10
200.257040
 20
379.047399
 30
0.0
  0
LWPOLYLINE
  5
111
100
AcDbEntity
  8
Layer_1
 62
7
100
AcDbPolyline
 90
2
 70
0
 10
200.567050
 20
378.383409
 30
0.0
 10
200.457040
 20
378.735409
 30
0.0
  0
LWPOLYLINE
  5
112
100
AcDbEntity
  8
Layer_1
 62
7
100
AcDbPolyline
 90
2
 70
0
 10
200.587050
 20
378.014419
 30
0.0
 10
200.566950
 20
378.383409
 30
0.0
  0
LWPOLYLINE
  5
113
100
AcDbEntity
  8
Layer_1
 62
7
100
AcDbPolyline
 90
2
 70
0
 10
200.517050
 20
377.651409
 30
0.0
 10
200.587050
 20
378.014419
 30
0.0
  0
LWPOLYLINE
  5
114
100
AcDbEntity
  8
Layer_1
 62
7
100
AcDbPolyline
 90
2
 70
0
 10
200.367050
 20
377.317399
 30
0.0
 10
200.517050
 20
377.651409
 30
0.0
  0
LWPOLYLINE
  5
115
100
AcDbEntity
  8
Layer_1
 62
7
100
AcDbPolyline
 90
2
 70
0
 10
200.127050
 20
377.032419
 30
0.0
 10
200.367050
 20
377.317399
 30
0.0
  0
LWPOLYLINE
  5
116
100
AcDbEntity
  8
Layer_1
 62
7
100
AcDbPolyline
 90
2
 70
0
 10
199.827040
 20
376.815409
 30
0.0
 10
200.127050
 20
377.032419
 30
0.0
  0
LWPOLYLINE
  5
117
100
AcDbEntity
  8
Layer_1
 62
7
100
AcDbPolyline
 90
2
 70
0
 10
199.487050
 20
376.678399
 30
0.0
 10
199.827040
 20
376.815409
 30
0.0
  0
LWPOLYLINE
  5
118
100
AcDbEntity
  8
Layer_1
 62
7
100
AcDbPolyline
 90
2
 70
0
 10
199.117030
 20
376.632419
 30
0.0
 10
199.487050
 20
376.678419
 30
0.0
  0
LWPOLYLINE
  5
119
100
AcDbEntity
  8
Layer_1
 62
7
100
AcDbPolyline
 90
2
 70
0
 10
198.747040
 20
402.178420
 30
0.0
 10
199.117030
 20
402.132420
 30
0.0
  0
LWPOLYLINE
  5
11a
100
AcDbEntity
  8
Layer_1
 62
7
100
AcDbPolyline
 90
2
 70
0
 10
198.407050
 20
402.315420
 30
0.0
 10
198.747040
 20
402.178420
 30
0.0
  0
LWPOLYLINE
  5
11b
100
AcDbEntity
  8
Layer_1
 62
7
100
AcDbPolyline
 90
2
 70
0
 10
198.107040
 20
402.532400
 30
0.0
 10
198.407050
 20
402.315420
 30
0.0
  0
LWPOLYLINE
  5
11c
100
AcDbEntity
  8
Layer_1
 62
7
100
AcDbPolyline
 90
2
 70
0
 10
197.877030
 20
402.817410
 30
0.0
 10
198.107040
 20
402.532400
 30
0.0
  0
LWPOLYLINE
  5
11d
100
AcDbEntity
  8
Layer_1
 62
7
100
AcDbPolyline
 90
2
 70
0
 10
197.717040
 20
403.151400
 30
0.0
 10
197.877030
 20
402.817410
 30
0.0
  0
LWPOLYLINE
  5
11e
100
AcDbEntity
  8
Layer_1
 62
7
100
AcDbPolyline
 90
2
 70
0
 10
197.647030
 20
403.514400
 30
0.0
 10
197.717030
 20
403.151400
 30
0.0
  0
LWPOLYLINE
  5
11f
100
AcDbEntity
  8
Layer_1
 62
7
100
AcDbPolyline
 90
2
 70
0
 10
197.667030
 20
403.883420
 30
0.0
 10
197.646930
 20
403.514400
 30
0.0
  0
LWPOLYLINE
  5
120
100
AcDbEntity
  8
Layer_1
 62
7
100
AcDbPolyline
 90
2
 70
0
 10
197.787050
 20
404.235420
 30
0.0
 10
197.667030
 20
403.883420
 30
0.0
  0
LWPOLYLINE
  5
121
100
AcDbEntity
  8
Layer_1
 62
7
100
AcDbPolyline
 90
2
 70
0
 10
197.977050
 20
404.547420
 30
0.0
 10
197.787050
 20
404.235420
 30
0.0
  0
LWPOLYLINE
  5
122
100
AcDbEntity
  8
Layer_1
 62
7
100
AcDbPolyline
 90
2
 70
0
 10
198.247050
 20
404.800410
 30
0.0
 10
197.977050
 20
404.547420
 30
0.0
  0
LWPOLYLINE
  5
123
100
AcDbEntity
  8
Layer_1
 62
7
100
AcDbPolyline
 90
2
 70
0
 10
198.577040
 20
404.979400
 30
0.0
 10
198.247050
 20
404.800410
 30
0.0
  0
LWPOLYLINE
  5
124
100
AcDbEntity
  8
Layer_1
 62
7
100
AcDbPolyline
 90
2
 70
0
 10
198.937030
 20
405.070420
 30
0.0
 10
198.577040
 20
404.979420
 30
0.0
  0
LWPOLYLINE
  5
125
100
AcDbEntity
  8
Layer_1
 62
7
100
AcDbPolyline
 90
2
 70
0
 10
199.307050
 20
405.070420
 30
0.0
 10
198.937030
 20
405.070420
 30
0.0
  0
LWPOLYLINE
  5
126
100
AcDbEntity
  8
Layer_1
 62
7
100
AcDbPolyline
 90
2
 70
0
 10
199.657040
 20
404.979400
 30
0.0
 10
199.307050
 20
405.070400
 30
0.0
  0
LWPOLYLINE
  5
127
100
AcDbEntity
  8
Layer_1
 62
7
100
AcDbPolyline
 90
2
 70
0
 10
199.987030
 20
404.800410
 30
0.0
 10
199.657040
 20
404.979400
 30
0.0
  0
LWPOLYLINE
  5
128
100
AcDbEntity
  8
Layer_1
 62
7
100
AcDbPolyline
 90
2
 70
0
 10
200.257040
 20
404.547420
 30
0.0
 10
199.987030
 20
404.800410
 30
0.0
  0
LWPOLYLINE
  5
129
100
AcDbEntity
  8
Layer_1
 62
7
100
AcDbPolyline
 90
2
 70
0
 10
200.457040
 20
404.235420
 30
0.0
 10
200.257040
 20
404.547420
 30
0.0
  0
LWPOLYLINE
  5
12a
100
AcDbEntity
  8
Layer_1
 62
7
100
AcDbPolyline
 90
2
 70
0
 10
200.567050
 20
403.883420
 30
0.0
 10
200.457040
 20
404.235420
 30
0.0
  0
LWPOLYLINE
  5
12b
100
AcDbEntity
  8
Layer_1
 62
7
100
AcDbPolyline
 90
2
 70
0
 10
200.587050
 20
403.514400
 30
0.0
 10
200.566950
 20
403.883420
 30
0.0
  0
LWPOLYLINE
  5
12c
100
AcDbEntity
  8
Layer_1
 62
7
100
AcDbPolyline
 90
2
 70
0
 10
200.517050
 20
403.151400
 30
0.0
 10
200.587050
 20
403.514400
 30
0.0
  0
LWPOLYLINE
  5
12d
100
AcDbEntity
  8
Layer_1
 62
7
100
AcDbPolyline
 90
2
 70
0
 10
200.367050
 20
402.817410
 30
0.0
 10
200.517050
 20
403.151400
 30
0.0
  0
LWPOLYLINE
  5
12e
100
AcDbEntity
  8
Layer_1
 62
7
100
AcDbPolyline
 90
2
 70
0
 10
200.127050
 20
402.532400
 30
0.0
 10
200.367050
 20
402.817410
 30
0.0
  0
LWPOLYLINE
  5
12f
100
AcDbEntity
  8
Layer_1
 62
7
100
AcDbPolyline
 90
2
 70
0
 10
199.827040
 20
402.315420
 30
0.0
 10
200.127050
 20
402.532400
 30
0.0
  0
LWPOLYLINE
  5
130
100
AcDbEntity
  8
Layer_1
 62
7
100
AcDbPolyline
 90
2
 70
0
 10
199.487050
 20
402.178420
 30
0.0
 10
199.827040
 20
402.315420
 30
0.0
  0
LWPOLYLINE
  5
131
100
AcDbEntity
  8
Layer_1
 62
7
100
AcDbPolyline
 90
2
 70
0
 10
199.117030
 20
402.132410
 30
0.0
 10
199.487050
 20
402.178410
 30
0.0
  0
LWPOLYLINE
  5
132
100
AcDbEntity
  8
Layer_1
 62
7
100
AcDbPolyline
 90
2
 70
0
 10
224.247050
 20
376.678399
 30
0.0
 10
224.617040
 20
376.632399
 30
0.0
  0
LWPOLYLINE
  5
133
100
AcDbEntity
  8
Layer_1
 62
7
100
AcDbPolyline
 90
2
 70
0
 10
223.907030
 20
376.815409
 30
0.0
 10
224.247050
 20
376.678399
 30
0.0
  0
LWPOLYLINE
  5
134
100
AcDbEntity
  8
Layer_1
 62
7
100
AcDbPolyline
 90
2
 70
0
 10
223.607050
 20
377.032419
 30
0.0
 10
223.907030
 20
376.815409
 30
0.0
  0
LWPOLYLINE
  5
135
100
AcDbEntity
  8
Layer_1
 62
7
100
AcDbPolyline
 90
2
 70
0
 10
223.377050
 20
377.317399
 30
0.0
 10
223.607050
 20
377.032419
 30
0.0
  0
LWPOLYLINE
  5
136
100
AcDbEntity
  8
Layer_1
 62
7
100
AcDbPolyline
 90
2
 70
0
 10
223.217050
 20
377.651409
 30
0.0
 10
223.377050
 20
377.317399
 30
0.0
  0
LWPOLYLINE
  5
137
100
AcDbEntity
  8
Layer_1
 62
7
100
AcDbPolyline
 90
2
 70
0
 10
223.147040
 20
378.014419
 30
0.0
 10
223.217040
 20
377.651409
 30
0.0
  0
LWPOLYLINE
  5
138
100
AcDbEntity
  8
Layer_1
 62
7
100
AcDbPolyline
 90
2
 70
0
 10
223.167050
 20
378.383409
 30
0.0
 10
223.146950
 20
378.014419
 30
0.0
  0
LWPOLYLINE
  5
139
100
AcDbEntity
  8
Layer_1
 62
7
100
AcDbPolyline
 90
2
 70
0
 10
223.287030
 20
378.735409
 30
0.0
 10
223.167050
 20
378.383409
 30
0.0
  0
LWPOLYLINE
  5
13a
100
AcDbEntity
  8
Layer_1
 62
7
100
AcDbPolyline
 90
2
 70
0
 10
223.477030
 20
379.047399
 30
0.0
 10
223.287030
 20
378.735409
 30
0.0
  0
LWPOLYLINE
  5
13b
100
AcDbEntity
  8
Layer_1
 62
7
100
AcDbPolyline
 90
2
 70
0
 10
223.747040
 20
379.300399
 30
0.0
 10
223.477030
 20
379.047399
 30
0.0
  0
LWPOLYLINE
  5
13c
100
AcDbEntity
  8
Layer_1
 62
7
100
AcDbPolyline
 90
2
 70
0
 10
224.077050
 20
379.479419
 30
0.0
 10
223.747040
 20
379.300399
 30
0.0
  0
LWPOLYLINE
  5
13d
100
AcDbEntity
  8
Layer_1
 62
7
100
AcDbPolyline
 90
2
 70
0
 10
224.437050
 20
379.570409
 30
0.0
 10
224.077050
 20
379.479409
 30
0.0
  0
LWPOLYLINE
  5
13e
100
AcDbEntity
  8
Layer_1
 62
7
100
AcDbPolyline
 90
2
 70
0
 10
224.807040
 20
379.570409
 30
0.0
 10
224.437050
 20
379.570409
 30
0.0
  0
LWPOLYLINE
  5
13f
100
AcDbEntity
  8
Layer_1
 62
7
100
AcDbPolyline
 90
2
 70
0
 10
225.157030
 20
379.479419
 30
0.0
 10
224.807040
 20
379.570419
 30
0.0
  0
LWPOLYLINE
  5
140
100
AcDbEntity
  8
Layer_1
 62
7
100
AcDbPolyline
 90
2
 70
0
 10
225.487040
 20
379.300399
 30
0.0
 10
225.157030
 20
379.479419
 30
0.0
  0
LWPOLYLINE
  5
141
100
AcDbEntity
  8
Layer_1
 62
7
100
AcDbPolyline
 90
2
 70
0
 10
225.757050
 20
379.047399
 30
0.0
 10
225.487040
 20
379.300399
 30
0.0
  0
LWPOLYLINE
  5
142
100
AcDbEntity
  8
Layer_1
 62
7
100
AcDbPolyline
 90
2
 70
0
 10
225.957050
 20
378.735409
 30
0.0
 10
225.757050
 20
379.047399
 30
0.0
  0
LWPOLYLINE
  5
143
100
AcDbEntity
  8
Layer_1
 62
7
100
AcDbPolyline
 90
2
 70
0
 10
226.067040
 20
378.383409
 30
0.0
 10
225.957050
 20
378.735409
 30
0.0
  0
LWPOLYLINE
  5
144
100
AcDbEntity
  8
Layer_1
 62
7
100
AcDbPolyline
 90
2
 70
0
 10
226.087040
 20
378.014419
 30
0.0
 10
226.066940
 20
378.383409
 30
0.0
  0
LWPOLYLINE
  5
145
100
AcDbEntity
  8
Layer_1
 62
7
100
AcDbPolyline
 90
2
 70
0
 10
226.017030
 20
377.651409
 30
0.0
 10
226.087030
 20
378.014419
 30
0.0
  0
LWPOLYLINE
  5
146
100
AcDbEntity
  8
Layer_1
 62
7
100
AcDbPolyline
 90
2
 70
0
 10
225.867040
 20
377.317399
 30
0.0
 10
226.017030
 20
377.651409
 30
0.0
  0
LWPOLYLINE
  5
147
100
AcDbEntity
  8
Layer_1
 62
7
100
AcDbPolyline
 90
2
 70
0
 10
225.627040
 20
377.032419
 30
0.0
 10
225.867040
 20
377.317399
 30
0.0
  0
LWPOLYLINE
  5
148
100
AcDbEntity
  8
Layer_1
 62
7
100
AcDbPolyline
 90
2
 70
0
 10
225.327050
 20
376.815409
 30
0.0
 10
225.627040
 20
377.032419
 30
0.0
  0
LWPOLYLINE
  5
149
100
AcDbEntity
  8
Layer_1
 62
7
100
AcDbPolyline
 90
2
 70
0
 10
224.987040
 20
376.678399
 30
0.0
 10
225.327050
 20
376.815409
 30
0.0
  0
LWPOLYLINE
  5
14a
100
AcDbEntity
  8
Layer_1
 62
7
100
AcDbPolyline
 90
2
 70
0
 10
224.617040
 20
376.632419
 30
0.0
 10
224.987040
 20
376.678419
 30
0.0
  0
LWPOLYLINE
  5
14b
100
AcDbEntity
  8
Layer_1
 62
7
100
AcDbPolyline
 90
4
 70
1
 10
221.497050
 20
381.232409
 30
0.0
 10
221.497050
 20
400.482410
 30
0.0
 10
202.247050
 20
400.482410
 30
0.0
 10
202.247050
 20
381.232409
 30
0.0
  0
LWPOLYLINE
  5
14c
100
AcDbEntity
  8
Layer_1
 62
7
100
AcDbPolyline
 90
2
 70
0
 10
233.747050
 20
414.982400
 30
0.0
 10
183.497030
 20
414.982400
 30
0.0
  0
LWPOLYLINE
  5
14d
100
AcDbEntity
  8
Layer_1
 62
7
100
AcDbPolyline
 90
2
 70
0
 10
233.747050
 20
405.982410
 30
0.0
 10
233.747050
 20
414.982400
 30
0.0
  0
LWPOLYLINE
  5
14e
100
AcDbEntity
  8
Layer_1
 62
7
100
AcDbPolyline
 90
2
 70
0
 10
236.747050
 20
405.982410
 30
0.0
 10
233.747050
 20
405.982410
 30
0.0
  0
LWPOLYLINE
  5
14f
100
AcDbEntity
  8
Layer_1
 62
7
100
AcDbPolyline
 90
2
 70
0
 10
236.747050
 20
395.732399
 30
0.0
 10
236.747050
 20
405.982410
 30
0.0
  0
LWPOLYLINE
  5
150
100
AcDbEntity
  8
Layer_1
 62
7
100
AcDbPolyline
 90
4
 70
0
 10
236.747050
 20
395.732399
 30
0.0
 10
233.747050
 20
395.732399
 30
0.0
 10
233.747050
 20
390.982409
 30
0.0
 10
236.747050
 20
390.982409
 30
0.0
  0
LWPOLYLINE
  5
151
100
AcDbEntity
  8
Layer_1
 62
7
100
AcDbPolyline
 90
2
 70
0
 10
236.747050
 20
380.732399
 30
0.0
 10
236.747050
 20
390.982409
 30
0.0
  0
LWPOLYLINE
  5
152
100
AcDbEntity
  8
Layer_1
 62
7
100
AcDbPolyline
 90
5
 70
0
 10
236.747050
 20
380.732399
 30
0.0
 10
233.747050
 20
380.732399
 30
0.0
 10
233.747050
 20
374.982399
 30
0.0
 10
236.747050
 20
374.982399
 30
0.0
 10
236.747050
 20
366.732399
 30
0.0
  0
LWPOLYLINE
  5
153
100
AcDbEntity
  8
Layer_1
 62
7
100
AcDbPolyline
 90
2
 70
0
 10
223.647050
 20
366.732399
 30
0.0
 10
236.747050
 20
366.732399
 30
0.0
  0
LWPOLYLINE
  5
154
100
AcDbEntity
  8
Layer_1
 62
7
100
AcDbPolyline
 90
2
 70
0
 10
223.647050
 20
356.732419
 30
0.0
 10
223.647050
 20
366.732399
 30
0.0
  0
LWPOLYLINE
  5
155
100
AcDbEntity
  8
Layer_1
 62
7
100
AcDbPolyline
 90
2
 70
0
 10
213.397040
 20
356.732419
 30
0.0
 10
223.647050
 20
356.732419
 30
0.0
  0
LWPOLYLINE
  5
156
100
AcDbEntity
  8
Layer_1
 62
7
100
AcDbPolyline
 90
2
 70
0
 10
213.397040
 20
366.732399
 30
0.0
 10
213.397040
 20
356.732419
 30
0.0
  0
LWPOLYLINE
  5
157
100
AcDbEntity
  8
Layer_1
 62
7
100
AcDbPolyline
 90
2
 70
0
 10
213.397040
 20
366.732399
 30
0.0
 10
183.497030
 20
366.732399
 30
0.0
  0
LWPOLYLINE
  5
158
100
AcDbEntity
  8
Layer_1
 62
7
100
AcDbPolyline
 90
2
 70
0
 10
183.497030
 20
386.934389
 30
0.0
 10
183.497030
 20
366.732399
 30
0.0
  0
LWPOLYLINE
  5
159
100
AcDbEntity
  8
Layer_1
 62
7
100
AcDbPolyline
 90
2
 70
0
 10
187.497030
 20
388.934409
 30
0.0
 10
183.497030
 20
386.934389
 30
0.0
  0
LWPOLYLINE
  5
15a
100
AcDbEntity
  8
Layer_1
 62
7
100
AcDbPolyline
 90
2
 70
0
 10
187.497030
 20
392.780419
 30
0.0
 10
187.497030
 20
388.934409
 30
0.0
  0
LWPOLYLINE
  5
15b
100
AcDbEntity
  8
Layer_1
 62
7
100
AcDbPolyline
 90
2
 70
0
 10
183.497030
 20
394.780399
 30
0.0
 10
187.497030
 20
392.780419
 30
0.0
  0
LWPOLYLINE
  5
15c
100
AcDbEntity
  8
Layer_1
 62
7
100
AcDbPolyline
 90
2
 70
0
 10
183.497030
 20
394.780399
 30
0.0
 10
183.497030
 20
414.982400
 30
0.0
  0
LWPOLYLINE
  5
15d
100
AcDbEntity
  8
Layer_1
 62
7
100
AcDbPolyline
 90
2
 70
0
 10
279.889980
 20
366.732388
 30
0.0
 10
283.139970
 20
366.732388
 30
0.0
  0
LWPOLYLINE
  5
15e
100
AcDbEntity
  8
Layer_1
 62
7
100
AcDbPolyline
 90
2
 70
0
 10
279.889980
 20
376.732394
 30
0.0
 10
279.889980
 20
366.732388
 30
0.0
  0
LWPOLYLINE
  5
15f
100
AcDbEntity
  8
Layer_1
 62
7
100
AcDbPolyline
 90
2
 70
0
 10
248.339980
 20
376.732394
 30
0.0
 10
279.889980
 20
376.732394
 30
0.0
  0
LWPOLYLINE
  5
160
100
AcDbEntity
  8
Layer_1
 62
7
100
AcDbPolyline
 90
2
 70
0
 10
248.339980
 20
394.982398
 30
0.0
 10
248.339980
 20
376.732394
 30
0.0
  0
LWPOLYLINE
  5
161
100
AcDbEntity
  8
Layer_1
 62
7
100
AcDbPolyline
 90
19
 70
0
 10
248.339980
 20
394.982398
 30
0.0
 10
268.339970
 20
394.982398
 30
0.0
 10
268.339970
 20
414.982400
 30
0.0
 10
286.139970
 20
414.982400
 30
0.0
 10
286.139970
 20
406.982400
 30
0.0
 10
289.139980
 20
406.982400
 30
0.0
 10
289.139980
 20
400.732400
 30
0.0
 10
286.139970
 20
400.732400
 30
0.0
 10
286.139970
 20
390.982398
 30
0.0
 10
289.139980
 20
390.982398
 30
0.0
 10
289.139980
 20
385.732408
 30
0.0
 10
286.139970
 20
385.732408
 30
0.0
 10
286.139970
 20
375.982407
 30
0.0
 10
289.139980
 20
375.982407
 30
0.0
 10
289.139980
 20
366.732388
 30
0.0
 10
285.889970
 20
366.732388
 30
0.0
 10
285.889970
 20
369.732393
 30
0.0
 10
283.139970
 20
369.732393
 30
0.0
 10
283.139970
 20
366.732388
 30
0.0
  0
LWPOLYLINE
  5
162
100
AcDbEntity
  8
Layer_1
 62
7
100
AcDbPolyline
 90
2
 70
0
 10
11.901314
 20
191.559070
 30
0.0
 10
31.721304
 20
191.559070
 30
0.0
  0
LWPOLYLINE
  5
163
100
AcDbEntity
  8
Layer_1
 62
7
100
AcDbPolyline
 90
2
 70
0
 10
5.011304
 20
172.624870
 30
0.0
 10
11.901314
 20
191.559070
 30
0.0
  0
LWPOLYLINE
  5
164
100
AcDbEntity
  8
Layer_1
 62
7
100
AcDbPolyline
 90
2
 70
0
 10
11.501324
 20
180.957270
 30
0.0
 10
8.061314
 20
171.513280
 30
0.0
  0
LWPOLYLINE
  5
165
100
AcDbEntity
  8
Layer_1
 62
7
100
AcDbPolyline
 90
2
 70
0
 10
14.171304
 20
179.982470
 30
0.0
 10
11.501324
 20
180.957270
 30
0.0
  0
LWPOLYLINE
  5
166
100
AcDbEntity
  8
Layer_1
 62
7
100
AcDbPolyline
 90
2
 70
0
 10
10.741304
 20
170.536070
 30
0.0
 10
14.171304
 20
179.982470
 30
0.0
  0
LWPOLYLINE
  5
167
100
AcDbEntity
  8
Layer_1
 62
7
100
AcDbPolyline
 90
2
 70
0
 10
17.161314
 20
178.908470
 30
0.0
 10
15.071314
 20
169.062680
 30
0.0
  0
LWPOLYLINE
  5
168
100
AcDbEntity
  8
Layer_1
 62
7
100
AcDbPolyline
 90
2
 70
0
 10
19.951314
 20
178.315970
 30
0.0
 10
17.161314
 20
178.908470
 30
0.0
  0
LWPOLYLINE
  5
169
100
AcDbEntity
  8
Layer_1
 62
7
100
AcDbPolyline
 90
2
 70
0
 10
17.861294
 20
168.504170
 30
0.0
 10
19.951314
 20
178.315970
 30
0.0
  0
LWPOLYLINE
  5
16a
100
AcDbEntity
  8
Layer_1
 62
7
100
AcDbPolyline
 90
2
 70
0
 10
8.061314
 20
171.513280
 30
0.0
 10
5.011304
 20
172.624870
 30
0.0
  0
LWPOLYLINE
  5
16b
100
AcDbEntity
  8
Layer_1
 62
7
100
AcDbPolyline
 90
2
 70
0
 10
10.741304
 20
170.536070
 30
0.0
 10
15.071314
 20
169.062680
 30
0.0
  0
LWPOLYLINE
  5
16c
100
AcDbEntity
  8
Layer_1
 62
7
100
AcDbPolyline
 90
4
 70
0
 10
31.721304
 20
191.559070
 30
0.0
 10
31.721304
 20
186.309070
 30
0.0
 10
28.721304
 20
186.309070
 30
0.0
 10
28.721304
 20
179.559070
 30
0.0
  0
LWPOLYLINE
  5
16d
100
AcDbEntity
  8
Layer_1
 62
7
100
AcDbPolyline
 90
2
 70
0
 10
17.861294
 20
168.504170
 30
0.0
 10
28.571314
 20
164.309070
 30
0.0
  0
LWPOLYLINE
  5
16e
100
AcDbEntity
  8
Layer_1
 62
7
100
AcDbPolyline
 90
2
 70
0
 10
31.721304
 20
164.309070
 30
0.0
 10
28.571314
 20
164.309070
 30
0.0
  0
LWPOLYLINE
  5
16f
100
AcDbEntity
  8
Layer_1
 62
7
100
AcDbPolyline
 90
2
 70
0
 10
31.721304
 20
169.559070
 30
0.0
 10
31.721304
 20
164.309070
 30
0.0
  0
LWPOLYLINE
  5
170
100
AcDbEntity
  8
Layer_1
 62
7
100
AcDbPolyline
 90
2
 70
0
 10
28.721304
 20
169.559070
 30
0.0
 10
31.721304
 20
169.559070
 30
0.0
  0
LWPOLYLINE
  5
171
100
AcDbEntity
  8
Layer_1
 62
7
100
AcDbPolyline
 90
2
 70
0
 10
28.721304
 20
174.309070
 30
0.0
 10
28.721304
 20
169.559070
 30
0.0
  0
LWPOLYLINE
  5
172
100
AcDbEntity
  8
Layer_1
 62
7
100
AcDbPolyline
 90
4
 70
0
 10
28.721304
 20
174.309070
 30
0.0
 10
31.721304
 20
174.309070
 30
0.0
 10
31.721304
 20
179.559070
 30
0.0
 10
28.721304
 20
179.559070
 30
0.0
  0
LWPOLYLINE
  5
173
100
AcDbEntity
  8
Layer_1
 62
7
100
AcDbPolyline
 90
2
 70
0
 10
66.952294
 20
290.573700
 30
0.0
 10
67.011294
 20
290.107689
 30
0.0
  0
LWPOLYLINE
  5
174
100
AcDbEntity
  8
Layer_1
 62
7
100
AcDbPolyline
 90
2
 70
0
 10
66.779284
 20
291.010690
 30
0.0
 10
66.952294
 20
290.573700
 30
0.0
  0
LWPOLYLINE
  5
175
100
AcDbEntity
  8
Layer_1
 62
7
100
AcDbPolyline
 90
2
 70
0
 10
66.503304
 20
291.390680
 30
0.0
 10
66.779284
 20
291.010690
 30
0.0
  0
LWPOLYLINE
  5
176
100
AcDbEntity
  8
Layer_1
 62
7
100
AcDbPolyline
 90
2
 70
0
 10
66.141294
 20
291.690690
 30
0.0
 10
66.503304
 20
291.390680
 30
0.0
  0
LWPOLYLINE
  5
177
100
AcDbEntity
  8
Layer_1
 62
7
100
AcDbPolyline
 90
2
 70
0
 10
65.715294
 20
291.890690
 30
0.0
 10
66.141294
 20
291.690690
 30
0.0
  0
LWPOLYLINE
  5
178
100
AcDbEntity
  8
Layer_1
 62
7
100
AcDbPolyline
 90
2
 70
0
 10
65.254304
 20
291.978690
 30
0.0
 10
65.715294
 20
291.890690
 30
0.0
  0
LWPOLYLINE
  5
179
100
AcDbEntity
  8
Layer_1
 62
7
100
AcDbPolyline
 90
2
 70
0
 10
64.785304
 20
291.949690
 30
0.0
 10
65.254304
 20
291.978690
 30
0.0
  0
LWPOLYLINE
  5
17a
100
AcDbEntity
  8
Layer_1
 62
7
100
AcDbPolyline
 90
2
 70
0
 10
64.338294
 20
291.803700
 30
0.0
 10
64.785304
 20
291.949690
 30
0.0
  0
LWPOLYLINE
  5
17b
100
AcDbEntity
  8
Layer_1
 62
7
100
AcDbPolyline
 90
2
 70
0
 10
63.941284
 20
291.551680
 30
0.0
 10
64.338294
 20
291.803700
 30
0.0
  0
LWPOLYLINE
  5
17c
100
AcDbEntity
  8
Layer_1
 62
7
100
AcDbPolyline
 90
2
 70
0
 10
63.619284
 20
291.209680
 30
0.0
 10
63.941284
 20
291.551680
 30
0.0
  0
LWPOLYLINE
  5
17d
100
AcDbEntity
  8
Layer_1
 62
7
100
AcDbPolyline
 90
2
 70
0
 10
63.393304
 20
290.797700
 30
0.0
 10
63.619284
 20
291.209680
 30
0.0
  0
LWPOLYLINE
  5
17e
100
AcDbEntity
  8
Layer_1
 62
7
100
AcDbPolyline
 90
2
 70
0
 10
63.276304
 20
290.342689
 30
0.0
 10
63.393304
 20
290.797700
 30
0.0
  0
LWPOLYLINE
  5
17f
100
AcDbEntity
  8
Layer_1
 62
7
100
AcDbPolyline
 90
2
 70
0
 10
63.276304
 20
289.872689
 30
0.0
 10
63.276304
 20
290.342689
 30
0.0
  0
LWPOLYLINE
  5
180
100
AcDbEntity
  8
Layer_1
 62
7
100
AcDbPolyline
 90
2
 70
0
 10
63.393304
 20
289.416679
 30
0.0
 10
63.276304
 20
289.872689
 30
0.0
  0
LWPOLYLINE
  5
181
100
AcDbEntity
  8
Layer_1
 62
7
100
AcDbPolyline
 90
2
 70
0
 10
63.619284
 20
289.005699
 30
0.0
 10
63.393304
 20
289.416679
 30
0.0
  0
LWPOLYLINE
  5
182
100
AcDbEntity
  8
Layer_1
 62
7
100
AcDbPolyline
 90
2
 70
0
 10
63.941284
 20
288.662689
 30
0.0
 10
63.619284
 20
289.005699
 30
0.0
  0
LWPOLYLINE
  5
183
100
AcDbEntity
  8
Layer_1
 62
7
100
AcDbPolyline
 90
2
 70
0
 10
64.338294
 20
288.410679
 30
0.0
 10
63.941284
 20
288.662689
 30
0.0
  0
LWPOLYLINE
  5
184
100
AcDbEntity
  8
Layer_1
 62
7
100
AcDbPolyline
 90
2
 70
0
 10
64.785304
 20
288.265689
 30
0.0
 10
64.338294
 20
288.410679
 30
0.0
  0
LWPOLYLINE
  5
185
100
AcDbEntity
  8
Layer_1
 62
7
100
AcDbPolyline
 90
2
 70
0
 10
65.254304
 20
288.235679
 30
0.0
 10
64.785304
 20
288.265679
 30
0.0
  0
LWPOLYLINE
  5
186
100
AcDbEntity
  8
Layer_1
 62
7
100
AcDbPolyline
 90
2
 70
0
 10
65.715294
 20
288.323679
 30
0.0
 10
65.254304
 20
288.235679
 30
0.0
  0
LWPOLYLINE
  5
187
100
AcDbEntity
  8
Layer_1
 62
7
100
AcDbPolyline
 90
2
 70
0
 10
66.141294
 20
288.524689
 30
0.0
 10
65.715294
 20
288.323679
 30
0.0
  0
LWPOLYLINE
  5
188
100
AcDbEntity
  8
Layer_1
 62
7
100
AcDbPolyline
 90
2
 70
0
 10
66.503304
 20
288.823689
 30
0.0
 10
66.141294
 20
288.524689
 30
0.0
  0
LWPOLYLINE
  5
189
100
AcDbEntity
  8
Layer_1
 62
7
100
AcDbPolyline
 90
2
 70
0
 10
66.779284
 20
289.203689
 30
0.0
 10
66.503304
 20
288.823689
 30
0.0
  0
LWPOLYLINE
  5
18a
100
AcDbEntity
  8
Layer_1
 62
7
100
AcDbPolyline
 90
2
 70
0
 10
66.952294
 20
289.640699
 30
0.0
 10
66.779284
 20
289.203689
 30
0.0
  0
LWPOLYLINE
  5
18b
100
AcDbEntity
  8
Layer_1
 62
7
100
AcDbPolyline
 90
2
 70
0
 10
67.011304
 20
290.107689
 30
0.0
 10
66.952304
 20
289.640699
 30
0.0
  0
LWPOLYLINE
  5
18c
100
AcDbEntity
  8
Layer_1
 62
7
100
AcDbPolyline
 90
2
 70
0
 10
136.016300
 20
397.732380
 30
0.0
 10
136.016300
 20
392.982399
 30
0.0
  0
LWPOLYLINE
  5
18d
100
AcDbEntity
  8
Layer_1
 62
7
100
AcDbPolyline
 90
2
 70
0
 10
133.266300
 20
397.732380
 30
0.0
 10
136.016300
 20
397.732380
 30
0.0
  0
LWPOLYLINE
  5
18e
100
AcDbEntity
  8
Layer_1
 62
7
100
AcDbPolyline
 90
2
 70
0
 10
133.266300
 20
392.982399
 30
0.0
 10
133.266300
 20
397.732380
 30
0.0
  0
LWPOLYLINE
  5
18f
100
AcDbEntity
  8
Layer_1
 62
7
100
AcDbPolyline
 90
2
 70
0
 10
136.016300
 20
392.982399
 30
0.0
 10
133.266300
 20
392.982399
 30
0.0
  0
LWPOLYLINE
  5
190
100
AcDbEntity
  8
Layer_1
 62
7
100
AcDbPolyline
 90
2
 70
0
 10
168.266310
 20
385.732389
 30
0.0
 10
171.016310
 20
385.732389
 30
0.0
  0
LWPOLYLINE
  5
191
100
AcDbEntity
  8
Layer_1
 62
7
100
AcDbPolyline
 90
2
 70
0
 10
168.266310
 20
380.982379
 30
0.0
 10
168.266310
 20
385.732389
 30
0.0
  0
LWPOLYLINE
  5
192
100
AcDbEntity
  8
Layer_1
 62
7
100
AcDbPolyline
 90
2
 70
0
 10
171.016310
 20
380.982379
 30
0.0
 10
168.266310
 20
380.982379
 30
0.0
  0
LWPOLYLINE
  5
193
100
AcDbEntity
  8
Layer_1
 62
7
100
AcDbPolyline
 90
2
 70
0
 10
171.016310
 20
385.732389
 30
0.0
 10
171.016310
 20
380.982379
 30
0.0
  0
LWPOLYLINE
  5
194
100
AcDbEntity
  8
Layer_1
 62
7
100
AcDbPolyline
 90
4
 70
1
 10
136.016300
 20
402.982380
 30
0.0
 10
136.016300
 20
409.732380
 30
0.0
 10
133.266300
 20
409.732380
 30
0.0
 10
133.266300
 20
402.982380
 30
0.0
  0
LWPOLYLINE
  5
195
100
AcDbEntity
  8
Layer_1
 62
7
100
AcDbPolyline
 90
2
 70
0
 10
157.266280
 20
390.232399
 30
0.0
 10
157.266280
 20
393.982389
 30
0.0
  0
LWPOLYLINE
  5
196
100
AcDbEntity
  8
Layer_1
 62
7
100
AcDbPolyline
 90
2
 70
0
 10
160.016310
 20
390.232399
 30
0.0
 10
157.266280
 20
390.232399
 30
0.0
  0
LWPOLYLINE
  5
197
100
AcDbEntity
  8
Layer_1
 62
7
100
AcDbPolyline
 90
2
 70
0
 10
160.016310
 20
393.982389
 30
0.0
 10
160.016310
 20
390.232399
 30
0.0
  0
LWPOLYLINE
  5
198
100
AcDbEntity
  8
Layer_1
 62
7
100
AcDbPolyline
 90
2
 70
0
 10
157.266280
 20
393.982389
 30
0.0
 10
160.016310
 20
393.982389
 30
0.0
  0
LWPOLYLINE
  5
199
100
AcDbEntity
  8
Layer_1
 62
7
100
AcDbPolyline
 90
2
 70
0
 10
10.011294
 20
397.732380
 30
0.0
 10
10.011294
 20
392.982399
 30
0.0
  0
LWPOLYLINE
  5
19a
100
AcDbEntity
  8
Layer_1
 62
7
100
AcDbPolyline
 90
2
 70
0
 10
7.261294
 20
397.732380
 30
0.0
 10
10.011294
 20
397.732380
 30
0.0
  0
LWPOLYLINE
  5
19b
100
AcDbEntity
  8
Layer_1
 62
7
100
AcDbPolyline
 90
2
 70
0
 10
7.261294
 20
392.982399
 30
0.0
 10
7.261294
 20
397.732380
 30
0.0
  0
LWPOLYLINE
  5
19c
100
AcDbEntity
  8
Layer_1
 62
7
100
AcDbPolyline
 90
2
 70
0
 10
10.011294
 20
392.982399
 30
0.0
 10
7.261294
 20
392.982399
 30
0.0
  0
LWPOLYLINE
  5
19d
100
AcDbEntity
  8
Layer_1
 62
7
100
AcDbPolyline
 90
2
 70
0
 10
97.016294
 20
395.982379
 30
0.0
 10
97.016294
 20
390.232399
 30
0.0
  0
LWPOLYLINE
  5
19e
100
AcDbEntity
  8
Layer_1
 62
7
100
AcDbPolyline
 90
2
 70
0
 10
94.266294
 20
395.982379
 30
0.0
 10
97.016294
 20
395.982379
 30
0.0
  0
LWPOLYLINE
  5
19f
100
AcDbEntity
  8
Layer_1
 62
7
100
AcDbPolyline
 90
2
 70
0
 10
94.266294
 20
390.232399
 30
0.0
 10
94.266294
 20
395.982379
 30
0.0
  0
LWPOLYLINE
  5
1a0
100
AcDbEntity
  8
Layer_1
 62
7
100
AcDbPolyline
 90
2
 70
0
 10
97.016294
 20
390.232399
 30
0.0
 10
94.266294
 20
390.232399
 30
0.0
  0
LWPOLYLINE
  5
1a1
100
AcDbEntity
  8
Layer_1
 62
7
100
AcDbPolyline
 90
4
 70
1
 10
10.011294
 20
409.732380
 30
0.0
 10
7.261294
 20
409.732380
 30
0.0
 10
7.261294
 20
402.982380
 30
0.0
 10
10.011294
 20
402.982380
 30
0.0
  0
LWPOLYLINE
  5
1a2
100
AcDbEntity
  8
Layer_1
 62
7
100
AcDbPolyline
 90
2
 70
0
 10
210.266280
 20
315.232679
 30
0.0
 10
210.266280
 20
312.482679
 30
0.0
  0
LWPOLYLINE
  5
1a3
100
AcDbEntity
  8
Layer_1
 62
7
100
AcDbPolyline
 90
2
 70
0
 10
218.016270
 20
312.482679
 30
0.0
 10
210.266280
 20
312.482679
 30
0.0
  0
LWPOLYLINE
  5
1a4
100
AcDbEntity
  8
Layer_1
 62
7
100
AcDbPolyline
 90
3
 70
0
 10
218.016270
 20
312.482679
 30
0.0
 10
218.016270
 20
315.232679
 30
0.0
 10
210.266280
 20
315.232679
 30
0.0
  0
LWPOLYLINE
  5
1a5
100
AcDbEntity
  8
Layer_1
 62
7
100
AcDbPolyline
 90
2
 70
0
 10
42.261304
 20
155.232700
 30
0.0
 10
52.011304
 20
155.232700
 30
0.0
  0
LWPOLYLINE
  5
1a6
100
AcDbEntity
  8
Layer_1
 62
7
100
AcDbPolyline
 90
2
 70
0
 10
42.261304
 20
152.482700
 30
0.0
 10
42.261304
 20
155.232700
 30
0.0
  0
LWPOLYLINE
  5
1a7
100
AcDbEntity
  8
Layer_1
 62
7
100
AcDbPolyline
 90
2
 70
0
 10
52.011304
 20
152.482700
 30
0.0
 10
42.261304
 20
152.482700
 30
0.0
  0
LWPOLYLINE
  5
1a8
100
AcDbEntity
  8
Layer_1
 62
7
100
AcDbPolyline
 90
2
 70
0
 10
52.011304
 20
155.232700
 30
0.0
 10
52.011304
 20
152.482700
 30
0.0
  0
LWPOLYLINE
  5
1a9
100
AcDbEntity
  8
Layer_1
 62
7
100
AcDbPolyline
 90
2
 70
0
 10
85.011304
 20
152.482700
 30
0.0
 10
80.261284
 20
152.482700
 30
0.0
  0
LWPOLYLINE
  5
1aa
100
AcDbEntity
  8
Layer_1
 62
7
100
AcDbPolyline
 90
2
 70
0
 10
85.011304
 20
155.232700
 30
0.0
 10
85.011304
 20
152.482700
 30
0.0
  0
LWPOLYLINE
  5
1ab
100
AcDbEntity
  8
Layer_1
 62
7
100
AcDbPolyline
 90
2
 70
0
 10
80.261284
 20
155.232700
 30
0.0
 10
85.011304
 20
155.232700
 30
0.0
  0
LWPOLYLINE
  5
1ac
100
AcDbEntity
  8
Layer_1
 62
7
100
AcDbPolyline
 90
2
 70
0
 10
80.261284
 20
152.482700
 30
0.0
 10
80.261284
 20
155.232700
 30
0.0
  0
LWPOLYLINE
  5
1ad
100
AcDbEntity
  8
Layer_1
 62
7
100
AcDbPolyline
 90
2
 70
0
 10
70.011304
 20
152.482700
 30
0.0
 10
60.261304
 20
152.482700
 30
0.0
  0
LWPOLYLINE
  5
1ae
100
AcDbEntity
  8
Layer_1
 62
7
100
AcDbPolyline
 90
2
 70
0
 10
70.011304
 20
155.232700
 30
0.0
 10
70.011304
 20
152.482700
 30
0.0
  0
LWPOLYLINE
  5
1af
100
AcDbEntity
  8
Layer_1
 62
7
100
AcDbPolyline
 90
2
 70
0
 10
60.261304
 20
155.232700
 30
0.0
 10
70.011304
 20
155.232700
 30
0.0
  0
LWPOLYLINE
  5
1b0
100
AcDbEntity
  8
Layer_1
 62
7
100
AcDbPolyline
 90
2
 70
0
 10
60.261304
 20
152.482700
 30
0.0
 10
60.261304
 20
155.232700
 30
0.0
  0
LWPOLYLINE
  5
1b1
100
AcDbEntity
  8
Layer_1
 62
7
100
AcDbPolyline
 90
2
 70
0
 10
165.016300
 20
155.232700
 30
0.0
 10
165.016300
 20
152.482700
 30
0.0
  0
LWPOLYLINE
  5
1b2
100
AcDbEntity
  8
Layer_1
 62
7
100
AcDbPolyline
 90
2
 70
0
 10
155.266290
 20
155.232700
 30
0.0
 10
165.016300
 20
155.232700
 30
0.0
  0
LWPOLYLINE
  5
1b3
100
AcDbEntity
  8
Layer_1
 62
7
100
AcDbPolyline
 90
2
 70
0
 10
155.266290
 20
152.482700
 30
0.0
 10
155.266290
 20
155.232700
 30
0.0
  0
LWPOLYLINE
  5
1b4
100
AcDbEntity
  8
Layer_1
 62
7
100
AcDbPolyline
 90
2
 70
0
 10
165.016300
 20
152.482700
 30
0.0
 10
155.266290
 20
152.482700
 30
0.0
  0
LWPOLYLINE
  5
1b5
100
AcDbEntity
  8
Layer_1
 62
7
100
AcDbPolyline
 90
2
 70
0
 10
145.016280
 20
152.482700
 30
0.0
 10
135.266280
 20
152.482700
 30
0.0
  0
LWPOLYLINE
  5
1b6
100
AcDbEntity
  8
Layer_1
 62
7
100
AcDbPolyline
 90
2
 70
0
 10
145.016280
 20
155.232700
 30
0.0
 10
145.016280
 20
152.482700
 30
0.0
  0
LWPOLYLINE
  5
1b7
100
AcDbEntity
  8
Layer_1
 62
7
100
AcDbPolyline
 90
2
 70
0
 10
135.266280
 20
155.232700
 30
0.0
 10
145.016280
 20
155.232700
 30
0.0
  0
LWPOLYLINE
  5
1b8
100
AcDbEntity
  8
Layer_1
 62
7
100
AcDbPolyline
 90
2
 70
0
 10
135.266280
 20
152.482700
 30
0.0
 10
135.266280
 20
155.232700
 30
0.0
  0
LWPOLYLINE
  5
1b9
100
AcDbEntity
  8
Layer_1
 62
7
100
AcDbPolyline
 90
2
 70
0
 10
185.016270
 20
152.482700
 30
0.0
 10
175.266280
 20
152.482700
 30
0.0
  0
LWPOLYLINE
  5
1ba
100
AcDbEntity
  8
Layer_1
 62
7
100
AcDbPolyline
 90
2
 70
0
 10
185.016270
 20
155.232700
 30
0.0
 10
185.016270
 20
152.482700
 30
0.0
  0
LWPOLYLINE
  5
1bb
100
AcDbEntity
  8
Layer_1
 62
7
100
AcDbPolyline
 90
2
 70
0
 10
175.266280
 20
155.232700
 30
0.0
 10
185.016270
 20
155.232700
 30
0.0
  0
LWPOLYLINE
  5
1bc
100
AcDbEntity
  8
Layer_1
 62
7
100
AcDbPolyline
 90
2
 70
0
 10
175.266280
 20
152.482700
 30
0.0
 10
175.266280
 20
155.232700
 30
0.0
  0
LWPOLYLINE
  5
1bd
100
AcDbEntity
  8
Layer_1
 62
7
100
AcDbPolyline
 90
2
 70
0
 10
195.266280
 20
152.482700
 30
0.0
 10
195.266280
 20
155.232700
 30
0.0
  0
LWPOLYLINE
  5
1be
100
AcDbEntity
  8
Layer_1
 62
7
100
AcDbPolyline
 90
2
 70
0
 10
200.016290
 20
152.482700
 30
0.0
 10
195.266280
 20
152.482700
 30
0.0
  0
LWPOLYLINE
  5
1bf
100
AcDbEntity
  8
Layer_1
 62
7
100
AcDbPolyline
 90
2
 70
0
 10
200.016290
 20
155.232700
 30
0.0
 10
200.016290
 20
152.482700
 30
0.0
  0
LWPOLYLINE
  5
1c0
100
AcDbEntity
  8
Layer_1
 62
7
100
AcDbPolyline
 90
2
 70
0
 10
195.266280
 20
155.232700
 30
0.0
 10
200.016290
 20
155.232700
 30
0.0
  0
LWPOLYLINE
  5
1c1
100
AcDbEntity
  8
Layer_1
 62
7
100
AcDbPolyline
 90
2
 70
0
 10
66.952294
 20
215.573699
 30
0.0
 10
67.011294
 20
215.107689
 30
0.0
  0
LWPOLYLINE
  5
1c2
100
AcDbEntity
  8
Layer_1
 62
7
100
AcDbPolyline
 90
2
 70
0
 10
66.779284
 20
216.010689
 30
0.0
 10
66.952294
 20
215.573699
 30
0.0
  0
LWPOLYLINE
  5
1c3
100
AcDbEntity
  8
Layer_1
 62
7
100
AcDbPolyline
 90
2
 70
0
 10
66.503304
 20
216.390709
 30
0.0
 10
66.779284
 20
216.010689
 30
0.0
  0
LWPOLYLINE
  5
1c4
100
AcDbEntity
  8
Layer_1
 62
7
100
AcDbPolyline
 90
2
 70
0
 10
66.141294
 20
216.690689
 30
0.0
 10
66.503304
 20
216.390709
 30
0.0
  0
LWPOLYLINE
  5
1c5
100
AcDbEntity
  8
Layer_1
 62
7
100
AcDbPolyline
 90
2
 70
0
 10
65.715294
 20
216.890689
 30
0.0
 10
66.141294
 20
216.690689
 30
0.0
  0
LWPOLYLINE
  5
1c6
100
AcDbEntity
  8
Layer_1
 62
7
100
AcDbPolyline
 90
2
 70
0
 10
65.254304
 20
216.978689
 30
0.0
 10
65.715294
 20
216.890689
 30
0.0
  0
LWPOLYLINE
  5
1c7
100
AcDbEntity
  8
Layer_1
 62
7
100
AcDbPolyline
 90
2
 70
0
 10
64.785304
 20
216.949689
 30
0.0
 10
65.254304
 20
216.978689
 30
0.0
  0
LWPOLYLINE
  5
1c8
100
AcDbEntity
  8
Layer_1
 62
7
100
AcDbPolyline
 90
2
 70
0
 10
64.338294
 20
216.803699
 30
0.0
 10
64.785304
 20
216.949689
 30
0.0
  0
LWPOLYLINE
  5
1c9
100
AcDbEntity
  8
Layer_1
 62
7
100
AcDbPolyline
 90
2
 70
0
 10
63.941284
 20
216.551709
 30
0.0
 10
64.338294
 20
216.803699
 30
0.0
  0
LWPOLYLINE
  5
1ca
100
AcDbEntity
  8
Layer_1
 62
7
100
AcDbPolyline
 90
2
 70
0
 10
63.619284
 20
216.209709
 30
0.0
 10
63.941284
 20
216.551709
 30
0.0
  0
LWPOLYLINE
  5
1cb
100
AcDbEntity
  8
Layer_1
 62
7
100
AcDbPolyline
 90
2
 70
0
 10
63.393304
 20
215.797699
 30
0.0
 10
63.619284
 20
216.209709
 30
0.0
  0
LWPOLYLINE
  5
1cc
100
AcDbEntity
  8
Layer_1
 62
7
100
AcDbPolyline
 90
2
 70
0
 10
63.276304
 20
215.342689
 30
0.0
 10
63.393304
 20
215.797699
 30
0.0
  0
LWPOLYLINE
  5
1cd
100
AcDbEntity
  8
Layer_1
 62
7
100
AcDbPolyline
 90
2
 70
0
 10
63.276304
 20
214.872689
 30
0.0
 10
63.276304
 20
215.342689
 30
0.0
  0
LWPOLYLINE
  5
1ce
100
AcDbEntity
  8
Layer_1
 62
7
100
AcDbPolyline
 90
2
 70
0
 10
63.393304
 20
214.416709
 30
0.0
 10
63.276304
 20
214.872689
 30
0.0
  0
LWPOLYLINE
  5
1cf
100
AcDbEntity
  8
Layer_1
 62
7
100
AcDbPolyline
 90
2
 70
0
 10
63.619284
 20
214.005699
 30
0.0
 10
63.393304
 20
214.416709
 30
0.0
  0
LWPOLYLINE
  5
1d0
100
AcDbEntity
  8
Layer_1
 62
7
100
AcDbPolyline
 90
2
 70
0
 10
63.941284
 20
213.662699
 30
0.0
 10
63.619284
 20
214.005699
 30
0.0
  0
LWPOLYLINE
  5
1d1
100
AcDbEntity
  8
Layer_1
 62
7
100
AcDbPolyline
 90
2
 70
0
 10
64.338294
 20
213.410709
 30
0.0
 10
63.941284
 20
213.662699
 30
0.0
  0
LWPOLYLINE
  5
1d2
100
AcDbEntity
  8
Layer_1
 62
7
100
AcDbPolyline
 90
2
 70
0
 10
64.785304
 20
213.265689
 30
0.0
 10
64.338294
 20
213.410709
 30
0.0
  0
LWPOLYLINE
  5
1d3
100
AcDbEntity
  8
Layer_1
 62
7
100
AcDbPolyline
 90
2
 70
0
 10
65.254304
 20
213.235689
 30
0.0
 10
64.785304
 20
213.265689
 30
0.0
  0
LWPOLYLINE
  5
1d4
100
AcDbEntity
  8
Layer_1
 62
7
100
AcDbPolyline
 90
2
 70
0
 10
65.715294
 20
213.323689
 30
0.0
 10
65.254304
 20
213.235689
 30
0.0
  0
LWPOLYLINE
  5
1d5
100
AcDbEntity
  8
Layer_1
 62
7
100
AcDbPolyline
 90
2
 70
0
 10
66.141294
 20
213.524689
 30
0.0
 10
65.715294
 20
213.323689
 30
0.0
  0
LWPOLYLINE
  5
1d6
100
AcDbEntity
  8
Layer_1
 62
7
100
AcDbPolyline
 90
2
 70
0
 10
66.503304
 20
213.823699
 30
0.0
 10
66.141294
 20
213.524689
 30
0.0
  0
LWPOLYLINE
  5
1d7
100
AcDbEntity
  8
Layer_1
 62
7
100
AcDbPolyline
 90
2
 70
0
 10
66.779284
 20
214.203689
 30
0.0
 10
66.503304
 20
213.823699
 30
0.0
  0
LWPOLYLINE
  5
1d8
100
AcDbEntity
  8
Layer_1
 62
7
100
AcDbPolyline
 90
2
 70
0
 10
66.952294
 20
214.640699
 30
0.0
 10
66.779284
 20
214.203689
 30
0.0
  0
LWPOLYLINE
  5
1d9
100
AcDbEntity
  8
Layer_1
 62
7
100
AcDbPolyline
 90
2
 70
0
 10
67.011304
 20
215.107689
 30
0.0
 10
66.952304
 20
214.640699
 30
0.0
  0
LWPOLYLINE
  5
1da
100
AcDbEntity
  8
Layer_1
 62
7
100
AcDbPolyline
 90
2
 70
0
 10
141.956300
 20
215.573699
 30
0.0
 10
142.016300
 20
215.107689
 30
0.0
  0
LWPOLYLINE
  5
1db
100
AcDbEntity
  8
Layer_1
 62
7
100
AcDbPolyline
 90
2
 70
0
 10
141.776300
 20
216.010689
 30
0.0
 10
141.956300
 20
215.573699
 30
0.0
  0
LWPOLYLINE
  5
1dc
100
AcDbEntity
  8
Layer_1
 62
7
100
AcDbPolyline
 90
2
 70
0
 10
141.506290
 20
216.390709
 30
0.0
 10
141.776300
 20
216.010689
 30
0.0
  0
LWPOLYLINE
  5
1dd
100
AcDbEntity
  8
Layer_1
 62
7
100
AcDbPolyline
 90
2
 70
0
 10
141.136300
 20
216.690689
 30
0.0
 10
141.506290
 20
216.390709
 30
0.0
  0
LWPOLYLINE
  5
1de
100
AcDbEntity
  8
Layer_1
 62
7
100
AcDbPolyline
 90
2
 70
0
 10
140.716300
 20
216.890689
 30
0.0
 10
141.136300
 20
216.690689
 30
0.0
  0
LWPOLYLINE
  5
1df
100
AcDbEntity
  8
Layer_1
 62
7
100
AcDbPolyline
 90
2
 70
0
 10
140.256300
 20
216.978689
 30
0.0
 10
140.716300
 20
216.890689
 30
0.0
  0
LWPOLYLINE
  5
1e0
100
AcDbEntity
  8
Layer_1
 62
7
100
AcDbPolyline
 90
2
 70
0
 10
139.786290
 20
216.949689
 30
0.0
 10
140.256300
 20
216.978689
 30
0.0
  0
LWPOLYLINE
  5
1e1
100
AcDbEntity
  8
Layer_1
 62
7
100
AcDbPolyline
 90
2
 70
0
 10
139.336290
 20
216.803699
 30
0.0
 10
139.786290
 20
216.949689
 30
0.0
  0
LWPOLYLINE
  5
1e2
100
AcDbEntity
  8
Layer_1
 62
7
100
AcDbPolyline
 90
2
 70
0
 10
138.936290
 20
216.551709
 30
0.0
 10
139.336290
 20
216.803699
 30
0.0
  0
LWPOLYLINE
  5
1e3
100
AcDbEntity
  8
Layer_1
 62
7
100
AcDbPolyline
 90
2
 70
0
 10
138.616300
 20
216.209709
 30
0.0
 10
138.936290
 20
216.551709
 30
0.0
  0
LWPOLYLINE
  5
1e4
100
AcDbEntity
  8
Layer_1
 62
7
100
AcDbPolyline
 90
2
 70
0
 10
138.396300
 20
215.797699
 30
0.0
 10
138.616300
 20
216.209709
 30
0.0
  0
LWPOLYLINE
  5
1e5
100
AcDbEntity
  8
Layer_1
 62
7
100
AcDbPolyline
 90
2
 70
0
 10
138.276290
 20
215.342689
 30
0.0
 10
138.396300
 20
215.797699
 30
0.0
  0
LWPOLYLINE
  5
1e6
100
AcDbEntity
  8
Layer_1
 62
7
100
AcDbPolyline
 90
2
 70
0
 10
138.276290
 20
214.872689
 30
0.0
 10
138.276290
 20
215.342689
 30
0.0
  0
LWPOLYLINE
  5
1e7
100
AcDbEntity
  8
Layer_1
 62
7
100
AcDbPolyline
 90
2
 70
0
 10
138.396300
 20
214.416709
 30
0.0
 10
138.276290
 20
214.872689
 30
0.0
  0
LWPOLYLINE
  5
1e8
100
AcDbEntity
  8
Layer_1
 62
7
100
AcDbPolyline
 90
2
 70
0
 10
138.616300
 20
214.005699
 30
0.0
 10
138.396300
 20
214.416709
 30
0.0
  0
LWPOLYLINE
  5
1e9
100
AcDbEntity
  8
Layer_1
 62
7
100
AcDbPolyline
 90
2
 70
0
 10
138.936290
 20
213.662699
 30
0.0
 10
138.616300
 20
214.005699
 30
0.0
  0
LWPOLYLINE
  5
1ea
100
AcDbEntity
  8
Layer_1
 62
7
100
AcDbPolyline
 90
2
 70
0
 10
139.336290
 20
213.410709
 30
0.0
 10
138.936290
 20
213.662699
 30
0.0
  0
LWPOLYLINE
  5
1eb
100
AcDbEntity
  8
Layer_1
 62
7
100
AcDbPolyline
 90
2
 70
0
 10
139.786290
 20
213.265689
 30
0.0
 10
139.336290
 20
213.410709
 30
0.0
  0
LWPOLYLINE
  5
1ec
100
AcDbEntity
  8
Layer_1
 62
7
100
AcDbPolyline
 90
2
 70
0
 10
140.256300
 20
213.235689
 30
0.0
 10
139.786290
 20
213.265689
 30
0.0
  0
LWPOLYLINE
  5
1ed
100
AcDbEntity
  8
Layer_1
 62
7
100
AcDbPolyline
 90
2
 70
0
 10
140.716300
 20
213.323689
 30
0.0
 10
140.256300
 20
213.235689
 30
0.0
  0
LWPOLYLINE
  5
1ee
100
AcDbEntity
  8
Layer_1
 62
7
100
AcDbPolyline
 90
2
 70
0
 10
141.136300
 20
213.524689
 30
0.0
 10
140.716300
 20
213.323689
 30
0.0
  0
LWPOLYLINE
  5
1ef
100
AcDbEntity
  8
Layer_1
 62
7
100
AcDbPolyline
 90
2
 70
0
 10
141.506290
 20
213.823699
 30
0.0
 10
141.136300
 20
213.524689
 30
0.0
  0
LWPOLYLINE
  5
1f0
100
AcDbEntity
  8
Layer_1
 62
7
100
AcDbPolyline
 90
2
 70
0
 10
141.776300
 20
214.203689
 30
0.0
 10
141.506290
 20
213.823699
 30
0.0
  0
LWPOLYLINE
  5
1f1
100
AcDbEntity
  8
Layer_1
 62
7
100
AcDbPolyline
 90
2
 70
0
 10
141.956300
 20
214.640699
 30
0.0
 10
141.776300
 20
214.203689
 30
0.0
  0
LWPOLYLINE
  5
1f2
100
AcDbEntity
  8
Layer_1
 62
7
100
AcDbPolyline
 90
2
 70
0
 10
142.016300
 20
215.107689
 30
0.0
 10
141.956300
 20
214.640699
 30
0.0
  0
LWPOLYLINE
  5
1f3
100
AcDbEntity
  8
Layer_1
 62
7
100
AcDbPolyline
 90
2
 70
0
 10
205.516290
 20
318.982669
 30
0.0
 10
202.766290
 20
318.982669
 30
0.0
  0
LWPOLYLINE
  5
1f4
100
AcDbEntity
  8
Layer_1
 62
7
100
AcDbPolyline
 90
2
 70
0
 10
205.516290
 20
323.732689
 30
0.0
 10
205.516290
 20
318.982669
 30
0.0
  0
LWPOLYLINE
  5
1f5
100
AcDbEntity
  8
Layer_1
 62
7
100
AcDbPolyline
 90
2
 70
0
 10
202.766290
 20
323.732689
 30
0.0
 10
205.516290
 20
323.732689
 30
0.0
  0
LWPOLYLINE
  5
1f6
100
AcDbEntity
  8
Layer_1
 62
7
100
AcDbPolyline
 90
2
 70
0
 10
202.766290
 20
318.982669
 30
0.0
 10
202.766290
 20
323.732689
 30
0.0
  0
LWPOLYLINE
  5
1f7
100
AcDbEntity
  8
Layer_1
 62
7
100
AcDbPolyline
 90
2
 70
0
 10
193.266270
 20
315.232679
 30
0.0
 10
201.016290
 20
315.232679
 30
0.0
  0
LWPOLYLINE
  5
1f8
100
AcDbEntity
  8
Layer_1
 62
7
100
AcDbPolyline
 90
2
 70
0
 10
193.266270
 20
312.482679
 30
0.0
 10
193.266270
 20
315.232679
 30
0.0
  0
LWPOLYLINE
  5
1f9
100
AcDbEntity
  8
Layer_1
 62
7
100
AcDbPolyline
 90
2
 70
0
 10
201.016290
 20
312.482679
 30
0.0
 10
193.266270
 20
312.482679
 30
0.0
  0
LWPOLYLINE
  5
1fa
100
AcDbEntity
  8
Layer_1
 62
7
100
AcDbPolyline
 90
2
 70
0
 10
201.016290
 20
315.232679
 30
0.0
 10
201.016290
 20
312.482679
 30
0.0
  0
LWPOLYLINE
  5
1fb
100
AcDbEntity
  8
Layer_1
 62
7
100
AcDbPolyline
 90
2
 70
0
 10
141.956300
 20
290.573700
 30
0.0
 10
142.016300
 20
290.107689
 30
0.0
  0
LWPOLYLINE
  5
1fc
100
AcDbEntity
  8
Layer_1
 62
7
100
AcDbPolyline
 90
2
 70
0
 10
141.776300
 20
291.010690
 30
0.0
 10
141.956300
 20
290.573700
 30
0.0
  0
LWPOLYLINE
  5
1fd
100
AcDbEntity
  8
Layer_1
 62
7
100
AcDbPolyline
 90
2
 70
0
 10
141.506290
 20
291.390680
 30
0.0
 10
141.776300
 20
291.010690
 30
0.0
  0
LWPOLYLINE
  5
1fe
100
AcDbEntity
  8
Layer_1
 62
7
100
AcDbPolyline
 90
2
 70
0
 10
141.136300
 20
291.690690
 30
0.0
 10
141.506290
 20
291.390680
 30
0.0
  0
LWPOLYLINE
  5
1ff
100
AcDbEntity
  8
Layer_1
 62
7
100
AcDbPolyline
 90
2
 70
0
 10
140.716300
 20
291.890690
 30
0.0
 10
141.136300
 20
291.690690
 30
0.0
  0
LWPOLYLINE
  5
200
100
AcDbEntity
  8
Layer_1
 62
7
100
AcDbPolyline
 90
2
 70
0
 10
140.256300
 20
291.978690
 30
0.0
 10
140.716300
 20
291.890690
 30
0.0
  0
LWPOLYLINE
  5
201
100
AcDbEntity
  8
Layer_1
 62
7
100
AcDbPolyline
 90
2
 70
0
 10
139.786290
 20
291.949690
 30
0.0
 10
140.256300
 20
291.978690
 30
0.0
  0
LWPOLYLINE
  5
202
100
AcDbEntity
  8
Layer_1
 62
7
100
AcDbPolyline
 90
2
 70
0
 10
139.336290
 20
291.803700
 30
0.0
 10
139.786290
 20
291.949690
 30
0.0
  0
LWPOLYLINE
  5
203
100
AcDbEntity
  8
Layer_1
 62
7
100
AcDbPolyline
 90
2
 70
0
 10
138.936290
 20
291.551680
 30
0.0
 10
139.336290
 20
291.803700
 30
0.0
  0
LWPOLYLINE
  5
204
100
AcDbEntity
  8
Layer_1
 62
7
100
AcDbPolyline
 90
2
 70
0
 10
138.616300
 20
291.209680
 30
0.0
 10
138.936290
 20
291.551680
 30
0.0
  0
LWPOLYLINE
  5
205
100
AcDbEntity
  8
Layer_1
 62
7
100
AcDbPolyline
 90
2
 70
0
 10
138.396300
 20
290.797700
 30
0.0
 10
138.616300
 20
291.209680
 30
0.0
  0
LWPOLYLINE
  5
206
100
AcDbEntity
  8
Layer_1
 62
7
100
AcDbPolyline
 90
2
 70
0
 10
138.276290
 20
290.342689
 30
0.0
 10
138.396300
 20
290.797700
 30
0.0
  0
LWPOLYLINE
  5
207
100
AcDbEntity
  8
Layer_1
 62
7
100
AcDbPolyline
 90
2
 70
0
 10
138.276290
 20
289.872689
 30
0.0
 10
138.276290
 20
290.342689
 30
0.0
  0
LWPOLYLINE
  5
208
100
AcDbEntity
  8
Layer_1
 62
7
100
AcDbPolyline
 90
2
 70
0
 10
138.396300
 20
289.416679
 30
0.0
 10
138.276290
 20
289.872689
 30
0.0
  0
LWPOLYLINE
  5
209
100
AcDbEntity
  8
Layer_1
 62
7
100
AcDbPolyline
 90
2
 70
0
 10
138.616300
 20
289.005699
 30
0.0
 10
138.396300
 20
289.416679
 30
0.0
  0
LWPOLYLINE
  5
20a
100
AcDbEntity
  8
Layer_1
 62
7
100
AcDbPolyline
 90
2
 70
0
 10
138.936290
 20
288.662689
 30
0.0
 10
138.616300
 20
289.005699
 30
0.0
  0
LWPOLYLINE
  5
20b
100
AcDbEntity
  8
Layer_1
 62
7
100
AcDbPolyline
 90
2
 70
0
 10
139.336290
 20
288.410679
 30
0.0
 10
138.936290
 20
288.662689
 30
0.0
  0
LWPOLYLINE
  5
20c
100
AcDbEntity
  8
Layer_1
 62
7
100
AcDbPolyline
 90
2
 70
0
 10
139.786290
 20
288.265689
 30
0.0
 10
139.336290
 20
288.410679
 30
0.0
  0
LWPOLYLINE
  5
20d
100
AcDbEntity
  8
Layer_1
 62
7
100
AcDbPolyline
 90
2
 70
0
 10
140.256300
 20
288.235679
 30
0.0
 10
139.786290
 20
288.265679
 30
0.0
  0
LWPOLYLINE
  5
20e
100
AcDbEntity
  8
Layer_1
 62
7
100
AcDbPolyline
 90
2
 70
0
 10
140.716300
 20
288.323679
 30
0.0
 10
140.256300
 20
288.235679
 30
0.0
  0
LWPOLYLINE
  5
20f
100
AcDbEntity
  8
Layer_1
 62
7
100
AcDbPolyline
 90
2
 70
0
 10
141.136300
 20
288.524689
 30
0.0
 10
140.716300
 20
288.323679
 30
0.0
  0
LWPOLYLINE
  5
210
100
AcDbEntity
  8
Layer_1
 62
7
100
AcDbPolyline
 90
2
 70
0
 10
141.506290
 20
288.823689
 30
0.0
 10
141.136300
 20
288.524689
 30
0.0
  0
LWPOLYLINE
  5
211
100
AcDbEntity
  8
Layer_1
 62
7
100
AcDbPolyline
 90
2
 70
0
 10
141.776300
 20
289.203689
 30
0.0
 10
141.506290
 20
288.823689
 30
0.0
  0
LWPOLYLINE
  5
212
100
AcDbEntity
  8
Layer_1
 62
7
100
AcDbPolyline
 90
2
 70
0
 10
141.956300
 20
289.640699
 30
0.0
 10
141.776300
 20
289.203689
 30
0.0
  0
LWPOLYLINE
  5
213
100
AcDbEntity
  8
Layer_1
 62
7
100
AcDbPolyline
 90
2
 70
0
 10
142.016300
 20
290.107689
 30
0.0
 10
141.956300
 20
289.640699
 30
0.0
  0
LWPOLYLINE
  5
214
100
AcDbEntity
  8
Layer_1
 62
7
100
AcDbPolyline
 90
2
 70
0
 10
32.011294
 20
155.232700
 30
0.0
 10
32.011294
 20
152.482700
 30
0.0
  0
LWPOLYLINE
  5
215
100
AcDbEntity
  8
Layer_1
 62
7
100
AcDbPolyline
 90
2
 70
0
 10
22.261284
 20
155.232700
 30
0.0
 10
32.011294
 20
155.232700
 30
0.0
  0
LWPOLYLINE
  5
216
100
AcDbEntity
  8
Layer_1
 62
7
100
AcDbPolyline
 90
2
 70
0
 10
22.261284
 20
152.482700
 30
0.0
 10
22.261284
 20
155.232700
 30
0.0
  0
LWPOLYLINE
  5
217
100
AcDbEntity
  8
Layer_1
 62
7
100
AcDbPolyline
 90
2
 70
0
 10
32.011294
 20
152.482700
 30
0.0
 10
22.261284
 20
152.482700
 30
0.0
  0
LWPOLYLINE
  5
218
100
AcDbEntity
  8
Layer_1
 62
7
100
AcDbPolyline
 90
2
 70
0
 10
97.016294
 20
381.232389
 30
0.0
 10
94.266294
 20
381.232389
 30
0.0
  0
LWPOLYLINE
  5
219
100
AcDbEntity
  8
Layer_1
 62
7
100
AcDbPolyline
 90
2
 70
0
 10
97.016294
 20
385.982399
 30
0.0
 10
97.016294
 20
381.232389
 30
0.0
  0
LWPOLYLINE
  5
21a
100
AcDbEntity
  8
Layer_1
 62
7
100
AcDbPolyline
 90
2
 70
0
 10
94.266294
 20
385.982399
 30
0.0
 10
97.016294
 20
385.982399
 30
0.0
  0
LWPOLYLINE
  5
21b
100
AcDbEntity
  8
Layer_1
 62
7
100
AcDbPolyline
 90
2
 70
0
 10
94.266294
 20
381.232389
 30
0.0
 10
94.266294
 20
385.982399
 30
0.0
  0
LWPOLYLINE
  5
21c
100
AcDbEntity
  8
Layer_1
 62
7
100
AcDbPolyline
 90
2
 70
0
 10
160.016310
 20
385.982399
 30
0.0
 10
160.016310
 20
381.232389
 30
0.0
  0
LWPOLYLINE
  5
21d
100
AcDbEntity
  8
Layer_1
 62
7
100
AcDbPolyline
 90
2
 70
0
 10
157.266280
 20
385.982399
 30
0.0
 10
160.016310
 20
385.982399
 30
0.0
  0
LWPOLYLINE
  5
21e
100
AcDbEntity
  8
Layer_1
 62
7
100
AcDbPolyline
 90
2
 70
0
 10
157.266280
 20
381.232389
 30
0.0
 10
157.266280
 20
385.982399
 30
0.0
  0
LWPOLYLINE
  5
21f
100
AcDbEntity
  8
Layer_1
 62
7
100
AcDbPolyline
 90
2
 70
0
 10
160.016310
 20
381.232389
 30
0.0
 10
157.266280
 20
381.232389
 30
0.0
  0
LWPOLYLINE
  5
220
100
AcDbEntity
  8
Layer_1
 62
7
100
AcDbPolyline
 90
2
 70
0
 10
168.266310
 20
358.982699
 30
0.0
 10
168.266310
 20
363.732689
 30
0.0
  0
LWPOLYLINE
  5
221
100
AcDbEntity
  8
Layer_1
 62
7
100
AcDbPolyline
 90
2
 70
0
 10
171.016310
 20
358.982699
 30
0.0
 10
168.266310
 20
358.982699
 30
0.0
  0
LWPOLYLINE
  5
222
100
AcDbEntity
  8
Layer_1
 62
7
100
AcDbPolyline
 90
2
 70
0
 10
171.016310
 20
363.732689
 30
0.0
 10
171.016310
 20
358.982699
 30
0.0
  0
LWPOLYLINE
  5
223
100
AcDbEntity
  8
Layer_1
 62
7
100
AcDbPolyline
 90
2
 70
0
 10
168.266310
 20
363.732689
 30
0.0
 10
171.016310
 20
363.732689
 30
0.0
  0
LWPOLYLINE
  5
224
100
AcDbEntity
  8
Layer_1
 62
7
100
AcDbPolyline
 90
2
 70
0
 10
168.266310
 20
373.732369
 30
0.0
 10
171.016310
 20
373.732369
 30
0.0
  0
LWPOLYLINE
  5
225
100
AcDbEntity
  8
Layer_1
 62
7
100
AcDbPolyline
 90
2
 70
0
 10
168.266310
 20
368.982389
 30
0.0
 10
168.266310
 20
373.732369
 30
0.0
  0
LWPOLYLINE
  5
226
100
AcDbEntity
  8
Layer_1
 62
7
100
AcDbPolyline
 90
2
 70
0
 10
171.016310
 20
368.982389
 30
0.0
 10
168.266310
 20
368.982389
 30
0.0
  0
LWPOLYLINE
  5
227
100
AcDbEntity
  8
Layer_1
 62
7
100
AcDbPolyline
 90
2
 70
0
 10
171.016310
 20
373.732369
 30
0.0
 10
171.016310
 20
368.982389
 30
0.0
  0
LWPOLYLINE
  5
228
100
AcDbEntity
  8
Layer_1
 62
7
100
AcDbPolyline
 90
8
 70
0
 10
24.261304
 20
414.982400
 30
0.0
 10
24.261304
 20
409.982380
 30
0.0
 10
36.011284
 20
409.982380
 30
0.0
 10
36.011284
 20
414.982400
 30
0.0
 10
104.266300
 20
414.982400
 30
0.0
 10
104.266300
 20
409.982380
 30
0.0
 10
116.266290
 20
409.982380
 30
0.0
 10
116.266290
 20
391.982379
 30
0.0
  0
LWPOLYLINE
  5
229
100
AcDbEntity
  8
Layer_1
 62
7
100
AcDbPolyline
 90
2
 70
0
 10
130.016290
 20
391.982379
 30
0.0
 10
116.266290
 20
391.982379
 30
0.0
  0
LWPOLYLINE
  5
22a
100
AcDbEntity
  8
Layer_1
 62
7
100
AcDbPolyline
 90
2
 70
0
 10
130.016290
 20
414.982400
 30
0.0
 10
130.016290
 20
391.982379
 30
0.0
  0
LWPOLYLINE
  5
22b
100
AcDbEntity
  8
Layer_1
 62
7
100
AcDbPolyline
 90
7
 70
0
 10
130.016290
 20
414.982400
 30
0.0
 10
174.266290
 20
414.982400
 30
0.0
 10
174.266290
 20
327.482679
 30
0.0
 10
226.266270
 20
327.482679
 30
0.0
 10
226.266270
 20
297.232680
 30
0.0
 10
173.266300
 20
297.232680
 30
0.0
 10
173.266300
 20
158.482700
 30
0.0
  0
LWPOLYLINE
  5
22c
100
AcDbEntity
  8
Layer_1
 62
7
100
AcDbPolyline
 90
2
 70
0
 10
226.266270
 20
158.482700
 30
0.0
 10
173.266300
 20
158.482700
 30
0.0
  0
LWPOLYLINE
  5
22d
100
AcDbEntity
  8
Layer_1
 62
7
100
AcDbPolyline
 90
2
 70
0
 10
226.266270
 20
90.232690
 30
0.0
 10
226.266270
 20
158.482700
 30
0.0
  0
LWPOLYLINE
  5
22e
100
AcDbEntity
  8
Layer_1
 62
7
100
AcDbPolyline
 90
6
 70
0
 10
226.266270
 20
90.232690
 30
0.0
 10
206.016280
 20
90.232690
 30
0.0
 10
206.016280
 20
138.232690
 30
0.0
 10
5.011304
 20
138.232690
 30
0.0
 10
5.011304
 20
158.482700
 30
0.0
 10
45.011304
 20
158.482700
 30
0.0
  0
LWPOLYLINE
  5
22f
100
AcDbEntity
  8
Layer_1
 62
7
100
AcDbPolyline
 90
2
 70
0
 10
45.011304
 20
170.982710
 30
0.0
 10
45.011304
 20
158.482700
 30
0.0
  0
LWPOLYLINE
  5
230
100
AcDbEntity
  8
Layer_1
 62
7
100
AcDbPolyline
 90
4
 70
0
 10
45.011304
 20
170.982710
 30
0.0
 10
65.011284
 20
170.982710
 30
0.0
 10
65.011284
 20
200.732684
 30
0.0
 10
45.011304
 20
200.732684
 30
0.0
  0
LWPOLYLINE
  5
231
100
AcDbEntity
  8
Layer_1
 62
7
100
AcDbPolyline
 90
2
 70
0
 10
45.011304
 20
304.982699
 30
0.0
 10
45.011304
 20
200.732684
 30
0.0
  0
LWPOLYLINE
  5
232
100
AcDbEntity
  8
Layer_1
 62
7
100
AcDbPolyline
 90
4
 70
0
 10
45.011304
 20
304.982699
 30
0.0
 10
65.011284
 20
304.982699
 30
0.0
 10
65.011284
 20
334.732689
 30
0.0
 10
45.011304
 20
334.732689
 30
0.0
  0
LWPOLYLINE
  5
233
100
AcDbEntity
  8
Layer_1
 62
7
100
AcDbPolyline
 90
2
 70
0
 10
45.011304
 20
364.732389
 30
0.0
 10
45.011304
 20
334.732689
 30
0.0
  0
LWPOLYLINE
  5
234
100
AcDbEntity
  8
Layer_1
 62
7
100
AcDbPolyline
 90
2
 70
0
 10
5.011304
 20
364.732389
 30
0.0
 10
45.011304
 20
364.732389
 30
0.0
  0
LWPOLYLINE
  5
235
100
AcDbEntity
  8
Layer_1
 62
7
100
AcDbPolyline
 90
2
 70
0
 10
5.011304
 20
414.982400
 30
0.0
 10
5.011304
 20
364.732389
 30
0.0
  0
LWPOLYLINE
  5
236
100
AcDbEntity
  8
Layer_1
 62
7
100
AcDbPolyline
 90
2
 70
0
 10
24.261304
 20
414.982400
 30
0.0
 10
5.011304
 20
414.982400
 30
0.0
  0
LWPOLYLINE
  5
237
100
AcDbEntity
  8
Layer_1
 62
7
100
AcDbPolyline
 90
2
 70
0
 10
10.411314
 20
292.417543
 30
0.0
 10
10.411314
 20
295.167543
 30
0.0
  0
LWPOLYLINE
  5
238
100
AcDbEntity
  8
Layer_1
 62
7
100
AcDbPolyline
 90
2
 70
0
 10
16.661304
 20
292.417543
 30
0.0
 10
10.411314
 20
292.417543
 30
0.0
  0
LWPOLYLINE
  5
239
100
AcDbEntity
  8
Layer_1
 62
7
100
AcDbPolyline
 90
2
 70
0
 10
16.661304
 20
295.167543
 30
0.0
 10
16.661304
 20
292.417543
 30
0.0
  0
LWPOLYLINE
  5
23a
100
AcDbEntity
  8
Layer_1
 62
7
100
AcDbPolyline
 90
2
 70
0
 10
10.411314
 20
295.167543
 30
0.0
 10
16.661304
 20
295.167543
 30
0.0
  0
LWPOLYLINE
  5
23b
100
AcDbEntity
  8
Layer_1
 62
7
100
AcDbPolyline
 90
2
 70
0
 10
30.261304
 20
354.037553
 30
0.0
 10
27.261304
 20
354.037553
 30
0.0
  0
LWPOLYLINE
  5
23c
100
AcDbEntity
  8
Layer_1
 62
7
100
AcDbPolyline
 90
2
 70
0
 10
30.261304
 20
343.304543
 30
0.0
 10
30.261304
 20
354.037553
 30
0.0
  0
LWPOLYLINE
  5
23d
100
AcDbEntity
  8
Layer_1
 62
7
100
AcDbPolyline
 90
2
 70
0
 10
24.194304
 20
316.122543
 30
0.0
 10
25.261314
 20
315.486543
 30
0.0
  0
LWPOLYLINE
  5
23e
100
AcDbEntity
  8
Layer_1
 62
7
100
AcDbPolyline
 90
2
 70
0
 10
23.183304
 20
316.845543
 30
0.0
 10
24.194304
 20
316.122543
 30
0.0
  0
LWPOLYLINE
  5
23f
100
AcDbEntity
  8
Layer_1
 62
7
100
AcDbPolyline
 90
2
 70
0
 10
22.236314
 20
317.649533
 30
0.0
 10
23.183304
 20
316.845543
 30
0.0
  0
LWPOLYLINE
  5
240
100
AcDbEntity
  8
Layer_1
 62
7
100
AcDbPolyline
 90
2
 70
0
 10
21.359294
 20
318.530543
 30
0.0
 10
22.236314
 20
317.649533
 30
0.0
  0
LWPOLYLINE
  5
241
100
AcDbEntity
  8
Layer_1
 62
7
100
AcDbPolyline
 90
2
 70
0
 10
20.560304
 20
319.480533
 30
0.0
 10
21.359294
 20
318.530543
 30
0.0
  0
LWPOLYLINE
  5
242
100
AcDbEntity
  8
Layer_1
 62
7
100
AcDbPolyline
 90
2
 70
0
 10
19.842304
 20
320.495553
 30
0.0
 10
20.560304
 20
319.480533
 30
0.0
  0
LWPOLYLINE
  5
243
100
AcDbEntity
  8
Layer_1
 62
7
100
AcDbPolyline
 90
2
 70
0
 10
19.211304
 20
321.565553
 30
0.0
 10
19.842304
 20
320.495553
 30
0.0
  0
LWPOLYLINE
  5
244
100
AcDbEntity
  8
Layer_1
 62
7
100
AcDbPolyline
 90
2
 70
0
 10
18.672324
 20
322.685533
 30
0.0
 10
19.211304
 20
321.565553
 30
0.0
  0
LWPOLYLINE
  5
245
100
AcDbEntity
  8
Layer_1
 62
7
100
AcDbPolyline
 90
2
 70
0
 10
18.228294
 20
323.845543
 30
0.0
 10
18.672324
 20
322.685533
 30
0.0
  0
LWPOLYLINE
  5
246
100
AcDbEntity
  8
Layer_1
 62
7
100
AcDbPolyline
 90
2
 70
0
 10
17.883304
 20
325.039533
 30
0.0
 10
18.228294
 20
323.845543
 30
0.0
  0
LWPOLYLINE
  5
247
100
AcDbEntity
  8
Layer_1
 62
7
100
AcDbPolyline
 90
2
 70
0
 10
17.638304
 20
326.257543
 30
0.0
 10
17.883304
 20
325.039533
 30
0.0
  0
LWPOLYLINE
  5
248
100
AcDbEntity
  8
Layer_1
 62
7
100
AcDbPolyline
 90
2
 70
0
 10
17.496304
 20
327.491533
 30
0.0
 10
17.638304
 20
326.257543
 30
0.0
  0
LWPOLYLINE
  5
249
100
AcDbEntity
  8
Layer_1
 62
7
100
AcDbPolyline
 90
2
 70
0
 10
17.457304
 20
328.733543
 30
0.0
 10
17.496304
 20
327.491533
 30
0.0
  0
LWPOLYLINE
  5
24a
100
AcDbEntity
  8
Layer_1
 62
7
100
AcDbPolyline
 90
2
 70
0
 10
17.523314
 20
329.974543
 30
0.0
 10
17.457314
 20
328.733543
 30
0.0
  0
LWPOLYLINE
  5
24b
100
AcDbEntity
  8
Layer_1
 62
7
100
AcDbPolyline
 90
2
 70
0
 10
17.691294
 20
331.205543
 30
0.0
 10
17.523314
 20
329.974543
 30
0.0
  0
LWPOLYLINE
  5
24c
100
AcDbEntity
  8
Layer_1
 62
7
100
AcDbPolyline
 90
2
 70
0
 10
17.962314
 20
332.418553
 30
0.0
 10
17.691294
 20
331.205543
 30
0.0
  0
LWPOLYLINE
  5
24d
100
AcDbEntity
  8
Layer_1
 62
7
100
AcDbPolyline
 90
2
 70
0
 10
18.333314
 20
333.603543
 30
0.0
 10
17.962314
 20
332.418553
 30
0.0
  0
LWPOLYLINE
  5
24e
100
AcDbEntity
  8
Layer_1
 62
7
100
AcDbPolyline
 90
2
 70
0
 10
18.802314
 20
334.754533
 30
0.0
 10
18.333314
 20
333.603543
 30
0.0
  0
LWPOLYLINE
  5
24f
100
AcDbEntity
  8
Layer_1
 62
7
100
AcDbPolyline
 90
2
 70
0
 10
19.365314
 20
335.862553
 30
0.0
 10
18.802314
 20
334.754533
 30
0.0
  0
LWPOLYLINE
  5
250
100
AcDbEntity
  8
Layer_1
 62
7
100
AcDbPolyline
 90
2
 70
0
 10
20.018304
 20
336.919533
 30
0.0
 10
19.365314
 20
335.862553
 30
0.0
  0
LWPOLYLINE
  5
251
100
AcDbEntity
  8
Layer_1
 62
7
100
AcDbPolyline
 90
2
 70
0
 10
20.757314
 20
337.917543
 30
0.0
 10
20.018304
 20
336.919533
 30
0.0
  0
LWPOLYLINE
  5
252
100
AcDbEntity
  8
Layer_1
 62
7
100
AcDbPolyline
 90
2
 70
0
 10
21.578314
 20
338.850543
 30
0.0
 10
20.757314
 20
337.917543
 30
0.0
  0
LWPOLYLINE
  5
253
100
AcDbEntity
  8
Layer_1
 62
7
100
AcDbPolyline
 90
2
 70
0
 10
22.473294
 20
339.712533
 30
0.0
 10
21.578314
 20
338.850543
 30
0.0
  0
LWPOLYLINE
  5
254
100
AcDbEntity
  8
Layer_1
 62
7
100
AcDbPolyline
 90
2
 70
0
 10
23.437304
 20
340.496543
 30
0.0
 10
22.473294
 20
339.712533
 30
0.0
  0
LWPOLYLINE
  5
255
100
AcDbEntity
  8
Layer_1
 62
7
100
AcDbPolyline
 90
2
 70
0
 10
24.463304
 20
341.197533
 30
0.0
 10
23.437304
 20
340.496543
 30
0.0
  0
LWPOLYLINE
  5
256
100
AcDbEntity
  8
Layer_1
 62
7
100
AcDbPolyline
 90
2
 70
0
 10
25.544314
 20
341.809543
 30
0.0
 10
24.463304
 20
341.197533
 30
0.0
  0
LWPOLYLINE
  5
257
100
AcDbEntity
  8
Layer_1
 62
7
100
AcDbPolyline
 90
2
 70
0
 10
26.672314
 20
342.330533
 30
0.0
 10
25.544314
 20
341.809543
 30
0.0
  0
LWPOLYLINE
  5
258
100
AcDbEntity
  8
Layer_1
 62
7
100
AcDbPolyline
 90
2
 70
0
 10
27.840314
 20
342.754553
 30
0.0
 10
26.672314
 20
342.330533
 30
0.0
  0
LWPOLYLINE
  5
259
100
AcDbEntity
  8
Layer_1
 62
7
100
AcDbPolyline
 90
2
 70
0
 10
29.039304
 20
343.079543
 30
0.0
 10
27.840314
 20
342.754553
 30
0.0
  0
LWPOLYLINE
  5
25a
100
AcDbEntity
  8
Layer_1
 62
7
100
AcDbPolyline
 90
2
 70
0
 10
30.261304
 20
343.304543
 30
0.0
 10
29.039304
 20
343.079543
 30
0.0
  0
LWPOLYLINE
  5
25b
100
AcDbEntity
  8
Layer_1
 62
7
100
AcDbPolyline
 90
12
 70
0
 10
25.261314
 20
315.486543
 30
0.0
 10
25.261314
 20
281.287533
 30
0.0
 10
5.011304
 20
281.287533
 30
0.0
 10
5.011304
 20
354.037553
 30
0.0
 10
10.011314
 20
354.037553
 30
0.0
 10
10.011314
 20
357.037553
 30
0.0
 10
17.261294
 20
357.037553
 30
0.0
 10
17.261294
 20
354.037553
 30
0.0
 10
22.011304
 20
354.037553
 30
0.0
 10
22.011304
 20
357.037553
 30
0.0
 10
27.261304
 20
357.037553
 30
0.0
 10
27.261304
 20
354.037553
 30
0.0
  0
LWPOLYLINE
  5
25c
100
AcDbEntity
  8
Layer_1
 62
7
100
AcDbPolyline
 90
2
 70
0
 10
11.401284
 20
262.069478
 30
0.0
 10
11.401284
 20
259.319478
 30
0.0
  0
LWPOLYLINE
  5
25d
100
AcDbEntity
  8
Layer_1
 62
7
100
AcDbPolyline
 90
2
 70
0
 10
17.151294
 20
262.069478
 30
0.0
 10
11.401284
 20
262.069478
 30
0.0
  0
LWPOLYLINE
  5
25e
100
AcDbEntity
  8
Layer_1
 62
7
100
AcDbPolyline
 90
2
 70
0
 10
17.151294
 20
259.319478
 30
0.0
 10
17.151294
 20
262.069478
 30
0.0
  0
LWPOLYLINE
  5
25f
100
AcDbEntity
  8
Layer_1
 62
7
100
AcDbPolyline
 90
2
 70
0
 10
11.401284
 20
259.319478
 30
0.0
 10
17.151294
 20
259.319478
 30
0.0
  0
LWPOLYLINE
  5
260
100
AcDbEntity
  8
Layer_1
 62
7
100
AcDbPolyline
 90
2
 70
0
 10
30.261284
 20
200.449478
 30
0.0
 10
27.261314
 20
200.449478
 30
0.0
  0
LWPOLYLINE
  5
261
100
AcDbEntity
  8
Layer_1
 62
7
100
AcDbPolyline
 90
2
 70
0
 10
30.261284
 20
211.183498
 30
0.0
 10
30.261284
 20
200.449478
 30
0.0
  0
LWPOLYLINE
  5
262
100
AcDbEntity
  8
Layer_1
 62
7
100
AcDbPolyline
 90
2
 70
0
 10
24.194284
 20
238.364478
 30
0.0
 10
25.261294
 20
239.000478
 30
0.0
  0
LWPOLYLINE
  5
263
100
AcDbEntity
  8
Layer_1
 62
7
100
AcDbPolyline
 90
2
 70
0
 10
23.183284
 20
237.642478
 30
0.0
 10
24.194284
 20
238.364478
 30
0.0
  0
LWPOLYLINE
  5
264
100
AcDbEntity
  8
Layer_1
 62
7
100
AcDbPolyline
 90
2
 70
0
 10
22.236294
 20
236.837488
 30
0.0
 10
23.183284
 20
237.642478
 30
0.0
  0
LWPOLYLINE
  5
265
100
AcDbEntity
  8
Layer_1
 62
7
100
AcDbPolyline
 90
2
 70
0
 10
21.359304
 20
235.957478
 30
0.0
 10
22.236294
 20
236.837488
 30
0.0
  0
LWPOLYLINE
  5
266
100
AcDbEntity
  8
Layer_1
 62
7
100
AcDbPolyline
 90
2
 70
0
 10
20.559304
 20
235.006488
 30
0.0
 10
21.359304
 20
235.957478
 30
0.0
  0
LWPOLYLINE
  5
267
100
AcDbEntity
  8
Layer_1
 62
7
100
AcDbPolyline
 90
2
 70
0
 10
19.842284
 20
233.992468
 30
0.0
 10
20.559304
 20
235.006488
 30
0.0
  0
LWPOLYLINE
  5
268
100
AcDbEntity
  8
Layer_1
 62
7
100
AcDbPolyline
 90
2
 70
0
 10
19.211304
 20
232.921488
 30
0.0
 10
19.842284
 20
233.992468
 30
0.0
  0
LWPOLYLINE
  5
269
100
AcDbEntity
  8
Layer_1
 62
7
100
AcDbPolyline
 90
2
 70
0
 10
18.672304
 20
231.802488
 30
0.0
 10
19.211304
 20
232.921488
 30
0.0
  0
LWPOLYLINE
  5
26a
100
AcDbEntity
  8
Layer_1
 62
7
100
AcDbPolyline
 90
2
 70
0
 10
18.228304
 20
230.641468
 30
0.0
 10
18.672304
 20
231.802488
 30
0.0
  0
LWPOLYLINE
  5
26b
100
AcDbEntity
  8
Layer_1
 62
7
100
AcDbPolyline
 90
2
 70
0
 10
17.883284
 20
229.448488
 30
0.0
 10
18.228304
 20
230.641468
 30
0.0
  0
LWPOLYLINE
  5
26c
100
AcDbEntity
  8
Layer_1
 62
7
100
AcDbPolyline
 90
2
 70
0
 10
17.638304
 20
228.229478
 30
0.0
 10
17.883284
 20
229.448488
 30
0.0
  0
LWPOLYLINE
  5
26d
100
AcDbEntity
  8
Layer_1
 62
7
100
AcDbPolyline
 90
2
 70
0
 10
17.496304
 20
226.995488
 30
0.0
 10
17.638304
 20
228.229478
 30
0.0
  0
LWPOLYLINE
  5
26e
100
AcDbEntity
  8
Layer_1
 62
7
100
AcDbPolyline
 90
2
 70
0
 10
17.457304
 20
225.753478
 30
0.0
 10
17.496304
 20
226.995488
 30
0.0
  0
LWPOLYLINE
  5
26f
100
AcDbEntity
  8
Layer_1
 62
7
100
AcDbPolyline
 90
2
 70
0
 10
17.523294
 20
224.512478
 30
0.0
 10
17.457294
 20
225.753478
 30
0.0
  0
LWPOLYLINE
  5
270
100
AcDbEntity
  8
Layer_1
 62
7
100
AcDbPolyline
 90
2
 70
0
 10
17.691304
 20
223.281478
 30
0.0
 10
17.523294
 20
224.512478
 30
0.0
  0
LWPOLYLINE
  5
271
100
AcDbEntity
  8
Layer_1
 62
7
100
AcDbPolyline
 90
2
 70
0
 10
17.962294
 20
222.069478
 30
0.0
 10
17.691304
 20
223.281478
 30
0.0
  0
LWPOLYLINE
  5
272
100
AcDbEntity
  8
Layer_1
 62
7
100
AcDbPolyline
 90
2
 70
0
 10
18.333294
 20
220.883488
 30
0.0
 10
17.962294
 20
222.069478
 30
0.0
  0
LWPOLYLINE
  5
273
100
AcDbEntity
  8
Layer_1
 62
7
100
AcDbPolyline
 90
2
 70
0
 10
18.801284
 20
219.732498
 30
0.0
 10
18.333294
 20
220.883488
 30
0.0
  0
LWPOLYLINE
  5
274
100
AcDbEntity
  8
Layer_1
 62
7
100
AcDbPolyline
 90
2
 70
0
 10
19.364294
 20
218.625478
 30
0.0
 10
18.801284
 20
219.732498
 30
0.0
  0
LWPOLYLINE
  5
275
100
AcDbEntity
  8
Layer_1
 62
7
100
AcDbPolyline
 90
2
 70
0
 10
20.018284
 20
217.568498
 30
0.0
 10
19.364294
 20
218.625478
 30
0.0
  0
LWPOLYLINE
  5
276
100
AcDbEntity
  8
Layer_1
 62
7
100
AcDbPolyline
 90
2
 70
0
 10
20.757294
 20
216.569488
 30
0.0
 10
20.018284
 20
217.568498
 30
0.0
  0
LWPOLYLINE
  5
277
100
AcDbEntity
  8
Layer_1
 62
7
100
AcDbPolyline
 90
2
 70
0
 10
21.577294
 20
215.636488
 30
0.0
 10
20.757294
 20
216.569488
 30
0.0
  0
LWPOLYLINE
  5
278
100
AcDbEntity
  8
Layer_1
 62
7
100
AcDbPolyline
 90
2
 70
0
 10
22.473304
 20
214.774498
 30
0.0
 10
21.577294
 20
215.636488
 30
0.0
  0
LWPOLYLINE
  5
279
100
AcDbEntity
  8
Layer_1
 62
7
100
AcDbPolyline
 90
2
 70
0
 10
23.437284
 20
213.990488
 30
0.0
 10
22.473304
 20
214.774498
 30
0.0
  0
LWPOLYLINE
  5
27a
100
AcDbEntity
  8
Layer_1
 62
7
100
AcDbPolyline
 90
2
 70
0
 10
24.463284
 20
213.290508
 30
0.0
 10
23.437284
 20
213.990488
 30
0.0
  0
LWPOLYLINE
  5
27b
100
AcDbEntity
  8
Layer_1
 62
7
100
AcDbPolyline
 90
2
 70
0
 10
25.544294
 20
212.677488
 30
0.0
 10
24.463284
 20
213.290508
 30
0.0
  0
LWPOLYLINE
  5
27c
100
AcDbEntity
  8
Layer_1
 62
7
100
AcDbPolyline
 90
2
 70
0
 10
26.672294
 20
212.157478
 30
0.0
 10
25.544294
 20
212.677488
 30
0.0
  0
LWPOLYLINE
  5
27d
100
AcDbEntity
  8
Layer_1
 62
7
100
AcDbPolyline
 90
2
 70
0
 10
27.840294
 20
211.732478
 30
0.0
 10
26.672294
 20
212.157478
 30
0.0
  0
LWPOLYLINE
  5
27e
100
AcDbEntity
  8
Layer_1
 62
7
100
AcDbPolyline
 90
2
 70
0
 10
29.039314
 20
211.407488
 30
0.0
 10
27.840294
 20
211.732478
 30
0.0
  0
LWPOLYLINE
  5
27f
100
AcDbEntity
  8
Layer_1
 62
7
100
AcDbPolyline
 90
2
 70
0
 10
30.261284
 20
211.183498
 30
0.0
 10
29.039314
 20
211.407488
 30
0.0
  0
LWPOLYLINE
  5
280
100
AcDbEntity
  8
Layer_1
 62
7
100
AcDbPolyline
 90
12
 70
0
 10
25.261294
 20
239.000478
 30
0.0
 10
25.261294
 20
273.199488
 30
0.0
 10
5.011304
 20
273.199488
 30
0.0
 10
5.011304
 20
200.449478
 30
0.0
 10
10.011294
 20
200.449478
 30
0.0
 10
10.011294
 20
197.449498
 30
0.0
 10
17.261304
 20
197.449498
 30
0.0
 10
17.261304
 20
200.449478
 30
0.0
 10
22.011284
 20
200.449478
 30
0.0
 10
22.011284
 20
197.449498
 30
0.0
 10
27.261314
 20
197.449498
 30
0.0
 10
27.261314
 20
200.449478
 30
0.0
  0
LWPOLYLINE
  5
281
100
AcDbEntity
  8
Layer_1
 62
7
100
AcDbPolyline
 90
2
 70
0
 10
25.681701
 20
220.863050
 30
0.0
 10
28.931681
 20
220.863050
 30
0.0
  0
LWPOLYLINE
  5
282
100
AcDbEntity
  8
Layer_1
 62
7
100
AcDbPolyline
 90
2
 70
0
 10
25.681701
 20
221.863040
 30
0.0
 10
25.681701
 20
220.863050
 30
0.0
  0
LWPOLYLINE
  5
283
100
AcDbEntity
  8
Layer_1
 62
7
100
AcDbPolyline
 90
2
 70
0
 10
22.681691
 20
221.863040
 30
0.0
 10
25.681701
 20
221.863040
 30
0.0
  0
LWPOLYLINE
  5
284
100
AcDbEntity
  8
Layer_1
 62
7
100
AcDbPolyline
 90
2
 70
0
 10
22.681691
 20
226.113050
 30
0.0
 10
22.681691
 20
221.863040
 30
0.0
  0
LWPOLYLINE
  5
285
100
AcDbEntity
  8
Layer_1
 62
7
100
AcDbPolyline
 90
5
 70
0
 10
22.681691
 20
226.113050
 30
0.0
 10
25.681701
 20
226.113050
 30
0.0
 10
25.681701
 20
227.113040
 30
0.0
 10
28.931681
 20
227.113040
 30
0.0
 10
28.931681
 20
220.863050
 30
0.0
  0
LWPOLYLINE
  5
286
100
AcDbEntity
  8
Layer_1
 62
7
100
AcDbPolyline
 90
2
 70
0
 10
40.020308
 20
227.240441
 30
0.0
 10
40.020308
 20
230.490451
 30
0.0
  0
LWPOLYLINE
  5
287
100
AcDbEntity
  8
Layer_1
 62
7
100
AcDbPolyline
 90
2
 70
0
 10
39.520298
 20
227.240441
 30
0.0
 10
40.020308
 20
227.240441
 30
0.0
  0
LWPOLYLINE
  5
288
100
AcDbEntity
  8
Layer_1
 62
7
100
AcDbPolyline
 90
2
 70
0
 10
39.520298
 20
221.240431
 30
0.0
 10
39.520298
 20
227.240441
 30
0.0
  0
LWPOLYLINE
  5
289
100
AcDbEntity
  8
Layer_1
 62
7
100
AcDbPolyline
 90
2
 70
0
 10
35.270298
 20
221.240431
 30
0.0
 10
39.520298
 20
221.240431
 30
0.0
  0
LWPOLYLINE
  5
28a
100
AcDbEntity
  8
Layer_1
 62
7
100
AcDbPolyline
 90
5
 70
0
 10
35.270298
 20
221.240431
 30
0.0
 10
35.270298
 20
227.240441
 30
0.0
 10
33.270308
 20
227.240441
 30
0.0
 10
33.270308
 20
230.490451
 30
0.0
 10
40.020308
 20
230.490451
 30
0.0
  0
LWPOLYLINE
  5
28b
100
AcDbEntity
  8
Layer_1
 62
7
100
AcDbPolyline
 90
2
 70
0
 10
195.065050
 20
275.627135
 30
0.0
 10
195.475050
 20
275.576135
 30
0.0
  0
LWPOLYLINE
  5
28c
100
AcDbEntity
  8
Layer_1
 62
7
100
AcDbPolyline
 90
2
 70
0
 10
194.695060
 20
275.777155
 30
0.0
 10
195.065050
 20
275.627135
 30
0.0
  0
LWPOLYLINE
  5
28d
100
AcDbEntity
  8
Layer_1
 62
7
100
AcDbPolyline
 90
2
 70
0
 10
194.365040
 20
276.016155
 30
0.0
 10
194.695060
 20
275.777155
 30
0.0
  0
LWPOLYLINE
  5
28e
100
AcDbEntity
  8
Layer_1
 62
7
100
AcDbPolyline
 90
2
 70
0
 10
194.105060
 20
276.330135
 30
0.0
 10
194.365040
 20
276.016155
 30
0.0
  0
LWPOLYLINE
  5
28f
100
AcDbEntity
  8
Layer_1
 62
7
100
AcDbPolyline
 90
2
 70
0
 10
193.925040
 20
276.699145
 30
0.0
 10
194.105060
 20
276.330135
 30
0.0
  0
LWPOLYLINE
  5
290
100
AcDbEntity
  8
Layer_1
 62
7
100
AcDbPolyline
 90
2
 70
0
 10
193.855060
 20
277.099145
 30
0.0
 10
193.925060
 20
276.699145
 30
0.0
  0
LWPOLYLINE
  5
291
100
AcDbEntity
  8
Layer_1
 62
7
100
AcDbPolyline
 90
2
 70
0
 10
193.875060
 20
277.505145
 30
0.0
 10
193.854960
 20
277.099145
 30
0.0
  0
LWPOLYLINE
  5
292
100
AcDbEntity
  8
Layer_1
 62
7
100
AcDbPolyline
 90
2
 70
0
 10
194.005050
 20
277.893135
 30
0.0
 10
193.875060
 20
277.505145
 30
0.0
  0
LWPOLYLINE
  5
293
100
AcDbEntity
  8
Layer_1
 62
7
100
AcDbPolyline
 90
2
 70
0
 10
194.225050
 20
278.237145
 30
0.0
 10
194.005050
 20
277.893135
 30
0.0
  0
LWPOLYLINE
  5
294
100
AcDbEntity
  8
Layer_1
 62
7
100
AcDbPolyline
 90
2
 70
0
 10
194.515060
 20
278.516145
 30
0.0
 10
194.225050
 20
278.237145
 30
0.0
  0
LWPOLYLINE
  5
295
100
AcDbEntity
  8
Layer_1
 62
7
100
AcDbPolyline
 90
2
 70
0
 10
194.875050
 20
278.712155
 30
0.0
 10
194.515060
 20
278.516145
 30
0.0
  0
LWPOLYLINE
  5
296
100
AcDbEntity
  8
Layer_1
 62
7
100
AcDbPolyline
 90
2
 70
0
 10
195.275050
 20
278.813145
 30
0.0
 10
194.875050
 20
278.712155
 30
0.0
  0
LWPOLYLINE
  5
297
100
AcDbEntity
  8
Layer_1
 62
7
100
AcDbPolyline
 90
2
 70
0
 10
195.675050
 20
278.813145
 30
0.0
 10
195.275050
 20
278.813145
 30
0.0
  0
LWPOLYLINE
  5
298
100
AcDbEntity
  8
Layer_1
 62
7
100
AcDbPolyline
 90
2
 70
0
 10
196.075040
 20
278.712155
 30
0.0
 10
195.675050
 20
278.813145
 30
0.0
  0
LWPOLYLINE
  5
299
100
AcDbEntity
  8
Layer_1
 62
7
100
AcDbPolyline
 90
2
 70
0
 10
196.425060
 20
278.516145
 30
0.0
 10
196.075040
 20
278.712155
 30
0.0
  0
LWPOLYLINE
  5
29a
100
AcDbEntity
  8
Layer_1
 62
7
100
AcDbPolyline
 90
2
 70
0
 10
196.725050
 20
278.237145
 30
0.0
 10
196.425060
 20
278.516145
 30
0.0
  0
LWPOLYLINE
  5
29b
100
AcDbEntity
  8
Layer_1
 62
7
100
AcDbPolyline
 90
2
 70
0
 10
196.945050
 20
277.893135
 30
0.0
 10
196.725050
 20
278.237145
 30
0.0
  0
LWPOLYLINE
  5
29c
100
AcDbEntity
  8
Layer_1
 62
7
100
AcDbPolyline
 90
2
 70
0
 10
197.075060
 20
277.505145
 30
0.0
 10
196.945050
 20
277.893135
 30
0.0
  0
LWPOLYLINE
  5
29d
100
AcDbEntity
  8
Layer_1
 62
7
100
AcDbPolyline
 90
2
 70
0
 10
197.095040
 20
277.099145
 30
0.0
 10
197.075240
 20
277.505145
 30
0.0
  0
LWPOLYLINE
  5
29e
100
AcDbEntity
  8
Layer_1
 62
7
100
AcDbPolyline
 90
2
 70
0
 10
197.015060
 20
276.699145
 30
0.0
 10
197.095060
 20
277.099145
 30
0.0
  0
LWPOLYLINE
  5
29f
100
AcDbEntity
  8
Layer_1
 62
7
100
AcDbPolyline
 90
2
 70
0
 10
196.845060
 20
276.330135
 30
0.0
 10
197.015060
 20
276.699145
 30
0.0
  0
LWPOLYLINE
  5
2a0
100
AcDbEntity
  8
Layer_1
 62
7
100
AcDbPolyline
 90
2
 70
0
 10
196.585060
 20
276.016155
 30
0.0
 10
196.845060
 20
276.330135
 30
0.0
  0
LWPOLYLINE
  5
2a1
100
AcDbEntity
  8
Layer_1
 62
7
100
AcDbPolyline
 90
2
 70
0
 10
196.255040
 20
275.777155
 30
0.0
 10
196.585060
 20
276.016155
 30
0.0
  0
LWPOLYLINE
  5
2a2
100
AcDbEntity
  8
Layer_1
 62
7
100
AcDbPolyline
 90
2
 70
0
 10
195.875050
 20
275.627135
 30
0.0
 10
196.255040
 20
275.777155
 30
0.0
  0
LWPOLYLINE
  5
2a3
100
AcDbEntity
  8
Layer_1
 62
7
100
AcDbPolyline
 90
2
 70
0
 10
195.475050
 20
275.576145
 30
0.0
 10
195.875050
 20
275.627145
 30
0.0
  0
LWPOLYLINE
  5
2a4
100
AcDbEntity
  8
Layer_1
 62
7
100
AcDbPolyline
 90
2
 70
0
 10
195.065050
 20
220.627135
 30
0.0
 10
195.475050
 20
220.576135
 30
0.0
  0
LWPOLYLINE
  5
2a5
100
AcDbEntity
  8
Layer_1
 62
7
100
AcDbPolyline
 90
2
 70
0
 10
194.695060
 20
220.777135
 30
0.0
 10
195.065050
 20
220.627135
 30
0.0
  0
LWPOLYLINE
  5
2a6
100
AcDbEntity
  8
Layer_1
 62
7
100
AcDbPolyline
 90
2
 70
0
 10
194.365040
 20
221.016155
 30
0.0
 10
194.695060
 20
220.777135
 30
0.0
  0
LWPOLYLINE
  5
2a7
100
AcDbEntity
  8
Layer_1
 62
7
100
AcDbPolyline
 90
2
 70
0
 10
194.105060
 20
221.330135
 30
0.0
 10
194.365040
 20
221.016155
 30
0.0
  0
LWPOLYLINE
  5
2a8
100
AcDbEntity
  8
Layer_1
 62
7
100
AcDbPolyline
 90
2
 70
0
 10
193.925040
 20
221.699155
 30
0.0
 10
194.105060
 20
221.330135
 30
0.0
  0
LWPOLYLINE
  5
2a9
100
AcDbEntity
  8
Layer_1
 62
7
100
AcDbPolyline
 90
2
 70
0
 10
193.855060
 20
222.099145
 30
0.0
 10
193.925060
 20
221.699155
 30
0.0
  0
LWPOLYLINE
  5
2aa
100
AcDbEntity
  8
Layer_1
 62
7
100
AcDbPolyline
 90
2
 70
0
 10
193.875060
 20
222.505155
 30
0.0
 10
193.854960
 20
222.099145
 30
0.0
  0
LWPOLYLINE
  5
2ab
100
AcDbEntity
  8
Layer_1
 62
7
100
AcDbPolyline
 90
2
 70
0
 10
194.005050
 20
222.893135
 30
0.0
 10
193.875060
 20
222.505155
 30
0.0
  0
LWPOLYLINE
  5
2ac
100
AcDbEntity
  8
Layer_1
 62
7
100
AcDbPolyline
 90
2
 70
0
 10
194.225050
 20
223.237145
 30
0.0
 10
194.005050
 20
222.893135
 30
0.0
  0
LWPOLYLINE
  5
2ad
100
AcDbEntity
  8
Layer_1
 62
7
100
AcDbPolyline
 90
2
 70
0
 10
194.515060
 20
223.516155
 30
0.0
 10
194.225050
 20
223.237145
 30
0.0
  0
LWPOLYLINE
  5
2ae
100
AcDbEntity
  8
Layer_1
 62
7
100
AcDbPolyline
 90
2
 70
0
 10
194.875050
 20
223.712155
 30
0.0
 10
194.515060
 20
223.516155
 30
0.0
  0
LWPOLYLINE
  5
2af
100
AcDbEntity
  8
Layer_1
 62
7
100
AcDbPolyline
 90
2
 70
0
 10
195.275050
 20
223.813145
 30
0.0
 10
194.875050
 20
223.712155
 30
0.0
  0
LWPOLYLINE
  5
2b0
100
AcDbEntity
  8
Layer_1
 62
7
100
AcDbPolyline
 90
2
 70
0
 10
195.675050
 20
223.813145
 30
0.0
 10
195.275050
 20
223.813145
 30
0.0
  0
LWPOLYLINE
  5
2b1
100
AcDbEntity
  8
Layer_1
 62
7
100
AcDbPolyline
 90
2
 70
0
 10
196.075040
 20
223.712155
 30
0.0
 10
195.675050
 20
223.813145
 30
0.0
  0
LWPOLYLINE
  5
2b2
100
AcDbEntity
  8
Layer_1
 62
7
100
AcDbPolyline
 90
2
 70
0
 10
196.425060
 20
223.516155
 30
0.0
 10
196.075040
 20
223.712155
 30
0.0
  0
LWPOLYLINE
  5
2b3
100
AcDbEntity
  8
Layer_1
 62
7
100
AcDbPolyline
 90
2
 70
0
 10
196.725050
 20
223.237145
 30
0.0
 10
196.425060
 20
223.516155
 30
0.0
  0
LWPOLYLINE
  5
2b4
100
AcDbEntity
  8
Layer_1
 62
7
100
AcDbPolyline
 90
2
 70
0
 10
196.945050
 20
222.893135
 30
0.0
 10
196.725050
 20
223.237145
 30
0.0
  0
LWPOLYLINE
  5
2b5
100
AcDbEntity
  8
Layer_1
 62
7
100
AcDbPolyline
 90
2
 70
0
 10
197.075060
 20
222.505155
 30
0.0
 10
196.945050
 20
222.893135
 30
0.0
  0
LWPOLYLINE
  5
2b6
100
AcDbEntity
  8
Layer_1
 62
7
100
AcDbPolyline
 90
2
 70
0
 10
197.095040
 20
222.099145
 30
0.0
 10
197.075240
 20
222.505155
 30
0.0
  0
LWPOLYLINE
  5
2b7
100
AcDbEntity
  8
Layer_1
 62
7
100
AcDbPolyline
 90
2
 70
0
 10
197.015060
 20
221.699155
 30
0.0
 10
197.095060
 20
222.099145
 30
0.0
  0
LWPOLYLINE
  5
2b8
100
AcDbEntity
  8
Layer_1
 62
7
100
AcDbPolyline
 90
2
 70
0
 10
196.845060
 20
221.330135
 30
0.0
 10
197.015060
 20
221.699155
 30
0.0
  0
LWPOLYLINE
  5
2b9
100
AcDbEntity
  8
Layer_1
 62
7
100
AcDbPolyline
 90
2
 70
0
 10
196.585060
 20
221.016155
 30
0.0
 10
196.845060
 20
221.330135
 30
0.0
  0
LWPOLYLINE
  5
2ba
100
AcDbEntity
  8
Layer_1
 62
7
100
AcDbPolyline
 90
2
 70
0
 10
196.255040
 20
220.777135
 30
0.0
 10
196.585060
 20
221.016155
 30
0.0
  0
LWPOLYLINE
  5
2bb
100
AcDbEntity
  8
Layer_1
 62
7
100
AcDbPolyline
 90
2
 70
0
 10
195.875050
 20
220.627135
 30
0.0
 10
196.255040
 20
220.777135
 30
0.0
  0
LWPOLYLINE
  5
2bc
100
AcDbEntity
  8
Layer_1
 62
7
100
AcDbPolyline
 90
2
 70
0
 10
195.475050
 20
220.576155
 30
0.0
 10
195.875050
 20
220.627155
 30
0.0
  0
LWPOLYLINE
  5
2bd
100
AcDbEntity
  8
Layer_1
 62
7
100
AcDbPolyline
 90
2
 70
0
 10
185.345050
 20
217.576145
 30
0.0
 10
185.345050
 20
287.326135
 30
0.0
  0
LWPOLYLINE
  5
2be
100
AcDbEntity
  8
Layer_1
 62
7
100
AcDbPolyline
 90
2
 70
0
 10
247.095050
 20
217.576145
 30
0.0
 10
185.345050
 20
217.576145
 30
0.0
  0
LWPOLYLINE
  5
2bf
100
AcDbEntity
  8
Layer_1
 62
7
100
AcDbPolyline
 90
2
 70
0
 10
185.345050
 20
287.326135
 30
0.0
 10
247.095050
 20
287.326135
 30
0.0
  0
LWPOLYLINE
  5
2c0
100
AcDbEntity
  8
Layer_1
 62
7
100
AcDbPolyline
 90
2
 70
0
 10
247.095050
 20
222.576135
 30
0.0
 10
247.095050
 20
217.576145
 30
0.0
  0
LWPOLYLINE
  5
2c1
100
AcDbEntity
  8
Layer_1
 62
7
100
AcDbPolyline
 90
2
 70
0
 10
250.095050
 20
222.576135
 30
0.0
 10
247.095050
 20
222.576135
 30
0.0
  0
LWPOLYLINE
  5
2c2
100
AcDbEntity
  8
Layer_1
 62
7
100
AcDbPolyline
 90
2
 70
0
 10
250.095050
 20
227.826135
 30
0.0
 10
250.095050
 20
222.576135
 30
0.0
  0
LWPOLYLINE
  5
2c3
100
AcDbEntity
  8
Layer_1
 62
7
100
AcDbPolyline
 90
2
 70
0
 10
247.095050
 20
227.826135
 30
0.0
 10
250.095050
 20
227.826135
 30
0.0
  0
LWPOLYLINE
  5
2c4
100
AcDbEntity
  8
Layer_1
 62
7
100
AcDbPolyline
 90
2
 70
0
 10
247.095050
 20
237.576135
 30
0.0
 10
247.095050
 20
227.826135
 30
0.0
  0
LWPOLYLINE
  5
2c5
100
AcDbEntity
  8
Layer_1
 62
7
100
AcDbPolyline
 90
2
 70
0
 10
250.095050
 20
237.576135
 30
0.0
 10
247.095050
 20
237.576135
 30
0.0
  0
LWPOLYLINE
  5
2c6
100
AcDbEntity
  8
Layer_1
 62
7
100
AcDbPolyline
 90
2
 70
0
 10
250.095050
 20
247.826145
 30
0.0
 10
250.095050
 20
237.576135
 30
0.0
  0
LWPOLYLINE
  5
2c7
100
AcDbEntity
  8
Layer_1
 62
7
100
AcDbPolyline
 90
2
 70
0
 10
247.095050
 20
247.826145
 30
0.0
 10
250.095050
 20
247.826145
 30
0.0
  0
LWPOLYLINE
  5
2c8
100
AcDbEntity
  8
Layer_1
 62
7
100
AcDbPolyline
 90
2
 70
0
 10
247.095050
 20
255.576135
 30
0.0
 10
247.095050
 20
247.826145
 30
0.0
  0
LWPOLYLINE
  5
2c9
100
AcDbEntity
  8
Layer_1
 62
7
100
AcDbPolyline
 90
2
 70
0
 10
250.095050
 20
255.576135
 30
0.0
 10
247.095050
 20
255.576135
 30
0.0
  0
LWPOLYLINE
  5
2ca
100
AcDbEntity
  8
Layer_1
 62
7
100
AcDbPolyline
 90
2
 70
0
 10
250.095050
 20
265.826145
 30
0.0
 10
250.095050
 20
255.576135
 30
0.0
  0
LWPOLYLINE
  5
2cb
100
AcDbEntity
  8
Layer_1
 62
7
100
AcDbPolyline
 90
2
 70
0
 10
247.095050
 20
265.826145
 30
0.0
 10
250.095050
 20
265.826145
 30
0.0
  0
LWPOLYLINE
  5
2cc
100
AcDbEntity
  8
Layer_1
 62
7
100
AcDbPolyline
 90
2
 70
0
 10
247.095050
 20
275.576145
 30
0.0
 10
247.095050
 20
265.826145
 30
0.0
  0
LWPOLYLINE
  5
2cd
100
AcDbEntity
  8
Layer_1
 62
7
100
AcDbPolyline
 90
2
 70
0
 10
250.095050
 20
275.576145
 30
0.0
 10
247.095050
 20
275.576145
 30
0.0
  0
LWPOLYLINE
  5
2ce
100
AcDbEntity
  8
Layer_1
 62
7
100
AcDbPolyline
 90
2
 70
0
 10
250.095050
 20
285.826135
 30
0.0
 10
250.095050
 20
275.576145
 30
0.0
  0
LWPOLYLINE
  5
2cf
100
AcDbEntity
  8
Layer_1
 62
7
100
AcDbPolyline
 90
2
 70
0
 10
247.095050
 20
285.826135
 30
0.0
 10
250.095050
 20
285.826135
 30
0.0
  0
LWPOLYLINE
  5
2d0
100
AcDbEntity
  8
Layer_1
 62
7
100
AcDbPolyline
 90
2
 70
0
 10
247.095050
 20
287.326135
 30
0.0
 10
247.095050
 20
285.826135
 30
0.0
  0
LWPOLYLINE
  5
2d1
100
AcDbEntity
  8
Layer_1
 62
7
100
AcDbPolyline
 90
2
 70
0
 10
256.884280
 20
138.499630
 30
0.0
 10
257.284280
 20
138.448630
 30
0.0
  0
LWPOLYLINE
  5
2d2
100
AcDbEntity
  8
Layer_1
 62
7
100
AcDbPolyline
 90
2
 70
0
 10
256.504260
 20
138.649650
 30
0.0
 10
256.884280
 20
138.499630
 30
0.0
  0
LWPOLYLINE
  5
2d3
100
AcDbEntity
  8
Layer_1
 62
7
100
AcDbPolyline
 90
2
 70
0
 10
256.174270
 20
138.888650
 30
0.0
 10
256.504260
 20
138.649650
 30
0.0
  0
LWPOLYLINE
  5
2d4
100
AcDbEntity
  8
Layer_1
 62
7
100
AcDbPolyline
 90
2
 70
0
 10
255.914270
 20
139.202630
 30
0.0
 10
256.174270
 20
138.888650
 30
0.0
  0
LWPOLYLINE
  5
2d5
100
AcDbEntity
  8
Layer_1
 62
7
100
AcDbPolyline
 90
2
 70
0
 10
255.744270
 20
139.570640
 30
0.0
 10
255.914270
 20
139.202630
 30
0.0
  0
LWPOLYLINE
  5
2d6
100
AcDbEntity
  8
Layer_1
 62
7
100
AcDbPolyline
 90
2
 70
0
 10
255.664260
 20
139.971640
 30
0.0
 10
255.744260
 20
139.570640
 30
0.0
  0
LWPOLYLINE
  5
2d7
100
AcDbEntity
  8
Layer_1
 62
7
100
AcDbPolyline
 90
2
 70
0
 10
255.694270
 20
140.377640
 30
0.0
 10
255.664270
 20
139.971640
 30
0.0
  0
LWPOLYLINE
  5
2d8
100
AcDbEntity
  8
Layer_1
 62
7
100
AcDbPolyline
 90
2
 70
0
 10
255.814280
 20
140.764650
 30
0.0
 10
255.694270
 20
140.377640
 30
0.0
  0
LWPOLYLINE
  5
2d9
100
AcDbEntity
  8
Layer_1
 62
7
100
AcDbPolyline
 90
2
 70
0
 10
256.034280
 20
141.108630
 30
0.0
 10
255.814280
 20
140.764650
 30
0.0
  0
LWPOLYLINE
  5
2da
100
AcDbEntity
  8
Layer_1
 62
7
100
AcDbPolyline
 90
2
 70
0
 10
256.334270
 20
141.387640
 30
0.0
 10
256.034280
 20
141.108630
 30
0.0
  0
LWPOLYLINE
  5
2db
100
AcDbEntity
  8
Layer_1
 62
7
100
AcDbPolyline
 90
2
 70
0
 10
256.694260
 20
141.583640
 30
0.0
 10
256.334270
 20
141.387640
 30
0.0
  0
LWPOLYLINE
  5
2dc
100
AcDbEntity
  8
Layer_1
 62
7
100
AcDbPolyline
 90
2
 70
0
 10
257.084280
 20
141.685640
 30
0.0
 10
256.694260
 20
141.583640
 30
0.0
  0
LWPOLYLINE
  5
2dd
100
AcDbEntity
  8
Layer_1
 62
7
100
AcDbPolyline
 90
2
 70
0
 10
257.494280
 20
141.685640
 30
0.0
 10
257.084280
 20
141.685640
 30
0.0
  0
LWPOLYLINE
  5
2de
100
AcDbEntity
  8
Layer_1
 62
7
100
AcDbPolyline
 90
2
 70
0
 10
257.884280
 20
141.583640
 30
0.0
 10
257.494280
 20
141.685640
 30
0.0
  0
LWPOLYLINE
  5
2df
100
AcDbEntity
  8
Layer_1
 62
7
100
AcDbPolyline
 90
2
 70
0
 10
258.244270
 20
141.387640
 30
0.0
 10
257.884280
 20
141.583640
 30
0.0
  0
LWPOLYLINE
  5
2e0
100
AcDbEntity
  8
Layer_1
 62
7
100
AcDbPolyline
 90
2
 70
0
 10
258.544280
 20
141.108630
 30
0.0
 10
258.244270
 20
141.387640
 30
0.0
  0
LWPOLYLINE
  5
2e1
100
AcDbEntity
  8
Layer_1
 62
7
100
AcDbPolyline
 90
2
 70
0
 10
258.754280
 20
140.764650
 30
0.0
 10
258.544280
 20
141.108630
 30
0.0
  0
LWPOLYLINE
  5
2e2
100
AcDbEntity
  8
Layer_1
 62
7
100
AcDbPolyline
 90
2
 70
0
 10
258.884270
 20
140.377640
 30
0.0
 10
258.754280
 20
140.764650
 30
0.0
  0
LWPOLYLINE
  5
2e3
100
AcDbEntity
  8
Layer_1
 62
7
100
AcDbPolyline
 90
2
 70
0
 10
258.914270
 20
139.971640
 30
0.0
 10
258.884270
 20
140.377640
 30
0.0
  0
LWPOLYLINE
  5
2e4
100
AcDbEntity
  8
Layer_1
 62
7
100
AcDbPolyline
 90
2
 70
0
 10
258.834260
 20
139.570640
 30
0.0
 10
258.914260
 20
139.971640
 30
0.0
  0
LWPOLYLINE
  5
2e5
100
AcDbEntity
  8
Layer_1
 62
7
100
AcDbPolyline
 90
2
 70
0
 10
258.664270
 20
139.202630
 30
0.0
 10
258.834260
 20
139.570640
 30
0.0
  0
LWPOLYLINE
  5
2e6
100
AcDbEntity
  8
Layer_1
 62
7
100
AcDbPolyline
 90
2
 70
0
 10
258.404260
 20
138.888650
 30
0.0
 10
258.664270
 20
139.202630
 30
0.0
  0
LWPOLYLINE
  5
2e7
100
AcDbEntity
  8
Layer_1
 62
7
100
AcDbPolyline
 90
2
 70
0
 10
258.074270
 20
138.649650
 30
0.0
 10
258.404260
 20
138.888650
 30
0.0
  0
LWPOLYLINE
  5
2e8
100
AcDbEntity
  8
Layer_1
 62
7
100
AcDbPolyline
 90
2
 70
0
 10
257.694280
 20
138.499630
 30
0.0
 10
258.074270
 20
138.649650
 30
0.0
  0
LWPOLYLINE
  5
2e9
100
AcDbEntity
  8
Layer_1
 62
7
100
AcDbPolyline
 90
2
 70
0
 10
257.284280
 20
138.448640
 30
0.0
 10
257.694280
 20
138.499640
 30
0.0
  0
LWPOLYLINE
  5
2ea
100
AcDbEntity
  8
Layer_1
 62
7
100
AcDbPolyline
 90
2
 70
0
 10
256.884280
 20
83.499640
 30
0.0
 10
257.284280
 20
83.448640
 30
0.0
  0
LWPOLYLINE
  5
2eb
100
AcDbEntity
  8
Layer_1
 62
7
100
AcDbPolyline
 90
2
 70
0
 10
256.504260
 20
83.649640
 30
0.0
 10
256.884280
 20
83.499640
 30
0.0
  0
LWPOLYLINE
  5
2ec
100
AcDbEntity
  8
Layer_1
 62
7
100
AcDbPolyline
 90
2
 70
0
 10
256.174270
 20
83.888640
 30
0.0
 10
256.504260
 20
83.649640
 30
0.0
  0
LWPOLYLINE
  5
2ed
100
AcDbEntity
  8
Layer_1
 62
7
100
AcDbPolyline
 90
2
 70
0
 10
255.914270
 20
84.202640
 30
0.0
 10
256.174270
 20
83.888640
 30
0.0
  0
LWPOLYLINE
  5
2ee
100
AcDbEntity
  8
Layer_1
 62
7
100
AcDbPolyline
 90
2
 70
0
 10
255.744270
 20
84.570650
 30
0.0
 10
255.914270
 20
84.202640
 30
0.0
  0
LWPOLYLINE
  5
2ef
100
AcDbEntity
  8
Layer_1
 62
7
100
AcDbPolyline
 90
2
 70
0
 10
255.664260
 20
84.971650
 30
0.0
 10
255.744260
 20
84.570650
 30
0.0
  0
LWPOLYLINE
  5
2f0
100
AcDbEntity
  8
Layer_1
 62
7
100
AcDbPolyline
 90
2
 70
0
 10
255.694270
 20
85.377660
 30
0.0
 10
255.664270
 20
84.971650
 30
0.0
  0
LWPOLYLINE
  5
2f1
100
AcDbEntity
  8
Layer_1
 62
7
100
AcDbPolyline
 90
2
 70
0
 10
255.814280
 20
85.764640
 30
0.0
 10
255.694270
 20
85.377660
 30
0.0
  0
LWPOLYLINE
  5
2f2
100
AcDbEntity
  8
Layer_1
 62
7
100
AcDbPolyline
 90
2
 70
0
 10
256.034280
 20
86.108650
 30
0.0
 10
255.814280
 20
85.764640
 30
0.0
  0
LWPOLYLINE
  5
2f3
100
AcDbEntity
  8
Layer_1
 62
7
100
AcDbPolyline
 90
2
 70
0
 10
256.334270
 20
86.387650
 30
0.0
 10
256.034280
 20
86.108650
 30
0.0
  0
LWPOLYLINE
  5
2f4
100
AcDbEntity
  8
Layer_1
 62
7
100
AcDbPolyline
 90
2
 70
0
 10
256.694260
 20
86.583650
 30
0.0
 10
256.334270
 20
86.387650
 30
0.0
  0
LWPOLYLINE
  5
2f5
100
AcDbEntity
  8
Layer_1
 62
7
100
AcDbPolyline
 90
2
 70
0
 10
257.084280
 20
86.685650
 30
0.0
 10
256.694260
 20
86.583650
 30
0.0
  0
LWPOLYLINE
  5
2f6
100
AcDbEntity
  8
Layer_1
 62
7
100
AcDbPolyline
 90
2
 70
0
 10
257.494280
 20
86.685650
 30
0.0
 10
257.084280
 20
86.685650
 30
0.0
  0
LWPOLYLINE
  5
2f7
100
AcDbEntity
  8
Layer_1
 62
7
100
AcDbPolyline
 90
2
 70
0
 10
257.884280
 20
86.583650
 30
0.0
 10
257.494280
 20
86.685650
 30
0.0
  0
LWPOLYLINE
  5
2f8
100
AcDbEntity
  8
Layer_1
 62
7
100
AcDbPolyline
 90
2
 70
0
 10
258.244270
 20
86.387650
 30
0.0
 10
257.884280
 20
86.583650
 30
0.0
  0
LWPOLYLINE
  5
2f9
100
AcDbEntity
  8
Layer_1
 62
7
100
AcDbPolyline
 90
2
 70
0
 10
258.544280
 20
86.108650
 30
0.0
 10
258.244270
 20
86.387650
 30
0.0
  0
LWPOLYLINE
  5
2fa
100
AcDbEntity
  8
Layer_1
 62
7
100
AcDbPolyline
 90
2
 70
0
 10
258.754280
 20
85.764640
 30
0.0
 10
258.544280
 20
86.108650
 30
0.0
  0
LWPOLYLINE
  5
2fb
100
AcDbEntity
  8
Layer_1
 62
7
100
AcDbPolyline
 90
2
 70
0
 10
258.884270
 20
85.377660
 30
0.0
 10
258.754280
 20
85.764640
 30
0.0
  0
LWPOLYLINE
  5
2fc
100
AcDbEntity
  8
Layer_1
 62
7
100
AcDbPolyline
 90
2
 70
0
 10
258.914270
 20
84.971650
 30
0.0
 10
258.884270
 20
85.377660
 30
0.0
  0
LWPOLYLINE
  5
2fd
100
AcDbEntity
  8
Layer_1
 62
7
100
AcDbPolyline
 90
2
 70
0
 10
258.834260
 20
84.570650
 30
0.0
 10
258.914260
 20
84.971650
 30
0.0
  0
LWPOLYLINE
  5
2fe
100
AcDbEntity
  8
Layer_1
 62
7
100
AcDbPolyline
 90
2
 70
0
 10
258.664270
 20
84.202640
 30
0.0
 10
258.834260
 20
84.570650
 30
0.0
  0
LWPOLYLINE
  5
2ff
100
AcDbEntity
  8
Layer_1
 62
7
100
AcDbPolyline
 90
2
 70
0
 10
258.404260
 20
83.888640
 30
0.0
 10
258.664270
 20
84.202640
 30
0.0
  0
LWPOLYLINE
  5
300
100
AcDbEntity
  8
Layer_1
 62
7
100
AcDbPolyline
 90
2
 70
0
 10
258.074270
 20
83.649640
 30
0.0
 10
258.404260
 20
83.888640
 30
0.0
  0
LWPOLYLINE
  5
301
100
AcDbEntity
  8
Layer_1
 62
7
100
AcDbPolyline
 90
2
 70
0
 10
257.694280
 20
83.499640
 30
0.0
 10
258.074270
 20
83.649640
 30
0.0
  0
LWPOLYLINE
  5
302
100
AcDbEntity
  8
Layer_1
 62
7
100
AcDbPolyline
 90
2
 70
0
 10
257.284280
 20
83.448660
 30
0.0
 10
257.694280
 20
83.499660
 30
0.0
  0
LWPOLYLINE
  5
303
100
AcDbEntity
  8
Layer_1
 62
7
100
AcDbPolyline
 90
4
 70
1
 10
249.314260
 20
80.948640
 30
0.0
 10
253.064280
 20
80.948640
 30
0.0
 10
253.064280
 20
78.198640
 30
0.0
 10
249.314260
 20
78.198640
 30
0.0
  0
LWPOLYLINE
  5
304
100
AcDbEntity
  8
Layer_1
 62
7
100
AcDbPolyline
 90
4
 70
1
 10
257.314280
 20
78.198640
 30
0.0
 10
257.314280
 20
80.948640
 30
0.0
 10
261.064280
 20
80.948640
 30
0.0
 10
261.064280
 20
78.198640
 30
0.0
  0
LWPOLYLINE
  5
305
100
AcDbEntity
  8
Layer_1
 62
7
100
AcDbPolyline
 90
5
 70
0
 10
247.164260
 20
148.698630
 30
0.0
 10
247.164260
 20
104.198660
 30
0.0
 10
231.664280
 20
104.198660
 30
0.0
 10
231.664280
 20
93.948650
 30
0.0
 10
245.064260
 20
93.948650
 30
0.0
  0
LWPOLYLINE
  5
306
100
AcDbEntity
  8
Layer_1
 62
7
100
AcDbPolyline
 90
2
 70
0
 10
245.064260
 20
74.448650
 30
0.0
 10
245.064260
 20
93.948650
 30
0.0
  0
LWPOLYLINE
  5
307
100
AcDbEntity
  8
Layer_1
 62
7
100
AcDbPolyline
 90
2
 70
0
 10
282.814270
 20
74.448650
 30
0.0
 10
245.064260
 20
74.448650
 30
0.0
  0
LWPOLYLINE
  5
308
100
AcDbEntity
  8
Layer_1
 62
7
100
AcDbPolyline
 90
2
 70
0
 10
247.164260
 20
148.698630
 30
0.0
 10
285.814270
 20
148.698630
 30
0.0
  0
LWPOLYLINE
  5
309
100
AcDbEntity
  8
Layer_1
 62
7
100
AcDbPolyline
 90
2
 70
0
 10
282.814270
 20
83.448660
 30
0.0
 10
282.814270
 20
74.448650
 30
0.0
  0
LWPOLYLINE
  5
30a
100
AcDbEntity
  8
Layer_1
 62
7
100
AcDbPolyline
 90
2
 70
0
 10
285.814270
 20
83.448660
 30
0.0
 10
282.814270
 20
83.448660
 30
0.0
  0
LWPOLYLINE
  5
30b
100
AcDbEntity
  8
Layer_1
 62
7
100
AcDbPolyline
 90
2
 70
0
 10
285.814270
 20
88.698650
 30
0.0
 10
285.814270
 20
83.448660
 30
0.0
  0
LWPOLYLINE
  5
30c
100
AcDbEntity
  8
Layer_1
 62
7
100
AcDbPolyline
 90
2
 70
0
 10
282.814270
 20
88.698650
 30
0.0
 10
285.814270
 20
88.698650
 30
0.0
  0
LWPOLYLINE
  5
30d
100
AcDbEntity
  8
Layer_1
 62
7
100
AcDbPolyline
 90
2
 70
0
 10
282.814270
 20
98.448660
 30
0.0
 10
282.814270
 20
88.698650
 30
0.0
  0
LWPOLYLINE
  5
30e
100
AcDbEntity
  8
Layer_1
 62
7
100
AcDbPolyline
 90
2
 70
0
 10
285.814270
 20
98.448660
 30
0.0
 10
282.814270
 20
98.448660
 30
0.0
  0
LWPOLYLINE
  5
30f
100
AcDbEntity
  8
Layer_1
 62
7
100
AcDbPolyline
 90
2
 70
0
 10
285.814270
 20
108.698640
 30
0.0
 10
285.814270
 20
98.448660
 30
0.0
  0
LWPOLYLINE
  5
310
100
AcDbEntity
  8
Layer_1
 62
7
100
AcDbPolyline
 90
2
 70
0
 10
282.814270
 20
108.698640
 30
0.0
 10
285.814270
 20
108.698640
 30
0.0
  0
LWPOLYLINE
  5
311
100
AcDbEntity
  8
Layer_1
 62
7
100
AcDbPolyline
 90
2
 70
0
 10
282.814270
 20
118.448640
 30
0.0
 10
282.814270
 20
108.698640
 30
0.0
  0
LWPOLYLINE
  5
312
100
AcDbEntity
  8
Layer_1
 62
7
100
AcDbPolyline
 90
2
 70
0
 10
285.814270
 20
118.448640
 30
0.0
 10
282.814270
 20
118.448640
 30
0.0
  0
LWPOLYLINE
  5
313
100
AcDbEntity
  8
Layer_1
 62
7
100
AcDbPolyline
 90
2
 70
0
 10
285.814270
 20
128.698650
 30
0.0
 10
285.814270
 20
118.448640
 30
0.0
  0
LWPOLYLINE
  5
314
100
AcDbEntity
  8
Layer_1
 62
7
100
AcDbPolyline
 90
2
 70
0
 10
282.814270
 20
128.698650
 30
0.0
 10
285.814270
 20
128.698650
 30
0.0
  0
LWPOLYLINE
  5
315
100
AcDbEntity
  8
Layer_1
 62
7
100
AcDbPolyline
 90
2
 70
0
 10
282.814270
 20
138.448640
 30
0.0
 10
282.814270
 20
128.698650
 30
0.0
  0
LWPOLYLINE
  5
316
100
AcDbEntity
  8
Layer_1
 62
7
100
AcDbPolyline
 90
2
 70
0
 10
285.814270
 20
138.448640
 30
0.0
 10
282.814270
 20
138.448640
 30
0.0
  0
LWPOLYLINE
  5
317
100
AcDbEntity
  8
Layer_1
 62
7
100
AcDbPolyline
 90
2
 70
0
 10
285.814270
 20
148.698630
 30
0.0
 10
285.814270
 20
138.448640
 30
0.0
  0
LWPOLYLINE
  5
318
100
AcDbEntity
  8
Layer_1
 62
7
100
AcDbPolyline
 90
2
 70
0
 10
250.680870
 20
168.268480
 30
0.0
 10
247.170880
 20
205.887485
 30
0.0
  0
LWPOLYLINE
  5
319
100
AcDbEntity
  8
Layer_1
 62
7
100
AcDbPolyline
 90
2
 70
0
 10
250.680870
 20
158.137500
 30
0.0
 10
250.680870
 20
168.268480
 30
0.0
  0
LWPOLYLINE
  5
31a
100
AcDbEntity
  8
Layer_1
 62
7
100
AcDbPolyline
 90
2
 70
0
 10
240.430860
 20
158.137500
 30
0.0
 10
250.680870
 20
158.137500
 30
0.0
  0
LWPOLYLINE
  5
31b
100
AcDbEntity
  8
Layer_1
 62
7
100
AcDbPolyline
 90
2
 70
0
 10
240.430860
 20
168.137480
 30
0.0
 10
240.430860
 20
158.137500
 30
0.0
  0
LWPOLYLINE
  5
31c
100
AcDbEntity
  8
Layer_1
 62
7
100
AcDbPolyline
 90
2
 70
0
 10
227.430880
 20
168.137480
 30
0.0
 10
240.430860
 20
168.137480
 30
0.0
  0
LWPOLYLINE
  5
31d
100
AcDbEntity
  8
Layer_1
 62
7
100
AcDbPolyline
 90
2
 70
0
 10
227.430880
 20
176.137480
 30
0.0
 10
227.430880
 20
168.137480
 30
0.0
  0
LWPOLYLINE
  5
31e
100
AcDbEntity
  8
Layer_1
 62
7
100
AcDbPolyline
 90
2
 70
0
 10
224.680880
 20
176.137480
 30
0.0
 10
227.430880
 20
176.137480
 30
0.0
  0
LWPOLYLINE
  5
31f
100
AcDbEntity
  8
Layer_1
 62
7
100
AcDbPolyline
 90
2
 70
0
 10
224.680880
 20
168.137480
 30
0.0
 10
224.680880
 20
176.137480
 30
0.0
  0
LWPOLYLINE
  5
320
100
AcDbEntity
  8
Layer_1
 62
7
100
AcDbPolyline
 90
2
 70
0
 10
203.930880
 20
168.137480
 30
0.0
 10
224.680880
 20
168.137480
 30
0.0
  0
LWPOLYLINE
  5
321
100
AcDbEntity
  8
Layer_1
 62
7
100
AcDbPolyline
 90
11
 70
0
 10
203.930880
 20
168.137480
 30
0.0
 10
203.930880
 20
205.887485
 30
0.0
 10
211.930870
 20
205.887485
 30
0.0
 10
211.930870
 20
208.887485
 30
0.0
 10
220.180870
 20
208.887485
 30
0.0
 10
220.180870
 20
205.887485
 30
0.0
 10
228.930880
 20
205.887485
 30
0.0
 10
228.930880
 20
208.887485
 30
0.0
 10
237.180880
 20
208.887485
 30
0.0
 10
237.180880
 20
205.887485
 30
0.0
 10
247.170880
 20
205.887485
 30
0.0
  0
LWPOLYLINE
  5
322
100
AcDbEntity
  8
Layer_1
 62
7
100
AcDbPolyline
 90
2
 70
0
 10
270.105550
 20
335.794455
 30
0.0
 10
240.605540
 20
335.794455
 30
0.0
  0
LWPOLYLINE
  5
323
100
AcDbEntity
  8
Layer_1
 62
7
100
AcDbPolyline
 90
2
 70
0
 10
270.105550
 20
333.044455
 30
0.0
 10
270.105550
 20
335.794455
 30
0.0
  0
LWPOLYLINE
  5
324
100
AcDbEntity
  8
Layer_1
 62
7
100
AcDbPolyline
 90
2
 70
0
 10
262.105550
 20
333.044455
 30
0.0
 10
270.105550
 20
333.044455
 30
0.0
  0
LWPOLYLINE
  5
325
100
AcDbEntity
  8
Layer_1
 62
7
100
AcDbPolyline
 90
2
 70
0
 10
262.105550
 20
327.867455
 30
0.0
 10
262.105550
 20
333.044455
 30
0.0
  0
LWPOLYLINE
  5
326
100
AcDbEntity
  8
Layer_1
 62
7
100
AcDbPolyline
 90
2
 70
0
 10
264.105540
 20
325.867445
 30
0.0
 10
262.105550
 20
327.867455
 30
0.0
  0
LWPOLYLINE
  5
327
100
AcDbEntity
  8
Layer_1
 62
7
100
AcDbPolyline
 90
3
 70
0
 10
264.105540
 20
325.867445
 30
0.0
 10
264.105540
 20
182.970460
 30
0.0
 10
262.105550
 20
180.970450
 30
0.0
  0
LWPOLYLINE
  5
328
100
AcDbEntity
  8
Layer_1
 62
7
100
AcDbPolyline
 90
2
 70
0
 10
262.105550
 20
172.794450
 30
0.0
 10
262.105550
 20
180.970450
 30
0.0
  0
LWPOLYLINE
  5
329
100
AcDbEntity
  8
Layer_1
 62
7
100
AcDbPolyline
 90
2
 70
0
 10
275.175550
 20
358.544425
 30
0.0
 10
264.675560
 20
348.044445
 30
0.0
  0
LWPOLYLINE
  5
32a
100
AcDbEntity
  8
Layer_1
 62
7
100
AcDbPolyline
 90
8
 70
0
 10
262.105550
 20
172.794450
 30
0.0
 10
266.355560
 20
172.794450
 30
0.0
 10
266.355560
 20
175.794460
 30
0.0
 10
270.105550
 20
175.794460
 30
0.0
 10
270.105550
 20
172.794450
 30
0.0
 10
274.355550
 20
172.794450
 30
0.0
 10
274.355550
 20
175.794460
 30
0.0
 10
278.355550
 20
175.794460
 30
0.0
  0
LWPOLYLINE
  5
32b
100
AcDbEntity
  8
Layer_1
 62
7
100
AcDbPolyline
 90
2
 70
0
 10
278.355550
 20
348.294455
 30
0.0
 10
278.355550
 20
175.794460
 30
0.0
  0
LWPOLYLINE
  5
32c
100
AcDbEntity
  8
Layer_1
 62
7
100
AcDbPolyline
 90
2
 70
0
 10
288.355550
 20
348.294455
 30
0.0
 10
278.355550
 20
348.294455
 30
0.0
  0
LWPOLYLINE
  5
32d
100
AcDbEntity
  8
Layer_1
 62
7
100
AcDbPolyline
 90
2
 70
0
 10
288.355550
 20
358.544425
 30
0.0
 10
288.355550
 20
348.294455
 30
0.0
  0
LWPOLYLINE
  5
32e
100
AcDbEntity
  8
Layer_1
 62
7
100
AcDbPolyline
 90
2
 70
0
 10
275.175550
 20
358.544425
 30
0.0
 10
288.355550
 20
358.544425
 30
0.0
  0
LWPOLYLINE
  5
32f
100
AcDbEntity
  8
Layer_1
 62
7
100
AcDbPolyline
 90
2
 70
0
 10
240.605540
 20
348.044445
 30
0.0
 10
264.675560
 20
348.044445
 30
0.0
  0
LWPOLYLINE
  5
330
100
AcDbEntity
  8
Layer_1
 62
7
100
AcDbPolyline
 90
2
 70
0
 10
240.605540
 20
344.544435
 30
0.0
 10
240.605540
 20
348.044445
 30
0.0
  0
LWPOLYLINE
  5
331
100
AcDbEntity
  8
Layer_1
 62
7
100
AcDbPolyline
 90
2
 70
0
 10
237.605560
 20
344.544435
 30
0.0
 10
240.605540
 20
344.544435
 30
0.0
  0
LWPOLYLINE
  5
332
100
AcDbEntity
  8
Layer_1
 62
7
100
AcDbPolyline
 90
2
 70
0
 10
237.605560
 20
339.294435
 30
0.0
 10
237.605560
 20
344.544435
 30
0.0
  0
LWPOLYLINE
  5
333
100
AcDbEntity
  8
Layer_1
 62
7
100
AcDbPolyline
 90
2
 70
0
 10
240.605540
 20
339.294435
 30
0.0
 10
237.605560
 20
339.294435
 30
0.0
  0
LWPOLYLINE
  5
334
100
AcDbEntity
  8
Layer_1
 62
7
100
AcDbPolyline
 90
2
 70
0
 10
240.605540
 20
335.794455
 30
0.0
 10
240.605540
 20
339.294435
 30
0.0
  0
LWPOLYLINE
  5
335
100
AcDbEntity
  8
Layer_1
 62
7
100
AcDbPolyline
 90
2
 70
0
 10
49.381177
 20
180.188200
 30
0.0
 10
46.631177
 20
180.188200
 30
0.0
  0
LWPOLYLINE
  5
336
100
AcDbEntity
  8
Layer_1
 62
7
100
AcDbPolyline
 90
2
 70
0
 10
49.381177
 20
182.938200
 30
0.0
 10
49.381177
 20
180.188200
 30
0.0
  0
LWPOLYLINE
  5
337
100
AcDbEntity
  8
Layer_1
 62
7
100
AcDbPolyline
 90
2
 70
0
 10
46.631177
 20
182.938200
 30
0.0
 10
49.381177
 20
182.938200
 30
0.0
  0
LWPOLYLINE
  5
338
100
AcDbEntity
  8
Layer_1
 62
7
100
AcDbPolyline
 90
2
 70
0
 10
46.631177
 20
180.188200
 30
0.0
 10
46.631177
 20
182.938200
 30
0.0
  0
LWPOLYLINE
  5
339
100
AcDbEntity
  8
Layer_1
 62
7
100
AcDbPolyline
 90
9
 70
0
 10
39.681187
 20
179.438210
 30
0.0
 10
36.681183
 20
179.438210
 30
0.0
 10
36.681183
 20
183.688210
 30
0.0
 10
39.681187
 20
183.688210
 30
0.0
 10
39.681187
 20
187.438210
 30
0.0
 10
36.681183
 20
187.438210
 30
0.0
 10
36.681183
 20
192.688200
 30
0.0
 10
39.681187
 20
192.688200
 30
0.0
 10
39.681187
 20
196.188210
 30
0.0
  0
LWPOLYLINE
  5
33a
100
AcDbEntity
  8
Layer_1
 62
7
100
AcDbPolyline
 90
2
 70
0
 10
60.871177
 20
196.188210
 30
0.0
 10
39.681187
 20
196.188210
 30
0.0
  0
LWPOLYLINE
  5
33b
100
AcDbEntity
  8
Layer_1
 62
7
100
AcDbPolyline
 90
3
 70
0
 10
60.871177
 20
196.188210
 30
0.0
 10
60.871177
 20
186.638210
 30
0.0
 10
55.496187
 20
186.638210
 30
0.0
  0
LWPOLYLINE
  5
33c
100
AcDbEntity
  8
Layer_1
 62
7
100
AcDbPolyline
 90
2
 70
0
 10
54.687287
 20
180.498210
 30
0.0
 10
55.496187
 20
180.388200
 30
0.0
  0
LWPOLYLINE
  5
33d
100
AcDbEntity
  8
Layer_1
 62
7
100
AcDbPolyline
 90
2
 70
0
 10
53.933677
 20
180.808200
 30
0.0
 10
54.687287
 20
180.498210
 30
0.0
  0
LWPOLYLINE
  5
33e
100
AcDbEntity
  8
Layer_1
 62
7
100
AcDbPolyline
 90
2
 70
0
 10
53.286377
 20
181.308210
 30
0.0
 10
53.933677
 20
180.808200
 30
0.0
  0
LWPOLYLINE
  5
33f
100
AcDbEntity
  8
Layer_1
 62
7
100
AcDbPolyline
 90
2
 70
0
 10
52.789777
 20
181.958210
 30
0.0
 10
53.286377
 20
181.308210
 30
0.0
  0
LWPOLYLINE
  5
340
100
AcDbEntity
  8
Layer_1
 62
7
100
AcDbPolyline
 90
2
 70
0
 10
52.477577
 20
182.708200
 30
0.0
 10
52.789777
 20
181.958210
 30
0.0
  0
LWPOLYLINE
  5
341
100
AcDbEntity
  8
Layer_1
 62
7
100
AcDbPolyline
 90
2
 70
0
 10
52.371177
 20
183.518190
 30
0.0
 10
52.477577
 20
182.708200
 30
0.0
  0
LWPOLYLINE
  5
342
100
AcDbEntity
  8
Layer_1
 62
7
100
AcDbPolyline
 90
2
 70
0
 10
52.477577
 20
184.328210
 30
0.0
 10
52.371177
 20
183.518190
 30
0.0
  0
LWPOLYLINE
  5
343
100
AcDbEntity
  8
Layer_1
 62
7
100
AcDbPolyline
 90
2
 70
0
 10
52.789777
 20
185.078200
 30
0.0
 10
52.477577
 20
184.328210
 30
0.0
  0
LWPOLYLINE
  5
344
100
AcDbEntity
  8
Layer_1
 62
7
100
AcDbPolyline
 90
2
 70
0
 10
53.286377
 20
185.728200
 30
0.0
 10
52.789777
 20
185.078200
 30
0.0
  0
LWPOLYLINE
  5
345
100
AcDbEntity
  8
Layer_1
 62
7
100
AcDbPolyline
 90
2
 70
0
 10
53.933677
 20
186.228210
 30
0.0
 10
53.286377
 20
185.728200
 30
0.0
  0
LWPOLYLINE
  5
346
100
AcDbEntity
  8
Layer_1
 62
7
100
AcDbPolyline
 90
2
 70
0
 10
54.687287
 20
186.538200
 30
0.0
 10
53.933677
 20
186.228210
 30
0.0
  0
LWPOLYLINE
  5
347
100
AcDbEntity
  8
Layer_1
 62
7
100
AcDbPolyline
 90
2
 70
0
 10
55.496187
 20
186.638210
 30
0.0
 10
54.687287
 20
186.538200
 30
0.0
  0
LWPOLYLINE
  5
348
100
AcDbEntity
  8
Layer_1
 62
7
100
AcDbPolyline
 90
2
 70
0
 10
60.871177
 20
180.388200
 30
0.0
 10
55.496187
 20
180.388200
 30
0.0
  0
LWPOLYLINE
  5
349
100
AcDbEntity
  8
Layer_1
 62
7
100
AcDbPolyline
 90
2
 70
0
 10
60.871177
 20
175.938200
 30
0.0
 10
60.871177
 20
180.388200
 30
0.0
  0
LWPOLYLINE
  5
34a
100
AcDbEntity
  8
Layer_1
 62
7
100
AcDbPolyline
 90
2
 70
0
 10
39.681187
 20
175.938200
 30
0.0
 10
60.871177
 20
175.938200
 30
0.0
  0
LWPOLYLINE
  5
34b
100
AcDbEntity
  8
Layer_1
 62
7
100
AcDbPolyline
 90
2
 70
0
 10
39.681187
 20
179.438210
 30
0.0
 10
39.681187
 20
175.938200
 30
0.0
  0
LWPOLYLINE
  5
34c
100
AcDbEntity
  8
Layer_1
 62
7
100
AcDbPolyline
 90
11
 70
0
 10
28.034716
 20
319.414314
 30
0.0
 10
28.087646
 20
325.663354
 30
0.0
 10
31.085993
 20
325.636654
 30
0.0
 10
31.123313
 20
329.388274
 30
0.0
 10
28.115643
 20
329.411374
 30
0.0
 10
28.162343
 20
334.661444
 30
0.0
 10
31.160699
 20
334.634744
 30
0.0
 10
31.191778
 20
338.134804
 30
0.0
 10
40.381019
 20
338.054404
 30
0.0
 10
40.343039
 20
333.156534
 30
0.0
 10
39.346663
 20
333.166934
 30
0.0
  0
LWPOLYLINE
  5
34d
100
AcDbEntity
  8
Layer_1
 62
7
100
AcDbPolyline
 90
2
 70
0
 10
39.269558
 20
324.815324
 30
0.0
 10
39.346658
 20
333.166744
 30
0.0
  0
LWPOLYLINE
  5
34e
100
AcDbEntity
  8
Layer_1
 62
7
100
AcDbPolyline
 90
2
 70
0
 10
38.025531
 20
324.824484
 30
0.0
 10
39.269559
 20
324.815484
 30
0.0
  0
LWPOLYLINE
  5
34f
100
AcDbEntity
  8
Layer_1
 62
7
100
AcDbPolyline
 90
2
 70
0
 10
38.003759
 20
322.075434
 30
0.0
 10
38.025529
 20
324.824484
 30
0.0
  0
LWPOLYLINE
  5
350
100
AcDbEntity
  8
Layer_1
 62
7
100
AcDbPolyline
 90
2
 70
0
 10
39.247780
 20
322.066274
 30
0.0
 10
38.003757
 20
322.075274
 30
0.0
  0
LWPOLYLINE
  5
351
100
AcDbEntity
  8
Layer_1
 62
7
100
AcDbPolyline
 90
2
 70
0
 10
39.247780
 20
322.066274
 30
0.0
 10
39.240880
 20
321.415854
 30
0.0
  0
LWPOLYLINE
  5
352
100
AcDbEntity
  8
Layer_1
 62
7
100
AcDbPolyline
 90
2
 70
0
 10
40.237284
 20
321.405654
 30
0.0
 10
39.240939
 20
321.416054
 30
0.0
  0
LWPOLYLINE
  5
353
100
AcDbEntity
  8
Layer_1
 62
7
100
AcDbPolyline
 90
2
 70
0
 10
40.209298
 20
318.405104
 30
0.0
 10
40.237278
 20
321.405654
 30
0.0
  0
LWPOLYLINE
  5
354
100
AcDbEntity
  8
Layer_1
 62
7
100
AcDbPolyline
 90
2
 70
0
 10
52.212023
 20
318.301634
 30
0.0
 10
40.209298
 20
318.405104
 30
0.0
  0
LWPOLYLINE
  5
355
100
AcDbEntity
  8
Layer_1
 62
7
100
AcDbPolyline
 90
2
 70
0
 10
52.171613
 20
314.050454
 30
0.0
 10
52.212023
 20
318.301634
 30
0.0
  0
LWPOLYLINE
  5
356
100
AcDbEntity
  8
Layer_1
 62
7
100
AcDbPolyline
 90
2
 70
0
 10
30.988946
 20
314.237964
 30
0.0
 10
52.171609
 20
314.050454
 30
0.0
  0
LWPOLYLINE
  5
357
100
AcDbEntity
  8
Layer_1
 62
7
100
AcDbPolyline
 90
2
 70
0
 10
31.033106
 20
319.387464
 30
0.0
 10
28.034716
 20
319.414264
 30
0.0
  0
LWPOLYLINE
  5
358
100
AcDbEntity
  8
Layer_1
 62
7
100
AcDbPolyline
 90
2
 70
0
 10
31.033106
 20
319.387464
 30
0.0
 10
30.988946
 20
314.237964
 30
0.0
  0
LWPOLYLINE
  5
359
100
AcDbEntity
  8
Layer_1
 62
7
100
AcDbPolyline
 90
2
 70
0
 10
37.131364
 20
300.043363
 30
0.0
 10
37.131364
 20
302.043322
 30
0.0
  0
LWPOLYLINE
  5
35a
100
AcDbEntity
  8
Layer_1
 62
7
100
AcDbPolyline
 90
2
 70
0
 10
39.131374
 20
300.043363
 30
0.0
 10
37.131364
 20
300.043363
 30
0.0
  0
LWPOLYLINE
  5
35b
100
AcDbEntity
  8
Layer_1
 62
7
100
AcDbPolyline
 90
2
 70
0
 10
39.131374
 20
239.793372
 30
0.0
 10
39.131374
 20
300.043363
 30
0.0
  0
LWPOLYLINE
  5
35c
100
AcDbEntity
  8
Layer_1
 62
7
100
AcDbPolyline
 90
2
 70
0
 10
37.131364
 20
239.793372
 30
0.0
 10
39.131374
 20
239.793372
 30
0.0
  0
LWPOLYLINE
  5
35d
100
AcDbEntity
  8
Layer_1
 62
7
100
AcDbPolyline
 90
2
 70
0
 10
37.131364
 20
236.793362
 30
0.0
 10
37.131364
 20
239.793372
 30
0.0
  0
LWPOLYLINE
  5
35e
100
AcDbEntity
  8
Layer_1
 62
7
100
AcDbPolyline
 90
2
 70
0
 10
33.881384
 20
236.793362
 30
0.0
 10
37.131364
 20
236.793362
 30
0.0
  0
LWPOLYLINE
  5
35f
100
AcDbEntity
  8
Layer_1
 62
7
100
AcDbPolyline
 90
2
 70
0
 10
33.881384
 20
239.793372
 30
0.0
 10
33.881384
 20
236.793362
 30
0.0
  0
LWPOLYLINE
  5
360
100
AcDbEntity
  8
Layer_1
 62
7
100
AcDbPolyline
 90
2
 70
0
 10
31.881374
 20
239.793372
 30
0.0
 10
33.881384
 20
239.793372
 30
0.0
  0
LWPOLYLINE
  5
361
100
AcDbEntity
  8
Layer_1
 62
7
100
AcDbPolyline
 90
5
 70
0
 10
31.881374
 20
239.793372
 30
0.0
 10
31.881374
 20
300.043363
 30
0.0
 10
33.881384
 20
300.043363
 30
0.0
 10
33.881384
 20
302.043322
 30
0.0
 10
37.131364
 20
302.043322
 30
0.0
  0
ENDSEC
  0
SECTION
  2
OBJECTS
  0
DICTIONARY
  5
C
330
0
100
AcDbDictionary
  3
ACAD_GROUP
350
D
  3
ACAD_MLINESTYLE
350
17
  0
DICTIONARY
  5
D
330
C
100
AcDbDictionary
  0
DICTIONARY
  5
1A
330
C
100
AcDbDictionary
  0
DICTIONARY
  5
17
330
C
100
AcDbDictionary
  3
STANDARD
350
18
  0
DICTIONARY
  5
19
330
C
100
AcDbDictionary
  0
ENDSEC
  0
EOF
