<?xml version="1.0" encoding="UTF-8" standalone="no"?>
<!-- Created with Inkscape (http://www.inkscape.org/) -->

<svg
   xmlns:dc="http://purl.org/dc/elements/1.1/"
   xmlns:cc="http://creativecommons.org/ns#"
   xmlns:rdf="http://www.w3.org/1999/02/22-rdf-syntax-ns#"
   xmlns:svg="http://www.w3.org/2000/svg"
   xmlns="http://www.w3.org/2000/svg"
   xmlns:sodipodi="http://sodipodi.sourceforge.net/DTD/sodipodi-0.dtd"
   xmlns:inkscape="http://www.inkscape.org/namespaces/inkscape"
   width="210mm"
   height="297mm"
   viewBox="0 0 210 297"
   version="1.1"
   id="svg26139"
   inkscape:version="0.92.4 (5da689c313, 2019-01-14)"
   sodipodi:docname="ornament2.svg">
  <defs
     id="defs26133" />
  <sodipodi:namedview
     id="base"
     pagecolor="#ffffff"
     bordercolor="#666666"
     borderopacity="1.0"
     inkscape:pageopacity="0.0"
     inkscape:pageshadow="2"
     inkscape:zoom="1.979899"
     inkscape:cx="251.05307"
     inkscape:cy="745.96694"
     inkscape:document-units="mm"
     inkscape:current-layer="layer1"
     showgrid="false"
     showguides="true"
     inkscape:guide-bbox="true"
     inkscape:window-width="3840"
     inkscape:window-height="2101"
     inkscape:window-x="0"
     inkscape:window-y="0"
     inkscape:window-maximized="1">
    <sodipodi:guide
       position="69.448317,229.12516"
       orientation="1,0"
       id="guide27240"
       inkscape:locked="false" />
    <sodipodi:guide
       position="11.481027,211.05246"
       orientation="1,0"
       id="guide27242"
       inkscape:locked="false" />
  </sodipodi:namedview>
  <metadata
     id="metadata26136">
    <rdf:RDF>
      <cc:Work
         rdf:about="">
        <dc:format>image/svg+xml</dc:format>
        <dc:type
           rdf:resource="http://purl.org/dc/dcmitype/StillImage" />
        <dc:title></dc:title>
      </cc:Work>
    </rdf:RDF>
  </metadata>
  <g
     inkscape:label="Layer 1"
     inkscape:groupmode="layer"
     id="layer1">
    <path
       style="fill:none;stroke:#ff0000;stroke-width:0.26458332px;stroke-linecap:butt;stroke-linejoin:miter;stroke-opacity:1"
       d="m 13.717133,151.0863 0.715421,35.1973 43.030394,0.66817 -0.367495,-31.97212 -24.922885,-0.30068 0.233863,13.59734 11.49259,0.13364 v 3.94222 l -15.735496,-0.26727 -0.06681,-21.01407 32.807333,0.13364"
       id="path26152"
       inkscape:connector-curvature="0"
       sodipodi:nodetypes="ccccccccccc" />
    <path
       style="fill:none;stroke:#fb0000;stroke-width:0.26458332px;stroke-linecap:butt;stroke-linejoin:miter;stroke-opacity:1"
       d="m 15.024553,149.63653 0.614212,35.29353 40.443453,0.61421 -0.0945,-29.19866 -22.347841,-0.37798 0.188987,11.19755 11.36291,0.18894 0.03241,6.13531 -18.276323,-0.44298 -0.219407,-23.56955 35.614401,0.27751"
       id="path26698"
       inkscape:connector-curvature="0"
       sodipodi:nodetypes="ccccccccccc" />
    <path
       style="fill:none;stroke:#ff0000;stroke-width:0.26458332px;stroke-linecap:butt;stroke-linejoin:miter;stroke-opacity:1"
       d="m 16.252976,148.21912 0.519717,35.34077 38.128348,0.66146 -0.04725,-26.97805 -19.796503,-0.23623 0.04725,8.88244 11.481027,0.23623 v 8.64621 l -20.835937,-0.28349 -0.141741,-26.55282 37.750372,0.51971"
       id="path26702"
       inkscape:connector-curvature="0"
       sodipodi:nodetypes="ccccccccccc" />
    <path
       style="fill:none;stroke:#ff0000;stroke-width:0.26458332px;stroke-linecap:butt;stroke-linejoin:miter;stroke-opacity:1"
       d="m 17.386905,146.84896 0.519717,35.62425 36.096725,0.56697 -0.330729,-24.75744 -17.481399,-0.0472 0.04725,6.42559 11.670014,0.23624 0.09449,11.1503 -23.434523,-0.28349 -0.09449,-28.91517 40.112722,0.66145"
       id="path26704"
       inkscape:connector-curvature="0"
       sodipodi:nodetypes="ccccccccccc" />
    <path
       style="fill:none;stroke:#ff0000;stroke-width:0.26458332px;stroke-linecap:butt;stroke-linejoin:miter;stroke-opacity:1"
       d="m 18.709821,145.85677 0.519718,35.34077 33.545387,0.47247 -0.188989,-22.25335 -14.977306,-0.14174 0.09449,4.016 11.764509,0.0945 0.04725,14.03237 -26.222099,-0.0945 -0.188988,-31.60826 42.805803,0.7087"
       id="path26706"
       inkscape:connector-curvature="0"
       sodipodi:nodetypes="ccccccccccc" />
    <path
       style="fill:none;stroke:#ff0000;stroke-width:0.26458332px;stroke-linecap:butt;stroke-linejoin:miter;stroke-opacity:1"
       d="m 60.904048,151.20447 0.715421,35.1973 43.030401,0.66817 -0.3675,-31.97212 -24.922889,-0.30068 0.23386,13.59734 11.4926,0.13364 v 3.94222 l -15.7355,-0.26727 -0.0668,-21.01407 32.807329,0.13364"
       id="path26152-0"
       inkscape:connector-curvature="0"
       sodipodi:nodetypes="ccccccccccc" />
    <path
       style="fill:none;stroke:#fb0000;stroke-width:0.26458332px;stroke-linecap:butt;stroke-linejoin:miter;stroke-opacity:1"
       d="m 62.342855,149.75441 0.482825,35.29382 40.44346,0.61421 -0.0945,-29.19866 -22.347849,-0.37798 0.18899,11.19755 11.36291,0.18894 0.0324,6.13531 -18.27633,-0.44298 -0.2194,-23.56955 35.614399,0.27751"
       id="path26698-8"
       inkscape:connector-curvature="0"
       sodipodi:nodetypes="ccccccccccc" />
    <path
       style="fill:none;stroke:#ff0000;stroke-width:0.26458332px;stroke-linecap:butt;stroke-linejoin:miter;stroke-opacity:1"
       d="m 63.358259,148.45535 0.601352,35.22271 38.128349,0.66146 -0.0473,-26.97805 -19.796509,-0.23623 0.0472,8.88244 11.48103,0.23623 v 8.64621 l -20.83594,-0.28349 -0.14174,-26.55282 37.750379,0.51971"
       id="path26702-5"
       inkscape:connector-curvature="0"
       sodipodi:nodetypes="ccccccccccc" />
    <path
       style="fill:none;stroke:#ff0000;stroke-width:0.26458332px;stroke-linecap:butt;stroke-linejoin:miter;stroke-opacity:1"
       d="m 64.586682,147.51046 0.506859,35.08092 36.096729,0.56697 -0.33073,-24.75744 -17.481409,-0.0472 0.0473,6.42559 11.67002,0.23624 0.0945,11.1503 -23.43453,-0.28349 -0.0945,-28.91517 40.112729,0.66145"
       id="path26704-3"
       inkscape:connector-curvature="0"
       sodipodi:nodetypes="ccccccccccc" />
    <path
       style="fill:none;stroke:#ff0000;stroke-width:0.26458332px;stroke-linecap:butt;stroke-linejoin:miter;stroke-opacity:1"
       d="m 65.909596,146.42373 0.506855,34.89198 33.54539,0.47247 -0.18898,-22.25335 -14.97731,-0.14174 0.0945,4.016 11.76451,0.0945 0.0472,14.03237 -26.2221,-0.0945 -0.18899,-31.60826 42.805809,0.7087"
       id="path26706-9"
       inkscape:connector-curvature="0"
       sodipodi:nodetypes="ccccccccccc" />
    <path
       style="fill:none;stroke:#ff0000;stroke-width:0.26458332px;stroke-linecap:butt;stroke-linejoin:miter;stroke-opacity:1"
       d="m 108.09093,151.32264 0.71542,35.1973 43.0304,0.66817 -0.3675,-31.97212 -24.92289,-0.30068 0.23386,13.59734 11.4926,0.13364 v 3.94222 l -15.7355,-0.26727 -0.0668,-21.01407 32.80733,0.13364"
       id="path26152-0-4"
       inkscape:connector-curvature="0"
       sodipodi:nodetypes="ccccccccccc" />
    <path
       style="fill:none;stroke:#fb0000;stroke-width:0.26458332px;stroke-linecap:butt;stroke-linejoin:miter;stroke-opacity:1"
       d="m 109.52974,149.87258 0.48282,35.29382 40.44346,0.61421 -0.0945,-29.19866 -22.34785,-0.37798 0.18899,11.19755 11.36291,0.18894 0.0324,6.13531 -18.27633,-0.44298 -0.2194,-23.56955 35.6144,0.27751"
       id="path26698-8-1"
       inkscape:connector-curvature="0"
       sodipodi:nodetypes="ccccccccccc" />
    <path
       style="fill:none;stroke:#ff0000;stroke-width:0.26458332px;stroke-linecap:butt;stroke-linejoin:miter;stroke-opacity:1"
       d="m 110.54514,148.57352 0.60135,35.22271 38.12835,0.66146 -0.0473,-26.97805 -19.79651,-0.23623 0.0472,8.88244 11.48103,0.23623 v 8.64621 l -20.83594,-0.28349 -0.14174,-26.55282 37.75038,0.51971"
       id="path26702-5-5"
       inkscape:connector-curvature="0"
       sodipodi:nodetypes="ccccccccccc" />
    <path
       style="fill:none;stroke:#ff0000;stroke-width:0.26458332px;stroke-linecap:butt;stroke-linejoin:miter;stroke-opacity:1"
       d="m 111.77357,147.62863 0.50685,35.08092 36.09673,0.56697 -0.33073,-24.75744 -17.48141,-0.0472 0.0473,6.42559 11.67003,0.23624 0.0945,11.1503 -23.43453,-0.28349 -0.0945,-28.91517 40.11272,0.66145"
       id="path26704-3-4"
       inkscape:connector-curvature="0"
       sodipodi:nodetypes="ccccccccccc" />
    <path
       style="fill:none;stroke:#ff0000;stroke-width:0.26458332px;stroke-linecap:butt;stroke-linejoin:miter;stroke-opacity:1"
       d="m 113.09648,146.5419 0.50685,34.89198 33.54539,0.47247 -0.18898,-22.25335 -14.97731,-0.14174 0.0945,4.016 11.76451,0.0945 0.0472,14.03237 -26.2221,-0.0945 -0.18899,-31.60826 42.80581,0.7087"
       id="path26706-9-1"
       inkscape:connector-curvature="0"
       sodipodi:nodetypes="ccccccccccc" />
    <path
       style="fill:none;stroke:#ff0000;stroke-width:0.26458332px;stroke-linecap:butt;stroke-linejoin:miter;stroke-opacity:1"
       d="m 155.27785,151.44081 0.71542,35.19731 43.03041,0.66816 -0.36751,-31.97212 -24.92288,-0.30068 0.23386,13.59735 11.4926,0.13364 v 3.94221 l -15.7355,-0.26726 -0.0668,-21.01408 32.80733,0.13364"
       id="path26152-0-5"
       inkscape:connector-curvature="0"
       sodipodi:nodetypes="ccccccccccc" />
    <path
       style="fill:none;stroke:#fb0000;stroke-width:0.26458332px;stroke-linecap:butt;stroke-linejoin:miter;stroke-opacity:1"
       d="m 156.71666,149.99075 0.48283,35.29383 40.44345,0.61421 -0.0945,-29.19866 -22.34785,-0.37798 0.18899,11.19755 11.36291,0.18894 0.0324,6.13531 -18.27632,-0.44299 -0.2194,-23.56955 35.6144,0.27751"
       id="path26698-8-5"
       inkscape:connector-curvature="0"
       sodipodi:nodetypes="ccccccccccc" />
    <path
       style="fill:none;stroke:#ff0000;stroke-width:0.26458332px;stroke-linecap:butt;stroke-linejoin:miter;stroke-opacity:1"
       d="m 157.73206,148.69169 0.60136,35.22272 38.12835,0.66146 -0.0473,-26.97805 -19.79651,-0.23623 0.0472,8.88244 11.48103,0.23623 v 8.64621 l -20.83595,-0.28349 -0.14174,-26.55283 37.75039,0.51971"
       id="path26702-5-4"
       inkscape:connector-curvature="0"
       sodipodi:nodetypes="ccccccccccc" />
    <path
       style="fill:none;stroke:#ff0000;stroke-width:0.26458332px;stroke-linecap:butt;stroke-linejoin:miter;stroke-opacity:1"
       d="m 158.96049,147.7468 0.50686,35.08092 36.09672,0.56697 -0.33073,-24.75743 -17.4814,-0.0472 0.0473,6.42559 11.67002,0.23624 0.0945,11.1503 -23.43453,-0.28349 -0.0945,-28.91517 40.11273,0.66145"
       id="path26704-3-9"
       inkscape:connector-curvature="0"
       sodipodi:nodetypes="ccccccccccc" />
    <path
       style="fill:none;stroke:#ff0000;stroke-width:0.26458332px;stroke-linecap:butt;stroke-linejoin:miter;stroke-opacity:1"
       d="m 160.2834,146.66007 0.50686,34.89198 33.54539,0.47248 -0.18898,-22.25335 -14.97731,-0.14174 0.0945,4.01599 11.76451,0.0945 0.0472,14.03237 -26.2221,-0.0945 -0.18899,-31.60827 42.8058,0.7087"
       id="path26706-9-8"
       inkscape:connector-curvature="0"
       sodipodi:nodetypes="ccccccccccc" />
    <path
       style="fill:none;stroke:#ff0000;stroke-width:0.26458332px;stroke-linecap:butt;stroke-linejoin:miter;stroke-opacity:1"
       d="m 202.46482,151.55899 0.71542,35.1973 43.0304,0.66817 -0.3675,-31.97212 -24.92288,-0.30068 0.23385,13.59734 11.4926,0.13364 v 3.94222 l -15.73549,-0.26727 -0.0668,-21.01407 32.80733,0.13364"
       id="path26152-0-3"
       inkscape:connector-curvature="0"
       sodipodi:nodetypes="ccccccccccc" />
    <path
       style="fill:none;stroke:#fb0000;stroke-width:0.26458332px;stroke-linecap:butt;stroke-linejoin:miter;stroke-opacity:1"
       d="m 203.90363,150.10893 0.48282,35.29382 40.44346,0.61421 -0.0945,-29.19866 -22.34785,-0.37798 0.18899,11.19755 11.36291,0.18894 0.0324,6.13531 -18.27632,-0.44298 -0.21941,-23.56955 35.61441,0.27751"
       id="path26698-8-8"
       inkscape:connector-curvature="0"
       sodipodi:nodetypes="ccccccccccc" />
    <path
       style="fill:none;stroke:#ff0000;stroke-width:0.26458332px;stroke-linecap:butt;stroke-linejoin:miter;stroke-opacity:1"
       d="m 204.91903,148.80987 0.60135,35.22271 38.12835,0.66146 -0.0473,-26.97805 -19.79651,-0.23623 0.0472,8.88244 11.48103,0.23623 v 8.64621 l -20.83594,-0.28349 -0.14174,-26.55282 37.75038,0.51971"
       id="path26702-5-52"
       inkscape:connector-curvature="0"
       sodipodi:nodetypes="ccccccccccc" />
    <path
       style="fill:none;stroke:#ff0000;stroke-width:0.26458332px;stroke-linecap:butt;stroke-linejoin:miter;stroke-opacity:1"
       d="m 206.14746,147.86498 0.50685,35.08092 36.09673,0.56697 -0.33073,-24.75744 -17.4814,-0.0472 0.0473,6.42559 11.67002,0.23624 0.0945,11.1503 -23.43453,-0.28349 -0.0945,-28.91517 40.11273,0.66145"
       id="path26704-3-2"
       inkscape:connector-curvature="0"
       sodipodi:nodetypes="ccccccccccc" />
    <path
       style="fill:none;stroke:#ff0000;stroke-width:0.26458332px;stroke-linecap:butt;stroke-linejoin:miter;stroke-opacity:1"
       d="m 207.47037,146.77825 0.50686,34.89198 33.54538,0.47247 -0.18897,-22.25335 -14.97731,-0.14174 0.0945,4.016 11.76451,0.0945 0.0472,14.03237 -26.2221,-0.0945 -0.189,-31.60826 42.80581,0.7087"
       id="path26706-9-2"
       inkscape:connector-curvature="0"
       sodipodi:nodetypes="ccccccccccc" />
    <path
       style="fill:none;stroke:#ff0000;stroke-width:0.26458332px;stroke-linecap:butt;stroke-linejoin:miter;stroke-opacity:1"
       d="m 249.6517,151.67716 0.71543,35.1973 43.0304,0.66817 -0.3675,-31.97212 -24.92289,-0.30068 0.23386,13.59734 11.4926,0.13364 v 3.94222 l -15.7355,-0.26727 -0.0668,-21.01407 32.80733,0.13364"
       id="path26152-0-7"
       inkscape:connector-curvature="0"
       sodipodi:nodetypes="ccccccccccc" />
    <path
       style="fill:none;stroke:#fb0000;stroke-width:0.26458332px;stroke-linecap:butt;stroke-linejoin:miter;stroke-opacity:1"
       d="m 251.09051,150.2271 0.48283,35.29382 40.44346,0.61421 -0.0945,-29.19866 -22.34785,-0.37798 0.18899,11.19755 11.36291,0.18894 0.0324,6.13531 -18.27633,-0.44298 -0.2194,-23.56955 35.6144,0.27751"
       id="path26698-8-0"
       inkscape:connector-curvature="0"
       sodipodi:nodetypes="ccccccccccc" />
    <path
       style="fill:none;stroke:#ff0000;stroke-width:0.26458332px;stroke-linecap:butt;stroke-linejoin:miter;stroke-opacity:1"
       d="m 252.10592,148.92804 0.60135,35.22271 38.12835,0.66146 -0.0473,-26.97805 -19.79651,-0.23623 0.0472,8.88244 11.48103,0.23623 v 8.64621 l -20.83594,-0.28349 -0.14174,-26.55282 37.75038,0.51971"
       id="path26702-5-3"
       inkscape:connector-curvature="0"
       sodipodi:nodetypes="ccccccccccc" />
    <path
       style="fill:none;stroke:#ff0000;stroke-width:0.26458332px;stroke-linecap:butt;stroke-linejoin:miter;stroke-opacity:1"
       d="m 253.33434,147.98315 0.50686,35.08092 36.09673,0.56697 -0.33073,-24.75744 -17.48141,-0.0472 0.0473,6.42559 11.67002,0.23624 0.0945,11.1503 -23.43453,-0.28349 -0.0945,-28.91517 40.11273,0.66145"
       id="path26704-3-46"
       inkscape:connector-curvature="0"
       sodipodi:nodetypes="ccccccccccc" />
    <path
       style="fill:none;stroke:#ff0000;stroke-width:0.26458332px;stroke-linecap:butt;stroke-linejoin:miter;stroke-opacity:1"
       d="m 254.65725,146.89642 0.50686,34.89198 33.54539,0.47247 -0.18898,-22.25335 -14.97731,-0.14174 0.0945,4.016 11.76451,0.0945 0.0472,14.03237 -26.2221,-0.0945 -0.18899,-31.60826 42.80581,0.7087"
       id="path26706-9-3"
       inkscape:connector-curvature="0"
       sodipodi:nodetypes="ccccccccccc" />
    <path
       style="fill:none;stroke:#fe0000;stroke-width:0.26458332px;stroke-linecap:butt;stroke-linejoin:miter;stroke-opacity:1"
       d="m 7.9138763,142.21875 294.0126637,0"
       id="path26806"
       inkscape:connector-curvature="0"
       sodipodi:nodetypes="cc" />
    <path
       style="fill:none;stroke:#ff0000;stroke-width:0.26458332px;stroke-linecap:butt;stroke-linejoin:miter;stroke-opacity:1"
       d="m 7.9256881,140.78953 293.8395519,0"
       id="path26808"
       inkscape:connector-curvature="0"
       sodipodi:nodetypes="cc" />
    <path
       style="fill:none;stroke:#ff0000;stroke-width:0.26458332px;stroke-linecap:butt;stroke-linejoin:miter;stroke-opacity:1"
       d="m 7.8844509,139.16064 293.9177291,0"
       id="path26810"
       inkscape:connector-curvature="0"
       sodipodi:nodetypes="cc" />
    <path
       style="fill:none;stroke:#ff0000;stroke-width:0.26458332px;stroke-linecap:butt;stroke-linejoin:miter;stroke-opacity:1"
       d="M 7.8430058,191.84017 H 301.15253"
       id="path26812"
       inkscape:connector-curvature="0" />
    <path
       style="fill:none;stroke:#ef0000;stroke-width:0.26458332px;stroke-linecap:butt;stroke-linejoin:miter;stroke-opacity:1"
       d="M 8.0792409,193.73005 H 301.14594"
       id="path26814"
       inkscape:connector-curvature="0" />
    <path
       style="fill:none;stroke:#ff0000;stroke-width:0.26458332px;stroke-linecap:butt;stroke-linejoin:miter;stroke-opacity:1"
       d="M 8.1501117,195.53724 H 301.11252"
       id="path26816"
       inkscape:connector-curvature="0" />
    <path
       style="fill:none;stroke:#ff0000;stroke-width:0.26458332px;stroke-linecap:butt;stroke-linejoin:miter;stroke-opacity:1"
       d="m 17.323192,74.672554 0.715421,35.197306 43.030394,0.66816 -0.367495,-31.972116 -24.922884,-0.30068 0.233862,13.59734 11.492589,0.133639 v 3.94222 l -15.735495,-0.267269 -0.06681,-21.01407 32.807333,0.13364"
       id="path26152-3"
       inkscape:connector-curvature="0"
       sodipodi:nodetypes="ccccccccccc" />
    <path
       style="fill:none;stroke:#ff0000;stroke-width:0.26458332px;stroke-linecap:butt;stroke-linejoin:miter;stroke-opacity:1"
       d="m 22.31588,69.443023 0.519718,35.340767 33.545387,0.47248 -0.188989,-22.253356 -14.977306,-0.14174 0.09449,4.016 11.76451,0.0945 0.04725,14.032366 -26.2221,-0.0945 -0.188988,-31.608258 42.805804,0.7087"
       id="path26706-1"
       inkscape:connector-curvature="0"
       sodipodi:nodetypes="ccccccccccc" />
    <path
       style="fill:none;stroke:#fe0000;stroke-width:0.11729991px;stroke-linecap:butt;stroke-linejoin:miter;stroke-opacity:1"
       d="m 11.481027,65.805003 h 57.96729"
       id="path26806-0"
       inkscape:connector-curvature="0"
       sodipodi:nodetypes="cc" />
    <path
       style="fill:none;stroke:#ff0000;stroke-width:0.11741473px;stroke-linecap:butt;stroke-linejoin:miter;stroke-opacity:1"
       d="m 11.481027,62.746893 h 57.96729"
       id="path26810-2"
       inkscape:connector-curvature="0"
       sodipodi:nodetypes="cc" />
    <path
       style="fill:none;stroke:#ff0000;stroke-width:0.11776181px;stroke-linecap:butt;stroke-linejoin:miter;stroke-opacity:1"
       d="m 11.481027,115.42643 h 57.96729"
       id="path26812-7"
       inkscape:connector-curvature="0" />
    <path
       style="fill:none;stroke:#ff0000;stroke-width:0.05235203px;stroke-linecap:butt;stroke-linejoin:miter;stroke-opacity:1"
       d="m 11.481027,119.1235 h 57.96729"
       id="path26816-0"
       inkscape:connector-curvature="0" />
  </g>
</svg>
