  0
SECTION
  2
HEADER
  9
$ACADVER
  1
AC1014
  9
$HANDSEED
  5
FFFF
  9
$MEASUREMENT
 70
     1
  0
ENDSEC
  0
SECTION
  2
TABLES
  0
TABLE
  2
VPORT
  5
8
330
0
100
AcDbSymbolTable
 70
     4
  0
VPORT
  5
2E
330
8
100
AcDbSymbolTableRecord
100
AcDbViewportTableRecord
  2
*ACTIVE
 70
     0
 10
0.0
 20
0.0
 11
1.0
 21
1.0
 12
210.0
 22
148.5
 13
0.0
 23
0.0
 14
10.0
 24
10.0
 15
10.0
 25
10.0
 16
0.0
 26
0.0
 36
1.0
 17
0.0
 27
0.0
 37
0.0
 40
341.0
 41
1.24
 42
50.0
 43
0.0
 44
0.0
 50
0.0
 51
0.0
 71
     0
 72
   100
 73
     1
 74
     3
 75
     0
 76
     0
 77
     0
 78
     0
  0
ENDTAB
  0
TABLE
  2
LTYPE
  5
5
330
0
100
AcDbSymbolTable
 70
     1
  0
LTYPE
  5
14
330
5
100
AcDbSymbolTableRecord
100
AcDbLinetypeTableRecord
  2
BYBLOCK
 70
     0
  3

 72
    65
 73
     0
 40
0.0
  0
LTYPE
  5
15
330
5
100
AcDbSymbolTableRecord
100
AcDbLinetypeTableRecord
  2
BYLAYER
 70
     0
  3

 72
    65
 73
     0
 40
0.0
  0
LTYPE
  5
16
330
5
100
AcDbSymbolTableRecord
100
AcDbLinetypeTableRecord
  2
CONTINUOUS
 70
     0
  3
Solid line
 72
    65
 73
     0
 40
0.0
  0
ENDTAB
  0
TABLE
  2
LAYER
  5
2
100
AcDbSymbolTable
 70
2
  0
LAYER
  5
50
100
AcDbSymbolTableRecord
100
AcDbLayerTableRecord
  2
0
 70
0
  6
CONTINUOUS
  0
LAYER
  5
51
100
AcDbSymbolTableRecord
100
AcDbLayerTableRecord
  2
Layer_1
 70
0
  6
CONTINUOUS
  0
ENDTAB
  0
TABLE
  2
STYLE
  5
3
330
0
100
AcDbSymbolTable
 70
     1
  0
STYLE
  5
11
330
3
100
AcDbSymbolTableRecord
100
AcDbTextStyleTableRecord
  2
STANDARD
 70
     0
 40
0.0
 41
1.0
 50
0.0
 71
     0
 42
2.5
  3
txt
  4

  0
ENDTAB
  0
TABLE
  2
VIEW
  5
6
330
0
100
AcDbSymbolTable
 70
     0
  0
ENDTAB
  0
TABLE
  2
UCS
  5
7
330
0
100
AcDbSymbolTable
 70
     0
  0
ENDTAB
  0
TABLE
  2
APPID
  5
9
330
0
100
AcDbSymbolTable
 70
     2
  0
APPID
  5
12
330
9
100
AcDbSymbolTableRecord
100
AcDbRegAppTableRecord
  2
ACAD
 70
     0
  0
ENDTAB
  0
TABLE
  2
DIMSTYLE
  5
A
330
0
100
AcDbSymbolTable
 70
     1
  0
DIMSTYLE
105
27
330
A
100
AcDbSymbolTableRecord
100
AcDbDimStyleTableRecord
  2
ISO-25
 70
     0
  3

  4

  5

  6

  7

 40
1.0
 41
2.5
 42
0.625
 43
3.75
 44
1.25
 45
0.0
 46
0.0
 47
0.0
 48
0.0
140
2.5
141
2.5
142
0.0
143
0.03937007874016
144
1.0
145
0.0
146
1.0
147
0.625
 71
     0
 72
     0
 73
     0
 74
     0
 75
     0
 76
     0
 77
     1
 78
     8
170
     0
171
     3
172
     1
173
     0
174
     0
175
     0
176
     0
177
     0
178
     0
270
     2
271
     2
272
     2
273
     2
274
     3
340
11
275
     0
280
     0
281
     0
282
     0
283
     0
284
     8
285
     0
286
     0
287
     3
288
     0
  0
ENDTAB
  0
TABLE
  2
BLOCK_RECORD
  5
1
330
0
100
AcDbSymbolTable
 70
     1
  0
BLOCK_RECORD
  5
1F
330
1
100
AcDbSymbolTableRecord
100
AcDbBlockTableRecord
  2
*MODEL_SPACE
  0
BLOCK_RECORD
  5
1B
330
1
100
AcDbSymbolTableRecord
100
AcDbBlockTableRecord
  2
*PAPER_SPACE
  0
ENDTAB
  0
ENDSEC
  0
SECTION
  2
BLOCKS
  0
BLOCK
  5
20
330
1F
100
AcDbEntity
  8
0
100
AcDbBlockBegin
  2
*MODEL_SPACE
 70
     0
 10
0.0
 20
0.0
 30
0.0
  3
*MODEL_SPACE
  1

  0
ENDBLK
  5
21
330
1F
100
AcDbEntity
  8
0
100
AcDbBlockEnd
  0
BLOCK
  5
1C
330
1B
100
AcDbEntity
 67
     1
  8
0
100
AcDbBlockBegin
  2
*PAPER_SPACE
  1

  0
ENDBLK
  5
1D
330
1B
100
AcDbEntity
 67
     1
  8
0
100
AcDbBlockEnd
  0
ENDSEC
  0
SECTION
  2
ENTITIES
  0
SPLINE
  5
100
100
AcDbEntity
  8
Layer_1
 62
7
100
AcDbSpline
 70
8
 71
3
 72
8
 73
4
 74
0
 40
0
 40
0
 40
0
 40
0
 40
1
 40
1
 40
1
 40
1
 10
14.800050
 20
297.003263
 30
0.0
 10
-4.973961
 20
297.056214
 30
0.0
 10
-5.278572
 20
267.034680
 30
0.0
 10
14.733233
 20
267.040179
 30
0.0
  0
SPLINE
  5
101
100
AcDbEntity
  8
Layer_1
 62
7
100
AcDbSpline
 70
8
 71
3
 72
8
 73
4
 74
0
 40
0
 40
0
 40
0
 40
0
 40
1
 40
1
 40
1
 40
1
 10
136.307450
 20
267.073589
 30
0.0
 10
154.615420
 20
267.078589
 30
0.0
 10
154.566660
 20
296.849438
 30
0.0
 10
136.220450
 20
296.869630
 30
0.0
  0
LWPOLYLINE
  5
102
100
AcDbEntity
  8
Layer_1
 62
7
100
AcDbPolyline
 90
2
 70
0
 10
14.733233
 20
267.040179
 30
0.0
 10
136.307450
 20
267.073589
 30
0.0
  0
SPLINE
  5
103
100
AcDbEntity
  8
Layer_1
 62
7
100
AcDbSpline
 70
8
 71
3
 72
8
 73
4
 74
0
 40
0
 40
0
 40
0
 40
0
 40
1
 40
1
 40
1
 40
1
 10
10.705509
 20
288.584019
 30
0.0
 10
10.705509
 20
288.054927
 30
0.0
 10
10.421255
 20
287.566027
 30
0.0
 10
9.959821
 20
287.301481
 30
0.0
  0
SPLINE
  5
104
100
AcDbEntity
  8
Layer_1
 62
7
100
AcDbSpline
 70
8
 71
3
 72
8
 73
4
 74
0
 40
0
 40
0
 40
0
 40
0
 40
1
 40
1
 40
1
 40
1
 10
9.959821
 20
287.301481
 30
0.0
 10
9.498388
 20
287.036936
 30
0.0
 10
8.929879
 20
287.036936
 30
0.0
 10
8.468445
 20
287.301481
 30
0.0
  0
SPLINE
  5
105
100
AcDbEntity
  8
Layer_1
 62
7
100
AcDbSpline
 70
8
 71
3
 72
8
 73
4
 74
0
 40
0
 40
0
 40
0
 40
0
 40
1
 40
1
 40
1
 40
1
 10
8.468445
 20
287.301481
 30
0.0
 10
8.007012
 20
287.566027
 30
0.0
 10
7.722757
 20
288.054927
 30
0.0
 10
7.722757
 20
288.584019
 30
0.0
  0
SPLINE
  5
106
100
AcDbEntity
  8
Layer_1
 62
7
100
AcDbSpline
 70
8
 71
3
 72
8
 73
4
 74
0
 40
0
 40
0
 40
0
 40
0
 40
1
 40
1
 40
1
 40
1
 10
7.722757
 20
288.584019
 30
0.0
 10
7.722757
 20
289.113110
 30
0.0
 10
8.007012
 20
289.602011
 30
0.0
 10
8.468445
 20
289.866556
 30
0.0
  0
SPLINE
  5
107
100
AcDbEntity
  8
Layer_1
 62
7
100
AcDbSpline
 70
8
 71
3
 72
8
 73
4
 74
0
 40
0
 40
0
 40
0
 40
0
 40
1
 40
1
 40
1
 40
1
 10
8.468445
 20
289.866556
 30
0.0
 10
8.929879
 20
290.131102
 30
0.0
 10
9.498388
 20
290.131102
 30
0.0
 10
9.959821
 20
289.866556
 30
0.0
  0
SPLINE
  5
108
100
AcDbEntity
  8
Layer_1
 62
7
100
AcDbSpline
 70
8
 71
3
 72
8
 73
4
 74
0
 40
0
 40
0
 40
0
 40
0
 40
1
 40
1
 40
1
 40
1
 10
9.959821
 20
289.866556
 30
0.0
 10
10.421255
 20
289.602011
 30
0.0
 10
10.705509
 20
289.113110
 30
0.0
 10
10.705509
 20
288.584019
 30
0.0
  0
LWPOLYLINE
  5
109
100
AcDbEntity
  8
Layer_1
 62
7
100
AcDbPolyline
 90
2
 70
0
 10
136.220450
 20
296.869630
 30
0.0
 10
14.800050
 20
297.003263
 30
0.0
  0
SPLINE
  5
10a
100
AcDbEntity
  8
Layer_1
 62
7
100
AcDbSpline
 70
8
 71
3
 72
8
 73
4
 74
0
 40
0
 40
0
 40
0
 40
0
 40
1
 40
1
 40
1
 40
1
 10
24.668061
 20
283.606379
 30
0.0
 10
24.668061
 20
282.788475
 30
0.0
 10
24.000349
 20
282.125432
 30
0.0
 10
23.176685
 20
282.125432
 30
0.0
  0
SPLINE
  5
10b
100
AcDbEntity
  8
Layer_1
 62
7
100
AcDbSpline
 70
8
 71
3
 72
8
 73
4
 74
0
 40
0
 40
0
 40
0
 40
0
 40
1
 40
1
 40
1
 40
1
 10
23.176685
 20
282.125432
 30
0.0
 10
22.353021
 20
282.125432
 30
0.0
 10
21.685309
 20
282.788475
 30
0.0
 10
21.685309
 20
283.606379
 30
0.0
  0
SPLINE
  5
10c
100
AcDbEntity
  8
Layer_1
 62
7
100
AcDbSpline
 70
8
 71
3
 72
8
 73
4
 74
0
 40
0
 40
0
 40
0
 40
0
 40
1
 40
1
 40
1
 40
1
 10
21.685309
 20
283.606379
 30
0.0
 10
21.685309
 20
284.135470
 30
0.0
 10
21.969564
 20
284.624371
 30
0.0
 10
22.430997
 20
284.888916
 30
0.0
  0
SPLINE
  5
10d
100
AcDbEntity
  8
Layer_1
 62
7
100
AcDbSpline
 70
8
 71
3
 72
8
 73
4
 74
0
 40
0
 40
0
 40
0
 40
0
 40
1
 40
1
 40
1
 40
1
 10
22.430997
 20
284.888916
 30
0.0
 10
22.892430
 20
285.153462
 30
0.0
 10
23.460940
 20
285.153462
 30
0.0
 10
23.922373
 20
284.888916
 30
0.0
  0
SPLINE
  5
10e
100
AcDbEntity
  8
Layer_1
 62
7
100
AcDbSpline
 70
8
 71
3
 72
8
 73
4
 74
0
 40
0
 40
0
 40
0
 40
0
 40
1
 40
1
 40
1
 40
1
 10
23.922373
 20
284.888916
 30
0.0
 10
24.383806
 20
284.624371
 30
0.0
 10
24.668061
 20
284.135470
 30
0.0
 10
24.668061
 20
283.606379
 30
0.0
  0
LWPOLYLINE
  5
10f
100
AcDbEntity
  8
Layer_1
 62
7
100
AcDbPolyline
 90
1
 70
1
 10
10.705509
 20
288.584019
 30
0.0
  0
SPLINE
  5
110
100
AcDbEntity
  8
Layer_1
 62
7
100
AcDbSpline
 70
8
 71
3
 72
8
 73
4
 74
0
 40
0
 40
0
 40
0
 40
0
 40
1
 40
1
 40
1
 40
1
 10
13.374003
 20
274.009117
 30
0.0
 10
13.374003
 20
273.480026
 30
0.0
 10
13.089748
 20
272.991125
 30
0.0
 10
12.628315
 20
272.726580
 30
0.0
  0
SPLINE
  5
111
100
AcDbEntity
  8
Layer_1
 62
7
100
AcDbSpline
 70
8
 71
3
 72
8
 73
4
 74
0
 40
0
 40
0
 40
0
 40
0
 40
1
 40
1
 40
1
 40
1
 10
12.628315
 20
272.726580
 30
0.0
 10
12.166882
 20
272.462034
 30
0.0
 10
11.598372
 20
272.462034
 30
0.0
 10
11.136939
 20
272.726580
 30
0.0
  0
SPLINE
  5
112
100
AcDbEntity
  8
Layer_1
 62
7
100
AcDbSpline
 70
8
 71
3
 72
8
 73
4
 74
0
 40
0
 40
0
 40
0
 40
0
 40
1
 40
1
 40
1
 40
1
 10
11.136939
 20
272.726580
 30
0.0
 10
10.675506
 20
272.991125
 30
0.0
 10
10.391251
 20
273.480026
 30
0.0
 10
10.391251
 20
274.009117
 30
0.0
  0
SPLINE
  5
113
100
AcDbEntity
  8
Layer_1
 62
7
100
AcDbSpline
 70
8
 71
3
 72
8
 73
4
 74
0
 40
0
 40
0
 40
0
 40
0
 40
1
 40
1
 40
1
 40
1
 10
10.391251
 20
274.009117
 30
0.0
 10
10.391251
 20
274.538208
 30
0.0
 10
10.675506
 20
275.027109
 30
0.0
 10
11.136939
 20
275.291654
 30
0.0
  0
SPLINE
  5
114
100
AcDbEntity
  8
Layer_1
 62
7
100
AcDbSpline
 70
8
 71
3
 72
8
 73
4
 74
0
 40
0
 40
0
 40
0
 40
0
 40
1
 40
1
 40
1
 40
1
 10
11.136939
 20
275.291654
 30
0.0
 10
11.598372
 20
275.556200
 30
0.0
 10
12.166882
 20
275.556200
 30
0.0
 10
12.628315
 20
275.291654
 30
0.0
  0
SPLINE
  5
115
100
AcDbEntity
  8
Layer_1
 62
7
100
AcDbSpline
 70
8
 71
3
 72
8
 73
4
 74
0
 40
0
 40
0
 40
0
 40
0
 40
1
 40
1
 40
1
 40
1
 10
12.628315
 20
275.291654
 30
0.0
 10
13.089748
 20
275.027109
 30
0.0
 10
13.374003
 20
274.538208
 30
0.0
 10
13.374003
 20
274.009117
 30
0.0
  0
LWPOLYLINE
  5
116
100
AcDbEntity
  8
Layer_1
 62
7
100
AcDbPolyline
 90
1
 70
1
 10
24.668061
 20
283.606379
 30
0.0
  0
SPLINE
  5
117
100
AcDbEntity
  8
Layer_1
 62
7
100
AcDbSpline
 70
8
 71
3
 72
8
 73
4
 74
0
 40
0
 40
0
 40
0
 40
0
 40
1
 40
1
 40
1
 40
1
 10
32.887023
 20
271.375093
 30
0.0
 10
32.887023
 20
270.846002
 30
0.0
 10
32.602768
 20
270.357101
 30
0.0
 10
32.141335
 20
270.092556
 30
0.0
  0
SPLINE
  5
118
100
AcDbEntity
  8
Layer_1
 62
7
100
AcDbSpline
 70
8
 71
3
 72
8
 73
4
 74
0
 40
0
 40
0
 40
0
 40
0
 40
1
 40
1
 40
1
 40
1
 10
32.141335
 20
270.092556
 30
0.0
 10
31.679902
 20
269.828010
 30
0.0
 10
31.111392
 20
269.828010
 30
0.0
 10
30.649959
 20
270.092556
 30
0.0
  0
SPLINE
  5
119
100
AcDbEntity
  8
Layer_1
 62
7
100
AcDbSpline
 70
8
 71
3
 72
8
 73
4
 74
0
 40
0
 40
0
 40
0
 40
0
 40
1
 40
1
 40
1
 40
1
 10
30.649959
 20
270.092556
 30
0.0
 10
30.188526
 20
270.357101
 30
0.0
 10
29.904271
 20
270.846002
 30
0.0
 10
29.904271
 20
271.375093
 30
0.0
  0
SPLINE
  5
11a
100
AcDbEntity
  8
Layer_1
 62
7
100
AcDbSpline
 70
8
 71
3
 72
8
 73
4
 74
0
 40
0
 40
0
 40
0
 40
0
 40
1
 40
1
 40
1
 40
1
 10
29.904271
 20
271.375093
 30
0.0
 10
29.904271
 20
271.904184
 30
0.0
 10
30.188526
 20
272.393085
 30
0.0
 10
30.649959
 20
272.657630
 30
0.0
  0
SPLINE
  5
11b
100
AcDbEntity
  8
Layer_1
 62
7
100
AcDbSpline
 70
8
 71
3
 72
8
 73
4
 74
0
 40
0
 40
0
 40
0
 40
0
 40
1
 40
1
 40
1
 40
1
 10
30.649959
 20
272.657630
 30
0.0
 10
31.111392
 20
272.922176
 30
0.0
 10
31.679902
 20
272.922176
 30
0.0
 10
32.141335
 20
272.657630
 30
0.0
  0
SPLINE
  5
11c
100
AcDbEntity
  8
Layer_1
 62
7
100
AcDbSpline
 70
8
 71
3
 72
8
 73
4
 74
0
 40
0
 40
0
 40
0
 40
0
 40
1
 40
1
 40
1
 40
1
 10
32.141335
 20
272.657630
 30
0.0
 10
32.602768
 20
272.393085
 30
0.0
 10
32.887023
 20
271.904184
 30
0.0
 10
32.887023
 20
271.375093
 30
0.0
  0
LWPOLYLINE
  5
11d
100
AcDbEntity
  8
Layer_1
 62
7
100
AcDbPolyline
 90
1
 70
1
 10
13.374003
 20
274.009117
 30
0.0
  0
SPLINE
  5
11e
100
AcDbEntity
  8
Layer_1
 62
7
100
AcDbSpline
 70
8
 71
3
 72
8
 73
4
 74
0
 40
0
 40
0
 40
0
 40
0
 40
1
 40
1
 40
1
 40
1
 10
67.731702
 20
271.375093
 30
0.0
 10
67.731702
 20
270.846002
 30
0.0
 10
67.447447
 20
270.357101
 30
0.0
 10
66.986014
 20
270.092556
 30
0.0
  0
SPLINE
  5
11f
100
AcDbEntity
  8
Layer_1
 62
7
100
AcDbSpline
 70
8
 71
3
 72
8
 73
4
 74
0
 40
0
 40
0
 40
0
 40
0
 40
1
 40
1
 40
1
 40
1
 10
66.986014
 20
270.092556
 30
0.0
 10
66.524581
 20
269.828010
 30
0.0
 10
65.956071
 20
269.828010
 30
0.0
 10
65.494638
 20
270.092556
 30
0.0
  0
SPLINE
  5
120
100
AcDbEntity
  8
Layer_1
 62
7
100
AcDbSpline
 70
8
 71
3
 72
8
 73
4
 74
0
 40
0
 40
0
 40
0
 40
0
 40
1
 40
1
 40
1
 40
1
 10
65.494638
 20
270.092556
 30
0.0
 10
65.033205
 20
270.357101
 30
0.0
 10
64.748950
 20
270.846002
 30
0.0
 10
64.748950
 20
271.375093
 30
0.0
  0
SPLINE
  5
121
100
AcDbEntity
  8
Layer_1
 62
7
100
AcDbSpline
 70
8
 71
3
 72
8
 73
4
 74
0
 40
0
 40
0
 40
0
 40
0
 40
1
 40
1
 40
1
 40
1
 10
64.748950
 20
271.375093
 30
0.0
 10
64.748950
 20
271.904184
 30
0.0
 10
65.033205
 20
272.393085
 30
0.0
 10
65.494638
 20
272.657630
 30
0.0
  0
SPLINE
  5
122
100
AcDbEntity
  8
Layer_1
 62
7
100
AcDbSpline
 70
8
 71
3
 72
8
 73
4
 74
0
 40
0
 40
0
 40
0
 40
0
 40
1
 40
1
 40
1
 40
1
 10
65.494638
 20
272.657630
 30
0.0
 10
65.956071
 20
272.922176
 30
0.0
 10
66.524581
 20
272.922176
 30
0.0
 10
66.986014
 20
272.657630
 30
0.0
  0
SPLINE
  5
123
100
AcDbEntity
  8
Layer_1
 62
7
100
AcDbSpline
 70
8
 71
3
 72
8
 73
4
 74
0
 40
0
 40
0
 40
0
 40
0
 40
1
 40
1
 40
1
 40
1
 10
66.986014
 20
272.657630
 30
0.0
 10
67.447447
 20
272.393085
 30
0.0
 10
67.731702
 20
271.904184
 30
0.0
 10
67.731702
 20
271.375093
 30
0.0
  0
LWPOLYLINE
  5
124
100
AcDbEntity
  8
Layer_1
 62
7
100
AcDbPolyline
 90
1
 70
1
 10
32.887023
 20
271.375093
 30
0.0
  0
SPLINE
  5
125
100
AcDbEntity
  8
Layer_1
 62
7
100
AcDbSpline
 70
8
 71
3
 72
8
 73
4
 74
0
 40
0
 40
0
 40
0
 40
0
 40
1
 40
1
 40
1
 40
1
 10
135.650874
 20
283.500146
 30
0.0
 10
136.181910
 20
283.193553
 30
0.0
 10
136.507889
 20
282.624949
 30
0.0
 10
136.506019
 20
282.008524
 30
0.0
  0
SPLINE
  5
126
100
AcDbEntity
  8
Layer_1
 62
7
100
AcDbSpline
 70
8
 71
3
 72
8
 73
4
 74
0
 40
0
 40
0
 40
0
 40
0
 40
1
 40
1
 40
1
 40
1
 10
136.506019
 20
282.008524
 30
0.0
 10
136.504149
 20
281.392098
 30
0.0
 10
136.174714
 20
280.821500
 30
0.0
 10
135.641809
 20
280.511668
 30
0.0
  0
SPLINE
  5
127
100
AcDbEntity
  8
Layer_1
 62
7
100
AcDbSpline
 70
8
 71
3
 72
8
 73
4
 74
0
 40
0
 40
0
 40
0
 40
0
 40
1
 40
1
 40
1
 40
1
 10
135.641809
 20
280.511668
 30
0.0
 10
135.108904
 20
280.201835
 30
0.0
 10
134.453489
 20
280.199840
 30
0.0
 10
133.922454
 20
280.506434
 30
0.0
  0
SPLINE
  5
128
100
AcDbEntity
  8
Layer_1
 62
7
100
AcDbSpline
 70
8
 71
3
 72
8
 73
4
 74
0
 40
0
 40
0
 40
0
 40
0
 40
1
 40
1
 40
1
 40
1
 10
133.922454
 20
280.506434
 30
0.0
 10
133.391418
 20
280.813027
 30
0.0
 10
133.065439
 20
281.381630
 30
0.0
 10
133.067308
 20
281.998056
 30
0.0
  0
SPLINE
  5
129
100
AcDbEntity
  8
Layer_1
 62
7
100
AcDbSpline
 70
8
 71
3
 72
8
 73
4
 74
0
 40
0
 40
0
 40
0
 40
0
 40
1
 40
1
 40
1
 40
1
 10
133.067308
 20
281.998056
 30
0.0
 10
133.069178
 20
282.614482
 30
0.0
 10
133.398613
 20
283.185080
 30
0.0
 10
133.931519
 20
283.494912
 30
0.0
  0
SPLINE
  5
12a
100
AcDbEntity
  8
Layer_1
 62
7
100
AcDbSpline
 70
8
 71
3
 72
8
 73
4
 74
0
 40
0
 40
0
 40
0
 40
0
 40
1
 40
1
 40
1
 40
1
 10
133.931519
 20
283.494912
 30
0.0
 10
134.464424
 20
283.804744
 30
0.0
 10
135.119839
 20
283.806740
 30
0.0
 10
135.650874
 20
283.500146
 30
0.0
  0
LWPOLYLINE
  5
12b
100
AcDbEntity
  8
Layer_1
 62
7
100
AcDbPolyline
 90
1
 70
1
 10
67.731702
 20
271.375093
 30
0.0
  0
LWPOLYLINE
  5
12c
100
AcDbEntity
  8
Layer_1
 62
7
100
AcDbPolyline
 90
1
 70
1
 10
135.650874
 20
283.500146
 30
0.0
  0
SPLINE
  5
12d
100
AcDbEntity
  8
Layer_1
 62
7
100
AcDbSpline
 70
8
 71
3
 72
8
 73
4
 74
0
 40
0
 40
0
 40
0
 40
0
 40
1
 40
1
 40
1
 40
1
 10
17.417302
 20
282.074640
 30
0.0
 10
17.417302
 20
281.130940
 30
0.0
 10
16.910299
 20
280.258926
 30
0.0
 10
16.087276
 20
279.787076
 30
0.0
  0
SPLINE
  5
12e
100
AcDbEntity
  8
Layer_1
 62
7
100
AcDbSpline
 70
8
 71
3
 72
8
 73
4
 74
0
 40
0
 40
0
 40
0
 40
0
 40
1
 40
1
 40
1
 40
1
 10
16.087276
 20
279.787076
 30
0.0
 10
15.264252
 20
279.315226
 30
0.0
 10
14.250246
 20
279.315226
 30
0.0
 10
13.427223
 20
279.787076
 30
0.0
  0
SPLINE
  5
12f
100
AcDbEntity
  8
Layer_1
 62
7
100
AcDbSpline
 70
8
 71
3
 72
8
 73
4
 74
0
 40
0
 40
0
 40
0
 40
0
 40
1
 40
1
 40
1
 40
1
 10
13.427223
 20
279.787076
 30
0.0
 10
12.604199
 20
280.258926
 30
0.0
 10
12.097196
 20
281.130940
 30
0.0
 10
12.097196
 20
282.074640
 30
0.0
  0
SPLINE
  5
130
100
AcDbEntity
  8
Layer_1
 62
7
100
AcDbSpline
 70
8
 71
3
 72
8
 73
4
 74
0
 40
0
 40
0
 40
0
 40
0
 40
1
 40
1
 40
1
 40
1
 10
12.097196
 20
282.074640
 30
0.0
 10
12.097196
 20
283.018340
 30
0.0
 10
12.604199
 20
283.890354
 30
0.0
 10
13.427223
 20
284.362204
 30
0.0
  0
SPLINE
  5
131
100
AcDbEntity
  8
Layer_1
 62
7
100
AcDbSpline
 70
8
 71
3
 72
8
 73
4
 74
0
 40
0
 40
0
 40
0
 40
0
 40
1
 40
1
 40
1
 40
1
 10
13.427223
 20
284.362204
 30
0.0
 10
14.250246
 20
284.834054
 30
0.0
 10
15.264252
 20
284.834054
 30
0.0
 10
16.087276
 20
284.362204
 30
0.0
  0
SPLINE
  5
132
100
AcDbEntity
  8
Layer_1
 62
7
100
AcDbSpline
 70
8
 71
3
 72
8
 73
4
 74
0
 40
0
 40
0
 40
0
 40
0
 40
1
 40
1
 40
1
 40
1
 10
16.087276
 20
284.362204
 30
0.0
 10
16.910299
 20
283.890354
 30
0.0
 10
17.417302
 20
283.018340
 30
0.0
 10
17.417302
 20
282.074640
 30
0.0
  0
LWPOLYLINE
  5
133
100
AcDbEntity
  8
Layer_1
 62
7
100
AcDbPolyline
 90
7
 70
1
 10
18.721395
 20
292.514603
 30
0.0
 10
19.706951
 20
290.768367
 30
0.0
 10
20.308308
 20
290.768367
 30
0.0
 10
21.511021
 20
292.694041
 30
0.0
 10
21.206166
 20
293.315508
 30
0.0
 10
19.093067
 20
293.341767
 30
0.0
 10
18.721395
 20
292.996021
 30
0.0
  0
SPLINE
  5
134
100
AcDbEntity
  8
Layer_1
 62
7
100
AcDbSpline
 70
8
 71
3
 72
8
 73
4
 74
0
 40
0
 40
0
 40
0
 40
0
 40
1
 40
1
 40
1
 40
1
 10
127.559800
 20
277.506194
 30
0.0
 10
128.161140
 20
276.234347
 30
0.0
 10
127.623600
 20
275.477412
 30
0.0
 10
126.879910
 20
275.097219
 30
0.0
  0
SPLINE
  5
135
100
AcDbEntity
  8
Layer_1
 62
7
100
AcDbSpline
 70
8
 71
3
 72
8
 73
4
 74
0
 40
0
 40
0
 40
0
 40
0
 40
1
 40
1
 40
1
 40
1
 10
126.879910
 20
275.097219
 30
0.0
 10
126.142670
 20
274.720340
 30
0.0
 10
125.203950
 20
274.709908
 30
0.0
 10
124.709870
 20
275.782758
 30
0.0
  0
SPLINE
  5
136
100
AcDbEntity
  8
Layer_1
 62
7
100
AcDbSpline
 70
8
 71
3
 72
8
 73
4
 74
0
 40
0
 40
0
 40
0
 40
0
 40
1
 40
1
 40
1
 40
1
 10
124.709870
 20
275.782758
 30
0.0
 10
122.892600
 20
279.273358
 30
0.0
 10
121.679600
 20
282.573416
 30
0.0
 10
124.749270
 20
288.253364
 30
0.0
  0
SPLINE
  5
137
100
AcDbEntity
  8
Layer_1
 62
7
100
AcDbSpline
 70
8
 71
3
 72
8
 73
4
 74
0
 40
0
 40
0
 40
0
 40
0
 40
1
 40
1
 40
1
 40
1
 10
124.749270
 20
288.253364
 30
0.0
 10
125.098240
 20
288.899075
 30
0.0
 10
125.899360
 20
289.142194
 30
0.0
 10
126.524690
 20
288.945239
 30
0.0
  0
SPLINE
  5
138
100
AcDbEntity
  8
Layer_1
 62
7
100
AcDbSpline
 70
8
 71
3
 72
8
 73
4
 74
0
 40
0
 40
0
 40
0
 40
0
 40
1
 40
1
 40
1
 40
1
 10
126.524690
 20
288.945239
 30
0.0
 10
127.440670
 20
288.656763
 30
0.0
 10
128.300440
 20
287.883528
 30
0.0
 10
127.568970
 20
286.475390
 30
0.0
  0
SPLINE
  5
139
100
AcDbEntity
  8
Layer_1
 62
7
100
AcDbSpline
 70
8
 71
3
 72
8
 73
4
 74
0
 40
0
 40
0
 40
0
 40
0
 40
1
 40
1
 40
1
 40
1
 10
127.568970
 20
286.475390
 30
0.0
 10
125.093570
 20
281.710091
 30
0.0
 10
127.559970
 20
277.506194
 30
0.0
 10
127.559970
 20
277.506194
 30
0.0
  0
LWPOLYLINE
  5
13a
100
AcDbEntity
  8
Layer_1
 62
7
100
AcDbPolyline
 90
1
 70
1
 10
17.417302
 20
282.074640
 30
0.0
  0
SPLINE
  5
13b
100
AcDbEntity
  8
Layer_1
 62
7
100
AcDbSpline
 70
8
 71
3
 72
8
 73
4
 74
0
 40
0
 40
0
 40
0
 40
0
 40
1
 40
1
 40
1
 40
1
 10
142.184270
 20
277.925560
 30
0.0
 10
142.985060
 20
279.082238
 30
0.0
 10
143.909330
 20
278.995218
 30
0.0
 10
144.610470
 20
278.541252
 30
0.0
  0
SPLINE
  5
13c
100
AcDbEntity
  8
Layer_1
 62
7
100
AcDbSpline
 70
8
 71
3
 72
8
 73
4
 74
0
 40
0
 40
0
 40
0
 40
0
 40
1
 40
1
 40
1
 40
1
 10
144.610470
 20
278.541252
 30
0.0
 10
145.305480
 20
278.091252
 30
0.0
 10
145.783860
 20
277.283485
 30
0.0
 10
145.101790
 20
276.319166
 30
0.0
  0
SPLINE
  5
13d
100
AcDbEntity
  8
Layer_1
 62
7
100
AcDbSpline
 70
8
 71
3
 72
8
 73
4
 74
0
 40
0
 40
0
 40
0
 40
0
 40
1
 40
1
 40
1
 40
1
 10
145.101790
 20
276.319166
 30
0.0
 10
142.987490
 20
273.000061
 30
0.0
 10
140.736030
 20
270.299535
 30
0.0
 10
134.282220
 20
270.117989
 30
0.0
  0
SPLINE
  5
13e
100
AcDbEntity
  8
Layer_1
 62
7
100
AcDbSpline
 70
8
 71
3
 72
8
 73
4
 74
0
 40
0
 40
0
 40
0
 40
0
 40
1
 40
1
 40
1
 40
1
 10
134.282220
 20
270.117989
 30
0.0
 10
133.548520
 20
270.097339
 30
0.0
 10
132.937440
 20
270.669620
 30
0.0
 10
132.795330
 20
271.309627
 30
0.0
  0
SPLINE
  5
13f
100
AcDbEntity
  8
Layer_1
 62
7
100
AcDbSpline
 70
8
 71
3
 72
8
 73
4
 74
0
 40
0
 40
0
 40
0
 40
0
 40
1
 40
1
 40
1
 40
1
 10
132.795330
 20
271.309627
 30
0.0
 10
132.587170
 20
272.247123
 30
0.0
 10
132.826930
 20
273.378330
 30
0.0
 10
134.412150
 20
273.448908
 30
0.0
  0
SPLINE
  5
140
100
AcDbEntity
  8
Layer_1
 62
7
100
AcDbSpline
 70
8
 71
3
 72
8
 73
4
 74
0
 40
0
 40
0
 40
0
 40
0
 40
1
 40
1
 40
1
 40
1
 10
134.412150
 20
273.448908
 30
0.0
 10
139.776730
 20
273.687816
 30
0.0
 10
142.184310
 20
277.925547
 30
0.0
 10
142.184310
 20
277.925547
 30
0.0
  0
LWPOLYLINE
  5
141
100
AcDbEntity
  8
Layer_1
 62
7
100
AcDbPolyline
 90
2
 70
0
 10
127.559970
 20
277.506194
 30
0.0
 10
127.559800
 20
277.506194
 30
0.0
  0
SPLINE
  5
142
100
AcDbEntity
  8
Layer_1
 62
7
100
AcDbSpline
 70
8
 71
3
 72
8
 73
4
 74
0
 40
0
 40
0
 40
0
 40
0
 40
1
 40
1
 40
1
 40
1
 10
134.516140
 20
290.471709
 30
0.0
 10
133.114010
 20
290.586839
 30
0.0
 10
132.727250
 20
291.430831
 30
0.0
 10
132.769840
 20
292.264985
 30
0.0
  0
SPLINE
  5
143
100
AcDbEntity
  8
Layer_1
 62
7
100
AcDbSpline
 70
8
 71
3
 72
8
 73
4
 74
0
 40
0
 40
0
 40
0
 40
0
 40
1
 40
1
 40
1
 40
1
 10
132.769840
 20
292.264985
 30
0.0
 10
132.812040
 20
293.091909
 30
0.0
 10
133.272390
 20
293.910055
 30
0.0
 10
134.448550
 20
293.801532
 30
0.0
  0
SPLINE
  5
144
100
AcDbEntity
  8
Layer_1
 62
7
100
AcDbSpline
 70
8
 71
3
 72
8
 73
4
 74
0
 40
0
 40
0
 40
0
 40
0
 40
1
 40
1
 40
1
 40
1
 10
134.448550
 20
293.801532
 30
0.0
 10
138.380140
 20
293.630032
 30
0.0
 10
141.844590
 20
293.030490
 30
0.0
 10
145.228720
 20
287.532115
 30
0.0
  0
SPLINE
  5
145
100
AcDbEntity
  8
Layer_1
 62
7
100
AcDbSpline
 70
8
 71
3
 72
8
 73
4
 74
0
 40
0
 40
0
 40
0
 40
0
 40
1
 40
1
 40
1
 40
1
 10
145.228720
 20
287.532115
 30
0.0
 10
145.613410
 20
286.907008
 30
0.0
 10
145.423410
 20
286.091656
 30
0.0
 10
144.940180
 20
285.648578
 30
0.0
  0
SPLINE
  5
146
100
AcDbEntity
  8
Layer_1
 62
7
100
AcDbSpline
 70
8
 71
3
 72
8
 73
4
 74
0
 40
0
 40
0
 40
0
 40
0
 40
1
 40
1
 40
1
 40
1
 10
144.940180
 20
285.648578
 30
0.0
 10
144.232370
 20
284.999573
 30
0.0
 10
143.132850
 20
284.641602
 30
0.0
 10
142.279090
 20
285.979149
 30
0.0
  0
SPLINE
  5
147
100
AcDbEntity
  8
Layer_1
 62
7
100
AcDbSpline
 70
8
 71
3
 72
8
 73
4
 74
0
 40
0
 40
0
 40
0
 40
0
 40
1
 40
1
 40
1
 40
1
 10
142.279090
 20
285.979149
 30
0.0
 10
139.389930
 20
290.505555
 30
0.0
 10
134.516040
 20
290.471546
 30
0.0
 10
134.516040
 20
290.471546
 30
0.0
  0
LWPOLYLINE
  5
148
100
AcDbEntity
  8
Layer_1
 62
7
100
AcDbPolyline
 90
1
 70
1
 10
142.184310
 20
277.925547
 30
0.0
  0
SPLINE
  5
149
100
AcDbEntity
  8
Layer_1
 62
7
100
AcDbSpline
 70
8
 71
3
 72
8
 73
4
 74
0
 40
0
 40
0
 40
0
 40
0
 40
1
 40
1
 40
1
 40
1
 10
102.736706
 20
271.412207
 30
0.0
 10
102.736706
 20
270.883116
 30
0.0
 10
102.452451
 20
270.394215
 30
0.0
 10
101.991018
 20
270.129670
 30
0.0
  0
SPLINE
  5
14a
100
AcDbEntity
  8
Layer_1
 62
7
100
AcDbSpline
 70
8
 71
3
 72
8
 73
4
 74
0
 40
0
 40
0
 40
0
 40
0
 40
1
 40
1
 40
1
 40
1
 10
101.991018
 20
270.129670
 30
0.0
 10
101.529585
 20
269.865124
 30
0.0
 10
100.961075
 20
269.865124
 30
0.0
 10
100.499642
 20
270.129670
 30
0.0
  0
SPLINE
  5
14b
100
AcDbEntity
  8
Layer_1
 62
7
100
AcDbSpline
 70
8
 71
3
 72
8
 73
4
 74
0
 40
0
 40
0
 40
0
 40
0
 40
1
 40
1
 40
1
 40
1
 10
100.499642
 20
270.129670
 30
0.0
 10
100.038209
 20
270.394215
 30
0.0
 10
99.753954
 20
270.883116
 30
0.0
 10
99.753954
 20
271.412207
 30
0.0
  0
SPLINE
  5
14c
100
AcDbEntity
  8
Layer_1
 62
7
100
AcDbSpline
 70
8
 71
3
 72
8
 73
4
 74
0
 40
0
 40
0
 40
0
 40
0
 40
1
 40
1
 40
1
 40
1
 10
99.753954
 20
271.412207
 30
0.0
 10
99.753954
 20
271.941298
 30
0.0
 10
100.038209
 20
272.430199
 30
0.0
 10
100.499642
 20
272.694744
 30
0.0
  0
SPLINE
  5
14d
100
AcDbEntity
  8
Layer_1
 62
7
100
AcDbSpline
 70
8
 71
3
 72
8
 73
4
 74
0
 40
0
 40
0
 40
0
 40
0
 40
1
 40
1
 40
1
 40
1
 10
100.499642
 20
272.694744
 30
0.0
 10
100.961075
 20
272.959290
 30
0.0
 10
101.529585
 20
272.959290
 30
0.0
 10
101.991018
 20
272.694744
 30
0.0
  0
SPLINE
  5
14e
100
AcDbEntity
  8
Layer_1
 62
7
100
AcDbSpline
 70
8
 71
3
 72
8
 73
4
 74
0
 40
0
 40
0
 40
0
 40
0
 40
1
 40
1
 40
1
 40
1
 10
101.991018
 20
272.694744
 30
0.0
 10
102.452451
 20
272.430199
 30
0.0
 10
102.736706
 20
271.941298
 30
0.0
 10
102.736706
 20
271.412207
 30
0.0
  0
LWPOLYLINE
  5
14f
100
AcDbEntity
  8
Layer_1
 62
7
100
AcDbPolyline
 90
2
 70
0
 10
134.516040
 20
290.471546
 30
0.0
 10
134.516140
 20
290.471709
 30
0.0
  0
SPLINE
  5
150
100
AcDbEntity
  8
Layer_1
 62
7
100
AcDbSpline
 70
8
 71
3
 72
8
 73
4
 74
0
 40
0
 40
0
 40
0
 40
0
 40
1
 40
1
 40
1
 40
1
 10
14.994841
 20
267.040179
 30
0.0
 10
-4.779170
 20
267.093129
 30
0.0
 10
-5.083781
 20
237.071596
 30
0.0
 10
14.928021
 20
237.077094
 30
0.0
  0
LWPOLYLINE
  5
151
100
AcDbEntity
  8
Layer_1
 62
7
100
AcDbPolyline
 90
1
 70
1
 10
102.736706
 20
271.412207
 30
0.0
  0
SPLINE
  5
152
100
AcDbEntity
  8
Layer_1
 62
7
100
AcDbSpline
 70
8
 71
3
 72
8
 73
4
 74
0
 40
0
 40
0
 40
0
 40
0
 40
1
 40
1
 40
1
 40
1
 10
136.502240
 20
237.110504
 30
0.0
 10
154.810210
 20
237.115504
 30
0.0
 10
154.761450
 20
266.886353
 30
0.0
 10
136.415240
 20
266.906545
 30
0.0
  0
LWPOLYLINE
  5
153
100
AcDbEntity
  8
Layer_1
 62
7
100
AcDbPolyline
 90
2
 70
0
 10
14.928021
 20
237.077094
 30
0.0
 10
136.502240
 20
237.110504
 30
0.0
  0
SPLINE
  5
154
100
AcDbEntity
  8
Layer_1
 62
7
100
AcDbSpline
 70
8
 71
3
 72
8
 73
4
 74
0
 40
0
 40
0
 40
0
 40
0
 40
1
 40
1
 40
1
 40
1
 10
10.900299
 20
258.620937
 30
0.0
 10
10.900299
 20
258.091846
 30
0.0
 10
10.616044
 20
257.602945
 30
0.0
 10
10.154611
 20
257.338400
 30
0.0
  0
SPLINE
  5
155
100
AcDbEntity
  8
Layer_1
 62
7
100
AcDbSpline
 70
8
 71
3
 72
8
 73
4
 74
0
 40
0
 40
0
 40
0
 40
0
 40
1
 40
1
 40
1
 40
1
 10
10.154611
 20
257.338400
 30
0.0
 10
9.693178
 20
257.073854
 30
0.0
 10
9.124668
 20
257.073854
 30
0.0
 10
8.663235
 20
257.338400
 30
0.0
  0
SPLINE
  5
156
100
AcDbEntity
  8
Layer_1
 62
7
100
AcDbSpline
 70
8
 71
3
 72
8
 73
4
 74
0
 40
0
 40
0
 40
0
 40
0
 40
1
 40
1
 40
1
 40
1
 10
8.663235
 20
257.338400
 30
0.0
 10
8.201802
 20
257.602945
 30
0.0
 10
7.917547
 20
258.091846
 30
0.0
 10
7.917547
 20
258.620937
 30
0.0
  0
SPLINE
  5
157
100
AcDbEntity
  8
Layer_1
 62
7
100
AcDbSpline
 70
8
 71
3
 72
8
 73
4
 74
0
 40
0
 40
0
 40
0
 40
0
 40
1
 40
1
 40
1
 40
1
 10
7.917547
 20
258.620937
 30
0.0
 10
7.917547
 20
259.150028
 30
0.0
 10
8.201802
 20
259.638929
 30
0.0
 10
8.663235
 20
259.903474
 30
0.0
  0
SPLINE
  5
158
100
AcDbEntity
  8
Layer_1
 62
7
100
AcDbSpline
 70
8
 71
3
 72
8
 73
4
 74
0
 40
0
 40
0
 40
0
 40
0
 40
1
 40
1
 40
1
 40
1
 10
8.663235
 20
259.903474
 30
0.0
 10
9.124668
 20
260.168020
 30
0.0
 10
9.693178
 20
260.168020
 30
0.0
 10
10.154611
 20
259.903474
 30
0.0
  0
SPLINE
  5
159
100
AcDbEntity
  8
Layer_1
 62
7
100
AcDbSpline
 70
8
 71
3
 72
8
 73
4
 74
0
 40
0
 40
0
 40
0
 40
0
 40
1
 40
1
 40
1
 40
1
 10
10.154611
 20
259.903474
 30
0.0
 10
10.616044
 20
259.638929
 30
0.0
 10
10.900299
 20
259.150028
 30
0.0
 10
10.900299
 20
258.620937
 30
0.0
  0
LWPOLYLINE
  5
15a
100
AcDbEntity
  8
Layer_1
 62
7
100
AcDbPolyline
 90
2
 70
0
 10
136.415240
 20
266.906545
 30
0.0
 10
14.994841
 20
267.040179
 30
0.0
  0
SPLINE
  5
15b
100
AcDbEntity
  8
Layer_1
 62
7
100
AcDbSpline
 70
8
 71
3
 72
8
 73
4
 74
0
 40
0
 40
0
 40
0
 40
0
 40
1
 40
1
 40
1
 40
1
 10
24.862853
 20
253.643295
 30
0.0
 10
24.862853
 20
252.825391
 30
0.0
 10
24.195141
 20
252.162348
 30
0.0
 10
23.371477
 20
252.162348
 30
0.0
  0
SPLINE
  5
15c
100
AcDbEntity
  8
Layer_1
 62
7
100
AcDbSpline
 70
8
 71
3
 72
8
 73
4
 74
0
 40
0
 40
0
 40
0
 40
0
 40
1
 40
1
 40
1
 40
1
 10
23.371477
 20
252.162348
 30
0.0
 10
22.547813
 20
252.162348
 30
0.0
 10
21.880101
 20
252.825391
 30
0.0
 10
21.880101
 20
253.643295
 30
0.0
  0
SPLINE
  5
15d
100
AcDbEntity
  8
Layer_1
 62
7
100
AcDbSpline
 70
8
 71
3
 72
8
 73
4
 74
0
 40
0
 40
0
 40
0
 40
0
 40
1
 40
1
 40
1
 40
1
 10
21.880101
 20
253.643295
 30
0.0
 10
21.880101
 20
254.461199
 30
0.0
 10
22.547813
 20
255.124242
 30
0.0
 10
23.371477
 20
255.124242
 30
0.0
  0
SPLINE
  5
15e
100
AcDbEntity
  8
Layer_1
 62
7
100
AcDbSpline
 70
8
 71
3
 72
8
 73
4
 74
0
 40
0
 40
0
 40
0
 40
0
 40
1
 40
1
 40
1
 40
1
 10
23.371477
 20
255.124242
 30
0.0
 10
24.195141
 20
255.124242
 30
0.0
 10
24.862853
 20
254.461199
 30
0.0
 10
24.862853
 20
253.643295
 30
0.0
  0
LWPOLYLINE
  5
15f
100
AcDbEntity
  8
Layer_1
 62
7
100
AcDbPolyline
 90
1
 70
1
 10
10.900299
 20
258.620937
 30
0.0
  0
SPLINE
  5
160
100
AcDbEntity
  8
Layer_1
 62
7
100
AcDbSpline
 70
8
 71
3
 72
8
 73
4
 74
0
 40
0
 40
0
 40
0
 40
0
 40
1
 40
1
 40
1
 40
1
 10
13.568794
 20
244.046032
 30
0.0
 10
13.568794
 20
243.516941
 30
0.0
 10
13.284539
 20
243.028040
 30
0.0
 10
12.823106
 20
242.763495
 30
0.0
  0
SPLINE
  5
161
100
AcDbEntity
  8
Layer_1
 62
7
100
AcDbSpline
 70
8
 71
3
 72
8
 73
4
 74
0
 40
0
 40
0
 40
0
 40
0
 40
1
 40
1
 40
1
 40
1
 10
12.823106
 20
242.763495
 30
0.0
 10
12.361673
 20
242.498949
 30
0.0
 10
11.793163
 20
242.498949
 30
0.0
 10
11.331730
 20
242.763495
 30
0.0
  0
SPLINE
  5
162
100
AcDbEntity
  8
Layer_1
 62
7
100
AcDbSpline
 70
8
 71
3
 72
8
 73
4
 74
0
 40
0
 40
0
 40
0
 40
0
 40
1
 40
1
 40
1
 40
1
 10
11.331730
 20
242.763495
 30
0.0
 10
10.870297
 20
243.028040
 30
0.0
 10
10.586042
 20
243.516941
 30
0.0
 10
10.586042
 20
244.046032
 30
0.0
  0
SPLINE
  5
163
100
AcDbEntity
  8
Layer_1
 62
7
100
AcDbSpline
 70
8
 71
3
 72
8
 73
4
 74
0
 40
0
 40
0
 40
0
 40
0
 40
1
 40
1
 40
1
 40
1
 10
10.586042
 20
244.046032
 30
0.0
 10
10.586042
 20
244.575123
 30
0.0
 10
10.870297
 20
245.064024
 30
0.0
 10
11.331730
 20
245.328569
 30
0.0
  0
SPLINE
  5
164
100
AcDbEntity
  8
Layer_1
 62
7
100
AcDbSpline
 70
8
 71
3
 72
8
 73
4
 74
0
 40
0
 40
0
 40
0
 40
0
 40
1
 40
1
 40
1
 40
1
 10
11.331730
 20
245.328569
 30
0.0
 10
11.793163
 20
245.593115
 30
0.0
 10
12.361673
 20
245.593115
 30
0.0
 10
12.823106
 20
245.328569
 30
0.0
  0
SPLINE
  5
165
100
AcDbEntity
  8
Layer_1
 62
7
100
AcDbSpline
 70
8
 71
3
 72
8
 73
4
 74
0
 40
0
 40
0
 40
0
 40
0
 40
1
 40
1
 40
1
 40
1
 10
12.823106
 20
245.328569
 30
0.0
 10
13.284539
 20
245.064024
 30
0.0
 10
13.568794
 20
244.575123
 30
0.0
 10
13.568794
 20
244.046032
 30
0.0
  0
LWPOLYLINE
  5
166
100
AcDbEntity
  8
Layer_1
 62
7
100
AcDbPolyline
 90
1
 70
1
 10
24.862853
 20
253.643295
 30
0.0
  0
SPLINE
  5
167
100
AcDbEntity
  8
Layer_1
 62
7
100
AcDbSpline
 70
8
 71
3
 72
8
 73
4
 74
0
 40
0
 40
0
 40
0
 40
0
 40
1
 40
1
 40
1
 40
1
 10
33.081815
 20
241.412006
 30
0.0
 10
33.081815
 20
240.882915
 30
0.0
 10
32.797560
 20
240.394014
 30
0.0
 10
32.336127
 20
240.129469
 30
0.0
  0
SPLINE
  5
168
100
AcDbEntity
  8
Layer_1
 62
7
100
AcDbSpline
 70
8
 71
3
 72
8
 73
4
 74
0
 40
0
 40
0
 40
0
 40
0
 40
1
 40
1
 40
1
 40
1
 10
32.336127
 20
240.129469
 30
0.0
 10
31.874694
 20
239.864923
 30
0.0
 10
31.306184
 20
239.864923
 30
0.0
 10
30.844751
 20
240.129469
 30
0.0
  0
SPLINE
  5
169
100
AcDbEntity
  8
Layer_1
 62
7
100
AcDbSpline
 70
8
 71
3
 72
8
 73
4
 74
0
 40
0
 40
0
 40
0
 40
0
 40
1
 40
1
 40
1
 40
1
 10
30.844751
 20
240.129469
 30
0.0
 10
30.383318
 20
240.394014
 30
0.0
 10
30.099063
 20
240.882915
 30
0.0
 10
30.099063
 20
241.412006
 30
0.0
  0
SPLINE
  5
16a
100
AcDbEntity
  8
Layer_1
 62
7
100
AcDbSpline
 70
8
 71
3
 72
8
 73
4
 74
0
 40
0
 40
0
 40
0
 40
0
 40
1
 40
1
 40
1
 40
1
 10
30.099063
 20
241.412006
 30
0.0
 10
30.099063
 20
241.941097
 30
0.0
 10
30.383318
 20
242.429998
 30
0.0
 10
30.844751
 20
242.694543
 30
0.0
  0
SPLINE
  5
16b
100
AcDbEntity
  8
Layer_1
 62
7
100
AcDbSpline
 70
8
 71
3
 72
8
 73
4
 74
0
 40
0
 40
0
 40
0
 40
0
 40
1
 40
1
 40
1
 40
1
 10
30.844751
 20
242.694543
 30
0.0
 10
31.306184
 20
242.959089
 30
0.0
 10
31.874694
 20
242.959089
 30
0.0
 10
32.336127
 20
242.694543
 30
0.0
  0
SPLINE
  5
16c
100
AcDbEntity
  8
Layer_1
 62
7
100
AcDbSpline
 70
8
 71
3
 72
8
 73
4
 74
0
 40
0
 40
0
 40
0
 40
0
 40
1
 40
1
 40
1
 40
1
 10
32.336127
 20
242.694543
 30
0.0
 10
32.797560
 20
242.429998
 30
0.0
 10
33.081815
 20
241.941097
 30
0.0
 10
33.081815
 20
241.412006
 30
0.0
  0
LWPOLYLINE
  5
16d
100
AcDbEntity
  8
Layer_1
 62
7
100
AcDbPolyline
 90
1
 70
1
 10
13.568794
 20
244.046032
 30
0.0
  0
SPLINE
  5
16e
100
AcDbEntity
  8
Layer_1
 62
7
100
AcDbSpline
 70
8
 71
3
 72
8
 73
4
 74
0
 40
0
 40
0
 40
0
 40
0
 40
1
 40
1
 40
1
 40
1
 10
67.926496
 20
241.412006
 30
0.0
 10
67.926496
 20
240.882915
 30
0.0
 10
67.642241
 20
240.394014
 30
0.0
 10
67.180808
 20
240.129469
 30
0.0
  0
SPLINE
  5
16f
100
AcDbEntity
  8
Layer_1
 62
7
100
AcDbSpline
 70
8
 71
3
 72
8
 73
4
 74
0
 40
0
 40
0
 40
0
 40
0
 40
1
 40
1
 40
1
 40
1
 10
67.180808
 20
240.129469
 30
0.0
 10
66.719375
 20
239.864923
 30
0.0
 10
66.150865
 20
239.864923
 30
0.0
 10
65.689432
 20
240.129469
 30
0.0
  0
SPLINE
  5
170
100
AcDbEntity
  8
Layer_1
 62
7
100
AcDbSpline
 70
8
 71
3
 72
8
 73
4
 74
0
 40
0
 40
0
 40
0
 40
0
 40
1
 40
1
 40
1
 40
1
 10
65.689432
 20
240.129469
 30
0.0
 10
65.227999
 20
240.394014
 30
0.0
 10
64.943744
 20
240.882915
 30
0.0
 10
64.943744
 20
241.412006
 30
0.0
  0
SPLINE
  5
171
100
AcDbEntity
  8
Layer_1
 62
7
100
AcDbSpline
 70
8
 71
3
 72
8
 73
4
 74
0
 40
0
 40
0
 40
0
 40
0
 40
1
 40
1
 40
1
 40
1
 10
64.943744
 20
241.412006
 30
0.0
 10
64.943744
 20
241.941097
 30
0.0
 10
65.227999
 20
242.429998
 30
0.0
 10
65.689432
 20
242.694543
 30
0.0
  0
SPLINE
  5
172
100
AcDbEntity
  8
Layer_1
 62
7
100
AcDbSpline
 70
8
 71
3
 72
8
 73
4
 74
0
 40
0
 40
0
 40
0
 40
0
 40
1
 40
1
 40
1
 40
1
 10
65.689432
 20
242.694543
 30
0.0
 10
66.150865
 20
242.959089
 30
0.0
 10
66.719375
 20
242.959089
 30
0.0
 10
67.180808
 20
242.694543
 30
0.0
  0
SPLINE
  5
173
100
AcDbEntity
  8
Layer_1
 62
7
100
AcDbSpline
 70
8
 71
3
 72
8
 73
4
 74
0
 40
0
 40
0
 40
0
 40
0
 40
1
 40
1
 40
1
 40
1
 10
67.180808
 20
242.694543
 30
0.0
 10
67.642241
 20
242.429998
 30
0.0
 10
67.926496
 20
241.941097
 30
0.0
 10
67.926496
 20
241.412006
 30
0.0
  0
LWPOLYLINE
  5
174
100
AcDbEntity
  8
Layer_1
 62
7
100
AcDbPolyline
 90
1
 70
1
 10
33.081815
 20
241.412006
 30
0.0
  0
SPLINE
  5
175
100
AcDbEntity
  8
Layer_1
 62
7
100
AcDbSpline
 70
8
 71
3
 72
8
 73
4
 74
0
 40
0
 40
0
 40
0
 40
0
 40
1
 40
1
 40
1
 40
1
 10
135.845669
 20
253.537061
 30
0.0
 10
136.376705
 20
253.230468
 30
0.0
 10
136.702684
 20
252.661865
 30
0.0
 10
136.700814
 20
252.045439
 30
0.0
  0
SPLINE
  5
176
100
AcDbEntity
  8
Layer_1
 62
7
100
AcDbSpline
 70
8
 71
3
 72
8
 73
4
 74
0
 40
0
 40
0
 40
0
 40
0
 40
1
 40
1
 40
1
 40
1
 10
136.700814
 20
252.045439
 30
0.0
 10
136.698945
 20
251.429013
 30
0.0
 10
136.369509
 20
250.858415
 30
0.0
 10
135.836604
 20
250.548583
 30
0.0
  0
SPLINE
  5
177
100
AcDbEntity
  8
Layer_1
 62
7
100
AcDbSpline
 70
8
 71
3
 72
8
 73
4
 74
0
 40
0
 40
0
 40
0
 40
0
 40
1
 40
1
 40
1
 40
1
 10
135.836604
 20
250.548583
 30
0.0
 10
135.303699
 20
250.238751
 30
0.0
 10
134.648284
 20
250.236756
 30
0.0
 10
134.117249
 20
250.543349
 30
0.0
  0
SPLINE
  5
178
100
AcDbEntity
  8
Layer_1
 62
7
100
AcDbSpline
 70
8
 71
3
 72
8
 73
4
 74
0
 40
0
 40
0
 40
0
 40
0
 40
1
 40
1
 40
1
 40
1
 10
134.117249
 20
250.543349
 30
0.0
 10
133.586213
 20
250.849942
 30
0.0
 10
133.260234
 20
251.418546
 30
0.0
 10
133.262104
 20
252.034971
 30
0.0
  0
SPLINE
  5
179
100
AcDbEntity
  8
Layer_1
 62
7
100
AcDbSpline
 70
8
 71
3
 72
8
 73
4
 74
0
 40
0
 40
0
 40
0
 40
0
 40
1
 40
1
 40
1
 40
1
 10
133.262104
 20
252.034971
 30
0.0
 10
133.263974
 20
252.651397
 30
0.0
 10
133.593409
 20
253.221995
 30
0.0
 10
134.126314
 20
253.531827
 30
0.0
  0
SPLINE
  5
17a
100
AcDbEntity
  8
Layer_1
 62
7
100
AcDbSpline
 70
8
 71
3
 72
8
 73
4
 74
0
 40
0
 40
0
 40
0
 40
0
 40
1
 40
1
 40
1
 40
1
 10
134.126314
 20
253.531827
 30
0.0
 10
134.659219
 20
253.841660
 30
0.0
 10
135.314634
 20
253.843655
 30
0.0
 10
135.845669
 20
253.537061
 30
0.0
  0
LWPOLYLINE
  5
17b
100
AcDbEntity
  8
Layer_1
 62
7
100
AcDbPolyline
 90
1
 70
1
 10
67.926496
 20
241.412006
 30
0.0
  0
LWPOLYLINE
  5
17c
100
AcDbEntity
  8
Layer_1
 62
7
100
AcDbPolyline
 90
1
 70
1
 10
135.845669
 20
253.537061
 30
0.0
  0
SPLINE
  5
17d
100
AcDbEntity
  8
Layer_1
 62
7
100
AcDbSpline
 70
8
 71
3
 72
8
 73
4
 74
0
 40
0
 40
0
 40
0
 40
0
 40
1
 40
1
 40
1
 40
1
 10
17.612094
 20
252.111557
 30
0.0
 10
17.612094
 20
251.167857
 30
0.0
 10
17.105091
 20
250.295843
 30
0.0
 10
16.282068
 20
249.823993
 30
0.0
  0
SPLINE
  5
17e
100
AcDbEntity
  8
Layer_1
 62
7
100
AcDbSpline
 70
8
 71
3
 72
8
 73
4
 74
0
 40
0
 40
0
 40
0
 40
0
 40
1
 40
1
 40
1
 40
1
 10
16.282068
 20
249.823993
 30
0.0
 10
15.459044
 20
249.352143
 30
0.0
 10
14.445038
 20
249.352143
 30
0.0
 10
13.622015
 20
249.823993
 30
0.0
  0
SPLINE
  5
17f
100
AcDbEntity
  8
Layer_1
 62
7
100
AcDbSpline
 70
8
 71
3
 72
8
 73
4
 74
0
 40
0
 40
0
 40
0
 40
0
 40
1
 40
1
 40
1
 40
1
 10
13.622015
 20
249.823993
 30
0.0
 10
12.798991
 20
250.295843
 30
0.0
 10
12.291988
 20
251.167857
 30
0.0
 10
12.291988
 20
252.111557
 30
0.0
  0
SPLINE
  5
180
100
AcDbEntity
  8
Layer_1
 62
7
100
AcDbSpline
 70
8
 71
3
 72
8
 73
4
 74
0
 40
0
 40
0
 40
0
 40
0
 40
1
 40
1
 40
1
 40
1
 10
12.291988
 20
252.111557
 30
0.0
 10
12.291988
 20
253.055257
 30
0.0
 10
12.798991
 20
253.927271
 30
0.0
 10
13.622015
 20
254.399121
 30
0.0
  0
SPLINE
  5
181
100
AcDbEntity
  8
Layer_1
 62
7
100
AcDbSpline
 70
8
 71
3
 72
8
 73
4
 74
0
 40
0
 40
0
 40
0
 40
0
 40
1
 40
1
 40
1
 40
1
 10
13.622015
 20
254.399121
 30
0.0
 10
14.445038
 20
254.870971
 30
0.0
 10
15.459044
 20
254.870971
 30
0.0
 10
16.282068
 20
254.399121
 30
0.0
  0
SPLINE
  5
182
100
AcDbEntity
  8
Layer_1
 62
7
100
AcDbSpline
 70
8
 71
3
 72
8
 73
4
 74
0
 40
0
 40
0
 40
0
 40
0
 40
1
 40
1
 40
1
 40
1
 10
16.282068
 20
254.399121
 30
0.0
 10
17.105091
 20
253.927271
 30
0.0
 10
17.612094
 20
253.055257
 30
0.0
 10
17.612094
 20
252.111557
 30
0.0
  0
LWPOLYLINE
  5
183
100
AcDbEntity
  8
Layer_1
 62
7
100
AcDbPolyline
 90
7
 70
1
 10
18.916186
 20
262.551519
 30
0.0
 10
19.901742
 20
260.805283
 30
0.0
 10
20.503099
 20
260.805283
 30
0.0
 10
21.705812
 20
262.730957
 30
0.0
 10
21.400957
 20
263.352424
 30
0.0
 10
19.287858
 20
263.378684
 30
0.0
 10
18.916186
 20
263.032938
 30
0.0
  0
SPLINE
  5
184
100
AcDbEntity
  8
Layer_1
 62
7
100
AcDbSpline
 70
8
 71
3
 72
8
 73
4
 74
0
 40
0
 40
0
 40
0
 40
0
 40
1
 40
1
 40
1
 40
1
 10
127.754590
 20
247.543110
 30
0.0
 10
128.355930
 20
246.271263
 30
0.0
 10
127.818390
 20
245.514328
 30
0.0
 10
127.074700
 20
245.134135
 30
0.0
  0
SPLINE
  5
185
100
AcDbEntity
  8
Layer_1
 62
7
100
AcDbSpline
 70
8
 71
3
 72
8
 73
4
 74
0
 40
0
 40
0
 40
0
 40
0
 40
1
 40
1
 40
1
 40
1
 10
127.074700
 20
245.134135
 30
0.0
 10
126.337460
 20
244.757256
 30
0.0
 10
125.398740
 20
244.746824
 30
0.0
 10
124.904660
 20
245.819674
 30
0.0
  0
SPLINE
  5
186
100
AcDbEntity
  8
Layer_1
 62
7
100
AcDbSpline
 70
8
 71
3
 72
8
 73
4
 74
0
 40
0
 40
0
 40
0
 40
0
 40
1
 40
1
 40
1
 40
1
 10
124.904660
 20
245.819674
 30
0.0
 10
123.087390
 20
249.310274
 30
0.0
 10
121.874390
 20
252.610332
 30
0.0
 10
124.944060
 20
258.290280
 30
0.0
  0
SPLINE
  5
187
100
AcDbEntity
  8
Layer_1
 62
7
100
AcDbSpline
 70
8
 71
3
 72
8
 73
4
 74
0
 40
0
 40
0
 40
0
 40
0
 40
1
 40
1
 40
1
 40
1
 10
124.944060
 20
258.290280
 30
0.0
 10
125.293030
 20
258.935991
 30
0.0
 10
126.094150
 20
259.179110
 30
0.0
 10
126.719480
 20
258.982155
 30
0.0
  0
SPLINE
  5
188
100
AcDbEntity
  8
Layer_1
 62
7
100
AcDbSpline
 70
8
 71
3
 72
8
 73
4
 74
0
 40
0
 40
0
 40
0
 40
0
 40
1
 40
1
 40
1
 40
1
 10
126.719480
 20
258.982155
 30
0.0
 10
127.635460
 20
258.693679
 30
0.0
 10
128.495230
 20
257.920444
 30
0.0
 10
127.763760
 20
256.512307
 30
0.0
  0
SPLINE
  5
189
100
AcDbEntity
  8
Layer_1
 62
7
100
AcDbSpline
 70
8
 71
3
 72
8
 73
4
 74
0
 40
0
 40
0
 40
0
 40
0
 40
1
 40
1
 40
1
 40
1
 10
127.763760
 20
256.512307
 30
0.0
 10
125.288360
 20
251.747007
 30
0.0
 10
127.754760
 20
247.543110
 30
0.0
 10
127.754760
 20
247.543110
 30
0.0
  0
LWPOLYLINE
  5
18a
100
AcDbEntity
  8
Layer_1
 62
7
100
AcDbPolyline
 90
1
 70
1
 10
17.612094
 20
252.111557
 30
0.0
  0
SPLINE
  5
18b
100
AcDbEntity
  8
Layer_1
 62
7
100
AcDbSpline
 70
8
 71
3
 72
8
 73
4
 74
0
 40
0
 40
0
 40
0
 40
0
 40
1
 40
1
 40
1
 40
1
 10
142.379060
 20
247.962476
 30
0.0
 10
143.179850
 20
249.119154
 30
0.0
 10
144.104120
 20
249.032134
 30
0.0
 10
144.805260
 20
248.578168
 30
0.0
  0
SPLINE
  5
18c
100
AcDbEntity
  8
Layer_1
 62
7
100
AcDbSpline
 70
8
 71
3
 72
8
 73
4
 74
0
 40
0
 40
0
 40
0
 40
0
 40
1
 40
1
 40
1
 40
1
 10
144.805260
 20
248.578168
 30
0.0
 10
145.500270
 20
248.128168
 30
0.0
 10
145.978650
 20
247.320401
 30
0.0
 10
145.296580
 20
246.356082
 30
0.0
  0
SPLINE
  5
18d
100
AcDbEntity
  8
Layer_1
 62
7
100
AcDbSpline
 70
8
 71
3
 72
8
 73
4
 74
0
 40
0
 40
0
 40
0
 40
0
 40
1
 40
1
 40
1
 40
1
 10
145.296580
 20
246.356082
 30
0.0
 10
143.182280
 20
243.036977
 30
0.0
 10
140.930820
 20
240.336451
 30
0.0
 10
134.477010
 20
240.154905
 30
0.0
  0
SPLINE
  5
18e
100
AcDbEntity
  8
Layer_1
 62
7
100
AcDbSpline
 70
8
 71
3
 72
8
 73
4
 74
0
 40
0
 40
0
 40
0
 40
0
 40
1
 40
1
 40
1
 40
1
 10
134.477010
 20
240.154905
 30
0.0
 10
133.743310
 20
240.134245
 30
0.0
 10
133.132230
 20
240.706537
 30
0.0
 10
132.990120
 20
241.346543
 30
0.0
  0
SPLINE
  5
18f
100
AcDbEntity
  8
Layer_1
 62
7
100
AcDbSpline
 70
8
 71
3
 72
8
 73
4
 74
0
 40
0
 40
0
 40
0
 40
0
 40
1
 40
1
 40
1
 40
1
 10
132.990120
 20
241.346543
 30
0.0
 10
132.781960
 20
242.284039
 30
0.0
 10
133.021720
 20
243.415246
 30
0.0
 10
134.606940
 20
243.485824
 30
0.0
  0
SPLINE
  5
190
100
AcDbEntity
  8
Layer_1
 62
7
100
AcDbSpline
 70
8
 71
3
 72
8
 73
4
 74
0
 40
0
 40
0
 40
0
 40
0
 40
1
 40
1
 40
1
 40
1
 10
134.606940
 20
243.485824
 30
0.0
 10
139.971520
 20
243.724732
 30
0.0
 10
142.379100
 20
247.962463
 30
0.0
 10
142.379100
 20
247.962463
 30
0.0
  0
LWPOLYLINE
  5
191
100
AcDbEntity
  8
Layer_1
 62
7
100
AcDbPolyline
 90
2
 70
0
 10
127.754760
 20
247.543110
 30
0.0
 10
127.754590
 20
247.543110
 30
0.0
  0
SPLINE
  5
192
100
AcDbEntity
  8
Layer_1
 62
7
100
AcDbSpline
 70
8
 71
3
 72
8
 73
4
 74
0
 40
0
 40
0
 40
0
 40
0
 40
1
 40
1
 40
1
 40
1
 10
134.710930
 20
260.508625
 30
0.0
 10
133.308800
 20
260.623755
 30
0.0
 10
132.922040
 20
261.467747
 30
0.0
 10
132.964630
 20
262.301902
 30
0.0
  0
SPLINE
  5
193
100
AcDbEntity
  8
Layer_1
 62
7
100
AcDbSpline
 70
8
 71
3
 72
8
 73
4
 74
0
 40
0
 40
0
 40
0
 40
0
 40
1
 40
1
 40
1
 40
1
 10
132.964630
 20
262.301902
 30
0.0
 10
133.006830
 20
263.128825
 30
0.0
 10
133.467180
 20
263.946971
 30
0.0
 10
134.643340
 20
263.838448
 30
0.0
  0
SPLINE
  5
194
100
AcDbEntity
  8
Layer_1
 62
7
100
AcDbSpline
 70
8
 71
3
 72
8
 73
4
 74
0
 40
0
 40
0
 40
0
 40
0
 40
1
 40
1
 40
1
 40
1
 10
134.643340
 20
263.838448
 30
0.0
 10
138.574930
 20
263.666948
 30
0.0
 10
142.039380
 20
263.067406
 30
0.0
 10
145.423510
 20
257.569031
 30
0.0
  0
SPLINE
  5
195
100
AcDbEntity
  8
Layer_1
 62
7
100
AcDbSpline
 70
8
 71
3
 72
8
 73
4
 74
0
 40
0
 40
0
 40
0
 40
0
 40
1
 40
1
 40
1
 40
1
 10
145.423510
 20
257.569031
 30
0.0
 10
145.808200
 20
256.943924
 30
0.0
 10
145.618200
 20
256.128572
 30
0.0
 10
145.134970
 20
255.685494
 30
0.0
  0
SPLINE
  5
196
100
AcDbEntity
  8
Layer_1
 62
7
100
AcDbSpline
 70
8
 71
3
 72
8
 73
4
 74
0
 40
0
 40
0
 40
0
 40
0
 40
1
 40
1
 40
1
 40
1
 10
145.134970
 20
255.685494
 30
0.0
 10
144.427160
 20
255.036489
 30
0.0
 10
143.327640
 20
254.678518
 30
0.0
 10
142.473880
 20
256.016065
 30
0.0
  0
SPLINE
  5
197
100
AcDbEntity
  8
Layer_1
 62
7
100
AcDbSpline
 70
8
 71
3
 72
8
 73
4
 74
0
 40
0
 40
0
 40
0
 40
0
 40
1
 40
1
 40
1
 40
1
 10
142.473880
 20
256.016065
 30
0.0
 10
139.584720
 20
260.542471
 30
0.0
 10
134.710830
 20
260.508462
 30
0.0
 10
134.710830
 20
260.508462
 30
0.0
  0
LWPOLYLINE
  5
198
100
AcDbEntity
  8
Layer_1
 62
7
100
AcDbPolyline
 90
1
 70
1
 10
142.379100
 20
247.962463
 30
0.0
  0
SPLINE
  5
199
100
AcDbEntity
  8
Layer_1
 62
7
100
AcDbSpline
 70
8
 71
3
 72
8
 73
4
 74
0
 40
0
 40
0
 40
0
 40
0
 40
1
 40
1
 40
1
 40
1
 10
102.931496
 20
241.449123
 30
0.0
 10
102.931496
 20
240.920032
 30
0.0
 10
102.647241
 20
240.431131
 30
0.0
 10
102.185808
 20
240.166586
 30
0.0
  0
SPLINE
  5
19a
100
AcDbEntity
  8
Layer_1
 62
7
100
AcDbSpline
 70
8
 71
3
 72
8
 73
4
 74
0
 40
0
 40
0
 40
0
 40
0
 40
1
 40
1
 40
1
 40
1
 10
102.185808
 20
240.166586
 30
0.0
 10
101.724375
 20
239.902040
 30
0.0
 10
101.155865
 20
239.902040
 30
0.0
 10
100.694432
 20
240.166586
 30
0.0
  0
SPLINE
  5
19b
100
AcDbEntity
  8
Layer_1
 62
7
100
AcDbSpline
 70
8
 71
3
 72
8
 73
4
 74
0
 40
0
 40
0
 40
0
 40
0
 40
1
 40
1
 40
1
 40
1
 10
100.694432
 20
240.166586
 30
0.0
 10
100.232999
 20
240.431131
 30
0.0
 10
99.948744
 20
240.920032
 30
0.0
 10
99.948744
 20
241.449123
 30
0.0
  0
SPLINE
  5
19c
100
AcDbEntity
  8
Layer_1
 62
7
100
AcDbSpline
 70
8
 71
3
 72
8
 73
4
 74
0
 40
0
 40
0
 40
0
 40
0
 40
1
 40
1
 40
1
 40
1
 10
99.948744
 20
241.449123
 30
0.0
 10
99.948744
 20
241.978214
 30
0.0
 10
100.232999
 20
242.467115
 30
0.0
 10
100.694432
 20
242.731660
 30
0.0
  0
SPLINE
  5
19d
100
AcDbEntity
  8
Layer_1
 62
7
100
AcDbSpline
 70
8
 71
3
 72
8
 73
4
 74
0
 40
0
 40
0
 40
0
 40
0
 40
1
 40
1
 40
1
 40
1
 10
100.694432
 20
242.731660
 30
0.0
 10
101.155865
 20
242.996206
 30
0.0
 10
101.724375
 20
242.996206
 30
0.0
 10
102.185808
 20
242.731660
 30
0.0
  0
SPLINE
  5
19e
100
AcDbEntity
  8
Layer_1
 62
7
100
AcDbSpline
 70
8
 71
3
 72
8
 73
4
 74
0
 40
0
 40
0
 40
0
 40
0
 40
1
 40
1
 40
1
 40
1
 10
102.185808
 20
242.731660
 30
0.0
 10
102.647241
 20
242.467115
 30
0.0
 10
102.931496
 20
241.978214
 30
0.0
 10
102.931496
 20
241.449123
 30
0.0
  0
LWPOLYLINE
  5
19f
100
AcDbEntity
  8
Layer_1
 62
7
100
AcDbPolyline
 90
2
 70
0
 10
134.710830
 20
260.508462
 30
0.0
 10
134.710930
 20
260.508625
 30
0.0
  0
SPLINE
  5
1a0
100
AcDbEntity
  8
Layer_1
 62
7
100
AcDbSpline
 70
8
 71
3
 72
8
 73
4
 74
0
 40
0
 40
0
 40
0
 40
0
 40
1
 40
1
 40
1
 40
1
 10
14.994842
 20
237.137014
 30
0.0
 10
-4.779170
 20
237.189964
 30
0.0
 10
-5.083782
 20
207.168434
 30
0.0
 10
14.928022
 20
207.173924
 30
0.0
  0
LWPOLYLINE
  5
1a1
100
AcDbEntity
  8
Layer_1
 62
7
100
AcDbPolyline
 90
1
 70
1
 10
102.931496
 20
241.449123
 30
0.0
  0
SPLINE
  5
1a2
100
AcDbEntity
  8
Layer_1
 62
7
100
AcDbSpline
 70
8
 71
3
 72
8
 73
4
 74
0
 40
0
 40
0
 40
0
 40
0
 40
1
 40
1
 40
1
 40
1
 10
136.502240
 20
207.207324
 30
0.0
 10
154.810210
 20
207.212324
 30
0.0
 10
154.761450
 20
236.983178
 30
0.0
 10
136.415240
 20
237.003370
 30
0.0
  0
LWPOLYLINE
  5
1a3
100
AcDbEntity
  8
Layer_1
 62
7
100
AcDbPolyline
 90
2
 70
0
 10
14.928022
 20
207.173924
 30
0.0
 10
136.502240
 20
207.207324
 30
0.0
  0
SPLINE
  5
1a4
100
AcDbEntity
  8
Layer_1
 62
7
100
AcDbSpline
 70
8
 71
3
 72
8
 73
4
 74
0
 40
0
 40
0
 40
0
 40
0
 40
1
 40
1
 40
1
 40
1
 10
10.900300
 20
228.717766
 30
0.0
 10
10.900300
 20
228.188675
 30
0.0
 10
10.616045
 20
227.699774
 30
0.0
 10
10.154612
 20
227.435229
 30
0.0
  0
SPLINE
  5
1a5
100
AcDbEntity
  8
Layer_1
 62
7
100
AcDbSpline
 70
8
 71
3
 72
8
 73
4
 74
0
 40
0
 40
0
 40
0
 40
0
 40
1
 40
1
 40
1
 40
1
 10
10.154612
 20
227.435229
 30
0.0
 10
9.693179
 20
227.170683
 30
0.0
 10
9.124669
 20
227.170683
 30
0.0
 10
8.663236
 20
227.435229
 30
0.0
  0
SPLINE
  5
1a6
100
AcDbEntity
  8
Layer_1
 62
7
100
AcDbSpline
 70
8
 71
3
 72
8
 73
4
 74
0
 40
0
 40
0
 40
0
 40
0
 40
1
 40
1
 40
1
 40
1
 10
8.663236
 20
227.435229
 30
0.0
 10
8.201803
 20
227.699774
 30
0.0
 10
7.917548
 20
228.188675
 30
0.0
 10
7.917548
 20
228.717766
 30
0.0
  0
SPLINE
  5
1a7
100
AcDbEntity
  8
Layer_1
 62
7
100
AcDbSpline
 70
8
 71
3
 72
8
 73
4
 74
0
 40
0
 40
0
 40
0
 40
0
 40
1
 40
1
 40
1
 40
1
 10
7.917548
 20
228.717766
 30
0.0
 10
7.917548
 20
229.246857
 30
0.0
 10
8.201803
 20
229.735758
 30
0.0
 10
8.663236
 20
230.000303
 30
0.0
  0
SPLINE
  5
1a8
100
AcDbEntity
  8
Layer_1
 62
7
100
AcDbSpline
 70
8
 71
3
 72
8
 73
4
 74
0
 40
0
 40
0
 40
0
 40
0
 40
1
 40
1
 40
1
 40
1
 10
8.663236
 20
230.000303
 30
0.0
 10
9.124669
 20
230.264849
 30
0.0
 10
9.693179
 20
230.264849
 30
0.0
 10
10.154612
 20
230.000303
 30
0.0
  0
SPLINE
  5
1a9
100
AcDbEntity
  8
Layer_1
 62
7
100
AcDbSpline
 70
8
 71
3
 72
8
 73
4
 74
0
 40
0
 40
0
 40
0
 40
0
 40
1
 40
1
 40
1
 40
1
 10
10.154612
 20
230.000303
 30
0.0
 10
10.616045
 20
229.735758
 30
0.0
 10
10.900300
 20
229.246857
 30
0.0
 10
10.900300
 20
228.717766
 30
0.0
  0
LWPOLYLINE
  5
1aa
100
AcDbEntity
  8
Layer_1
 62
7
100
AcDbPolyline
 90
2
 70
0
 10
136.415240
 20
237.003370
 30
0.0
 10
14.994842
 20
237.137014
 30
0.0
  0
SPLINE
  5
1ab
100
AcDbEntity
  8
Layer_1
 62
7
100
AcDbSpline
 70
8
 71
3
 72
8
 73
4
 74
0
 40
0
 40
0
 40
0
 40
0
 40
1
 40
1
 40
1
 40
1
 10
24.862851
 20
223.740128
 30
0.0
 10
24.862851
 20
222.922224
 30
0.0
 10
24.195139
 20
222.259181
 30
0.0
 10
23.371475
 20
222.259181
 30
0.0
  0
SPLINE
  5
1ac
100
AcDbEntity
  8
Layer_1
 62
7
100
AcDbSpline
 70
8
 71
3
 72
8
 73
4
 74
0
 40
0
 40
0
 40
0
 40
0
 40
1
 40
1
 40
1
 40
1
 10
23.371475
 20
222.259181
 30
0.0
 10
22.547811
 20
222.259181
 30
0.0
 10
21.880099
 20
222.922224
 30
0.0
 10
21.880099
 20
223.740128
 30
0.0
  0
SPLINE
  5
1ad
100
AcDbEntity
  8
Layer_1
 62
7
100
AcDbSpline
 70
8
 71
3
 72
8
 73
4
 74
0
 40
0
 40
0
 40
0
 40
0
 40
1
 40
1
 40
1
 40
1
 10
21.880099
 20
223.740128
 30
0.0
 10
21.880099
 20
224.269219
 30
0.0
 10
22.164354
 20
224.758120
 30
0.0
 10
22.625787
 20
225.022665
 30
0.0
  0
SPLINE
  5
1ae
100
AcDbEntity
  8
Layer_1
 62
7
100
AcDbSpline
 70
8
 71
3
 72
8
 73
4
 74
0
 40
0
 40
0
 40
0
 40
0
 40
1
 40
1
 40
1
 40
1
 10
22.625787
 20
225.022665
 30
0.0
 10
23.087220
 20
225.287211
 30
0.0
 10
23.655730
 20
225.287211
 30
0.0
 10
24.117163
 20
225.022665
 30
0.0
  0
SPLINE
  5
1af
100
AcDbEntity
  8
Layer_1
 62
7
100
AcDbSpline
 70
8
 71
3
 72
8
 73
4
 74
0
 40
0
 40
0
 40
0
 40
0
 40
1
 40
1
 40
1
 40
1
 10
24.117163
 20
225.022665
 30
0.0
 10
24.578596
 20
224.758120
 30
0.0
 10
24.862851
 20
224.269219
 30
0.0
 10
24.862851
 20
223.740128
 30
0.0
  0
LWPOLYLINE
  5
1b0
100
AcDbEntity
  8
Layer_1
 62
7
100
AcDbPolyline
 90
1
 70
1
 10
10.900300
 20
228.717766
 30
0.0
  0
SPLINE
  5
1b1
100
AcDbEntity
  8
Layer_1
 62
7
100
AcDbSpline
 70
8
 71
3
 72
8
 73
4
 74
0
 40
0
 40
0
 40
0
 40
0
 40
1
 40
1
 40
1
 40
1
 10
13.568793
 20
214.142868
 30
0.0
 10
13.568793
 20
213.613777
 30
0.0
 10
13.284538
 20
213.124876
 30
0.0
 10
12.823105
 20
212.860331
 30
0.0
  0
SPLINE
  5
1b2
100
AcDbEntity
  8
Layer_1
 62
7
100
AcDbSpline
 70
8
 71
3
 72
8
 73
4
 74
0
 40
0
 40
0
 40
0
 40
0
 40
1
 40
1
 40
1
 40
1
 10
12.823105
 20
212.860331
 30
0.0
 10
12.361672
 20
212.595785
 30
0.0
 10
11.793162
 20
212.595785
 30
0.0
 10
11.331729
 20
212.860331
 30
0.0
  0
SPLINE
  5
1b3
100
AcDbEntity
  8
Layer_1
 62
7
100
AcDbSpline
 70
8
 71
3
 72
8
 73
4
 74
0
 40
0
 40
0
 40
0
 40
0
 40
1
 40
1
 40
1
 40
1
 10
11.331729
 20
212.860331
 30
0.0
 10
10.870296
 20
213.124876
 30
0.0
 10
10.586041
 20
213.613777
 30
0.0
 10
10.586041
 20
214.142868
 30
0.0
  0
SPLINE
  5
1b4
100
AcDbEntity
  8
Layer_1
 62
7
100
AcDbSpline
 70
8
 71
3
 72
8
 73
4
 74
0
 40
0
 40
0
 40
0
 40
0
 40
1
 40
1
 40
1
 40
1
 10
10.586041
 20
214.142868
 30
0.0
 10
10.586041
 20
214.960772
 30
0.0
 10
11.253753
 20
215.623815
 30
0.0
 10
12.077417
 20
215.623815
 30
0.0
  0
SPLINE
  5
1b5
100
AcDbEntity
  8
Layer_1
 62
7
100
AcDbSpline
 70
8
 71
3
 72
8
 73
4
 74
0
 40
0
 40
0
 40
0
 40
0
 40
1
 40
1
 40
1
 40
1
 10
12.077417
 20
215.623815
 30
0.0
 10
12.901081
 20
215.623815
 30
0.0
 10
13.568793
 20
214.960772
 30
0.0
 10
13.568793
 20
214.142868
 30
0.0
  0
LWPOLYLINE
  5
1b6
100
AcDbEntity
  8
Layer_1
 62
7
100
AcDbPolyline
 90
1
 70
1
 10
24.862851
 20
223.740128
 30
0.0
  0
SPLINE
  5
1b7
100
AcDbEntity
  8
Layer_1
 62
7
100
AcDbSpline
 70
8
 71
3
 72
8
 73
4
 74
0
 40
0
 40
0
 40
0
 40
0
 40
1
 40
1
 40
1
 40
1
 10
33.081813
 20
211.508842
 30
0.0
 10
33.081813
 20
210.690938
 30
0.0
 10
32.414101
 20
210.027895
 30
0.0
 10
31.590437
 20
210.027895
 30
0.0
  0
SPLINE
  5
1b8
100
AcDbEntity
  8
Layer_1
 62
7
100
AcDbSpline
 70
8
 71
3
 72
8
 73
4
 74
0
 40
0
 40
0
 40
0
 40
0
 40
1
 40
1
 40
1
 40
1
 10
31.590437
 20
210.027895
 30
0.0
 10
30.766773
 20
210.027895
 30
0.0
 10
30.099061
 20
210.690938
 30
0.0
 10
30.099061
 20
211.508842
 30
0.0
  0
SPLINE
  5
1b9
100
AcDbEntity
  8
Layer_1
 62
7
100
AcDbSpline
 70
8
 71
3
 72
8
 73
4
 74
0
 40
0
 40
0
 40
0
 40
0
 40
1
 40
1
 40
1
 40
1
 10
30.099061
 20
211.508842
 30
0.0
 10
30.099061
 20
212.326746
 30
0.0
 10
30.766773
 20
212.989789
 30
0.0
 10
31.590437
 20
212.989789
 30
0.0
  0
SPLINE
  5
1ba
100
AcDbEntity
  8
Layer_1
 62
7
100
AcDbSpline
 70
8
 71
3
 72
8
 73
4
 74
0
 40
0
 40
0
 40
0
 40
0
 40
1
 40
1
 40
1
 40
1
 10
31.590437
 20
212.989789
 30
0.0
 10
32.414101
 20
212.989789
 30
0.0
 10
33.081813
 20
212.326746
 30
0.0
 10
33.081813
 20
211.508842
 30
0.0
  0
LWPOLYLINE
  5
1bb
100
AcDbEntity
  8
Layer_1
 62
7
100
AcDbPolyline
 90
1
 70
1
 10
13.568793
 20
214.142868
 30
0.0
  0
SPLINE
  5
1bc
100
AcDbEntity
  8
Layer_1
 62
7
100
AcDbSpline
 70
8
 71
3
 72
8
 73
4
 74
0
 40
0
 40
0
 40
0
 40
0
 40
1
 40
1
 40
1
 40
1
 10
67.926496
 20
211.508842
 30
0.0
 10
67.926496
 20
210.979751
 30
0.0
 10
67.642241
 20
210.490850
 30
0.0
 10
67.180808
 20
210.226305
 30
0.0
  0
SPLINE
  5
1bd
100
AcDbEntity
  8
Layer_1
 62
7
100
AcDbSpline
 70
8
 71
3
 72
8
 73
4
 74
0
 40
0
 40
0
 40
0
 40
0
 40
1
 40
1
 40
1
 40
1
 10
67.180808
 20
210.226305
 30
0.0
 10
66.719375
 20
209.961759
 30
0.0
 10
66.150865
 20
209.961759
 30
0.0
 10
65.689432
 20
210.226305
 30
0.0
  0
SPLINE
  5
1be
100
AcDbEntity
  8
Layer_1
 62
7
100
AcDbSpline
 70
8
 71
3
 72
8
 73
4
 74
0
 40
0
 40
0
 40
0
 40
0
 40
1
 40
1
 40
1
 40
1
 10
65.689432
 20
210.226305
 30
0.0
 10
65.227999
 20
210.490850
 30
0.0
 10
64.943744
 20
210.979751
 30
0.0
 10
64.943744
 20
211.508842
 30
0.0
  0
SPLINE
  5
1bf
100
AcDbEntity
  8
Layer_1
 62
7
100
AcDbSpline
 70
8
 71
3
 72
8
 73
4
 74
0
 40
0
 40
0
 40
0
 40
0
 40
1
 40
1
 40
1
 40
1
 10
64.943744
 20
211.508842
 30
0.0
 10
64.943744
 20
212.037933
 30
0.0
 10
65.227999
 20
212.526834
 30
0.0
 10
65.689432
 20
212.791379
 30
0.0
  0
SPLINE
  5
1c0
100
AcDbEntity
  8
Layer_1
 62
7
100
AcDbSpline
 70
8
 71
3
 72
8
 73
4
 74
0
 40
0
 40
0
 40
0
 40
0
 40
1
 40
1
 40
1
 40
1
 10
65.689432
 20
212.791379
 30
0.0
 10
66.150865
 20
213.055925
 30
0.0
 10
66.719375
 20
213.055925
 30
0.0
 10
67.180808
 20
212.791379
 30
0.0
  0
SPLINE
  5
1c1
100
AcDbEntity
  8
Layer_1
 62
7
100
AcDbSpline
 70
8
 71
3
 72
8
 73
4
 74
0
 40
0
 40
0
 40
0
 40
0
 40
1
 40
1
 40
1
 40
1
 10
67.180808
 20
212.791379
 30
0.0
 10
67.642241
 20
212.526834
 30
0.0
 10
67.926496
 20
212.037933
 30
0.0
 10
67.926496
 20
211.508842
 30
0.0
  0
LWPOLYLINE
  5
1c2
100
AcDbEntity
  8
Layer_1
 62
7
100
AcDbPolyline
 90
1
 70
1
 10
33.081813
 20
211.508842
 30
0.0
  0
SPLINE
  5
1c3
100
AcDbEntity
  8
Layer_1
 62
7
100
AcDbSpline
 70
8
 71
3
 72
8
 73
4
 74
0
 40
0
 40
0
 40
0
 40
0
 40
1
 40
1
 40
1
 40
1
 10
135.845676
 20
223.633892
 30
0.0
 10
136.376711
 20
223.327299
 30
0.0
 10
136.702691
 20
222.758696
 30
0.0
 10
136.700821
 20
222.142270
 30
0.0
  0
SPLINE
  5
1c4
100
AcDbEntity
  8
Layer_1
 62
7
100
AcDbSpline
 70
8
 71
3
 72
8
 73
4
 74
0
 40
0
 40
0
 40
0
 40
0
 40
1
 40
1
 40
1
 40
1
 10
136.700821
 20
222.142270
 30
0.0
 10
136.698951
 20
221.525844
 30
0.0
 10
136.369516
 20
220.955246
 30
0.0
 10
135.836610
 20
220.645414
 30
0.0
  0
SPLINE
  5
1c5
100
AcDbEntity
  8
Layer_1
 62
7
100
AcDbSpline
 70
8
 71
3
 72
8
 73
4
 74
0
 40
0
 40
0
 40
0
 40
0
 40
1
 40
1
 40
1
 40
1
 10
135.836610
 20
220.645414
 30
0.0
 10
135.303705
 20
220.335582
 30
0.0
 10
134.648291
 20
220.333587
 30
0.0
 10
134.117255
 20
220.640180
 30
0.0
  0
SPLINE
  5
1c6
100
AcDbEntity
  8
Layer_1
 62
7
100
AcDbSpline
 70
8
 71
3
 72
8
 73
4
 74
0
 40
0
 40
0
 40
0
 40
0
 40
1
 40
1
 40
1
 40
1
 10
134.117255
 20
220.640180
 30
0.0
 10
133.586220
 20
220.946774
 30
0.0
 10
133.260240
 20
221.515377
 30
0.0
 10
133.262110
 20
222.131802
 30
0.0
  0
SPLINE
  5
1c7
100
AcDbEntity
  8
Layer_1
 62
7
100
AcDbSpline
 70
8
 71
3
 72
8
 73
4
 74
0
 40
0
 40
0
 40
0
 40
0
 40
1
 40
1
 40
1
 40
1
 10
133.262110
 20
222.131802
 30
0.0
 10
133.263980
 20
222.748228
 30
0.0
 10
133.593415
 20
223.318826
 30
0.0
 10
134.126320
 20
223.628659
 30
0.0
  0
SPLINE
  5
1c8
100
AcDbEntity
  8
Layer_1
 62
7
100
AcDbSpline
 70
8
 71
3
 72
8
 73
4
 74
0
 40
0
 40
0
 40
0
 40
0
 40
1
 40
1
 40
1
 40
1
 10
134.126320
 20
223.628659
 30
0.0
 10
134.659226
 20
223.938491
 30
0.0
 10
135.314640
 20
223.940486
 30
0.0
 10
135.845676
 20
223.633892
 30
0.0
  0
LWPOLYLINE
  5
1c9
100
AcDbEntity
  8
Layer_1
 62
7
100
AcDbPolyline
 90
1
 70
1
 10
67.926496
 20
211.508842
 30
0.0
  0
LWPOLYLINE
  5
1ca
100
AcDbEntity
  8
Layer_1
 62
7
100
AcDbPolyline
 90
1
 70
1
 10
135.845676
 20
223.633892
 30
0.0
  0
SPLINE
  5
1cb
100
AcDbEntity
  8
Layer_1
 62
7
100
AcDbSpline
 70
8
 71
3
 72
8
 73
4
 74
0
 40
0
 40
0
 40
0
 40
0
 40
1
 40
1
 40
1
 40
1
 10
17.612093
 20
222.208389
 30
0.0
 10
17.612093
 20
220.749556
 30
0.0
 10
16.421147
 20
219.566938
 30
0.0
 10
14.952040
 20
219.566938
 30
0.0
  0
SPLINE
  5
1cc
100
AcDbEntity
  8
Layer_1
 62
7
100
AcDbSpline
 70
8
 71
3
 72
8
 73
4
 74
0
 40
0
 40
0
 40
0
 40
0
 40
1
 40
1
 40
1
 40
1
 10
14.952040
 20
219.566938
 30
0.0
 10
13.482933
 20
219.566938
 30
0.0
 10
12.291987
 20
220.749556
 30
0.0
 10
12.291987
 20
222.208389
 30
0.0
  0
SPLINE
  5
1cd
100
AcDbEntity
  8
Layer_1
 62
7
100
AcDbSpline
 70
8
 71
3
 72
8
 73
4
 74
0
 40
0
 40
0
 40
0
 40
0
 40
1
 40
1
 40
1
 40
1
 10
12.291987
 20
222.208389
 30
0.0
 10
12.291987
 20
223.152089
 30
0.0
 10
12.798990
 20
224.024103
 30
0.0
 10
13.622014
 20
224.495953
 30
0.0
  0
SPLINE
  5
1ce
100
AcDbEntity
  8
Layer_1
 62
7
100
AcDbSpline
 70
8
 71
3
 72
8
 73
4
 74
0
 40
0
 40
0
 40
0
 40
0
 40
1
 40
1
 40
1
 40
1
 10
13.622014
 20
224.495953
 30
0.0
 10
14.445037
 20
224.967803
 30
0.0
 10
15.459043
 20
224.967803
 30
0.0
 10
16.282067
 20
224.495953
 30
0.0
  0
SPLINE
  5
1cf
100
AcDbEntity
  8
Layer_1
 62
7
100
AcDbSpline
 70
8
 71
3
 72
8
 73
4
 74
0
 40
0
 40
0
 40
0
 40
0
 40
1
 40
1
 40
1
 40
1
 10
16.282067
 20
224.495953
 30
0.0
 10
17.105090
 20
224.024103
 30
0.0
 10
17.612093
 20
223.152089
 30
0.0
 10
17.612093
 20
222.208389
 30
0.0
  0
LWPOLYLINE
  5
1d0
100
AcDbEntity
  8
Layer_1
 62
7
100
AcDbPolyline
 90
7
 70
1
 10
18.916187
 20
232.648354
 30
0.0
 10
19.901743
 20
230.902118
 30
0.0
 10
20.503100
 20
230.902118
 30
0.0
 10
21.705813
 20
232.827792
 30
0.0
 10
21.400958
 20
233.449259
 30
0.0
 10
19.287859
 20
233.475519
 30
0.0
 10
18.916187
 20
233.129773
 30
0.0
  0
SPLINE
  5
1d1
100
AcDbEntity
  8
Layer_1
 62
7
100
AcDbSpline
 70
8
 71
3
 72
8
 73
4
 74
0
 40
0
 40
0
 40
0
 40
0
 40
1
 40
1
 40
1
 40
1
 10
127.754590
 20
217.639945
 30
0.0
 10
128.355930
 20
216.368098
 30
0.0
 10
127.818390
 20
215.611163
 30
0.0
 10
127.074700
 20
215.230970
 30
0.0
  0
SPLINE
  5
1d2
100
AcDbEntity
  8
Layer_1
 62
7
100
AcDbSpline
 70
8
 71
3
 72
8
 73
4
 74
0
 40
0
 40
0
 40
0
 40
0
 40
1
 40
1
 40
1
 40
1
 10
127.074700
 20
215.230970
 30
0.0
 10
126.337460
 20
214.854091
 30
0.0
 10
125.398740
 20
214.843659
 30
0.0
 10
124.904660
 20
215.916509
 30
0.0
  0
SPLINE
  5
1d3
100
AcDbEntity
  8
Layer_1
 62
7
100
AcDbSpline
 70
8
 71
3
 72
8
 73
4
 74
0
 40
0
 40
0
 40
0
 40
0
 40
1
 40
1
 40
1
 40
1
 10
124.904660
 20
215.916509
 30
0.0
 10
123.087390
 20
219.407109
 30
0.0
 10
121.874390
 20
222.707167
 30
0.0
 10
124.944060
 20
228.387115
 30
0.0
  0
SPLINE
  5
1d4
100
AcDbEntity
  8
Layer_1
 62
7
100
AcDbSpline
 70
8
 71
3
 72
8
 73
4
 74
0
 40
0
 40
0
 40
0
 40
0
 40
1
 40
1
 40
1
 40
1
 10
124.944060
 20
228.387115
 30
0.0
 10
125.293030
 20
229.032826
 30
0.0
 10
126.094150
 20
229.275945
 30
0.0
 10
126.719480
 20
229.078990
 30
0.0
  0
SPLINE
  5
1d5
100
AcDbEntity
  8
Layer_1
 62
7
100
AcDbSpline
 70
8
 71
3
 72
8
 73
4
 74
0
 40
0
 40
0
 40
0
 40
0
 40
1
 40
1
 40
1
 40
1
 10
126.719480
 20
229.078990
 30
0.0
 10
127.635460
 20
228.790514
 30
0.0
 10
128.495230
 20
228.017279
 30
0.0
 10
127.763760
 20
226.609142
 30
0.0
  0
SPLINE
  5
1d6
100
AcDbEntity
  8
Layer_1
 62
7
100
AcDbSpline
 70
8
 71
3
 72
8
 73
4
 74
0
 40
0
 40
0
 40
0
 40
0
 40
1
 40
1
 40
1
 40
1
 10
127.763760
 20
226.609142
 30
0.0
 10
125.288360
 20
221.843842
 30
0.0
 10
127.754760
 20
217.639945
 30
0.0
 10
127.754760
 20
217.639945
 30
0.0
  0
LWPOLYLINE
  5
1d7
100
AcDbEntity
  8
Layer_1
 62
7
100
AcDbPolyline
 90
1
 70
1
 10
17.612093
 20
222.208389
 30
0.0
  0
SPLINE
  5
1d8
100
AcDbEntity
  8
Layer_1
 62
7
100
AcDbSpline
 70
8
 71
3
 72
8
 73
4
 74
0
 40
0
 40
0
 40
0
 40
0
 40
1
 40
1
 40
1
 40
1
 10
142.379070
 20
218.059311
 30
0.0
 10
143.179860
 20
219.215989
 30
0.0
 10
144.104130
 20
219.128969
 30
0.0
 10
144.805270
 20
218.675003
 30
0.0
  0
SPLINE
  5
1d9
100
AcDbEntity
  8
Layer_1
 62
7
100
AcDbSpline
 70
8
 71
3
 72
8
 73
4
 74
0
 40
0
 40
0
 40
0
 40
0
 40
1
 40
1
 40
1
 40
1
 10
144.805270
 20
218.675003
 30
0.0
 10
145.500280
 20
218.225003
 30
0.0
 10
145.978660
 20
217.417236
 30
0.0
 10
145.296590
 20
216.452917
 30
0.0
  0
SPLINE
  5
1da
100
AcDbEntity
  8
Layer_1
 62
7
100
AcDbSpline
 70
8
 71
3
 72
8
 73
4
 74
0
 40
0
 40
0
 40
0
 40
0
 40
1
 40
1
 40
1
 40
1
 10
145.296590
 20
216.452917
 30
0.0
 10
143.182290
 20
213.133812
 30
0.0
 10
140.930830
 20
210.433286
 30
0.0
 10
134.477010
 20
210.251740
 30
0.0
  0
SPLINE
  5
1db
100
AcDbEntity
  8
Layer_1
 62
7
100
AcDbSpline
 70
8
 71
3
 72
8
 73
4
 74
0
 40
0
 40
0
 40
0
 40
0
 40
1
 40
1
 40
1
 40
1
 10
134.477010
 20
210.251740
 30
0.0
 10
133.743310
 20
210.231080
 30
0.0
 10
133.132230
 20
210.803372
 30
0.0
 10
132.990120
 20
211.443378
 30
0.0
  0
SPLINE
  5
1dc
100
AcDbEntity
  8
Layer_1
 62
7
100
AcDbSpline
 70
8
 71
3
 72
8
 73
4
 74
0
 40
0
 40
0
 40
0
 40
0
 40
1
 40
1
 40
1
 40
1
 10
132.990120
 20
211.443378
 30
0.0
 10
132.781960
 20
212.380874
 30
0.0
 10
133.021720
 20
213.512081
 30
0.0
 10
134.606940
 20
213.582659
 30
0.0
  0
SPLINE
  5
1dd
100
AcDbEntity
  8
Layer_1
 62
7
100
AcDbSpline
 70
8
 71
3
 72
8
 73
4
 74
0
 40
0
 40
0
 40
0
 40
0
 40
1
 40
1
 40
1
 40
1
 10
134.606940
 20
213.582659
 30
0.0
 10
139.971530
 20
213.821567
 30
0.0
 10
142.379110
 20
218.059298
 30
0.0
 10
142.379110
 20
218.059298
 30
0.0
  0
LWPOLYLINE
  5
1de
100
AcDbEntity
  8
Layer_1
 62
7
100
AcDbPolyline
 90
2
 70
0
 10
127.754760
 20
217.639945
 30
0.0
 10
127.754590
 20
217.639945
 30
0.0
  0
SPLINE
  5
1df
100
AcDbEntity
  8
Layer_1
 62
7
100
AcDbSpline
 70
8
 71
3
 72
8
 73
4
 74
0
 40
0
 40
0
 40
0
 40
0
 40
1
 40
1
 40
1
 40
1
 10
134.710940
 20
230.605460
 30
0.0
 10
133.308800
 20
230.720590
 30
0.0
 10
132.922040
 20
231.564582
 30
0.0
 10
132.964630
 20
232.398737
 30
0.0
  0
SPLINE
  5
1e0
100
AcDbEntity
  8
Layer_1
 62
7
100
AcDbSpline
 70
8
 71
3
 72
8
 73
4
 74
0
 40
0
 40
0
 40
0
 40
0
 40
1
 40
1
 40
1
 40
1
 10
132.964630
 20
232.398737
 30
0.0
 10
133.006830
 20
233.225660
 30
0.0
 10
133.467180
 20
234.043806
 30
0.0
 10
134.643340
 20
233.935283
 30
0.0
  0
SPLINE
  5
1e1
100
AcDbEntity
  8
Layer_1
 62
7
100
AcDbSpline
 70
8
 71
3
 72
8
 73
4
 74
0
 40
0
 40
0
 40
0
 40
0
 40
1
 40
1
 40
1
 40
1
 10
134.643340
 20
233.935283
 30
0.0
 10
138.574940
 20
233.763783
 30
0.0
 10
142.039390
 20
233.164241
 30
0.0
 10
145.423520
 20
227.665866
 30
0.0
  0
SPLINE
  5
1e2
100
AcDbEntity
  8
Layer_1
 62
7
100
AcDbSpline
 70
8
 71
3
 72
8
 73
4
 74
0
 40
0
 40
0
 40
0
 40
0
 40
1
 40
1
 40
1
 40
1
 10
145.423520
 20
227.665866
 30
0.0
 10
145.808210
 20
227.040759
 30
0.0
 10
145.618210
 20
226.225407
 30
0.0
 10
145.134980
 20
225.782329
 30
0.0
  0
SPLINE
  5
1e3
100
AcDbEntity
  8
Layer_1
 62
7
100
AcDbSpline
 70
8
 71
3
 72
8
 73
4
 74
0
 40
0
 40
0
 40
0
 40
0
 40
1
 40
1
 40
1
 40
1
 10
145.134980
 20
225.782329
 30
0.0
 10
144.427170
 20
225.133324
 30
0.0
 10
143.327650
 20
224.775353
 30
0.0
 10
142.473890
 20
226.112900
 30
0.0
  0
SPLINE
  5
1e4
100
AcDbEntity
  8
Layer_1
 62
7
100
AcDbSpline
 70
8
 71
3
 72
8
 73
4
 74
0
 40
0
 40
0
 40
0
 40
0
 40
1
 40
1
 40
1
 40
1
 10
142.473890
 20
226.112900
 30
0.0
 10
139.584730
 20
230.639306
 30
0.0
 10
134.710840
 20
230.605297
 30
0.0
 10
134.710840
 20
230.605297
 30
0.0
  0
LWPOLYLINE
  5
1e5
100
AcDbEntity
  8
Layer_1
 62
7
100
AcDbPolyline
 90
1
 70
1
 10
142.379110
 20
218.059298
 30
0.0
  0
SPLINE
  5
1e6
100
AcDbEntity
  8
Layer_1
 62
7
100
AcDbSpline
 70
8
 71
3
 72
8
 73
4
 74
0
 40
0
 40
0
 40
0
 40
0
 40
1
 40
1
 40
1
 40
1
 10
102.931496
 20
211.545959
 30
0.0
 10
102.931496
 20
211.016868
 30
0.0
 10
102.647241
 20
210.527967
 30
0.0
 10
102.185808
 20
210.263422
 30
0.0
  0
SPLINE
  5
1e7
100
AcDbEntity
  8
Layer_1
 62
7
100
AcDbSpline
 70
8
 71
3
 72
8
 73
4
 74
0
 40
0
 40
0
 40
0
 40
0
 40
1
 40
1
 40
1
 40
1
 10
102.185808
 20
210.263422
 30
0.0
 10
101.724375
 20
209.998876
 30
0.0
 10
101.155865
 20
209.998876
 30
0.0
 10
100.694432
 20
210.263422
 30
0.0
  0
SPLINE
  5
1e8
100
AcDbEntity
  8
Layer_1
 62
7
100
AcDbSpline
 70
8
 71
3
 72
8
 73
4
 74
0
 40
0
 40
0
 40
0
 40
0
 40
1
 40
1
 40
1
 40
1
 10
100.694432
 20
210.263422
 30
0.0
 10
100.232999
 20
210.527967
 30
0.0
 10
99.948744
 20
211.016868
 30
0.0
 10
99.948744
 20
211.545959
 30
0.0
  0
SPLINE
  5
1e9
100
AcDbEntity
  8
Layer_1
 62
7
100
AcDbSpline
 70
8
 71
3
 72
8
 73
4
 74
0
 40
0
 40
0
 40
0
 40
0
 40
1
 40
1
 40
1
 40
1
 10
99.948744
 20
211.545959
 30
0.0
 10
99.948744
 20
212.075050
 30
0.0
 10
100.232999
 20
212.563951
 30
0.0
 10
100.694432
 20
212.828496
 30
0.0
  0
SPLINE
  5
1ea
100
AcDbEntity
  8
Layer_1
 62
7
100
AcDbSpline
 70
8
 71
3
 72
8
 73
4
 74
0
 40
0
 40
0
 40
0
 40
0
 40
1
 40
1
 40
1
 40
1
 10
100.694432
 20
212.828496
 30
0.0
 10
101.155865
 20
213.093042
 30
0.0
 10
101.724375
 20
213.093042
 30
0.0
 10
102.185808
 20
212.828496
 30
0.0
  0
SPLINE
  5
1eb
100
AcDbEntity
  8
Layer_1
 62
7
100
AcDbSpline
 70
8
 71
3
 72
8
 73
4
 74
0
 40
0
 40
0
 40
0
 40
0
 40
1
 40
1
 40
1
 40
1
 10
102.185808
 20
212.828496
 30
0.0
 10
102.647241
 20
212.563951
 30
0.0
 10
102.931496
 20
212.075050
 30
0.0
 10
102.931496
 20
211.545959
 30
0.0
  0
LWPOLYLINE
  5
1ec
100
AcDbEntity
  8
Layer_1
 62
7
100
AcDbPolyline
 90
2
 70
0
 10
134.710840
 20
230.605297
 30
0.0
 10
134.710940
 20
230.605460
 30
0.0
  0
LWPOLYLINE
  5
1ed
100
AcDbEntity
  8
Layer_1
 62
7
100
AcDbPolyline
 90
1
 70
1
 10
102.931496
 20
211.545959
 30
0.0
  0
ENDSEC
  0
SECTION
  2
OBJECTS
  0
DICTIONARY
  5
C
330
0
100
AcDbDictionary
  3
ACAD_GROUP
350
D
  3
ACAD_MLINESTYLE
350
17
  0
DICTIONARY
  5
D
330
C
100
AcDbDictionary
  0
DICTIONARY
  5
1A
330
C
100
AcDbDictionary
  0
DICTIONARY
  5
17
330
C
100
AcDbDictionary
  3
STANDARD
350
18
  0
DICTIONARY
  5
19
330
C
100
AcDbDictionary
  0
ENDSEC
  0
EOF
